<svg width="24" height="24" viewBox="0 0 24 24" fill="none" xmlns="http://www.w3.org/2000/svg">
<path d="M23.6433 14.8962C22.042 21.3208 15.5349 25.244 9.0985 23.6417C2.67383 22.0356 -1.24298 15.5285 0.358284 9.1038C1.95955 2.67916 8.46271 -1.24396 14.8835 0.358273C21.3238 1.94087 25.2406 8.46762 23.6433 14.8962Z" fill="#213147"/>
<path d="M4.556 8.59321V15.6485C4.556 16.081 4.80757 16.5134 5.16938 16.7283L11.289 20.2559C11.6848 20.4707 12.154 20.4707 12.5497 20.2559L18.6694 16.7283C19.0651 16.5134 19.2828 16.081 19.2828 15.6485V8.59321C19.2828 8.16074 19.0312 7.72826 18.6694 7.51344L12.5469 3.9858C12.1512 3.77098 11.6819 3.77098 11.2862 3.9858L5.16655 7.51344C4.77083 7.72826 4.556 8.16074 4.556 8.59321Z" fill="#213147"/>
<path d="M14.7064 9.45816C14.78 9.314 14.958 9.314 14.9948 9.45816L18.0165 17.7741L16.2893 18.7832L13.8415 12.0502C13.8048 11.9795 13.8048 11.906 13.8415 11.8354L14.7064 9.45816Z" fill="#12AAFF"/>
<path d="M12.4027 15.8661L13.2677 13.4889C13.3383 13.3448 13.5192 13.3448 13.5532 13.4889L15.642 19.1761L13.915 20.1852L12.4027 16.081C12.366 16.0103 12.366 15.9368 12.4027 15.8661Z" fill="#12AAFF"/>
<path d="M11.8996 4.23737C11.9363 4.23737 11.9703 4.23737 12.007 4.27412L18.6298 8.09007C18.7005 8.12682 18.7372 8.19748 18.7372 8.30489V15.9368C18.7372 16.0075 18.7005 16.1177 18.6298 16.1516L12.007 19.9676C11.9703 20.0043 11.9363 20.0043 11.8996 20.0043C11.8628 20.0043 11.8289 20.0043 11.7922 19.9676L5.16937 16.1516C5.0987 16.1149 5.06196 16.0442 5.06196 15.9368V8.30489C5.06196 8.23423 5.0987 8.12399 5.16937 8.09007L11.7922 4.27412C11.8261 4.23737 11.8628 4.23737 11.8996 4.23737ZM11.8996 3.12085C11.648 3.12085 11.4304 3.19152 11.2155 3.30175L4.59274 7.11771C4.16026 7.36928 3.90869 7.80175 3.90869 8.30489V15.9368C3.90869 16.406 4.16026 16.8724 4.59274 17.124L11.2155 20.9399C11.4304 21.0474 11.648 21.1208 11.8996 21.1208C12.1512 21.1208 12.3688 21.0502 12.5836 20.9399L19.2064 17.124C19.6389 16.8724 19.8905 16.4399 19.8905 15.9368V8.30489C19.8905 7.83567 19.6389 7.36928 19.2064 7.11771L12.6176 3.30175C12.4027 3.19434 12.1851 3.12085 11.9335 3.12085H11.8996Z" fill="#9DCCED"/>
<path d="M7.54373 18.7804L8.15429 17.124L9.37822 18.1331L8.22778 19.2129L7.54373 18.7804Z" fill="#213147"/>
<path d="M12.5808 7.76501H14.2739L14.2372 7.73109C14.3446 7.73109 14.4181 7.8385 14.3814 7.94591L9.91811 20.1852L8.19104 19.1761L12.2925 7.94591C12.3292 7.83567 12.4734 7.76501 12.5808 7.76501Z" fill="white"/>
<path d="M9.66652 7.76501H11.3229C11.4304 7.76501 11.5038 7.87242 11.4671 7.97983L7.50696 18.8171L5.7799 17.808L9.37823 7.94591C9.41494 7.83567 9.55909 7.76501 9.66652 7.76501Z" fill="white"/>
</svg>
