<svg width="160" height="160" viewBox="0 0 160 160" fill="none" xmlns="http://www.w3.org/2000/svg">
<g clip-path="url(#clip0_4485_6683)">
<path d="M82.1981 78.2886C66.7138 62.4918 38.4099 59.502 38.4099 59.502C37.7196 60.1909 37.0292 60.928 36.3389 61.7823C13.9028 101.526 2.12565 137.907 0.496446 146.305C-0.158615 148.087 -0.143899 150.045 0.537864 151.816C1.44512 153.494 2.63091 155.006 4.04479 156.287C4.68681 156.928 5.2943 157.472 5.86038 157.941C7.03436 158.902 8.42973 159.557 9.92058 159.845C11.4114 160.134 12.9508 160.048 14.3999 159.594C43.6856 150.249 72.0564 138.258 99.1598 123.771C99.8501 123.185 100.465 122.613 101.017 122.069C101.017 122.021 98.0207 93.7478 82.1981 78.2886Z" fill="#FACD35"/>
<path opacity="0.6" d="M13.4899 157.919C43.3402 145.884 71.6234 131.74 100.383 117.81C99.1552 110.885 97.2071 104.106 94.5703 97.584C88.8129 101.959 83.5594 101.325 77.4913 105.851C36.071 136.749 7.92581 156.879 4.02539 156.245C4.66741 156.886 5.2749 157.43 5.84098 157.898C6.25777 158.245 6.70615 158.552 7.18024 158.815C9.32563 159.06 11.4983 158.752 13.4899 157.919Z" fill="#F9A928"/>
<path d="M101.15 121.883C109.146 113.903 101.606 93.4414 84.3092 76.18C67.012 58.9186 46.5077 51.3942 38.5115 59.3738C30.5154 67.3535 38.0553 87.8154 55.3525 105.077C72.6497 122.338 93.154 129.863 101.15 121.883Z" fill="#FFDE52"/>
<path d="M99.194 119.061C106.206 112.063 98.9394 93.4661 82.9632 77.523C66.987 61.5798 48.3513 54.3281 41.3392 61.3257C34.327 68.3234 41.5938 86.9206 57.57 102.864C73.5461 118.807 92.1818 126.059 99.194 119.061Z" fill="#F7A623"/>
<path opacity="0.7" d="M31.4034 102.559C35.6076 93.4581 41.4479 85.4736 41.1372 81.4917C41.1066 80.4187 40.6872 79.3931 39.9567 78.6051C39.1974 77.868 37.4094 74.7748 36.795 75.8495C30.009 87.4783 24.7002 100.141 20.2268 109.076C14.5771 120.204 9.50781 131.616 5.03937 143.267C4.63898 144.307 3.65869 146.429 3.38946 148.13C3.24449 149.129 3.58966 151.864 5.17053 148.929C9.45754 140.897 29.3738 106.94 31.4034 102.559Z" fill="#FFDE52"/>
<path d="M55.8893 80.5125C64.4495 73.458 75.0946 63.8959 77.0828 52.267C77.5048 49.9811 77.3033 47.6239 76.4993 45.4423C75.6953 43.2607 74.3184 41.3349 72.5127 39.8666C69.6547 37.6552 66.134 37.0214 62.6063 37.2901C58.0501 37.6414 53.6319 41.6371 49.0895 40.5211C47.0185 40.0113 45.548 37.3383 46.0796 35.2716C46.5058 33.9034 47.2703 32.6644 48.3025 31.6686C50.3252 29.5329 53.0658 28.1895 55.7444 27.0735C60.8456 24.9798 66.2556 23.7325 71.7602 23.3809C73.2652 23.2776 71.7602 16.9672 69.5926 17.1118C64.7801 17.4222 60.0362 18.4127 55.5027 20.0535C51.2502 21.6104 46.4317 23.7943 44.0224 27.852C42.0411 31.1863 42.1723 35.182 43.4977 38.7368C44.5678 41.6096 46.3488 43.5592 48.765 44.4892C50.0145 44.9852 51.9682 44.1999 53.5491 44.1723C57.8499 44.1103 61.7365 42.4845 66.0235 42.3674C68.3431 42.3054 73.0028 44.2205 73.9693 46.6593C74.5975 48.2576 72.2918 52.646 71.3529 54.382C67.0038 62.4147 60.0935 68.925 53.1211 74.6705C51.7404 75.8141 54.2256 81.849 55.8824 80.478L55.8893 80.5125Z" fill="#F41B60"/>
<path d="M72.327 40.3019C69.6053 38.0727 66.1131 37.0035 62.607 37.3258C58.0508 37.6771 53.0458 39.8541 48.4826 38.7036C46.8604 38.3109 45.9974 37.7047 45.9353 36.4922C45.4383 39.5234 46.2805 42.6166 48.7657 44.4905C50.1257 44.9996 51.5736 45.2338 53.0251 45.1794C57.319 45.1174 61.4403 43.6018 65.7273 43.4846C68.0469 43.4158 73.0035 44.1736 73.97 46.6399C74.0457 46.8614 74.0807 47.0948 74.0735 47.3288C74.543 45.5169 74.8329 42.3686 72.327 40.3019Z" fill="#AF0068"/>
<path d="M148.866 44.3461C148.113 42.9683 142.211 44.7594 142.238 44.8077C144.054 48.1764 143.495 53.3295 139.615 55.0449C139.539 54.9967 138.959 55.0104 138.856 54.9347C138.414 54.6247 138.034 54.4731 137.572 54.1631C136.586 53.6299 135.647 53.017 134.762 52.3306C133.257 50.8632 132.691 48.9894 130.855 47.9491C128.093 46.3921 124.462 46.4266 121.425 47.0948C117.621 47.9284 115.902 50.6496 115.142 54.3215C114.749 56.2918 114.749 58.3172 114.328 60.2875C114.138 61.274 113.841 62.2371 113.444 63.1603C113.15 63.8081 112.77 64.4131 112.312 64.9583C112.205 65.0896 112.085 65.2096 111.953 65.3166C111.511 65.0892 110.51 65.2684 110.345 65.1581C109.654 64.6759 108.743 64.4348 108.115 63.8699C106.789 62.6987 106.423 60.7147 104.85 59.8604C102.04 58.331 98.7538 58.2001 95.6473 58.6961C91.8297 59.3093 90.5526 61.3484 90.2143 65.1306C90.001 67.5692 90.1171 70.0253 90.5595 72.4331C90.9184 74.3965 91.5328 76.3736 91.4224 78.3921C91.3188 80.2522 90.09 83.311 87.881 83.5728C85.6719 83.8346 81.7645 81.4371 80.0939 80.3349C79.1136 79.646 78.0643 80.0524 76.9736 80.1902C76.6975 80.2247 73.5564 80.1902 74.1432 80.5484C77.8503 83.0079 81.4884 84.9575 86.0239 85.0126C89.5654 85.0539 94.3494 84.6406 96.7173 81.6231C99.4787 78.1373 97.2213 73.432 96.8554 69.5465C96.6321 67.2633 96.7133 64.9606 97.097 62.6987C97.2439 61.8557 97.6519 61.0799 98.2637 60.4804C99.1378 60.4207 100.004 60.6802 100.701 61.2107C103.821 63.6632 105.719 66.5704 109.944 66.8597C112.45 67.0251 115.018 67.2455 117.193 65.9917C118.211 65.4087 119.056 64.5674 119.643 63.553C122.184 59.1302 120.41 53.2193 123.716 49.1547C123.914 48.9625 124.132 48.7916 124.365 48.6449C124.414 48.6449 124.849 48.6449 124.883 48.6449C125.608 49.258 126.719 49.754 127.437 50.4016C128.369 51.2352 128.563 52.179 129.453 53.0608C130.409 54.0662 131.524 54.9086 132.753 55.5547C139.981 59.0681 154.181 54.1838 148.866 44.3461Z" fill="#48B5FF"/>
<path d="M80.521 79.7758C79.5338 79.1282 77.5042 79.5002 76.4135 79.638C76.1373 79.6724 73.5624 80.1616 74.1492 80.5473C77.6009 82.8414 83.9934 85.0873 87.6453 83.5786C85.5053 83.613 82.1364 80.8573 80.521 79.7758Z" fill="#216BD6"/>
<path d="M137.854 54.0448C137.046 53.4578 136.29 52.8007 135.597 52.0813C134.092 50.6071 132.725 48.9881 130.868 47.9479C130.628 47.8138 130.382 47.692 130.129 47.5828C128.176 47.3967 125.953 47.4243 124.379 48.6437C125.268 49.1139 126.082 49.7128 126.795 50.4211C128.763 52.1778 132.035 57.5238 139.629 55.0437C139.01 54.7619 138.416 54.4277 137.854 54.0448Z" fill="#216BD6"/>
<path d="M111.967 65.3154C111.525 65.088 111.097 64.8676 110.931 64.7504C110.242 64.2623 109.585 63.7308 108.964 63.1591C107.73 61.9041 106.354 60.7967 104.863 59.8592C104.601 59.7145 104.332 59.5974 104.062 59.4803C103.085 59.2014 102.057 59.1464 101.055 59.3194C100.054 59.4923 99.104 59.8888 98.2773 60.4792C98.9428 60.8358 99.5737 61.2533 100.162 61.7261C103.275 64.1718 105.464 66.9963 109.696 67.2856C112.195 67.451 115.039 67.2443 117.206 65.9836C114.783 66.8172 112.015 65.274 111.967 65.3154Z" fill="#216BD6"/>
<path d="M132.987 110.137C126.215 103.978 116.24 101.319 107.355 100.361C92.8943 98.8178 78.3473 102.361 66.2246 110.378C67.6053 111.416 68.9676 112.392 70.3114 113.306C81.3979 107.482 93.9418 105 106.416 106.162C114.735 106.961 123.433 110.344 131.434 115.986C133.049 117.178 133.919 111.391 132.987 110.137Z" fill="#F41B60"/>
<path d="M123.964 82.9251L122.632 77.3312C122.573 77.1046 122.59 76.8653 122.68 76.6492C122.77 76.4331 122.927 76.2518 123.129 76.1325C125.248 74.9406 130.211 74.0657 132.987 74.4584C133.241 74.4926 133.485 74.5849 133.698 74.7283C133.911 74.8717 134.088 75.0622 134.215 75.2851C135.086 77.1014 135.528 79.093 135.506 81.1064C135.487 81.2623 135.41 81.4051 135.289 81.5061C135.169 81.6071 135.015 81.6588 134.857 81.6506C131.999 81.7126 125.994 82.7736 124.861 83.3316C124.777 83.3711 124.684 83.3918 124.59 83.3922C124.497 83.3927 124.404 83.373 124.319 83.3344C124.234 83.2957 124.158 83.2392 124.097 83.1685C124.035 83.0979 123.99 83.0149 123.964 82.9251Z" fill="#F41B60"/>
<path d="M116.867 141.482L111.586 135.971C111.373 135.746 111.236 135.461 111.193 135.154C111.151 134.848 111.206 134.536 111.351 134.262C112.186 132.698 116.294 127.587 119.745 126.209C120.061 126.078 120.403 126.021 120.745 126.044C121.086 126.067 121.417 126.168 121.713 126.34C123.93 127.841 125.772 129.83 127.098 132.154C127.185 132.34 127.2 132.551 127.14 132.747C127.08 132.943 126.949 133.11 126.773 133.215C123.529 135.192 119.179 139.967 118.22 141.358C118.15 141.469 118.055 141.562 117.943 141.631C117.831 141.699 117.705 141.741 117.574 141.753C117.443 141.765 117.311 141.747 117.189 141.7C117.066 141.653 116.956 141.578 116.867 141.482Z" fill="#FFDA22"/>
<path d="M108.473 15.046L110.454 20.2749C110.62 20.7133 110.65 21.1915 110.541 21.6473C110.431 22.103 110.186 22.5153 109.838 22.8304C109.491 23.1455 109.056 23.3488 108.591 23.414C108.125 23.4792 107.651 23.4032 107.23 23.1959L102.26 20.7364C102.131 20.6726 101.986 20.6472 101.843 20.6631C101.699 20.6789 101.564 20.7355 101.452 20.826L97.0407 24.367C96.6729 24.661 96.2247 24.8373 95.7548 24.8729C95.2849 24.9085 94.8152 24.8016 94.4071 24.5664C93.999 24.3312 93.6716 23.9784 93.4678 23.5544C93.2639 23.1304 93.1931 22.6549 93.2646 22.19L94.1137 16.6787C94.1344 16.5354 94.1136 16.3892 94.0536 16.2573C93.9937 16.1255 93.8971 16.0135 93.7754 15.9347L89.019 12.9035C88.6213 12.6483 88.3102 12.2792 88.1263 11.8446C87.9424 11.41 87.8943 10.93 87.9883 10.4677C88.0823 10.0053 88.314 9.58204 88.6531 9.25331C88.9923 8.92458 89.4229 8.7057 89.8888 8.62535L95.4598 7.68843C95.6028 7.66474 95.7357 7.60001 95.8424 7.50213C95.949 7.40425 96.0248 7.27747 96.0604 7.1373L97.4411 1.75C97.5561 1.29227 97.8073 0.880043 98.1617 0.567614C98.5161 0.255184 98.957 0.0572118 99.4263 -0.000217015C99.8957 -0.0576458 100.371 0.0281625 100.791 0.2459C101.21 0.463637 101.554 0.803091 101.776 1.21954L104.448 6.20038C104.516 6.32307 104.616 6.42471 104.738 6.49402C104.86 6.56334 104.998 6.59761 105.138 6.59306L110.661 6.26927C111.131 6.24115 111.598 6.35502 112.002 6.59601C112.406 6.837 112.728 7.19393 112.925 7.62018C113.123 8.04644 113.187 8.52222 113.109 8.98542C113.032 9.44863 112.816 9.87775 112.491 10.2167L108.618 14.2538C108.519 14.3576 108.453 14.4877 108.427 14.6284C108.401 14.7691 108.417 14.9142 108.473 15.046Z" fill="#FFDA22"/>
<path d="M154.387 96.0134L153.178 99.6233C153.076 99.9256 152.885 100.19 152.63 100.383C152.376 100.575 152.069 100.687 151.749 100.703C151.43 100.72 151.113 100.64 150.84 100.474C150.567 100.309 150.35 100.065 150.217 99.7749L148.664 96.3303C148.623 96.2421 148.558 96.1673 148.476 96.1148C148.394 96.0624 148.298 96.0343 148.201 96.0341L144.349 95.9997C144.03 95.9956 143.72 95.8961 143.459 95.7139C143.198 95.5317 142.998 95.2753 142.885 94.9781C142.772 94.6809 142.751 94.3566 142.825 94.0473C142.899 93.738 143.064 93.4581 143.3 93.244L146.116 90.7157C146.19 90.6498 146.243 90.5639 146.269 90.4685C146.294 90.3731 146.292 90.2723 146.261 90.1783L145.067 86.5409C144.967 86.2361 144.962 85.9083 145.052 85.6004C145.142 85.2926 145.323 85.0191 145.572 84.8158C145.82 84.6125 146.124 84.4888 146.445 84.461C146.765 84.4333 147.086 84.5027 147.366 84.6601L150.7 86.5615C150.787 86.6091 150.886 86.6311 150.985 86.625C151.084 86.6189 151.179 86.585 151.259 86.5271L154.304 84.2744C154.562 84.0838 154.872 83.9756 155.193 83.9639C155.514 83.9523 155.832 84.0377 156.103 84.209C156.375 84.3802 156.588 84.6294 156.716 84.9238C156.843 85.2182 156.878 85.5441 156.817 85.8588L156.078 89.6272C156.058 89.7224 156.067 89.8212 156.102 89.9117C156.138 90.0021 156.199 90.0804 156.278 90.137L159.336 92.3484C159.595 92.5365 159.791 92.7978 159.899 93.0986C160.007 93.3993 160.021 93.7254 159.941 94.0345C159.86 94.3437 159.689 94.6215 159.448 94.8319C159.207 95.0423 158.908 95.1755 158.591 95.2143L154.808 95.6759C154.712 95.6856 154.622 95.7227 154.547 95.7826C154.472 95.8425 154.417 95.9226 154.387 96.0134Z" fill="#FFDA22"/>
<path d="M103.219 36.8509C104.6 38.3665 104.317 40.819 102.625 42.3622C100.934 43.9053 98.4833 43.864 97.1026 42.3622C96.7781 41.9617 96.536 41.5013 96.3902 41.0074C96.2444 40.5134 96.1978 39.9955 96.2529 39.4835C96.3081 38.9715 96.464 38.4754 96.7116 38.0236C96.9593 37.5719 97.2939 37.1733 97.6963 36.8509C99.3807 35.3284 101.852 35.3284 103.219 36.8509Z" fill="#F41B60"/>
<path d="M35.8978 25.4627C35.0141 25.9995 33.9531 26.1646 32.9475 25.9218C31.942 25.679 31.074 25.0481 30.5339 24.1676C29.2498 22.3075 29.5743 19.8619 31.2242 18.7114C32.1082 18.1737 33.1696 18.0074 34.1762 18.2488C35.1828 18.4902 36.0525 19.1198 36.5951 19.9997C37.9067 21.8666 37.5822 24.3122 35.8978 25.4627Z" fill="#FFDA22"/>
<path d="M153.355 123.337C155.326 121.77 155.51 118.729 153.766 116.545C152.022 114.36 149.01 113.86 147.039 115.428C145.068 116.995 144.884 120.036 146.629 122.22C148.373 124.404 151.384 124.904 153.355 123.337Z" fill="#48B5FF"/>
<path d="M34.4411 47.3216L28.8356 49.6019C28.5565 49.7222 28.2464 49.7509 27.9499 49.6841C27.6534 49.6172 27.3858 49.4582 27.1857 49.2299C26.0466 47.9416 23.9549 45.0964 23.872 41.4796C23.8623 41.1462 23.9294 40.8151 24.0682 40.5117C24.2071 40.2083 24.4139 39.9408 24.6728 39.7298C26.3963 38.4268 28.45 37.6299 30.6028 37.4288C30.8032 37.4183 31.0003 37.4833 31.155 37.6109C31.3097 37.7385 31.4107 37.9194 31.4381 38.1177C32.0035 40.9602 33.1427 43.6581 34.7863 46.0471C34.8636 46.1487 34.9166 46.2665 34.9411 46.3917C34.9656 46.5168 34.961 46.6459 34.9277 46.7691C34.8943 46.8922 34.8331 47.006 34.7488 47.1018C34.6644 47.1976 34.5592 47.2728 34.4411 47.3216Z" fill="#F41B60"/>
<path d="M138.509 17.9935L141.519 25.8884C141.713 26.3103 141.776 26.7807 141.7 27.2388C141.624 27.6968 141.412 28.1216 141.091 28.458C139.317 30.1459 135.382 33.1771 130.197 32.9498C129.692 32.916 129.2 32.769 128.759 32.5197C128.318 32.2705 127.939 31.9254 127.65 31.5099C125.634 28.7543 125.027 26.3913 124.599 23.0983C124.574 22.9525 124.58 22.8032 124.616 22.6597C124.652 22.5162 124.717 22.3816 124.806 22.2641C124.896 22.1466 125.009 22.0487 125.139 21.9765C125.268 21.9044 125.411 21.8594 125.558 21.8445C129.578 21.2361 133.396 19.6875 136.7 17.3252C136.858 17.2246 137.036 17.1618 137.222 17.1417C137.408 17.1217 137.596 17.145 137.772 17.2098C137.947 17.2745 138.105 17.379 138.233 17.515C138.361 17.651 138.455 17.8148 138.509 17.9935Z" fill="#FFDA22"/>
<path d="M141.229 15.3411L137.819 20.2737C137.656 20.5185 137.418 20.7047 137.141 20.8051C136.864 20.9055 136.562 20.9149 136.279 20.8318C134.657 20.3702 131.447 19.1301 129.486 16.2023C129.303 15.9344 129.183 15.6278 129.138 15.3063C129.092 14.9849 129.122 14.6573 129.224 14.3491C129.952 12.3412 131.22 10.5724 132.89 9.23735C133.051 9.12158 133.25 9.07204 133.447 9.09897C133.644 9.1259 133.822 9.22724 133.946 9.38202C135.901 11.4168 138.249 13.0341 140.849 14.1355C140.963 14.1789 141.066 14.2475 141.149 14.336C141.233 14.4245 141.295 14.5307 141.331 14.6467C141.368 14.7626 141.378 14.8853 141.36 15.0056C141.342 15.1259 141.298 15.2406 141.229 15.3411Z" fill="#F41B60"/>
</g>
<defs>
<clipPath id="clip0_4485_6683">
<rect width="160" height="160" fill="white"/>
</clipPath>
</defs>
</svg>
