<svg width="1280" height="911" viewBox="0 0 1280 911" fill="none" xmlns="http://www.w3.org/2000/svg">
<g style="mix-blend-mode:plus-lighter">
<path d="M-203 391.76L-134.986 467.31M-203 391.76L-94.2983 391.589M-203 391.76L-141.463 326.845M-134.986 467.31L-77.3066 531.378M-134.986 467.31L-35.094 467.319M-77.3066 531.378L-27.7762 586.395M-77.3066 531.378L15.0926 531.515M-27.7762 586.395L15.2202 634.155M-27.7762 586.395L58.1786 586.626M15.2202 634.155L52.8908 676M15.2202 634.155L95.566 634.455M52.8908 676L86.1709 712.969M52.8908 676L128.322 676.351M86.1709 712.969L115.787 745.863M86.1709 712.969L157.254 713.354M115.787 745.863L142.311 775.326M115.787 745.863L182.989 746.277M142.311 775.326L166.205 801.864M142.311 775.326L206.038 775.762M166.205 801.864L187.838 825.896M166.205 801.864L226.797 802.313M187.838 825.896L207.521 847.759M187.838 825.896L245.593 826.353M207.521 847.759L225.499 867.732M207.521 847.759L262.688 848.221M225.499 867.732L241.995 886.05M225.499 867.732L278.301 868.198M241.995 886.05L257.174 902.913L305.807 903.38M241.995 886.05L292.626 886.516M305.807 903.38L354.545 903.846M305.807 903.38L292.626 886.516M354.545 903.846L403.386 904.312M354.545 903.846L343.369 886.982M403.386 904.312L452.331 904.782M403.386 904.312L394.226 887.452M452.331 904.782L501.38 905.253M452.331 904.782L445.197 887.923M501.38 905.253L550.532 905.719M501.38 905.253L496.281 888.389M550.532 905.719L599.789 906.194M550.532 905.719L547.473 888.864M599.789 906.194L649.154 906.664M599.789 906.194L598.783 889.334M649.154 906.664L698.623 907.139M649.154 906.664L650.207 889.809M698.623 907.139L748.196 907.614M698.623 907.139L701.744 890.284M748.196 907.614L797.878 908.088M748.196 907.614L753.399 890.758M797.878 908.088L847.663 908.563M797.878 908.088L805.167 891.233M847.663 908.563L897.557 909.042M847.663 908.563L857.049 891.712M897.557 909.042L947.56 909.521M897.557 909.042L909.048 892.191M947.56 909.521L997.666 910L1013.4 893.149M947.56 909.521L961.161 892.67M1013.4 893.149L1030.51 874.819M1013.4 893.149L961.161 892.67M1030.51 874.819L1049.19 854.807M1030.51 874.819L975.962 874.34M1049.19 854.807L1069.68 832.863M1049.19 854.807L992.123 854.328M1069.68 832.863L1092.24 808.702M1069.68 832.863L1009.84 832.392M1092.24 808.702L1117.21 781.959M1092.24 808.702L1029.34 808.236M1117.21 781.959L1144.98 752.209M1117.21 781.959L1050.93 781.51M1144.98 752.209L1176.08 718.91M1144.98 752.209L1074.93 751.777M1176.08 718.91L1211.11 681.38M1176.08 718.91L1101.8 718.503M1211.11 681.38L1250.9 638.766M1211.11 681.38L1132.07 681.012M1250.9 638.766L1296.47 589.958M1250.9 638.766L1166.44 638.453M1296.47 589.958L1349.18 533.499M1296.47 589.958L1205.8 589.714M1349.18 533.499L1410.85 467.439M1349.18 533.499L1251.31 533.354M1410.85 467.439L1484 389.095M1410.85 467.439L1304.54 467.43M1484 389.095L1367.65 389.279M1484 389.095L1418.17 322.158M1367.65 389.279L1251.87 389.463M1367.65 389.279L1310.88 322.479M1367.65 389.279L1304.54 467.43M1251.87 389.463L1136.66 389.642M1251.87 389.463L1204.07 322.799M1251.87 389.463L1198.71 467.422M1136.66 389.642L1022.01 389.826M1136.66 389.642L1097.75 323.12M1136.66 389.642L1093.35 467.413M1022.01 389.826L907.925 390.006M1022.01 389.826L991.915 323.437M1022.01 389.826L988.46 467.404M907.925 390.006L794.393 390.186M907.925 390.006L886.552 323.753M907.925 390.006L884.045 467.396M794.393 390.186L681.419 390.361M794.393 390.186L781.665 324.07M794.393 390.186L780.093 467.387M681.419 390.361L568.988 390.541M681.419 390.361L677.25 324.382M681.419 390.361L676.603 467.379M568.988 390.541L457.104 390.716M568.988 390.541L573.307 324.698M568.988 390.541L573.577 467.37M457.104 390.716L345.758 390.896M457.104 390.716L469.823 325.006M457.104 390.716L471.008 467.362M345.758 390.896L234.946 391.071M345.758 390.896L366.805 325.318M345.758 390.896L368.892 467.353M234.946 391.071L124.672 391.242M234.946 391.071L264.246 325.626M234.946 391.071L267.225 467.345M124.672 391.242L14.9227 391.417M124.672 391.242L162.14 325.93M124.672 391.242L166.007 467.336M14.9227 391.417L-94.2983 391.589M14.9227 391.417L60.492 326.238M14.9227 391.417L65.2368 467.327M-94.2983 391.589L-40.7076 326.542M-94.2983 391.589L-35.094 467.319M-141.463 326.845L-88.4299 270.895M-141.463 326.845L-40.7076 326.542M-88.4299 270.895L-42.2468 222.178M-88.4299 270.895L5.46137 270.498M-42.2468 222.178L-1.67243 179.375M-42.2468 222.178L45.6531 221.711M-1.67243 179.375L34.2609 141.469M-1.67243 179.375L80.9538 178.857M34.2609 141.469L66.3038 107.665M34.2609 141.469L112.213 140.917M66.3038 107.665L95.0514 77.333M66.3038 107.665L140.082 107.091M95.0514 77.333L120.995 49.9654M95.0514 77.333L165.081 76.7428M120.995 49.9654L144.525 25.1425M120.995 49.9654L187.639 49.3623M144.525 25.1425L165.96 2.53491M144.525 25.1425L208.092 24.5351M165.96 2.53491L185.567 -18.1522M165.96 2.53491L226.722 1.91906M185.567 -18.1522L203.574 -37.1458M185.567 -18.1522L243.761 -18.7639M203.574 -37.1458L220.164 -54.651M203.574 -37.1458L259.412 -37.7574M220.164 -54.651L235.503 -70.8305L287.154 -71.4334M220.164 -54.651L273.825 -55.2583M287.154 -71.4334L338.922 -72.0365M287.154 -71.4334L273.825 -55.2583M338.922 -72.0365L390.808 -72.6396M338.922 -72.0365L327.615 -55.8657M390.808 -72.6396L442.808 -73.2469M390.808 -72.6396L381.531 -56.473M442.808 -73.2469L494.93 -73.8542M442.808 -73.2469L435.575 -57.0846M494.93 -73.8542L547.166 -74.4615M494.93 -73.8542L489.742 -57.6961M547.166 -74.4615L599.52 -75.0731M547.166 -74.4615L544.036 -58.3078M599.52 -75.0731L651.996 -75.6804M599.52 -75.0731L598.462 -58.9236M651.996 -75.6804L704.591 -76.2963M651.996 -75.6804L653.016 -59.5395M704.591 -76.2963L757.303 -76.9079M704.591 -76.2963L707.697 -60.1596M757.303 -76.9079L810.134 -77.5237M757.303 -76.9079L762.506 -60.7756M810.134 -77.5237L863.092 -78.1396M810.134 -77.5237L817.447 -61.4M863.092 -78.1396L916.163 -78.7597M863.092 -78.1396L872.515 -62.0201M916.163 -78.7597L969.362 -79.38M916.163 -78.7597L927.716 -62.6445M969.362 -79.38L1022.68 -80.0001L1038.51 -63.8935M969.362 -79.38L983.049 -63.2689M1038.51 -63.8935L1055.67 -46.4524M1038.51 -63.8935L983.049 -63.2689M1055.67 -46.4524L1074.32 -27.493M1055.67 -46.4524L997.878 -45.8194M1074.32 -27.493L1094.65 -6.81002M1074.32 -27.493L1014 -26.8601M1094.65 -6.81002L1116.92 15.8359M1094.65 -6.81002L1031.57 -6.17708M1116.92 15.8359L1141.42 40.7444M1116.92 15.8359L1050.82 16.4689M1141.42 40.7444L1168.49 68.2703M1141.42 40.7444L1071.98 41.3731M1168.49 68.2703L1198.56 98.8499M1168.49 68.2703L1095.36 68.8861M1198.56 98.8499L1232.17 133.022M1198.56 98.8499L1121.34 99.4529M1232.17 133.022L1269.97 171.458M1232.17 133.022L1150.36 133.599M1269.97 171.458L1312.79 215.005M1269.97 171.458L1182.99 171.997M1312.79 215.005L1361.73 264.762M1312.79 215.005L1219.96 215.497M1361.73 264.762L1418.17 322.158M1361.73 264.762L1262.19 265.186M1418.17 322.158L1310.88 322.479M273.825 -55.2583L327.615 -55.8657M273.825 -55.2583L259.412 -37.7574M327.615 -55.8657L381.531 -56.473M327.615 -55.8657L315.387 -38.369M381.531 -56.473L435.575 -57.0846M381.531 -56.473L371.494 -38.9807M435.575 -57.0846L489.742 -57.6961M435.575 -57.0846L427.742 -39.5965M489.742 -57.6961L544.036 -58.3078M489.742 -57.6961L484.128 -40.2124M544.036 -58.3078L598.462 -58.9236M544.036 -58.3078L540.655 -40.8282M598.462 -58.9236L653.016 -59.5395M598.462 -58.9236L597.315 -41.4483M653.016 -59.5395L707.697 -60.1596M653.016 -59.5395L654.116 -42.0686M707.697 -60.1596L762.506 -60.7756M707.697 -60.1596L711.059 -42.6887M762.506 -60.7756L817.447 -61.4M762.506 -60.7756L768.138 -43.3131M817.447 -61.4L872.515 -62.0201M817.447 -61.4L825.364 -43.9375M872.515 -62.0201L927.716 -62.6445M872.515 -62.0201L882.727 -44.5619M927.716 -62.6445L983.049 -63.2689M927.716 -62.6445L940.232 -45.1906M983.049 -63.2689L997.878 -45.8194M997.878 -45.8194L1014 -26.8601M997.878 -45.8194L940.232 -45.1906M1014 -26.8601L1031.57 -6.17708M1014 -26.8601L953.829 -26.2271M1031.57 -6.17708L1050.82 16.4689M1031.57 -6.17708L968.659 -5.54408M1050.82 16.4689L1071.98 41.3731M1050.82 16.4689L984.895 17.0976M1071.98 41.3731L1095.36 68.8861M1071.98 41.3731L1002.75 41.9975M1095.36 68.8861L1121.34 99.4529M1095.36 68.8861L1022.47 69.502M1121.34 99.4529L1150.36 133.599M1121.34 99.4529L1044.37 100.052M1150.36 133.599L1182.99 171.997M1150.36 133.599L1068.83 134.172M1182.99 171.997L1219.96 215.497M1182.99 171.997L1096.34 172.536M1219.96 215.497L1262.19 265.186M1219.96 215.497L1127.49 215.985M1262.19 265.186L1310.88 322.479M1262.19 265.186L1163.06 265.605M1310.88 322.479L1204.07 322.799M1304.54 467.43L1251.31 533.354M1304.54 467.43L1198.71 467.422M1251.31 533.354L1205.8 589.714M1251.31 533.354L1153.84 533.208M1205.8 589.714L1166.44 638.453M1205.8 589.714L1115.48 589.47M1166.44 638.453L1132.07 681.012M1166.44 638.453L1082.29 638.137M1132.07 681.012L1101.8 718.503M1132.07 681.012L1053.3 680.649M1101.8 718.503L1074.93 751.777M1101.8 718.503L1027.76 718.101M1074.93 751.777L1050.93 781.51M1074.93 751.777L1005.09 751.345M1050.93 781.51L1029.34 808.236M1050.93 781.51L984.829 781.061M1029.34 808.236L1009.84 832.392M1029.34 808.236L966.614 807.774M1009.84 832.392L992.123 854.328M1009.84 832.392L950.147 831.922M992.123 854.328L975.962 874.34M992.123 854.328L935.19 853.853M975.962 874.34L961.161 892.67M975.962 874.34L921.546 873.861M961.161 892.67L909.048 892.191M940.232 -45.1906L953.829 -26.2271M940.232 -45.1906L882.727 -44.5619M953.829 -26.2271L968.659 -5.54408M953.829 -26.2271L893.818 -25.5941M968.659 -5.54408L984.895 17.0976M968.659 -5.54408L905.913 -4.91114M984.895 17.0976L1002.75 41.9975M984.895 17.0976L919.156 17.7306M1002.75 41.9975L1022.47 69.502M1002.75 41.9975L933.712 42.6219M1022.47 69.502L1044.37 100.052M1022.47 69.502L949.793 70.1178M1044.37 100.052L1068.83 134.172M1044.37 100.052L967.648 100.646M1068.83 134.172L1096.34 172.536M1068.83 134.172L987.591 134.746M1096.34 172.536L1127.49 215.985M1096.34 172.536L1010 173.075M1127.49 215.985L1163.06 265.605M1127.49 215.985L1035.38 216.472M1163.06 265.605L1204.07 322.799M1163.06 265.605L1064.36 266.02M1204.07 322.799L1097.75 323.12M1198.71 467.422L1153.84 533.208M1198.71 467.422L1093.35 467.413M1153.84 533.208L1115.48 589.47M1153.84 533.208L1056.79 533.063M1115.48 589.47L1082.29 638.137M1115.48 589.47L1025.51 589.231M1082.29 638.137L1053.3 680.649M1082.29 638.137L998.44 637.825M1053.3 680.649L1027.76 718.101M1053.3 680.649L974.796 680.281M1027.76 718.101L1005.09 751.345M1027.76 718.101L953.957 717.699M1005.09 751.345L984.829 781.061M1005.09 751.345L935.459 750.918M984.829 781.061L966.614 807.774M984.829 781.061L918.921 780.612M966.614 807.774L950.147 831.922M966.614 807.774L904.053 807.313M950.147 831.922L935.19 853.853M950.147 831.922L890.607 831.451M935.19 853.853L921.546 873.861M935.19 853.853L878.398 853.374M921.546 873.861L909.048 892.191M921.546 873.861L867.256 873.382M909.048 892.191L857.049 891.712M882.727 -44.5619L893.818 -25.5941M882.727 -44.5619L825.364 -43.9375M893.818 -25.5941L905.913 -4.91114M893.818 -25.5941L833.962 -24.9654M905.913 -4.91114L919.156 17.7306M905.913 -4.91114L843.338 -4.28241M919.156 17.7306L933.712 42.6219M919.156 17.7306L853.602 18.355M933.712 42.6219L949.793 70.1178M933.712 42.6219L864.886 43.2421M949.793 70.1178L967.648 100.646M949.793 70.1178L877.345 70.7295M967.648 100.646L987.591 134.746M967.648 100.646L891.183 101.245M987.591 134.746L1010 173.075M987.591 134.746L906.626 135.319M1010 173.075L1035.38 216.472M1010 173.075L923.991 173.609M1035.38 216.472L1064.36 266.02M1035.38 216.472L943.641 216.96M1064.36 266.02L1097.75 323.12M1064.36 266.02L966.071 266.435M1097.75 323.12L991.915 323.437M1093.35 467.413L1056.79 533.063M1093.35 467.413L988.46 467.404M1056.79 533.063L1025.51 589.231M1056.79 533.063L960.127 532.922M1025.51 589.231L998.44 637.825M1025.51 589.231L935.879 588.987M998.44 637.825L974.796 680.281M998.44 637.825L914.893 637.512M974.796 680.281L953.957 717.699M974.796 680.281L896.551 679.918M953.957 717.699L935.459 750.918M953.957 717.699L880.386 717.297M935.459 750.918L918.921 780.612M935.459 750.918L866.033 750.49M918.921 780.612L904.053 807.313M918.921 780.612L853.201 780.163M904.053 807.313L890.607 831.451M904.053 807.313L841.658 806.851M890.607 831.451L878.398 853.374M890.607 831.451L831.224 830.981M878.398 853.374L867.256 873.382M878.398 853.374L821.743 852.9M867.256 873.382L857.049 891.712M867.256 873.382L813.089 872.907M857.049 891.712L805.167 891.233M825.364 -43.9375L833.962 -24.9654M825.364 -43.9375L768.138 -43.3131M833.962 -24.9654L843.338 -4.28241M833.962 -24.9654L774.262 -24.3366M843.338 -4.28241L853.602 18.355M843.338 -4.28241L780.933 -3.65375M853.602 18.355L864.886 43.2421M853.602 18.355L788.237 18.9836M864.886 43.2421L877.345 70.7295M864.886 43.2421L796.263 43.8622M877.345 70.7295L891.183 101.245M877.345 70.7295L805.125 71.3368M891.183 101.245L906.626 135.319M891.183 101.245L814.964 101.835M906.626 135.319L923.991 173.609M906.626 135.319L825.95 135.888M923.991 173.609L943.641 216.96M923.991 173.609L838.291 174.144M943.641 216.96L966.071 266.435M943.641 216.96L852.257 217.443M966.071 266.435L991.915 323.437M966.071 266.435L868.196 266.849M991.915 323.437L886.552 323.753M988.46 467.404L960.127 532.922M988.46 467.404L884.045 467.396M960.127 532.922L935.879 588.987M960.127 532.922L863.866 532.776M935.879 588.987L914.893 637.512M935.879 588.987L846.596 588.748M914.893 637.512L896.551 679.918M914.893 637.512L831.644 637.2M896.551 679.918L880.386 717.297M896.551 679.918L818.571 679.558M880.386 717.297L866.033 750.49M880.386 717.297L807.051 716.895M866.033 750.49L853.201 780.163M866.033 750.49L796.815 750.062M853.201 780.163L841.658 806.851M853.201 780.163L787.661 779.718M841.658 806.851L831.224 830.981M841.658 806.851L779.432 806.393M831.224 830.981L821.743 852.9M831.224 830.981L771.986 830.51M821.743 852.9L813.089 872.907M821.743 852.9L765.226 852.429M813.089 872.907L805.167 891.233M813.089 872.907L759.055 872.428M805.167 891.233L753.399 890.758M768.138 -43.3131L774.262 -24.3366M768.138 -43.3131L711.059 -42.6887M774.262 -24.3366L780.933 -3.65375M774.262 -24.3366L714.713 -23.7122M780.933 -3.65375L788.237 18.9836M780.933 -3.65375L718.693 -3.02935M788.237 18.9836L796.263 43.8622M788.237 18.9836L723.051 19.6082M796.263 43.8622L805.125 71.3368M796.263 43.8622L727.843 44.4824M805.125 71.3368L814.964 101.835M805.125 71.3368L733.131 71.9484M814.964 101.835L825.95 135.888M814.964 101.835L738.994 102.43M825.95 135.888L838.291 174.144M825.95 135.888L745.547 136.452M838.291 174.144L852.257 217.443M838.291 174.144L752.908 174.674M852.257 217.443L868.196 266.849M852.257 217.443L761.231 217.926M868.196 266.849L886.552 323.753M868.196 266.849L770.73 267.26M886.552 323.753L781.665 324.07M884.045 467.396L863.866 532.776M884.045 467.396L780.093 467.387M863.866 532.776L846.596 588.748M863.866 532.776L768.002 532.635M846.596 588.748L831.644 637.2M846.596 588.748L757.653 588.508M831.644 637.2L818.571 679.558M831.644 637.2L748.687 636.892M818.571 679.558L807.051 716.895M818.571 679.558L740.85 679.195M807.051 716.895L796.815 750.062M807.051 716.895L733.943 716.498M796.815 750.062L787.661 779.718M796.815 750.062L727.8 749.639M787.661 779.718L779.432 806.393M787.661 779.718L722.31 779.273M779.432 806.393L771.986 830.51M779.432 806.393L717.371 805.935M771.986 830.51L765.226 852.429M771.986 830.51L712.905 830.044M765.226 852.429L759.055 872.428M765.226 852.429L708.845 851.954M759.055 872.428L753.399 890.758M759.055 872.428L705.138 871.953M753.399 890.758L701.744 890.284M711.059 -42.6887L714.713 -23.7122M711.059 -42.6887L654.116 -42.0686M714.713 -23.7122L718.693 -3.02935M714.713 -23.7122L655.315 -23.0878M718.693 -3.02935L723.051 19.6082M718.693 -3.02935L656.623 -2.40496M723.051 19.6082L727.843 44.4824M723.051 19.6082L658.049 20.2283M727.843 44.4824L733.131 71.9484M727.843 44.4824L659.621 45.0982M733.131 71.9484L738.994 102.43M733.131 71.9484L661.354 72.5515M738.994 102.43L745.547 136.452M738.994 102.43L663.275 103.016M745.547 136.452L752.908 174.674M745.547 136.452L665.423 137.017M752.908 174.674L761.231 217.926M752.908 174.674L667.836 175.205M761.231 217.926L770.73 267.26M761.231 217.926L670.56 218.405M770.73 267.26L781.665 324.07M770.73 267.26L673.671 267.671M781.665 324.07L677.25 324.382M780.093 467.387L768.002 532.635M780.093 467.387L676.603 467.379M768.002 532.635L757.653 588.508M768.002 532.635L672.534 532.494M757.653 588.508L748.687 636.892M757.653 588.508L669.049 588.269M748.687 636.892L740.85 679.195M748.687 636.892L666.032 636.584M740.85 679.195L733.943 716.498M740.85 679.195L663.389 678.836M733.943 716.498L727.8 749.639M733.943 716.498L661.061 716.1M727.8 749.639L722.31 779.273M727.8 749.639L658.993 749.216M722.31 779.273L717.371 805.935M722.31 779.273L657.142 778.829M717.371 805.935L712.905 830.044M717.371 805.935L655.476 805.478M712.905 830.044L708.845 851.954M712.905 830.044L653.97 829.578M708.845 851.954L705.138 871.953M708.845 851.954L652.601 851.484M705.138 871.953L701.744 890.284M705.138 871.953L651.354 871.483M701.744 890.284L650.207 889.809M654.116 -42.0686L655.315 -23.0878M654.116 -42.0686L597.315 -41.4483M655.315 -23.0878L656.623 -2.40496M655.315 -23.0878L596.073 -22.4676M656.623 -2.40496L658.049 20.2283M656.623 -2.40496L594.713 -1.78044M658.049 20.2283L659.621 45.0982M658.049 20.2283L593.231 20.8485M659.621 45.0982L661.354 72.5515M659.621 45.0982L591.602 45.7141M661.354 72.5515L663.275 103.016M661.354 72.5515L589.799 73.1545M663.275 103.016L665.423 137.017M663.275 103.016L587.802 103.606M665.423 137.017L667.836 175.205M665.423 137.017L585.578 137.581M667.836 175.205L670.56 218.405M667.836 175.205L583.076 175.731M670.56 218.405L673.671 267.671M670.56 218.405L580.243 218.884M673.671 267.671L677.25 324.382M673.671 267.671L577.018 268.081M677.25 324.382L573.307 324.698M676.603 467.379L672.534 532.494M676.603 467.379L573.577 467.37M672.534 532.494L669.049 588.269M672.534 532.494L577.457 532.353M669.049 588.269L666.032 636.584M669.049 588.269L580.786 588.033M666.032 636.584L663.389 678.836M666.032 636.584L583.666 636.276M663.389 678.836L661.061 716.1M663.389 678.836L586.187 678.476M661.061 716.1L658.993 749.216M661.061 716.1L588.411 715.706M658.993 749.216L657.142 778.829M658.993 749.216L590.389 748.792M657.142 778.829L655.476 805.478M657.142 778.829L592.155 778.388M655.476 805.478L653.97 829.578M655.476 805.478L593.746 805.02M653.97 829.578L652.601 851.484M653.97 829.578L595.186 829.116M652.601 851.484L651.354 871.483M652.601 851.484L596.493 851.014M651.354 871.483L650.207 889.809M651.354 871.483L597.688 871.008M650.207 889.809L598.783 889.334M597.315 -41.4483L596.073 -22.4676M597.315 -41.4483L540.655 -40.8282M596.073 -22.4676L594.713 -1.78044M596.073 -22.4676L536.978 -21.8432M594.713 -1.78044L593.231 20.8485M594.713 -1.78044L532.974 -1.16026M593.231 20.8485L591.602 45.7141M593.231 20.8485L528.593 21.4686M591.602 45.7141L589.799 73.1545M591.602 45.7141L523.782 46.3257M589.799 73.1545L587.802 103.606M589.799 73.1545L518.47 73.7575M587.802 103.606L585.578 137.581M587.802 103.606L512.578 104.192M585.578 137.581L583.076 175.731M585.578 137.581L506.002 138.141M583.076 175.731L580.243 218.884M583.076 175.731L498.622 176.257M580.243 218.884L577.018 268.081M580.243 218.884L490.28 219.359M577.018 268.081L573.307 324.698M577.018 268.081L480.767 268.488M573.307 324.698L469.823 325.006M573.577 467.37L577.457 532.353M573.577 467.37L471.008 467.362M577.457 532.353L580.786 588.033M577.457 532.353L482.773 532.212M580.786 588.033L583.666 636.276M580.786 588.033L492.858 587.798M583.666 636.276L586.187 678.476M583.666 636.276L501.597 635.969M586.187 678.476L588.411 715.706M586.187 678.476L509.24 678.121M588.411 715.706L590.389 748.792M588.411 715.706L515.987 715.309M590.389 748.792L592.155 778.388M590.389 748.792L521.988 748.369M592.155 778.388L593.746 805.02M592.155 778.388L527.351 777.948M593.746 805.02L595.186 829.116M593.746 805.02L532.181 804.567M595.186 829.116L596.493 851.014M595.186 829.116L536.553 828.65M596.493 851.014L597.688 871.008M596.493 851.014L540.523 850.547M597.688 871.008L598.783 889.334M597.688 871.008L544.149 870.537M598.783 889.334L547.473 888.864M540.655 -40.8282L536.978 -21.8432M540.655 -40.8282L484.128 -40.2124M536.978 -21.8432L532.974 -1.16026M536.978 -21.8432L478.038 -21.2274M532.974 -1.16026L528.593 21.4686M532.974 -1.16026L471.395 -0.540134M528.593 21.4686L523.782 46.3257M528.593 21.4686L464.134 22.0844M523.782 46.3257L518.47 73.7575M523.782 46.3257L456.159 46.9373M518.47 73.7575L512.578 104.192M518.47 73.7575L447.354 74.3606M512.578 104.192L506.002 138.141M512.578 104.192L437.596 104.773M506.002 138.141L498.622 176.257M506.002 138.141L426.704 138.702M498.622 176.257L490.28 219.359M498.622 176.257L414.48 176.783M490.28 219.359L480.767 268.488M490.28 219.359L400.661 219.834M480.767 268.488L469.823 325.006M480.767 268.488L384.916 268.894M469.823 325.006L366.805 325.318M471.008 467.362L482.773 532.212M471.008 467.362L368.892 467.353M482.773 532.212L492.858 587.798M482.773 532.212L388.471 532.071M492.858 587.798L501.597 635.969M492.858 587.798L405.26 587.563M501.597 635.969L509.24 678.121M501.597 635.969L419.816 635.665M509.24 678.121L515.987 715.309M509.24 678.121L432.553 677.762M515.987 715.309L521.988 748.369M515.987 715.309L443.795 714.915M521.988 748.369L527.351 777.948M521.988 748.369L453.785 747.95M527.351 777.948L532.181 804.567M527.351 777.948L462.732 777.507M532.181 804.567L536.553 828.65M532.181 804.567L470.781 804.113M536.553 828.65L540.523 850.547M536.553 828.65L478.066 828.188M540.523 850.547L544.149 870.537M540.523 850.547L484.685 850.077M544.149 870.537L547.473 888.864M544.149 870.537L490.733 870.067M547.473 888.864L496.281 888.389M484.128 -40.2124L478.038 -21.2274M484.128 -40.2124L427.742 -39.5965M478.038 -21.2274L471.395 -0.540134M478.038 -21.2274L419.244 -20.6071M471.395 -0.540134L464.134 22.0844M471.395 -0.540134L409.986 0.0757165M464.134 22.0844L456.159 46.9373M464.134 22.0844L399.854 22.7004M456.159 46.9373L447.354 74.3606M456.159 46.9373L388.736 47.5446M447.354 74.3606L437.596 104.773M447.354 74.3606L376.46 74.9594M437.596 104.773L426.704 138.702M437.596 104.773L362.854 105.355M426.704 138.702L414.48 176.783M426.704 138.702L347.675 139.258M414.48 176.783L400.661 219.834M414.48 176.783L330.646 177.305M400.661 219.834L384.916 268.894M400.661 219.834L311.392 220.304M384.916 268.894L366.805 325.318M384.916 268.894L289.462 269.296M366.805 325.318L264.246 325.626M368.892 467.353L388.471 532.071M368.892 467.353L267.225 467.345M388.471 532.071L405.26 587.563M388.471 532.071L294.556 531.934M405.26 587.563L419.816 635.665M405.26 587.563L317.997 587.328M419.816 635.665L432.553 677.762M419.816 635.665L338.322 635.361M432.553 677.762L443.795 714.915M432.553 677.762L356.117 677.407M443.795 714.915L453.785 747.95M443.795 714.915L371.824 714.526M453.785 747.95L462.732 777.507M453.785 747.95L385.79 747.531M462.732 777.507L470.781 804.113M462.732 777.507L398.287 777.071M470.781 804.113L478.066 828.188M470.781 804.113L409.542 803.66M478.066 828.188L484.685 850.077M478.066 828.188L419.726 827.73M484.685 850.077L490.733 870.067M484.685 850.077L428.984 849.611M490.733 870.067L496.281 888.389M490.733 870.067L437.445 869.597M496.281 888.389L445.197 887.923M427.742 -39.5965L419.244 -20.6071M427.742 -39.5965L371.494 -38.9807M419.244 -20.6071L409.986 0.0757165M419.244 -20.6071L360.602 -19.9913M409.986 0.0757165L399.854 22.7004M409.986 0.0757165L348.733 0.691567M399.854 22.7004L388.736 47.5446M399.854 22.7004L335.759 23.3119M388.736 47.5446L376.46 74.9594M388.736 47.5446L321.505 48.152M376.46 74.9594L362.854 105.355M376.46 74.9594L305.783 75.5539M362.854 105.355L347.675 139.258M362.854 105.355L288.357 105.937M347.675 139.258L330.646 177.305M347.675 139.258L268.92 139.814M330.646 177.305L311.392 220.304M330.646 177.305L247.113 177.822M311.392 220.304L289.462 269.296M311.392 220.304L222.473 220.775M289.462 269.296L264.246 325.626M289.462 269.296L194.405 269.698M264.246 325.626L162.14 325.93M267.225 467.345L294.556 531.934M267.225 467.345L166.007 467.336M294.556 531.934L317.997 587.328M294.556 531.934L201.024 531.793M317.997 587.328L338.322 635.361M317.997 587.328L231.061 587.093M338.322 635.361L356.117 677.407M338.322 635.361L257.117 635.058M356.117 677.407L371.824 714.526M356.117 677.407L279.935 677.056M371.824 714.526L385.79 747.531M371.824 714.526L300.076 714.133M385.79 747.531L398.287 777.071M385.79 747.531L317.988 747.111M398.287 777.071L409.542 803.66M398.287 777.071L334.026 776.63M409.542 803.66L419.726 827.73M409.542 803.66L348.464 803.211M419.726 827.73L428.984 849.611M419.726 827.73L361.532 827.268M428.984 849.611L437.445 869.597M428.984 849.611L373.42 849.149M437.445 869.597L445.197 887.923M437.445 869.597L384.274 869.13M445.197 887.923L394.226 887.452M371.494 -38.9807L360.602 -19.9913M371.494 -38.9807L315.387 -38.369M360.602 -19.9913L348.733 0.691567M360.602 -19.9913L302.106 -19.3754M348.733 0.691567L335.759 23.3119M348.733 0.691567L287.645 1.30748M335.759 23.3119L321.505 48.152M335.759 23.3119L271.833 23.9235M321.505 48.152L305.783 75.5539M321.505 48.152L254.473 48.7593M305.783 75.5539L288.357 105.937M305.783 75.5539L235.329 76.1483M288.357 105.937L268.92 139.814M288.357 105.937L214.097 106.514M268.92 139.814L247.113 177.822M268.92 139.814L190.435 140.365M247.113 177.822L222.473 220.775M247.113 177.822L163.882 178.344M222.473 220.775L194.405 269.698M222.473 220.775L133.888 221.245M194.405 269.698L162.14 325.93M194.405 269.698L99.7349 270.1M162.14 325.93L60.492 326.238M166.007 467.336L201.024 531.793M166.007 467.336L65.2368 467.327M201.024 531.793L231.061 587.093M201.024 531.793L107.87 531.656M231.061 587.093L257.117 635.058M231.061 587.093L144.459 586.857M257.117 635.058L279.935 677.056M257.117 635.058L176.2 634.754M279.935 677.056L300.076 714.133M279.935 677.056L204.003 676.701M300.076 714.133L317.988 747.111M300.076 714.133L228.554 713.743M317.988 747.111L334.026 776.63M317.988 747.111L250.39 746.697M334.026 776.63L348.464 803.211M334.026 776.63L269.945 776.194M348.464 803.211L361.532 827.268M348.464 803.211L287.55 802.762M361.532 827.268L373.42 849.149M361.532 827.268L303.489 826.811M373.42 849.149L384.274 869.13M373.42 849.149L317.988 848.683M384.274 869.13L394.226 887.452M384.274 869.13L331.226 868.664M394.226 887.452L343.369 886.982M315.387 -38.369L302.106 -19.3754M315.387 -38.369L259.412 -37.7574M302.106 -19.3754L287.645 1.30748M302.106 -19.3754L243.761 -18.7639M287.645 1.30748L271.833 23.9235M287.645 1.30748L226.722 1.91906M271.833 23.9235L254.473 48.7593M271.833 23.9235L208.092 24.5351M254.473 48.7593L235.329 76.1483M254.473 48.7593L187.639 49.3623M235.329 76.1483L214.097 106.514M235.329 76.1483L165.081 76.7428M214.097 106.514L190.435 140.365M214.097 106.514L140.082 107.091M190.435 140.365L163.882 178.344M190.435 140.365L112.213 140.917M163.882 178.344L133.888 221.245M163.882 178.344L80.9538 178.857M133.888 221.245L99.7349 270.1M133.888 221.245L45.6531 221.711M99.7349 270.1L60.492 326.238M99.7349 270.1L5.46137 270.498M60.492 326.238L-40.7076 326.542M65.2368 467.327L107.87 531.656M65.2368 467.327L-35.094 467.319M107.87 531.656L144.459 586.857M107.87 531.656L15.0926 531.515M144.459 586.857L176.2 634.754M144.459 586.857L58.1786 586.626M176.2 634.754L204.003 676.701M176.2 634.754L95.566 634.455M204.003 676.701L228.554 713.743M204.003 676.701L128.322 676.351M228.554 713.743L250.39 746.697M228.554 713.743L157.254 713.354M250.39 746.697L269.945 776.194M250.39 746.697L182.989 746.277M269.945 776.194L287.55 802.762M269.945 776.194L206.038 775.762M287.55 802.762L303.489 826.811M287.55 802.762L226.797 802.313M303.489 826.811L317.988 848.683M303.489 826.811L245.593 826.353M317.988 848.683L331.226 868.664M317.988 848.683L262.688 848.221M331.226 868.664L343.369 886.982M331.226 868.664L278.301 868.198M343.369 886.982L292.626 886.516M259.412 -37.7574L243.761 -18.7639M243.761 -18.7639L226.722 1.91906M226.722 1.91906L208.092 24.5351M208.092 24.5351L187.639 49.3623M187.639 49.3623L165.081 76.7428M165.081 76.7428L140.082 107.091M140.082 107.091L112.213 140.917M112.213 140.917L80.9538 178.857M80.9538 178.857L45.6531 221.711M45.6531 221.711L5.46137 270.498M5.46137 270.498L-40.7076 326.542M-35.094 467.319L15.0926 531.515M15.0926 531.515L58.1786 586.626M58.1786 586.626L95.566 634.455M95.566 634.455L128.322 676.351M128.322 676.351L157.254 713.354M157.254 713.354L182.989 746.277M182.989 746.277L206.038 775.762M206.038 775.762L226.797 802.313M226.797 802.313L245.593 826.353M245.593 826.353L262.688 848.221M262.688 848.221L278.301 868.198M278.301 868.198L292.626 886.516" stroke="url(#paint0_linear_3168_76496)" stroke-opacity="0.2" stroke-width="0.2" stroke-linecap="round" stroke-linejoin="round"/>
<path d="M-203 391.76L-134.986 467.31M-203 391.76L-94.2983 391.589M-203 391.76L-141.463 326.845M-134.986 467.31L-77.3066 531.378M-134.986 467.31L-35.094 467.319M-77.3066 531.378L-27.7762 586.395M-77.3066 531.378L15.0926 531.515M-27.7762 586.395L15.2202 634.155M-27.7762 586.395L58.1786 586.626M15.2202 634.155L52.8908 676M15.2202 634.155L95.566 634.455M52.8908 676L86.1709 712.969M52.8908 676L128.322 676.351M86.1709 712.969L115.787 745.863M86.1709 712.969L157.254 713.354M115.787 745.863L142.311 775.326M115.787 745.863L182.989 746.277M142.311 775.326L166.205 801.864M142.311 775.326L206.038 775.762M166.205 801.864L187.838 825.896M166.205 801.864L226.797 802.313M187.838 825.896L207.521 847.759M187.838 825.896L245.593 826.353M207.521 847.759L225.499 867.732M207.521 847.759L262.688 848.221M225.499 867.732L241.995 886.05M225.499 867.732L278.301 868.198M241.995 886.05L257.174 902.913L305.807 903.38M241.995 886.05L292.626 886.516M305.807 903.38L354.545 903.846M305.807 903.38L292.626 886.516M354.545 903.846L403.386 904.312M354.545 903.846L343.369 886.982M403.386 904.312L452.331 904.782M403.386 904.312L394.226 887.452M452.331 904.782L501.38 905.253M452.331 904.782L445.197 887.923M501.38 905.253L550.532 905.719M501.38 905.253L496.281 888.389M550.532 905.719L599.789 906.194M550.532 905.719L547.473 888.864M599.789 906.194L649.154 906.664M599.789 906.194L598.783 889.334M649.154 906.664L698.623 907.139M649.154 906.664L650.207 889.809M698.623 907.139L748.196 907.614M698.623 907.139L701.744 890.284M748.196 907.614L797.878 908.088M748.196 907.614L753.399 890.758M797.878 908.088L847.663 908.563M797.878 908.088L805.167 891.233M847.663 908.563L897.557 909.042M847.663 908.563L857.049 891.712M897.557 909.042L947.56 909.521M897.557 909.042L909.048 892.191M947.56 909.521L997.666 910L1013.4 893.149M947.56 909.521L961.161 892.67M1013.4 893.149L1030.51 874.819M1013.4 893.149L961.161 892.67M1030.51 874.819L1049.19 854.807M1030.51 874.819L975.962 874.34M1049.19 854.807L1069.68 832.863M1049.19 854.807L992.123 854.328M1069.68 832.863L1092.24 808.702M1069.68 832.863L1009.84 832.392M1092.24 808.702L1117.21 781.959M1092.24 808.702L1029.34 808.236M1117.21 781.959L1144.98 752.209M1117.21 781.959L1050.93 781.51M1144.98 752.209L1176.08 718.91M1144.98 752.209L1074.93 751.777M1176.08 718.91L1211.11 681.38M1176.08 718.91L1101.8 718.503M1211.11 681.38L1250.9 638.766M1211.11 681.38L1132.07 681.012M1250.9 638.766L1296.47 589.958M1250.9 638.766L1166.44 638.453M1296.47 589.958L1349.18 533.499M1296.47 589.958L1205.8 589.714M1349.18 533.499L1410.85 467.439M1349.18 533.499L1251.31 533.354M1410.85 467.439L1484 389.095M1410.85 467.439L1304.54 467.43M1484 389.095L1367.65 389.279M1484 389.095L1418.17 322.158M1367.65 389.279L1251.87 389.463M1367.65 389.279L1310.88 322.479M1367.65 389.279L1304.54 467.43M1251.87 389.463L1136.66 389.642M1251.87 389.463L1204.07 322.799M1251.87 389.463L1198.71 467.422M1136.66 389.642L1022.01 389.826M1136.66 389.642L1097.75 323.12M1136.66 389.642L1093.35 467.413M1022.01 389.826L907.925 390.006M1022.01 389.826L991.915 323.437M1022.01 389.826L988.46 467.404M907.925 390.006L794.393 390.186M907.925 390.006L886.552 323.753M907.925 390.006L884.045 467.396M794.393 390.186L681.419 390.361M794.393 390.186L781.665 324.07M794.393 390.186L780.093 467.387M681.419 390.361L568.988 390.541M681.419 390.361L677.25 324.382M681.419 390.361L676.603 467.379M568.988 390.541L457.104 390.716M568.988 390.541L573.307 324.698M568.988 390.541L573.577 467.37M457.104 390.716L345.758 390.896M457.104 390.716L469.823 325.006M457.104 390.716L471.008 467.362M345.758 390.896L234.946 391.071M345.758 390.896L366.805 325.318M345.758 390.896L368.892 467.353M234.946 391.071L124.672 391.242M234.946 391.071L264.246 325.626M234.946 391.071L267.225 467.345M124.672 391.242L14.9227 391.417M124.672 391.242L162.14 325.93M124.672 391.242L166.007 467.336M14.9227 391.417L-94.2983 391.589M14.9227 391.417L60.492 326.238M14.9227 391.417L65.2368 467.327M-94.2983 391.589L-40.7076 326.542M-94.2983 391.589L-35.094 467.319M-141.463 326.845L-88.4299 270.895M-141.463 326.845L-40.7076 326.542M-88.4299 270.895L-42.2468 222.178M-88.4299 270.895L5.46137 270.498M-42.2468 222.178L-1.67243 179.375M-42.2468 222.178L45.6531 221.711M-1.67243 179.375L34.2609 141.469M-1.67243 179.375L80.9538 178.857M34.2609 141.469L66.3038 107.665M34.2609 141.469L112.213 140.917M66.3038 107.665L95.0514 77.333M66.3038 107.665L140.082 107.091M95.0514 77.333L120.995 49.9654M95.0514 77.333L165.081 76.7428M120.995 49.9654L144.525 25.1425M120.995 49.9654L187.639 49.3623M144.525 25.1425L165.96 2.53491M144.525 25.1425L208.092 24.5351M165.96 2.53491L185.567 -18.1522M165.96 2.53491L226.722 1.91906M185.567 -18.1522L203.574 -37.1458M185.567 -18.1522L243.761 -18.7639M203.574 -37.1458L220.164 -54.651M203.574 -37.1458L259.412 -37.7574M220.164 -54.651L235.503 -70.8305L287.154 -71.4334M220.164 -54.651L273.825 -55.2583M287.154 -71.4334L338.922 -72.0365M287.154 -71.4334L273.825 -55.2583M338.922 -72.0365L390.808 -72.6396M338.922 -72.0365L327.615 -55.8657M390.808 -72.6396L442.808 -73.2469M390.808 -72.6396L381.531 -56.473M442.808 -73.2469L494.93 -73.8542M442.808 -73.2469L435.575 -57.0846M494.93 -73.8542L547.166 -74.4615M494.93 -73.8542L489.742 -57.6961M547.166 -74.4615L599.52 -75.0731M547.166 -74.4615L544.036 -58.3078M599.52 -75.0731L651.996 -75.6804M599.52 -75.0731L598.462 -58.9236M651.996 -75.6804L704.591 -76.2963M651.996 -75.6804L653.016 -59.5395M704.591 -76.2963L757.303 -76.9079M704.591 -76.2963L707.697 -60.1596M757.303 -76.9079L810.134 -77.5237M757.303 -76.9079L762.506 -60.7756M810.134 -77.5237L863.092 -78.1396M810.134 -77.5237L817.447 -61.4M863.092 -78.1396L916.163 -78.7597M863.092 -78.1396L872.515 -62.0201M916.163 -78.7597L969.362 -79.38M916.163 -78.7597L927.716 -62.6445M969.362 -79.38L1022.68 -80.0001L1038.51 -63.8935M969.362 -79.38L983.049 -63.2689M1038.51 -63.8935L1055.67 -46.4524M1038.51 -63.8935L983.049 -63.2689M1055.67 -46.4524L1074.32 -27.493M1055.67 -46.4524L997.878 -45.8194M1074.32 -27.493L1094.65 -6.81002M1074.32 -27.493L1014 -26.8601M1094.65 -6.81002L1116.92 15.8359M1094.65 -6.81002L1031.57 -6.17708M1116.92 15.8359L1141.42 40.7444M1116.92 15.8359L1050.82 16.4689M1141.42 40.7444L1168.49 68.2703M1141.42 40.7444L1071.98 41.3731M1168.49 68.2703L1198.56 98.8499M1168.49 68.2703L1095.36 68.8861M1198.56 98.8499L1232.17 133.022M1198.56 98.8499L1121.34 99.4529M1232.17 133.022L1269.97 171.458M1232.17 133.022L1150.36 133.599M1269.97 171.458L1312.79 215.005M1269.97 171.458L1182.99 171.997M1312.79 215.005L1361.73 264.762M1312.79 215.005L1219.96 215.497M1361.73 264.762L1418.17 322.158M1361.73 264.762L1262.19 265.186M1418.17 322.158L1310.88 322.479M273.825 -55.2583L327.615 -55.8657M273.825 -55.2583L259.412 -37.7574M327.615 -55.8657L381.531 -56.473M327.615 -55.8657L315.387 -38.369M381.531 -56.473L435.575 -57.0846M381.531 -56.473L371.494 -38.9807M435.575 -57.0846L489.742 -57.6961M435.575 -57.0846L427.742 -39.5965M489.742 -57.6961L544.036 -58.3078M489.742 -57.6961L484.128 -40.2124M544.036 -58.3078L598.462 -58.9236M544.036 -58.3078L540.655 -40.8282M598.462 -58.9236L653.016 -59.5395M598.462 -58.9236L597.315 -41.4483M653.016 -59.5395L707.697 -60.1596M653.016 -59.5395L654.116 -42.0686M707.697 -60.1596L762.506 -60.7756M707.697 -60.1596L711.059 -42.6887M762.506 -60.7756L817.447 -61.4M762.506 -60.7756L768.138 -43.3131M817.447 -61.4L872.515 -62.0201M817.447 -61.4L825.364 -43.9375M872.515 -62.0201L927.716 -62.6445M872.515 -62.0201L882.727 -44.5619M927.716 -62.6445L983.049 -63.2689M927.716 -62.6445L940.232 -45.1906M983.049 -63.2689L997.878 -45.8194M997.878 -45.8194L1014 -26.8601M997.878 -45.8194L940.232 -45.1906M1014 -26.8601L1031.57 -6.17708M1014 -26.8601L953.829 -26.2271M1031.57 -6.17708L1050.82 16.4689M1031.57 -6.17708L968.659 -5.54408M1050.82 16.4689L1071.98 41.3731M1050.82 16.4689L984.895 17.0976M1071.98 41.3731L1095.36 68.8861M1071.98 41.3731L1002.75 41.9975M1095.36 68.8861L1121.34 99.4529M1095.36 68.8861L1022.47 69.502M1121.34 99.4529L1150.36 133.599M1121.34 99.4529L1044.37 100.052M1150.36 133.599L1182.99 171.997M1150.36 133.599L1068.83 134.172M1182.99 171.997L1219.96 215.497M1182.99 171.997L1096.34 172.536M1219.96 215.497L1262.19 265.186M1219.96 215.497L1127.49 215.985M1262.19 265.186L1310.88 322.479M1262.19 265.186L1163.06 265.605M1310.88 322.479L1204.07 322.799M1304.54 467.43L1251.31 533.354M1304.54 467.43L1198.71 467.422M1251.31 533.354L1205.8 589.714M1251.31 533.354L1153.84 533.208M1205.8 589.714L1166.44 638.453M1205.8 589.714L1115.48 589.47M1166.44 638.453L1132.07 681.012M1166.44 638.453L1082.29 638.137M1132.07 681.012L1101.8 718.503M1132.07 681.012L1053.3 680.649M1101.8 718.503L1074.93 751.777M1101.8 718.503L1027.76 718.101M1074.93 751.777L1050.93 781.51M1074.93 751.777L1005.09 751.345M1050.93 781.51L1029.34 808.236M1050.93 781.51L984.829 781.061M1029.34 808.236L1009.84 832.392M1029.34 808.236L966.614 807.774M1009.84 832.392L992.123 854.328M1009.84 832.392L950.147 831.922M992.123 854.328L975.962 874.34M992.123 854.328L935.19 853.853M975.962 874.34L961.161 892.67M975.962 874.34L921.546 873.861M961.161 892.67L909.048 892.191M940.232 -45.1906L953.829 -26.2271M940.232 -45.1906L882.727 -44.5619M953.829 -26.2271L968.659 -5.54408M953.829 -26.2271L893.818 -25.5941M968.659 -5.54408L984.895 17.0976M968.659 -5.54408L905.913 -4.91114M984.895 17.0976L1002.75 41.9975M984.895 17.0976L919.156 17.7306M1002.75 41.9975L1022.47 69.502M1002.75 41.9975L933.712 42.6219M1022.47 69.502L1044.37 100.052M1022.47 69.502L949.793 70.1178M1044.37 100.052L1068.83 134.172M1044.37 100.052L967.648 100.646M1068.83 134.172L1096.34 172.536M1068.83 134.172L987.591 134.746M1096.34 172.536L1127.49 215.985M1096.34 172.536L1010 173.075M1127.49 215.985L1163.06 265.605M1127.49 215.985L1035.38 216.472M1163.06 265.605L1204.07 322.799M1163.06 265.605L1064.36 266.02M1204.07 322.799L1097.75 323.12M1198.71 467.422L1153.84 533.208M1198.71 467.422L1093.35 467.413M1153.84 533.208L1115.48 589.47M1153.84 533.208L1056.79 533.063M1115.48 589.47L1082.29 638.137M1115.48 589.47L1025.51 589.231M1082.29 638.137L1053.3 680.649M1082.29 638.137L998.44 637.825M1053.3 680.649L1027.76 718.101M1053.3 680.649L974.796 680.281M1027.76 718.101L1005.09 751.345M1027.76 718.101L953.957 717.699M1005.09 751.345L984.829 781.061M1005.09 751.345L935.459 750.918M984.829 781.061L966.614 807.774M984.829 781.061L918.921 780.612M966.614 807.774L950.147 831.922M966.614 807.774L904.053 807.313M950.147 831.922L935.19 853.853M950.147 831.922L890.607 831.451M935.19 853.853L921.546 873.861M935.19 853.853L878.398 853.374M921.546 873.861L909.048 892.191M921.546 873.861L867.256 873.382M909.048 892.191L857.049 891.712M882.727 -44.5619L893.818 -25.5941M882.727 -44.5619L825.364 -43.9375M893.818 -25.5941L905.913 -4.91114M893.818 -25.5941L833.962 -24.9654M905.913 -4.91114L919.156 17.7306M905.913 -4.91114L843.338 -4.28241M919.156 17.7306L933.712 42.6219M919.156 17.7306L853.602 18.355M933.712 42.6219L949.793 70.1178M933.712 42.6219L864.886 43.2421M949.793 70.1178L967.648 100.646M949.793 70.1178L877.345 70.7295M967.648 100.646L987.591 134.746M967.648 100.646L891.183 101.245M987.591 134.746L1010 173.075M987.591 134.746L906.626 135.319M1010 173.075L1035.38 216.472M1010 173.075L923.991 173.609M1035.38 216.472L1064.36 266.02M1035.38 216.472L943.641 216.96M1064.36 266.02L1097.75 323.12M1064.36 266.02L966.071 266.435M1097.75 323.12L991.915 323.437M1093.35 467.413L1056.79 533.063M1093.35 467.413L988.46 467.404M1056.79 533.063L1025.51 589.231M1056.79 533.063L960.127 532.922M1025.51 589.231L998.44 637.825M1025.51 589.231L935.879 588.987M998.44 637.825L974.796 680.281M998.44 637.825L914.893 637.512M974.796 680.281L953.957 717.699M974.796 680.281L896.551 679.918M953.957 717.699L935.459 750.918M953.957 717.699L880.386 717.297M935.459 750.918L918.921 780.612M935.459 750.918L866.033 750.49M918.921 780.612L904.053 807.313M918.921 780.612L853.201 780.163M904.053 807.313L890.607 831.451M904.053 807.313L841.658 806.851M890.607 831.451L878.398 853.374M890.607 831.451L831.224 830.981M878.398 853.374L867.256 873.382M878.398 853.374L821.743 852.9M867.256 873.382L857.049 891.712M867.256 873.382L813.089 872.907M857.049 891.712L805.167 891.233M825.364 -43.9375L833.962 -24.9654M825.364 -43.9375L768.138 -43.3131M833.962 -24.9654L843.338 -4.28241M833.962 -24.9654L774.262 -24.3366M843.338 -4.28241L853.602 18.355M843.338 -4.28241L780.933 -3.65375M853.602 18.355L864.886 43.2421M853.602 18.355L788.237 18.9836M864.886 43.2421L877.345 70.7295M864.886 43.2421L796.263 43.8622M877.345 70.7295L891.183 101.245M877.345 70.7295L805.125 71.3368M891.183 101.245L906.626 135.319M891.183 101.245L814.964 101.835M906.626 135.319L923.991 173.609M906.626 135.319L825.95 135.888M923.991 173.609L943.641 216.96M923.991 173.609L838.291 174.144M943.641 216.96L966.071 266.435M943.641 216.96L852.257 217.443M966.071 266.435L991.915 323.437M966.071 266.435L868.196 266.849M991.915 323.437L886.552 323.753M988.46 467.404L960.127 532.922M988.46 467.404L884.045 467.396M960.127 532.922L935.879 588.987M960.127 532.922L863.866 532.776M935.879 588.987L914.893 637.512M935.879 588.987L846.596 588.748M914.893 637.512L896.551 679.918M914.893 637.512L831.644 637.2M896.551 679.918L880.386 717.297M896.551 679.918L818.571 679.558M880.386 717.297L866.033 750.49M880.386 717.297L807.051 716.895M866.033 750.49L853.201 780.163M866.033 750.49L796.815 750.062M853.201 780.163L841.658 806.851M853.201 780.163L787.661 779.718M841.658 806.851L831.224 830.981M841.658 806.851L779.432 806.393M831.224 830.981L821.743 852.9M831.224 830.981L771.986 830.51M821.743 852.9L813.089 872.907M821.743 852.9L765.226 852.429M813.089 872.907L805.167 891.233M813.089 872.907L759.055 872.428M805.167 891.233L753.399 890.758M768.138 -43.3131L774.262 -24.3366M768.138 -43.3131L711.059 -42.6887M774.262 -24.3366L780.933 -3.65375M774.262 -24.3366L714.713 -23.7122M780.933 -3.65375L788.237 18.9836M780.933 -3.65375L718.693 -3.02935M788.237 18.9836L796.263 43.8622M788.237 18.9836L723.051 19.6082M796.263 43.8622L805.125 71.3368M796.263 43.8622L727.843 44.4824M805.125 71.3368L814.964 101.835M805.125 71.3368L733.131 71.9484M814.964 101.835L825.95 135.888M814.964 101.835L738.994 102.43M825.95 135.888L838.291 174.144M825.95 135.888L745.547 136.452M838.291 174.144L852.257 217.443M838.291 174.144L752.908 174.674M852.257 217.443L868.196 266.849M852.257 217.443L761.231 217.926M868.196 266.849L886.552 323.753M868.196 266.849L770.73 267.26M886.552 323.753L781.665 324.07M884.045 467.396L863.866 532.776M884.045 467.396L780.093 467.387M863.866 532.776L846.596 588.748M863.866 532.776L768.002 532.635M846.596 588.748L831.644 637.2M846.596 588.748L757.653 588.508M831.644 637.2L818.571 679.558M831.644 637.2L748.687 636.892M818.571 679.558L807.051 716.895M818.571 679.558L740.85 679.195M807.051 716.895L796.815 750.062M807.051 716.895L733.943 716.498M796.815 750.062L787.661 779.718M796.815 750.062L727.8 749.639M787.661 779.718L779.432 806.393M787.661 779.718L722.31 779.273M779.432 806.393L771.986 830.51M779.432 806.393L717.371 805.935M771.986 830.51L765.226 852.429M771.986 830.51L712.905 830.044M765.226 852.429L759.055 872.428M765.226 852.429L708.845 851.954M759.055 872.428L753.399 890.758M759.055 872.428L705.138 871.953M753.399 890.758L701.744 890.284M711.059 -42.6887L714.713 -23.7122M711.059 -42.6887L654.116 -42.0686M714.713 -23.7122L718.693 -3.02935M714.713 -23.7122L655.315 -23.0878M718.693 -3.02935L723.051 19.6082M718.693 -3.02935L656.623 -2.40496M723.051 19.6082L727.843 44.4824M723.051 19.6082L658.049 20.2283M727.843 44.4824L733.131 71.9484M727.843 44.4824L659.621 45.0982M733.131 71.9484L738.994 102.43M733.131 71.9484L661.354 72.5515M738.994 102.43L745.547 136.452M738.994 102.43L663.275 103.016M745.547 136.452L752.908 174.674M745.547 136.452L665.423 137.017M752.908 174.674L761.231 217.926M752.908 174.674L667.836 175.205M761.231 217.926L770.73 267.26M761.231 217.926L670.56 218.405M770.73 267.26L781.665 324.07M770.73 267.26L673.671 267.671M781.665 324.07L677.25 324.382M780.093 467.387L768.002 532.635M780.093 467.387L676.603 467.379M768.002 532.635L757.653 588.508M768.002 532.635L672.534 532.494M757.653 588.508L748.687 636.892M757.653 588.508L669.049 588.269M748.687 636.892L740.85 679.195M748.687 636.892L666.032 636.584M740.85 679.195L733.943 716.498M740.85 679.195L663.389 678.836M733.943 716.498L727.8 749.639M733.943 716.498L661.061 716.1M727.8 749.639L722.31 779.273M727.8 749.639L658.993 749.216M722.31 779.273L717.371 805.935M722.31 779.273L657.142 778.829M717.371 805.935L712.905 830.044M717.371 805.935L655.476 805.478M712.905 830.044L708.845 851.954M712.905 830.044L653.97 829.578M708.845 851.954L705.138 871.953M708.845 851.954L652.601 851.484M705.138 871.953L701.744 890.284M705.138 871.953L651.354 871.483M701.744 890.284L650.207 889.809M654.116 -42.0686L655.315 -23.0878M654.116 -42.0686L597.315 -41.4483M655.315 -23.0878L656.623 -2.40496M655.315 -23.0878L596.073 -22.4676M656.623 -2.40496L658.049 20.2283M656.623 -2.40496L594.713 -1.78044M658.049 20.2283L659.621 45.0982M658.049 20.2283L593.231 20.8485M659.621 45.0982L661.354 72.5515M659.621 45.0982L591.602 45.7141M661.354 72.5515L663.275 103.016M661.354 72.5515L589.799 73.1545M663.275 103.016L665.423 137.017M663.275 103.016L587.802 103.606M665.423 137.017L667.836 175.205M665.423 137.017L585.578 137.581M667.836 175.205L670.56 218.405M667.836 175.205L583.076 175.731M670.56 218.405L673.671 267.671M670.56 218.405L580.243 218.884M673.671 267.671L677.25 324.382M673.671 267.671L577.018 268.081M677.25 324.382L573.307 324.698M676.603 467.379L672.534 532.494M676.603 467.379L573.577 467.37M672.534 532.494L669.049 588.269M672.534 532.494L577.457 532.353M669.049 588.269L666.032 636.584M669.049 588.269L580.786 588.033M666.032 636.584L663.389 678.836M666.032 636.584L583.666 636.276M663.389 678.836L661.061 716.1M663.389 678.836L586.187 678.476M661.061 716.1L658.993 749.216M661.061 716.1L588.411 715.706M658.993 749.216L657.142 778.829M658.993 749.216L590.389 748.792M657.142 778.829L655.476 805.478M657.142 778.829L592.155 778.388M655.476 805.478L653.97 829.578M655.476 805.478L593.746 805.02M653.97 829.578L652.601 851.484M653.97 829.578L595.186 829.116M652.601 851.484L651.354 871.483M652.601 851.484L596.493 851.014M651.354 871.483L650.207 889.809M651.354 871.483L597.688 871.008M650.207 889.809L598.783 889.334M597.315 -41.4483L596.073 -22.4676M597.315 -41.4483L540.655 -40.8282M596.073 -22.4676L594.713 -1.78044M596.073 -22.4676L536.978 -21.8432M594.713 -1.78044L593.231 20.8485M594.713 -1.78044L532.974 -1.16026M593.231 20.8485L591.602 45.7141M593.231 20.8485L528.593 21.4686M591.602 45.7141L589.799 73.1545M591.602 45.7141L523.782 46.3257M589.799 73.1545L587.802 103.606M589.799 73.1545L518.47 73.7575M587.802 103.606L585.578 137.581M587.802 103.606L512.578 104.192M585.578 137.581L583.076 175.731M585.578 137.581L506.002 138.141M583.076 175.731L580.243 218.884M583.076 175.731L498.622 176.257M580.243 218.884L577.018 268.081M580.243 218.884L490.28 219.359M577.018 268.081L573.307 324.698M577.018 268.081L480.767 268.488M573.307 324.698L469.823 325.006M573.577 467.37L577.457 532.353M573.577 467.37L471.008 467.362M577.457 532.353L580.786 588.033M577.457 532.353L482.773 532.212M580.786 588.033L583.666 636.276M580.786 588.033L492.858 587.798M583.666 636.276L586.187 678.476M583.666 636.276L501.597 635.969M586.187 678.476L588.411 715.706M586.187 678.476L509.24 678.121M588.411 715.706L590.389 748.792M588.411 715.706L515.987 715.309M590.389 748.792L592.155 778.388M590.389 748.792L521.988 748.369M592.155 778.388L593.746 805.02M592.155 778.388L527.351 777.948M593.746 805.02L595.186 829.116M593.746 805.02L532.181 804.567M595.186 829.116L596.493 851.014M595.186 829.116L536.553 828.65M596.493 851.014L597.688 871.008M596.493 851.014L540.523 850.547M597.688 871.008L598.783 889.334M597.688 871.008L544.149 870.537M598.783 889.334L547.473 888.864M540.655 -40.8282L536.978 -21.8432M540.655 -40.8282L484.128 -40.2124M536.978 -21.8432L532.974 -1.16026M536.978 -21.8432L478.038 -21.2274M532.974 -1.16026L528.593 21.4686M532.974 -1.16026L471.395 -0.540134M528.593 21.4686L523.782 46.3257M528.593 21.4686L464.134 22.0844M523.782 46.3257L518.47 73.7575M523.782 46.3257L456.159 46.9373M518.47 73.7575L512.578 104.192M518.47 73.7575L447.354 74.3606M512.578 104.192L506.002 138.141M512.578 104.192L437.596 104.773M506.002 138.141L498.622 176.257M506.002 138.141L426.704 138.702M498.622 176.257L490.28 219.359M498.622 176.257L414.48 176.783M490.28 219.359L480.767 268.488M490.28 219.359L400.661 219.834M480.767 268.488L469.823 325.006M480.767 268.488L384.916 268.894M469.823 325.006L366.805 325.318M471.008 467.362L482.773 532.212M471.008 467.362L368.892 467.353M482.773 532.212L492.858 587.798M482.773 532.212L388.471 532.071M492.858 587.798L501.597 635.969M492.858 587.798L405.26 587.563M501.597 635.969L509.24 678.121M501.597 635.969L419.816 635.665M509.24 678.121L515.987 715.309M509.24 678.121L432.553 677.762M515.987 715.309L521.988 748.369M515.987 715.309L443.795 714.915M521.988 748.369L527.351 777.948M521.988 748.369L453.785 747.95M527.351 777.948L532.181 804.567M527.351 777.948L462.732 777.507M532.181 804.567L536.553 828.65M532.181 804.567L470.781 804.113M536.553 828.65L540.523 850.547M536.553 828.65L478.066 828.188M540.523 850.547L544.149 870.537M540.523 850.547L484.685 850.077M544.149 870.537L547.473 888.864M544.149 870.537L490.733 870.067M547.473 888.864L496.281 888.389M484.128 -40.2124L478.038 -21.2274M484.128 -40.2124L427.742 -39.5965M478.038 -21.2274L471.395 -0.540134M478.038 -21.2274L419.244 -20.6071M471.395 -0.540134L464.134 22.0844M471.395 -0.540134L409.986 0.0757165M464.134 22.0844L456.159 46.9373M464.134 22.0844L399.854 22.7004M456.159 46.9373L447.354 74.3606M456.159 46.9373L388.736 47.5446M447.354 74.3606L437.596 104.773M447.354 74.3606L376.46 74.9594M437.596 104.773L426.704 138.702M437.596 104.773L362.854 105.355M426.704 138.702L414.48 176.783M426.704 138.702L347.675 139.258M414.48 176.783L400.661 219.834M414.48 176.783L330.646 177.305M400.661 219.834L384.916 268.894M400.661 219.834L311.392 220.304M384.916 268.894L366.805 325.318M384.916 268.894L289.462 269.296M366.805 325.318L264.246 325.626M368.892 467.353L388.471 532.071M368.892 467.353L267.225 467.345M388.471 532.071L405.26 587.563M388.471 532.071L294.556 531.934M405.26 587.563L419.816 635.665M405.26 587.563L317.997 587.328M419.816 635.665L432.553 677.762M419.816 635.665L338.322 635.361M432.553 677.762L443.795 714.915M432.553 677.762L356.117 677.407M443.795 714.915L453.785 747.95M443.795 714.915L371.824 714.526M453.785 747.95L462.732 777.507M453.785 747.95L385.79 747.531M462.732 777.507L470.781 804.113M462.732 777.507L398.287 777.071M470.781 804.113L478.066 828.188M470.781 804.113L409.542 803.66M478.066 828.188L484.685 850.077M478.066 828.188L419.726 827.73M484.685 850.077L490.733 870.067M484.685 850.077L428.984 849.611M490.733 870.067L496.281 888.389M490.733 870.067L437.445 869.597M496.281 888.389L445.197 887.923M427.742 -39.5965L419.244 -20.6071M427.742 -39.5965L371.494 -38.9807M419.244 -20.6071L409.986 0.0757165M419.244 -20.6071L360.602 -19.9913M409.986 0.0757165L399.854 22.7004M409.986 0.0757165L348.733 0.691567M399.854 22.7004L388.736 47.5446M399.854 22.7004L335.759 23.3119M388.736 47.5446L376.46 74.9594M388.736 47.5446L321.505 48.152M376.46 74.9594L362.854 105.355M376.46 74.9594L305.783 75.5539M362.854 105.355L347.675 139.258M362.854 105.355L288.357 105.937M347.675 139.258L330.646 177.305M347.675 139.258L268.92 139.814M330.646 177.305L311.392 220.304M330.646 177.305L247.113 177.822M311.392 220.304L289.462 269.296M311.392 220.304L222.473 220.775M289.462 269.296L264.246 325.626M289.462 269.296L194.405 269.698M264.246 325.626L162.14 325.93M267.225 467.345L294.556 531.934M267.225 467.345L166.007 467.336M294.556 531.934L317.997 587.328M294.556 531.934L201.024 531.793M317.997 587.328L338.322 635.361M317.997 587.328L231.061 587.093M338.322 635.361L356.117 677.407M338.322 635.361L257.117 635.058M356.117 677.407L371.824 714.526M356.117 677.407L279.935 677.056M371.824 714.526L385.79 747.531M371.824 714.526L300.076 714.133M385.79 747.531L398.287 777.071M385.79 747.531L317.988 747.111M398.287 777.071L409.542 803.66M398.287 777.071L334.026 776.63M409.542 803.66L419.726 827.73M409.542 803.66L348.464 803.211M419.726 827.73L428.984 849.611M419.726 827.73L361.532 827.268M428.984 849.611L437.445 869.597M428.984 849.611L373.42 849.149M437.445 869.597L445.197 887.923M437.445 869.597L384.274 869.13M445.197 887.923L394.226 887.452M371.494 -38.9807L360.602 -19.9913M371.494 -38.9807L315.387 -38.369M360.602 -19.9913L348.733 0.691567M360.602 -19.9913L302.106 -19.3754M348.733 0.691567L335.759 23.3119M348.733 0.691567L287.645 1.30748M335.759 23.3119L321.505 48.152M335.759 23.3119L271.833 23.9235M321.505 48.152L305.783 75.5539M321.505 48.152L254.473 48.7593M305.783 75.5539L288.357 105.937M305.783 75.5539L235.329 76.1483M288.357 105.937L268.92 139.814M288.357 105.937L214.097 106.514M268.92 139.814L247.113 177.822M268.92 139.814L190.435 140.365M247.113 177.822L222.473 220.775M247.113 177.822L163.882 178.344M222.473 220.775L194.405 269.698M222.473 220.775L133.888 221.245M194.405 269.698L162.14 325.93M194.405 269.698L99.7349 270.1M162.14 325.93L60.492 326.238M166.007 467.336L201.024 531.793M166.007 467.336L65.2368 467.327M201.024 531.793L231.061 587.093M201.024 531.793L107.87 531.656M231.061 587.093L257.117 635.058M231.061 587.093L144.459 586.857M257.117 635.058L279.935 677.056M257.117 635.058L176.2 634.754M279.935 677.056L300.076 714.133M279.935 677.056L204.003 676.701M300.076 714.133L317.988 747.111M300.076 714.133L228.554 713.743M317.988 747.111L334.026 776.63M317.988 747.111L250.39 746.697M334.026 776.63L348.464 803.211M334.026 776.63L269.945 776.194M348.464 803.211L361.532 827.268M348.464 803.211L287.55 802.762M361.532 827.268L373.42 849.149M361.532 827.268L303.489 826.811M373.42 849.149L384.274 869.13M373.42 849.149L317.988 848.683M384.274 869.13L394.226 887.452M384.274 869.13L331.226 868.664M394.226 887.452L343.369 886.982M315.387 -38.369L302.106 -19.3754M315.387 -38.369L259.412 -37.7574M302.106 -19.3754L287.645 1.30748M302.106 -19.3754L243.761 -18.7639M287.645 1.30748L271.833 23.9235M287.645 1.30748L226.722 1.91906M271.833 23.9235L254.473 48.7593M271.833 23.9235L208.092 24.5351M254.473 48.7593L235.329 76.1483M254.473 48.7593L187.639 49.3623M235.329 76.1483L214.097 106.514M235.329 76.1483L165.081 76.7428M214.097 106.514L190.435 140.365M214.097 106.514L140.082 107.091M190.435 140.365L163.882 178.344M190.435 140.365L112.213 140.917M163.882 178.344L133.888 221.245M163.882 178.344L80.9538 178.857M133.888 221.245L99.7349 270.1M133.888 221.245L45.6531 221.711M99.7349 270.1L60.492 326.238M99.7349 270.1L5.46137 270.498M60.492 326.238L-40.7076 326.542M65.2368 467.327L107.87 531.656M65.2368 467.327L-35.094 467.319M107.87 531.656L144.459 586.857M107.87 531.656L15.0926 531.515M144.459 586.857L176.2 634.754M144.459 586.857L58.1786 586.626M176.2 634.754L204.003 676.701M176.2 634.754L95.566 634.455M204.003 676.701L228.554 713.743M204.003 676.701L128.322 676.351M228.554 713.743L250.39 746.697M228.554 713.743L157.254 713.354M250.39 746.697L269.945 776.194M250.39 746.697L182.989 746.277M269.945 776.194L287.55 802.762M269.945 776.194L206.038 775.762M287.55 802.762L303.489 826.811M287.55 802.762L226.797 802.313M303.489 826.811L317.988 848.683M303.489 826.811L245.593 826.353M317.988 848.683L331.226 868.664M317.988 848.683L262.688 848.221M331.226 868.664L343.369 886.982M331.226 868.664L278.301 868.198M343.369 886.982L292.626 886.516M259.412 -37.7574L243.761 -18.7639M243.761 -18.7639L226.722 1.91906M226.722 1.91906L208.092 24.5351M208.092 24.5351L187.639 49.3623M187.639 49.3623L165.081 76.7428M165.081 76.7428L140.082 107.091M140.082 107.091L112.213 140.917M112.213 140.917L80.9538 178.857M80.9538 178.857L45.6531 221.711M45.6531 221.711L5.46137 270.498M5.46137 270.498L-40.7076 326.542M-35.094 467.319L15.0926 531.515M15.0926 531.515L58.1786 586.626M58.1786 586.626L95.566 634.455M95.566 634.455L128.322 676.351M128.322 676.351L157.254 713.354M157.254 713.354L182.989 746.277M182.989 746.277L206.038 775.762M206.038 775.762L226.797 802.313M226.797 802.313L245.593 826.353M245.593 826.353L262.688 848.221M262.688 848.221L278.301 868.198M278.301 868.198L292.626 886.516" stroke="url(#paint1_linear_3168_76496)" stroke-opacity="0.6" stroke-width="0.2" stroke-linecap="round" stroke-linejoin="round"/>
</g>
<defs>
<linearGradient id="paint0_linear_3168_76496" x1="640.5" y1="-80" x2="640.5" y2="910" gradientUnits="userSpaceOnUse">
<stop stop-color="#86F097" stop-opacity="0"/>
<stop offset="0.48" stop-color="#86F097"/>
<stop offset="1" stop-color="#86F097" stop-opacity="0"/>
</linearGradient>
<linearGradient id="paint1_linear_3168_76496" x1="77.4651" y1="415.089" x2="1181.02" y2="415.089" gradientUnits="userSpaceOnUse">
<stop stop-color="#74F28C"/>
<stop offset="0.5" stop-color="#71F28A" stop-opacity="0"/>
<stop offset="1" stop-color="#6DF388"/>
</linearGradient>
</defs>
</svg>
