<svg width="24" height="24" viewBox="0 0 24 24" fill="none" xmlns="http://www.w3.org/2000/svg">
<path d="M23.6433 14.8962C22.042 21.3208 15.5349 25.244 9.0985 23.6417C2.67383 22.0356 -1.24298 15.5285 0.358284 9.1038C1.95955 2.67916 8.46271 -1.24396 14.8835 0.358273C21.3238 1.94087 25.2406 8.46762 23.6433 14.8962Z" fill="#F0B90B"/>
<path d="M16.5906 11.4135L16.5813 9.41612H16.5885L14.8919 8.4174L11.9847 10.1316L9.09507 8.4174L7.39954 9.41612V11.4135L10.3068 13.1194V16.5395L11.995 17.5289L13.6833 16.5395V13.1194L16.5906 11.4135Z" fill="white"/>
<path d="M11.9857 3.30078L7.3985 6.00538L9.0868 7.0041L11.9857 5.28994L14.893 7.0041L16.5813 6.00538L11.9857 3.30078Z" fill="white"/>
<path d="M6.1871 15.5325L6.1778 12.1207L4.49054 11.123V16.5405L9.08605 19.2358V17.2383L6.1871 15.5325Z" fill="white"/>
<path d="M6.1778 10.6971V8.70893L7.87436 7.71021L6.1778 6.71149L4.4895 7.71021V9.69834L6.1778 10.6971Z" fill="white"/>
<path d="M11.985 6.71149L10.2967 7.71021L11.985 8.70893L13.6816 7.71021L11.985 6.71149Z" fill="white"/>
<path d="M9.0868 13.8266L7.3985 12.8279V14.8253L9.0868 15.8147V13.8266Z" fill="white"/>
<path d="M11.9857 18.9525L10.2974 17.9538V19.9419L11.9857 20.9406L13.6823 19.9419V17.9538L11.9857 18.9525Z" fill="white"/>
<path d="M17.7919 6.71149L16.1036 7.71021L17.7919 8.70893V10.6971L19.4885 9.69834V7.71021L17.7919 6.71149Z" fill="white"/>
<path d="M19.4895 11.122L17.8012 12.1207L17.7919 15.5325L14.894 17.2373V19.2347L19.4895 16.5395V11.122Z" fill="white"/>
<path d="M16.5816 14.8252L14.8933 15.8146V13.8265L16.5816 12.8278V14.8252Z" fill="white"/>
</svg>
