<svg width="88" height="29" viewBox="0 0 88 29" fill="none" xmlns="http://www.w3.org/2000/svg">
<g opacity="0.6">
<path d="M5.33175 4.63436V23.0968H0.0749954V0.0749954H10.8122H10.8135C14.0719 0.0753207 17.1959 1.28913 19.4986 3.44814C21.8014 5.60728 23.0942 8.53463 23.0942 11.5859C23.0942 14.6372 21.8014 17.5645 19.4986 19.7236C17.2133 21.8664 14.119 23.0781 10.8872 23.0966V18.6121C12.8448 18.5937 14.719 17.8566 16.1061 16.5561C17.5111 15.2388 18.3014 13.4511 18.3014 11.5859C18.3014 9.72072 17.5111 7.93301 16.1061 6.6157C14.7016 5.29885 12.7978 4.55969 10.8135 4.55936H10.8135H10.8135H10.8135H10.8135H10.8135H10.8135H10.8134H10.8134H10.8134H10.8134H10.8134H10.8134H10.8134H10.8134H10.8134H10.8134H10.8134H10.8134H10.8134H10.8133H10.8133H10.8133H10.8133H10.8133H10.8133H10.8133H10.8133H10.8133H10.8133H10.8133H10.8133H10.8133H10.8132H10.8132H10.8132H10.8132H10.8132H10.8132H10.8132H10.8132H10.8132H10.8132H10.8132H10.8132H10.8132H10.8131H10.8131H10.8131H10.8131H10.8131H10.8131H10.8131H10.8131H10.8131H10.8131H10.8131H10.8131H10.8131H10.813H10.813H10.813H10.813H10.813H10.813H10.813H10.813H10.813H10.813H10.813H10.813H10.813H10.8129H10.8129H10.8129H10.8129H10.8129H10.8129H10.8129H10.8129H10.8129H10.8129H10.8129H10.8129H10.8128H10.8128H10.8128H10.8128H10.8128H10.8128H10.8128H10.8128H10.8128H10.8128H10.8128H10.8128H10.8128H10.8127H10.8127H10.8127H10.8127H10.8127H10.8127H10.8127H10.8127H10.8127H10.8127H10.8127H10.8127H10.8127H10.8126H10.8126H10.8126H10.8126H10.8126H10.8126H10.8126H10.8126H10.8126H10.8126H10.8126H10.8126H10.8126H10.8125H10.8125H10.8125H10.8125H10.8125H10.8125H10.8125H10.8125H10.8125H10.8125H10.8125H10.8125H10.8125H10.8124H10.8124H10.8124H10.8124H10.8124H10.8124H10.8124H10.8124H10.8124H10.8124H10.8124H10.8124H10.8124H10.8123H10.8123H10.8123H10.8123H10.8123H10.8123H10.8123H10.8123H10.8123H10.8123H10.8123H10.8123H10.8123H10.8122H10.8122H10.8122H10.8122H10.8122H10.8122H10.8122H10.8122H10.8122H5.40675H5.33175V4.63436Z" stroke="#86F097" stroke-width="0.149991"/>
<path d="M10.1593 10.0411C10.1593 11.0662 9.32833 11.8971 8.3033 11.8971C7.27826 11.8971 6.44731 11.0662 6.44731 10.0411C6.44731 9.0161 7.27826 8.18515 8.3033 8.18515C9.32833 8.18515 10.1593 9.0161 10.1593 10.0411Z" stroke="#86F097" stroke-width="0.149991"/>
<path d="M15.9137 10.0411C15.9137 11.0662 15.0827 11.8971 14.0577 11.8971C13.0327 11.8971 12.2017 11.0662 12.2017 10.0411C12.2017 9.0161 13.0327 8.18515 14.0577 8.18515C15.0827 8.18515 15.9137 9.0161 15.9137 10.0411Z" stroke="#86F097" stroke-width="0.149991"/>
<path d="M83.624 22.8933L83.624 22.8933L83.6255 22.894C84.1411 23.1309 84.7978 23.2471 85.5921 23.2471H87.4051H87.4801V23.1721V21.3184V21.2508L87.4129 21.2438L86.048 21.1012L86.048 21.1012L86.0464 21.1011C85.8899 21.088 85.7403 21.0554 85.5973 21.0035C85.4593 20.9533 85.3258 20.8714 85.197 20.756C85.0849 20.6304 84.9954 20.4653 84.9305 20.2577C84.8654 20.0362 84.8319 19.7522 84.8319 19.4035V14.3655H87.5273H87.6023V14.2905V12.2534V12.1784H87.5273H84.8319V9.19775V9.12276H84.7569H82.7809H82.7144L82.7064 9.18882L82.3461 12.192L80.605 12.5877L80.5466 12.6009V12.6608V14.2905V14.3655H80.6216H82.2565L82.1763 19.4227L82.1763 19.4228C82.1626 20.3378 82.2648 21.0819 82.4869 21.6512L82.4869 21.6512L82.4875 21.6527C82.7248 22.225 83.1037 22.6402 83.624 22.8933Z" stroke="#00FFB3" stroke-width="0.149991"/>
<path d="M72.8115 23.1719V23.2469H72.8865H75.4125H75.4875V23.1719V16.0733C75.7757 15.7876 76.0629 15.5541 76.349 15.372L76.3491 15.3721L76.351 15.3707C76.6431 15.1716 76.9547 15.0257 77.2861 14.9329C77.6318 14.8399 78.0121 14.793 78.4273 14.793C78.6294 14.793 78.8383 14.7997 79.0542 14.8132C79.2697 14.8267 79.4714 14.8469 79.6594 14.8737L79.745 14.886V14.7995V12.2328V12.177L79.6915 12.1609C79.5509 12.1188 79.3973 12.0908 79.2311 12.0768C79.0656 12.0494 78.9063 12.0356 78.7533 12.0356C78.0069 12.0356 77.36 12.2224 76.8161 12.5989C76.3157 12.9454 75.8576 13.3635 75.4418 13.8529L74.9134 12.2299L74.8965 12.1782H74.8421H72.8865H72.8115V12.2531V23.1719Z" stroke="#00FFB3" stroke-width="0.149991"/>
<path d="M68.5463 23.1515L68.556 23.2259C69.1821 23.1442 69.7744 23.0489 70.3329 22.94L70.3935 22.9281V22.8663V21.3793V21.3043H70.3185H67.0185C66.221 21.3043 65.6218 21.2162 65.2145 21.0455C64.8248 20.8765 64.5546 20.6058 64.3994 20.2316C64.2597 19.85 64.1735 19.3418 64.143 18.7042H67.2629C67.9614 18.7042 68.5677 18.6152 69.0801 18.4353C69.6097 18.254 70.0177 17.9527 70.2995 17.5301L70.3001 17.5291C70.582 17.0922 70.7195 16.5198 70.7195 15.818C70.7195 14.835 70.5697 14.0667 70.2622 13.521C69.967 12.9595 69.4891 12.5744 68.8348 12.3653C68.1991 12.1444 67.3548 12.0356 66.3055 12.0356C65.1183 12.0356 64.1689 12.1991 63.4624 12.5316C62.7495 12.8671 62.2415 13.454 61.9369 14.2846C61.6336 15.0981 61.4841 16.2425 61.4841 17.7125C61.4841 19.1561 61.6405 20.2937 61.9576 21.1209L61.9577 21.1213C62.2761 21.9381 62.7909 22.5176 63.5031 22.8527L63.5036 22.853C64.2234 23.1852 65.1793 23.3488 66.3666 23.3488C67.2108 23.3488 67.9408 23.3079 68.5562 23.2259L68.5463 23.1515ZM68.5463 23.1515C67.9352 23.233 67.2086 23.2738 66.3666 23.2738C65.1851 23.2738 64.2412 23.1108 63.5351 22.7849L64.3295 20.2589C64.4925 20.6527 64.7777 20.9379 65.1851 21.1145C65.6061 21.291 66.2172 21.3793 67.0185 21.3793H70.2435H70.3185V21.4543V22.8663C69.7617 22.975 69.171 23.0701 68.5463 23.1515ZM67.5004 14.1971L67.5004 14.1972L67.5031 14.1981C67.7988 14.3009 68.0066 14.4787 68.1329 14.7312C68.2614 14.9881 68.3287 15.3484 68.3287 15.818C68.3287 16.2984 68.2149 16.6096 68.0099 16.7785C67.8125 16.9388 67.4874 17.0264 67.0185 17.0264H64.1195C64.1234 16.2243 64.1911 15.613 64.3196 15.1886C64.465 14.7397 64.6926 14.4394 64.9967 14.2747C65.3073 14.1064 65.7414 14.0189 66.3055 14.0189C66.8028 14.0189 67.2 14.0795 67.5004 14.1971Z" stroke="#00FFB3" stroke-width="0.149991"/>
<path d="M49.9541 27.9998V28.0748H50.0291H52.555H52.63V27.9998V22.6214C53.0799 22.8431 53.5645 23.0236 54.0838 23.1629L54.0842 23.163C54.6603 23.3138 55.2235 23.3895 55.7736 23.3895C56.7483 23.3895 57.5269 23.1699 58.101 22.722C58.6862 22.276 59.1012 21.6299 59.3492 20.7898C59.61 19.9387 59.7394 18.9124 59.7394 17.7125C59.7394 16.88 59.6644 16.1211 59.5138 15.4361C59.3766 14.7367 59.1497 14.1372 58.8316 13.6391C58.5127 13.1263 58.096 12.7302 57.5819 12.4522C57.0796 12.1732 56.4758 12.0356 55.7736 12.0356C55.3457 12.0356 54.9311 12.0976 54.5303 12.2219C54.1313 12.3321 53.7594 12.4836 53.4147 12.6766C53.1065 12.8492 52.8308 13.0278 52.588 13.2124L52.197 12.2255L52.1782 12.1782H52.1272H50.0291H49.9541V12.2531V27.9998ZM56.7634 19.8233L56.7634 19.8233L56.7628 19.8249C56.5763 20.3176 56.3266 20.6621 56.0181 20.8681C55.7047 21.0638 55.3589 21.1617 54.9792 21.1617C54.5655 21.1617 54.1516 21.1017 53.7371 20.9813C53.3363 20.865 52.9674 20.7114 52.63 20.5209V14.9062C52.9296 14.7526 53.273 14.6046 53.6605 14.4625L53.6605 14.4625L53.6625 14.4617C54.0599 14.3028 54.5052 14.2226 54.9995 14.2226C55.3928 14.2226 55.7375 14.3272 56.0364 14.5351L56.0364 14.5351L56.0376 14.536C56.3454 14.7412 56.5957 15.0984 56.7827 15.6193C56.9687 16.1375 57.0635 16.8341 57.0635 17.7125C57.0635 18.6322 56.9618 19.3339 56.7634 19.8233Z" stroke="#00FFB3" stroke-width="0.149991"/>
<path d="M45.3529 23.2116L45.3749 23.2468H45.4164H48.2073H48.3428L48.2708 23.132L43.664 15.7891L48.3323 8.17739L48.4023 8.06319H48.2684H45.4776H45.4344L45.4127 8.10056L42.2555 13.544L38.8391 8.09833L38.817 8.06319H38.7756H36.0051H35.8697L35.9416 8.17798L40.6043 15.6262L36.0023 23.1327L35.9323 23.2468H36.0662H38.8367H38.8796L38.9013 23.2098L42.0229 17.8923L45.3529 23.2116Z" stroke="#00FFB3" stroke-width="0.149991"/>
<path d="M28.3103 23.3487L28.3118 23.3487C28.9775 23.3351 29.6703 23.3147 30.3902 23.2876C31.1238 23.274 31.8438 23.2536 32.5503 23.2264L32.5518 23.2264C33.2586 23.1856 33.9113 23.138 34.5098 23.0836L34.578 23.0774V23.0089V20.9107V20.8357H34.503H28.7992C28.5635 20.8357 28.3345 20.7965 28.1119 20.718C27.9116 20.6427 27.7405 20.5046 27.599 20.2992C27.4743 20.0989 27.4075 19.8032 27.4075 19.4032V16.8895L33.5881 16.7485L33.6614 16.7469V16.6736V14.6976V14.6243L33.5881 14.6226L27.4075 14.4817V11.8864C27.4075 11.4103 27.5329 11.0749 27.7689 10.8633C28.0233 10.6474 28.3707 10.5355 28.8196 10.5355H34.503H34.578V10.4605V8.36226V8.29268L34.5087 8.28748C33.9645 8.24667 33.3729 8.21267 32.734 8.18548L32.7308 8.26041L32.734 8.18548C32.1091 8.15831 31.4163 8.13114 30.6556 8.10398C29.894 8.07678 29.0376 8.06319 28.0862 8.06319C27.699 8.06319 27.3056 8.11847 26.906 8.22861C26.516 8.32624 26.1542 8.50041 25.8208 8.75042L25.8208 8.75041L25.8196 8.75136C25.4958 9.00476 25.2377 9.35495 25.0436 9.7985C24.8478 10.2321 24.7519 10.773 24.7519 11.4179V20.0959C24.7519 20.8357 24.8681 21.4271 25.1075 21.8634C25.3439 22.2947 25.6517 22.6244 26.0313 22.8493L26.0313 22.8493L26.0331 22.8504C26.4071 23.0582 26.7959 23.1903 27.199 23.246C27.6091 23.3143 27.9796 23.3487 28.3103 23.3487Z" stroke="#00FFB3" stroke-width="0.149991"/>
</g>
</svg>
