<svg width="40" height="40" viewBox="0 0 40 40" fill="none" xmlns="http://www.w3.org/2000/svg">
<g clip-path="url(#clip0_2660_24110)">
<path d="M20 40C31.0457 40 40 31.0457 40 20C40 8.9543 31.0457 0 20 0C8.9543 0 0 8.9543 0 20C0 31.0457 8.9543 40 20 40Z" fill="#F49B33"/>
<path d="M27.3685 15.9141C27.1719 13.405 25.023 12.5276 22.2974 12.2403L22.3579 8.76514L20.2436 8.72921L20.1839 12.1128C19.6281 12.1022 19.0606 12.104 18.4943 12.1056L18.555 8.69981L16.4405 8.66272L16.3796 12.1368C15.9216 12.1377 15.4711 12.1393 15.0328 12.1308L15.0327 12.1199L12.1153 12.0683L12.0762 14.3271C12.0762 14.3271 13.6392 14.3245 13.6128 14.3526C14.4695 14.3681 14.739 14.8701 14.813 15.3015L14.7445 19.26C14.8033 19.2609 14.8798 19.2653 14.968 19.2778L14.7443 19.2746L14.6474 24.8204C14.6045 25.0886 14.4387 25.5156 13.8394 25.5066C13.8669 25.5307 12.3025 25.4798 12.3025 25.4798L11.8381 27.9978L14.5914 28.0458C15.1031 28.0556 15.6069 28.0735 16.1007 28.0849L16.0406 31.5991L18.1537 31.6353L18.2143 28.16C18.7943 28.1809 19.3557 28.1951 19.9041 28.2049L19.8426 31.6658L21.9568 31.7016L22.0186 28.1946C25.5786 28.0527 28.0826 27.2004 28.4499 23.8664C28.7468 21.1826 27.503 19.9596 25.4928 19.4402C26.7308 18.8375 27.5157 17.7508 27.3685 15.9141ZM24.2774 23.3771C24.2343 26.0036 19.7412 25.626 18.3074 25.6024L18.3903 20.946C19.8246 20.9718 24.3263 20.6382 24.2774 23.3771ZM23.4088 16.7904C23.367 19.1802 19.6212 18.8349 18.4283 18.8142L18.5017 14.5925C19.6948 14.6132 23.4525 14.2978 23.4088 16.7904Z" fill="white"/>
</g>
<defs>
<clipPath id="clip0_2660_24110">
<rect width="40" height="40" fill="white"/>
</clipPath>
</defs>
</svg>
