<svg width="16" height="16" viewBox="0 0 16 16" fill="none" xmlns="http://www.w3.org/2000/svg">
<path d="M15.5225 7.10147L13.9295 6.04666C13.6473 5.86001 13.5084 5.52143 13.5735 5.18719L13.9512 3.31199C14.0206 2.96039 13.9121 2.59577 13.6603 2.33966C13.4042 2.08356 13.044 1.97504 12.688 2.04883L10.8128 2.42648C10.4786 2.49593 10.1443 2.35269 9.95334 2.07054L8.89419 0.477482C8.69452 0.177971 8.36028 0 8 0C7.63972 0 7.30548 0.177971 7.10581 0.477482L6.04666 2.07054C5.86001 2.35269 5.52143 2.49159 5.18719 2.42648L3.31199 2.04883C2.96039 1.97938 2.59577 2.0879 2.33966 2.33966C2.08356 2.59577 1.97504 2.95605 2.04883 3.31199L2.42648 5.18719C2.49159 5.52143 2.35269 5.85567 2.07054 6.04666L0.477482 7.10581C0.177971 7.30548 0 7.63972 0 8C0 8.36028 0.177971 8.69452 0.477482 8.89419L2.07054 9.95334C2.35269 10.14 2.49159 10.4786 2.42648 10.8128L2.04883 12.688C1.97938 13.0396 2.0879 13.4042 2.33966 13.6603C2.59577 13.9164 2.95605 14.025 3.31199 13.9512L5.18719 13.5735C5.52143 13.5041 5.85567 13.6473 6.04666 13.9295L7.10581 15.5225C7.30548 15.822 7.63972 16 8 16C8.36028 16 8.69452 15.822 8.89419 15.5225L9.95334 13.9295C10.14 13.6473 10.4786 13.5084 10.8128 13.5735L12.688 13.9512C13.0396 14.0206 13.4042 13.9121 13.6603 13.6603C13.9164 13.4042 14.025 13.0439 13.9512 12.688L13.5735 10.8128C13.5084 10.4786 13.6473 10.1443 13.9295 9.95334L15.5225 8.89419C15.822 8.69452 16 8.36028 16 8C16 7.63972 15.822 7.30114 15.5225 7.10147ZM11.2946 6.72816L7.70917 10.3744C7.60933 10.4786 7.47477 10.5307 7.33587 10.5307C7.21432 10.5307 7.08844 10.4872 6.99295 10.4004L4.64894 8.3299C4.4319 8.1389 4.41454 7.80901 4.60119 7.59631C4.79219 7.37927 5.12208 7.36191 5.33478 7.54856L7.30982 9.29354L10.548 5.99892C10.7477 5.7949 11.0776 5.79056 11.2859 5.99457C11.4943 6.18991 11.4943 6.5198 11.2946 6.72816Z" fill="#00DAFF"/>
</svg>
