<?xml version="1.0" standalone="no"?><!DOCTYPE svg PUBLIC "-//W3C//DTD SVG 1.1//EN" "http://www.w3.org/Graphics/SVG/1.1/DTD/svg11.dtd"><svg t="1714566112811" class="icon" viewBox="0 0 1024 1024" version="1.1" xmlns="http://www.w3.org/2000/svg" p-id="4334" xmlns:xlink="http://www.w3.org/1999/xlink" width="200" height="200"><path d="M992 608l-960 0C12.8 608 0 620.8 0 640s12.8 32 32 32l883.2 0-230.4 230.4c-12.8 12.8-12.8 32 0 44.8C684.8 960 697.6 960 704 960s19.2 0 25.6-6.4l288-288C1024 652.8 1024 640 1024 627.2 1017.6 614.4 1004.8 608 992 608z" fill="#a89b9b" p-id="4335"></path><path d="M32 416l960 0C1011.2 416 1024 403.2 1024 384s-12.8-32-32-32L108.8 352l230.4-230.4c12.8-12.8 12.8-32 0-44.8S307.2 64 294.4 70.4L6.4 358.4C0 371.2 0 384 0 396.8 6.4 409.6 19.2 416 32 416z" fill="#a89b9b" p-id="4336"></path></svg>