<svg width="16" height="16" viewBox="0 0 16 16" fill="none" xmlns="http://www.w3.org/2000/svg">
<g clip-path="url(#clip0_2406_19579)">
<path d="M14.9884 3.5947C13.4628 3.34899 9.28742 2.38267 8.30457 0.860931L8.17459 0.654453L7.4631 0.639999L7.324 0.825829C6.3115 2.20097 2.42797 3.05992 1.0164 3.27466L0.640137 3.33247V3.67935C0.654373 5.08877 0.790089 6.49502 1.04605 7.88531C1.60931 10.9825 2.64233 13.2207 4.12003 14.5669C4.6018 15.0238 5.18171 15.3866 5.82408 15.633C6.46645 15.8795 7.1577 16.0043 7.85533 15.9999C10.9658 15.9999 13.253 13.8917 14.4685 9.9026C15.0251 7.97489 15.3245 5.9937 15.3601 4.00146V3.65458L14.9884 3.5947ZM7.85305 15.174C7.27557 15.1796 6.70306 15.0769 6.17163 14.8722C5.6402 14.6675 5.16139 14.3653 4.76539 13.9847C1.94225 11.414 1.59791 5.50255 1.55458 4.02417C2.69478 3.81769 5.9626 3.13838 7.55432 1.83551H7.58168V1.82105C7.65694 1.75911 7.72991 1.6951 7.79832 1.62903C9.28514 3.26227 13.1983 4.10676 14.4525 4.34215C14.3727 6.21077 13.7205 15.174 7.85305 15.174ZM5.16218 6.88182C5.16437 7.43715 5.38839 7.97302 5.79286 8.39048C6.19733 8.80794 6.75495 9.07881 7.36276 9.15308V13.3549C7.36276 13.3956 7.37161 13.4359 7.3888 13.4734C7.40599 13.511 7.43119 13.5451 7.46295 13.5739C7.49471 13.6027 7.53242 13.6255 7.57392 13.641C7.61542 13.6566 7.6599 13.6646 7.70482 13.6646H9.07307C9.16378 13.6646 9.25079 13.632 9.31493 13.5739C9.37908 13.5158 9.41512 13.437 9.41512 13.3549C9.41512 13.2728 9.37908 13.194 9.31493 13.1359C9.25079 13.0778 9.16378 13.0452 9.07307 13.0452H8.04689V11.6721H8.80398C8.8947 11.6721 8.9817 11.6395 9.04585 11.5814C9.11 11.5233 9.14604 11.4445 9.14604 11.3624C9.14604 11.2803 9.11 11.2015 9.04585 11.1434C8.9817 11.0853 8.8947 11.0527 8.80398 11.0527H8.04689V9.15928C8.53048 9.09937 8.98477 8.91459 9.35542 8.62703C9.72607 8.33948 9.99739 7.96133 10.1369 7.53783C10.2764 7.11432 10.2782 6.66339 10.1421 6.23897C10.006 5.81455 9.73779 5.43462 9.36947 5.14463C9.00114 4.85463 8.54835 4.66685 8.06526 4.60375C7.58216 4.54064 7.08921 4.60489 6.64538 4.7888C6.20156 4.97271 5.82564 5.2685 5.5626 5.64078C5.29957 6.01306 5.16055 6.44608 5.16218 6.88802V6.88182ZM9.56107 6.88182C9.56107 7.21474 9.45201 7.54017 9.24769 7.81695C9.04338 8.09373 8.75298 8.30941 8.41324 8.43672C8.07351 8.56403 7.69971 8.59723 7.33912 8.53213C6.97854 8.46703 6.64739 8.30656 6.38756 8.07101C6.12773 7.83546 5.9509 7.53542 5.87945 7.20885C5.808 6.88229 5.84513 6.54387 5.98614 6.23642C6.12716 5.92896 6.36573 5.66629 6.67166 5.48163C6.97759 5.29697 7.33715 5.19862 7.70482 5.19903C8.19734 5.19958 8.66948 5.37711 9.01753 5.69264C9.36558 6.00816 9.56107 6.43588 9.56107 6.88182Z" fill="#687C69"/>
</g>
<defs>
<clipPath id="clip0_2406_19579">
<rect width="16" height="16" fill="white"/>
</clipPath>
</defs>
</svg>
