<svg width="1661" height="529" viewBox="0 0 1661 529" fill="none" xmlns="http://www.w3.org/2000/svg">
<g opacity="0.62">
<path style="mix-blend-mode:multiply" d="M225.491 0L211.242 18.1958L197.022 0L171.295 32.8364H169.168L169.168 529.05H253.093L253.093 32.8364H251.217L225.491 0Z" fill="url(#paint0_linear_4510_18677)"/>
<path style="mix-blend-mode:multiply" d="M280.438 55.0273L266.19 73.1951L251.941 55.0273L226.047 88.0877H224.283L224.283 528.734H308.18L308.18 88.0877H306.332L280.438 55.0273Z" fill="url(#paint1_linear_4510_18677)"/>
<path style="mix-blend-mode:multiply" d="M361.535 143.68L335.641 110.619L321.393 128.815L307.144 110.619L281.25 143.68H279.402L279.402 528.759H363.327L363.327 143.68H361.535Z" fill="url(#paint2_linear_4510_18677)"/>
<g style="mix-blend-mode:multiply">
<path d="M1108.02 154.973L1108.02 138.736H1020.91L1020.91 154.973H1005.12L1005.12 529.05H1123.84L1123.84 154.973H1108.02Z" fill="url(#paint3_linear_4510_18677)"/>
</g>
<g style="mix-blend-mode:multiply">
<path d="M1025.66 125.403C1025.57 119.108 1023.05 113.093 1018.63 108.605C1014.22 104.117 1008.25 101.501 1001.95 101.301H843.957C837.354 101.501 831.034 104.031 826.116 108.442C821.198 112.852 817.999 118.861 817.084 125.403H806.418L806.418 145.699H809.413L809.413 151.297H806.418L806.418 156.476H809.413L809.413 162.075H806.418L806.418 167.254H809.413L809.413 172.852H806.418L806.418 178.003H809.413L809.413 183.602H806.418L806.418 188.781H809.413L809.413 194.379H806.418L806.418 199.558H809.413L809.413 205.157H806.418L806.418 210.308H809.413L809.413 215.906H806.418L806.418 221.085H809.413L809.413 226.684H806.418L806.418 231.863H809.413L809.413 237.461H806.418L806.418 242.612H809.413L809.413 248.211H806.418L806.418 253.39H809.413L809.413 258.988H806.418L806.418 264.167H809.413L809.413 269.766H806.418L806.418 274.945H809.413L809.413 280.543H806.418L806.418 285.722H809.413L809.413 291.321H806.418L806.418 296.528H809.413L809.413 302.126H806.418L806.418 307.305H809.413L809.413 312.904H806.418L806.418 317.971H809.413L809.413 323.57H806.418L806.418 328.748H809.413L809.413 334.347H806.418L806.418 339.526H809.413L809.413 345.125H806.418L806.418 350.303H809.413L809.413 355.902H806.418L806.418 361.081H809.413L809.413 366.68H806.418L806.418 371.858H809.413L809.413 377.457H806.418L806.418 382.356H809.413L809.413 387.955H806.418L806.418 393.133H809.413L809.413 398.732H806.418L806.418 403.911H809.413L809.413 409.51H806.418L806.418 414.689H809.413L809.413 420.287H806.418L806.418 425.494H809.413L809.413 431.093H806.418L806.418 436.272H809.413L809.413 441.87H806.418L806.418 447.049H809.413L809.413 452.648H806.418L806.418 457.827H809.413L809.413 463.425H806.418L806.418 468.604H809.413L809.413 474.203H806.418L806.418 479.382H809.413L809.413 484.98H806.418L806.418 490.159H809.413L809.413 495.758H806.418L806.418 500.909H809.413L809.413 506.507H806.418L806.418 529.126H1033.17L1033.17 151.857L1033.17 125.403H1025.66Z" fill="url(#paint4_linear_4510_18677)"/>
</g>
<g style="mix-blend-mode:multiply">
<path d="M798.292 529.049C797.928 297.515 790.734 110.854 739.758 110.854C688.782 110.854 681.699 297.458 681.195 528.993L798.292 529.049Z" fill="url(#paint5_linear_4510_18677)"/>
</g>
<path style="mix-blend-mode:multiply" opacity="0.32" d="M451.038 227.85L451.038 236.024H454.565L419.433 300.773H368.792H362.886L239.07 529.032H244.977H290.83H302.196H304.883H308.102H318.936H368.009H382.061H540.897L540.897 527.493L540.897 520.858L540.897 512.068L540.897 503.894L540.897 495.132L540.897 486.958L540.897 478.196L540.897 470.022L540.897 461.26L540.897 453.058L540.897 444.296L540.897 436.122L540.897 427.36L540.897 419.186L540.897 410.396L540.897 402.221L540.897 393.459L540.897 385.285L540.897 376.523L540.897 368.349L540.897 359.559L540.897 351.385L540.897 342.623L540.897 334.449L540.897 325.687L540.897 317.513L540.897 236.024L540.897 231.881L540.897 227.85H451.038Z" fill="url(#paint6_linear_4510_18677)"/>
<g style="mix-blend-mode:multiply">
<path d="M693.066 224.349L693.066 141.46H686.544L686.544 34.5527H628.261L628.261 141.46H621.739L621.739 224.349H615.664H567.823H561.721L561.721 141.46H555.198L555.198 34.5527H496.943L496.943 141.46H490.421L490.421 224.349H484.318L484.318 529.059H699.169L699.169 224.349H693.066Z" fill="url(#paint7_linear_4510_18677)"/>
</g>
<g style="mix-blend-mode:multiply">
<path d="M328.389 448.232L328.389 306.809H316.24L316.24 290.012H313.077L313.077 306.809H307.786L307.786 297.851H306.19L306.19 306.809H273.998L273.998 302.414H265.6L265.6 306.809H206.925L206.925 300.93H197.939L197.939 306.809H195.84L195.84 319.49H158.86L158.86 306.305H144.08L144.08 302.05H136.689L136.689 306.305H132.434L132.434 319.49H92.3476C91.6532 311.836 88.1219 304.719 82.4475 299.536C76.7731 294.353 69.3658 291.479 61.6807 291.479C53.9956 291.479 46.5883 294.353 40.9139 299.536C35.2395 304.719 31.7081 311.836 31.0137 319.49H8.19898L8.19897 292.812H-4.34209L-4.34209 277.611H-6.97348L-6.97348 292.812H-62.9606L-62.9606 281.334H-66.1239L-66.1239 292.812H-76.5655L-76.5655 306.277H-81.5203L-81.5203 448.232H-130.033L-130.033 529.049H355.347L355.347 448.232H328.389ZM8.19898 384.323H36.8644L36.8644 418.783H8.19898L8.19898 384.323ZM63.2623 350.73C68.4315 350.463 73.4497 348.896 77.8533 346.176C82.2568 343.455 85.9036 339.669 88.4565 335.166H94.0552L94.0552 368.394H63.2623L63.2623 350.73ZM93.8873 384.323L93.8873 418.783H63.2623L63.2623 384.323H93.8873ZM195.84 418.783H158.86L158.86 384.323H195.84L195.84 418.783ZM132.434 418.783H106.008L106.008 384.323H132.434L132.434 418.783ZM36.8364 434.627L36.8364 448.372H8.19898L8.19898 434.627H36.8364ZM63.2343 434.627H132.434L132.434 448.372H63.2623L63.2343 434.627ZM158.832 434.627H195.812L195.812 448.372H158.86L158.832 434.627ZM195.812 335.334L195.812 368.394H158.86L158.86 335.194L195.812 335.334ZM132.434 368.394H106.008L106.008 335.194H132.434L132.434 368.394ZM34.9048 335.11C35.4896 336.136 36.1346 337.127 36.8364 338.077L36.8364 368.394H8.19898L8.19898 335.194L34.9048 335.11Z" fill="url(#paint8_linear_4510_18677)"/>
</g>
<path style="mix-blend-mode:multiply" opacity="0.54" d="M1615.76 447.159C1615.48 446.583 1615.03 446.105 1614.47 445.788C1614.13 445.587 1613.75 445.454 1613.35 445.396L1586.76 425.8H1582.23C1582.46 425.148 1582.48 424.441 1582.31 423.772C1582.13 423.103 1581.76 422.503 1581.23 422.05C1580.71 421.597 1580.06 421.312 1579.38 421.231C1578.69 421.151 1578 421.28 1577.38 421.601C1573.72 418.382 1570.33 415.079 1567.08 411.747C1567.38 411.126 1567.48 410.429 1567.38 409.747C1567.28 409.066 1566.97 408.431 1566.51 407.924C1566.04 407.417 1565.43 407.063 1564.76 406.906C1564.09 406.749 1563.39 406.797 1562.74 407.044C1559.55 403.467 1556.54 399.73 1553.73 395.847C1554.11 395.276 1554.3 394.604 1554.29 393.919C1554.29 393.234 1554.07 392.568 1553.68 392.006C1553.29 391.445 1552.73 391.014 1552.09 390.771C1551.45 390.527 1550.75 390.482 1550.09 390.64C1547.44 386.699 1545.03 382.604 1542.87 378.379C1543.29 377.869 1543.56 377.246 1543.64 376.586C1543.71 375.926 1543.6 375.258 1543.3 374.664C1543 374.069 1542.54 373.575 1541.96 373.24C1541.39 372.906 1540.73 372.746 1540.07 372.78C1539.23 370.765 1538.42 368.777 1537.69 366.79C1536.82 364.298 1536.12 361.835 1535.48 359.371C1536.04 358.988 1536.47 358.446 1536.72 357.814C1536.98 357.182 1537.03 356.49 1536.89 355.825C1536.74 355.161 1536.4 354.554 1535.91 354.084C1535.42 353.614 1534.8 353.301 1534.13 353.185C1533.58 349.962 1533.21 346.709 1533.04 343.443L1533.04 339.748C1533.38 339.451 1533.66 339.09 1533.85 338.684C1534.23 338.414 1534.55 338.073 1534.79 337.679C1535.04 337.285 1535.2 336.846 1535.28 336.389L1533.04 335.745L1533.04 334.793H1529.63L1528.76 334.541C1528.75 334.625 1528.75 334.709 1528.76 334.793H1484.08L1484.08 336.221H1482.32C1482.16 336.876 1482.19 337.562 1482.42 338.198C1482.64 338.834 1483.04 339.391 1483.58 339.804C1482.2 344.312 1480.4 348.68 1478.2 352.849C1477.53 352.738 1476.83 352.835 1476.21 353.127C1475.59 353.419 1475.08 353.891 1474.73 354.482C1474.39 355.073 1474.23 355.755 1474.28 356.438C1474.33 357.121 1474.58 357.773 1475.01 358.308C1474.25 359.511 1473.5 360.743 1472.66 361.919C1470.77 364.623 1468.74 367.23 1466.58 369.729C1465.94 369.487 1465.24 369.441 1464.58 369.595C1463.91 369.75 1463.3 370.098 1462.83 370.597C1462.38 371.113 1462.08 371.752 1461.99 372.434C1461.89 373.116 1462 373.811 1462.3 374.432C1458.99 377.823 1455.5 381.029 1451.83 384.034C1451.23 383.691 1450.55 383.535 1449.86 383.585C1449.17 383.635 1448.51 383.888 1447.97 384.314C1447.43 384.742 1447.04 385.319 1446.84 385.972C1446.63 386.625 1446.63 387.325 1446.82 387.981C1443.1 390.78 1439.15 393.579 1435.04 396.015C1434.49 395.594 1433.83 395.345 1433.14 395.3C1432.45 395.256 1431.77 395.417 1431.17 395.763C1430.58 396.114 1430.1 396.635 1429.81 397.259C1429.51 397.883 1429.41 398.581 1429.52 399.262C1425.46 401.558 1421.12 403.741 1416.87 405.841C1416.37 405.355 1415.74 405.03 1415.06 404.908C1414.38 404.787 1413.68 404.873 1413.04 405.158C1412.41 405.442 1411.88 405.911 1411.52 406.502C1411.16 407.093 1410.98 407.78 1411.02 408.472C1409.67 409.06 1408.22 409.648 1406.99 410.208C1403.99 411.439 1400.88 412.615 1397.75 413.763C1397.3 413.232 1396.7 412.849 1396.03 412.664C1395.36 412.479 1394.65 412.501 1394 412.727C1393.34 412.96 1392.77 413.382 1392.36 413.941C1391.94 414.499 1391.71 415.168 1391.67 415.862C1387.22 417.318 1382.69 418.662 1378.01 419.949C1377.6 419.39 1377.04 418.966 1376.38 418.732C1375.73 418.498 1375.02 418.465 1374.35 418.636C1373.68 418.808 1373.07 419.177 1372.61 419.695C1372.15 420.214 1371.86 420.858 1371.77 421.545C1367.21 422.665 1362.56 423.645 1357.77 424.54C1357.41 423.948 1356.87 423.48 1356.24 423.195C1355.61 422.91 1354.9 422.823 1354.22 422.943C1353.53 423.064 1352.9 423.387 1352.4 423.872C1351.9 424.356 1351.56 424.979 1351.42 425.66C1347.3 426.332 1343.02 426.92 1338.85 427.452C1338.55 427.34 1338.24 427.283 1337.93 427.284C1337.65 427.241 1337.36 427.241 1337.09 427.284C1336.75 426.743 1336.26 426.307 1335.69 426.025C1335.11 425.743 1334.47 425.626 1333.84 425.688C1333.15 425.774 1332.51 426.058 1331.98 426.506C1331.45 426.953 1331.07 427.545 1330.87 428.208C1328.91 428.403 1326.95 428.543 1324.96 428.711L1320.4 428.347C1320.21 427.678 1319.82 427.082 1319.29 426.637C1318.76 426.193 1318.1 425.92 1317.41 425.856C1316.81 425.793 1316.22 425.89 1315.68 426.136C1315.13 426.382 1314.67 426.769 1314.33 427.256C1313.56 427.047 1312.74 427.127 1312.03 427.48C1307.92 427.004 1303.83 426.416 1299.83 425.8C1299.71 425.101 1299.38 424.455 1298.87 423.953C1298.37 423.452 1297.73 423.119 1297.03 423.001C1296.34 422.893 1295.65 422.989 1295.02 423.278C1294.39 423.567 1293.86 424.036 1293.5 424.624C1288.74 423.766 1284.08 422.833 1279.5 421.825C1279.42 421.137 1279.13 420.49 1278.67 419.968C1278.22 419.447 1277.61 419.076 1276.94 418.903C1276.27 418.731 1275.56 418.765 1274.91 419.002C1274.26 419.239 1273.69 419.666 1273.29 420.229C1268.61 418.97 1264.02 417.626 1259.57 416.142C1259.53 415.453 1259.29 414.79 1258.88 414.237C1258.47 413.684 1257.9 413.266 1257.25 413.035C1256.59 412.824 1255.88 412.81 1255.22 412.994C1254.55 413.178 1253.95 413.552 1253.5 414.071C1248.96 412.447 1244.51 410.684 1240.23 408.836C1240.31 408.129 1240.17 407.414 1239.83 406.79C1239.49 406.167 1238.96 405.666 1238.32 405.357C1237.67 405.049 1236.95 404.949 1236.25 405.07C1235.55 405.192 1234.91 405.53 1234.41 406.037C1230.01 403.965 1225.81 401.754 1221.75 399.43C1221.87 398.752 1221.78 398.054 1221.49 397.429C1221.2 396.804 1220.73 396.28 1220.14 395.926C1219.55 395.572 1218.87 395.404 1218.18 395.445C1217.5 395.486 1216.84 395.733 1216.29 396.155C1212.15 393.579 1208.23 390.883 1204.54 388.065C1204.73 387.409 1204.73 386.709 1204.52 386.056C1204.32 385.403 1203.92 384.825 1203.39 384.398C1202.85 383.98 1202.2 383.729 1201.52 383.675C1200.84 383.62 1200.15 383.764 1199.55 384.09C1195.91 381.068 1192.46 377.824 1189.22 374.376C1189.53 373.758 1189.64 373.064 1189.55 372.382C1189.46 371.7 1189.17 371.06 1188.72 370.541C1188.26 370.03 1187.67 369.667 1187 369.497C1186.34 369.328 1185.64 369.36 1185 369.589C1183.63 367.909 1182.2 366.23 1181.05 364.522C1179.53 362.431 1178.12 360.263 1176.82 358.028C1177.24 357.5 1177.5 356.86 1177.56 356.189C1177.62 355.517 1177.48 354.842 1177.16 354.249C1176.84 353.655 1176.34 353.171 1175.75 352.857C1175.15 352.544 1174.47 352.414 1173.8 352.485C1171.85 348.549 1170.25 344.446 1169.04 340.224L1169.04 339.048C1169.46 338.672 1169.78 338.202 1169.98 337.676C1170.18 337.15 1170.25 336.584 1170.19 336.025H1169.04L1169.04 334.793H1125.12C1125.11 334.709 1125.11 334.625 1125.12 334.541L1124.25 334.793H1120.25L1120.25 335.969L1119.38 336.221H1118.37C1118.28 336.617 1118.28 337.028 1118.37 337.424C1118.48 337.932 1118.7 338.409 1119.01 338.821C1119.33 339.232 1119.73 339.568 1120.19 339.804L1120.19 349.91C1120.05 351.029 1119.88 352.121 1119.69 353.241C1119.02 353.357 1118.4 353.67 1117.91 354.14C1117.42 354.611 1117.08 355.217 1116.93 355.881C1116.79 356.546 1116.84 357.238 1117.1 357.87C1117.35 358.502 1117.78 359.044 1118.34 359.427C1117.7 361.891 1117 364.354 1116.1 366.846C1115.4 368.833 1114.59 370.821 1113.75 372.836C1113.09 372.802 1112.43 372.962 1111.86 373.296C1111.28 373.631 1110.82 374.125 1110.52 374.72C1110.22 375.314 1110.11 375.982 1110.18 376.642C1110.26 377.302 1110.53 377.925 1110.95 378.435C1108.81 382.688 1106.42 386.81 1103.79 390.78C1103.12 390.622 1102.42 390.667 1101.78 390.911C1101.14 391.154 1100.59 391.585 1100.2 392.146C1099.8 392.707 1099.59 393.374 1099.58 394.059C1099.57 394.744 1099.77 395.416 1100.15 395.987C1097.34 399.869 1094.33 403.607 1091.13 407.184C1090.49 406.937 1089.79 406.889 1089.12 407.046C1088.45 407.203 1087.84 407.557 1087.37 408.064C1086.9 408.571 1086.6 409.206 1086.5 409.887C1086.39 410.569 1086.5 411.266 1086.8 411.887C1083.55 415.218 1080.13 418.522 1076.52 421.741C1075.91 421.425 1075.21 421.299 1074.52 421.379C1073.83 421.459 1073.19 421.74 1072.66 422.189C1072.28 422.511 1071.99 422.911 1071.78 423.361C1071.58 423.81 1071.48 424.299 1071.48 424.792H1065.88L993.381 479.744L993.381 529.152H1076.72L1076.72 470.366C1090.71 468.21 1112.55 464.963 1112.58 464.963L1120.11 463.983L1120.11 529.152H1126.88L1126.88 463.003C1129.68 462.612 1132.65 462.276 1134.89 462.024C1143.85 460.979 1152.97 460.046 1162.27 459.224L1162.27 529.208H1169.04L1169.04 458.553C1214.22 454.494 1262.96 452.282 1313.82 452.282C1318.75 452.282 1328.46 452.282 1328.44 452.282C1331.68 452.282 1336.53 452.282 1339.63 452.282C1390.36 452.282 1439.01 454.493 1484.11 458.497L1484.11 529.04H1490.88L1490.88 459.056C1500.26 459.924 1509.5 460.904 1518.54 461.856L1526.21 462.779L1526.21 528.872H1532.98L1532.98 463.647L1540.85 464.683C1540.85 464.683 1561.76 467.762 1575.65 469.918L1575.65 528.872H1660.86L1660.86 480.36L1615.76 447.159ZM1496.26 443.044L1496.26 390.332C1496.67 390.221 1497.06 390.031 1497.4 389.772C1497.96 389.327 1498.36 388.725 1498.57 388.046C1498.77 387.367 1498.77 386.642 1498.55 385.965L1499.48 385.153C1501.21 388.345 1503.14 391.536 1505.24 394.699C1504.83 395.276 1504.61 395.966 1504.61 396.673C1504.61 397.38 1504.83 398.069 1505.24 398.646C1505.64 399.216 1506.19 399.655 1506.84 399.906L1506.84 444.108L1496.26 443.044ZM1506.5 446.151L1498.1 454.241L1499.34 445.452L1506.5 446.151ZM1441.17 438.705L1441.17 419.306H1441.42C1442.09 419.08 1442.67 418.651 1443.09 418.08C1443.5 417.508 1443.73 416.821 1443.74 416.114L1449.34 413.931L1449.34 439.125L1441.17 438.705ZM1434.11 438.369L1434.11 419.446L1437.75 418.298C1438.19 418.831 1438.77 419.22 1439.43 419.417L1439.43 438.677L1434.11 438.369ZM1380.56 436.242L1380.56 432.603C1381.13 432.438 1381.65 432.127 1382.06 431.7C1382.47 431.272 1382.77 430.744 1382.91 430.167C1386.69 429.719 1390.41 429.215 1394.11 428.655L1394.11 436.634C1389.46 436.382 1384.95 436.27 1380.42 436.158L1380.56 436.242ZM1392.09 438.621L1384.95 447.019L1385.32 438.425C1387.45 438.369 1389.71 438.369 1391.95 438.537L1392.09 438.621ZM1359.62 435.822L1359.62 434.03C1360.19 433.901 1360.71 433.626 1361.15 433.234C1361.58 432.842 1361.9 432.345 1362.08 431.791C1366.17 431.595 1370.23 431.315 1374.23 430.979L1374.23 436.074C1369.36 435.943 1364.44 435.85 1359.48 435.794L1359.62 435.822ZM1369.11 438.033L1362.25 446.431L1362.25 438.033C1364.46 437.949 1366.73 437.949 1368.97 438.005L1369.11 438.033ZM1338.71 435.57L1338.71 433.974C1339.23 433.842 1339.72 433.589 1340.13 433.233C1340.54 432.878 1340.86 432.432 1341.06 431.931C1344.03 431.931 1347 431.931 1349.99 431.931C1351.25 431.931 1352.48 431.931 1353.71 431.931L1353.71 435.654H1347.61H1338.71L1338.71 435.57ZM1345.99 437.641L1339.3 446.039L1339.3 437.501H1345.99L1345.99 437.641ZM1334.79 435.598L1334.79 432.77H1335.04C1335.47 433.459 1336.12 433.975 1336.89 434.226L1336.89 435.906L1334.79 435.598ZM1355.67 432.127C1356.09 432.939 1356.8 433.56 1357.66 433.862L1357.66 435.682H1355.73L1355.67 432.127ZM1376.08 430.671H1376.39C1376.61 431.11 1376.92 431.498 1377.3 431.811C1377.69 432.124 1378.13 432.356 1378.6 432.491L1378.6 436.046H1376.08L1376.08 430.671ZM1395.96 428.179L1397.1 428.012C1397.51 428.668 1398.12 429.177 1398.84 429.467L1398.84 436.578H1396.04L1395.96 428.179ZM1400.74 429.635C1401.44 429.51 1402.08 429.174 1402.58 428.674C1403.08 428.173 1403.42 427.532 1403.54 426.836C1406.9 426.22 1410.2 425.492 1413.48 424.736L1413.48 437.109C1409.25 436.913 1405.08 436.774 1400.77 436.606L1400.74 429.635ZM1415.33 424.344L1417.57 423.841C1418.06 424.516 1418.77 424.993 1419.58 425.184L1419.58 437.417L1415.33 437.222L1415.33 424.344ZM1421.46 425.128C1422.09 424.949 1422.66 424.589 1423.09 424.092C1423.53 423.594 1423.8 422.982 1423.89 422.329C1426.69 421.573 1429.49 420.789 1432.15 419.949L1432.15 438.173L1421.46 437.641L1421.46 425.128ZM1430.81 440.077L1437.95 440.441L1430.44 448.839L1430.81 440.077ZM1451.41 413.035C1453.37 412.251 1455.3 411.467 1457.21 410.628C1457.7 411.156 1458.36 411.501 1459.08 411.607L1459.08 439.601L1451.41 439.097L1451.41 413.035ZM1453.76 441.476C1456.14 441.644 1458.52 441.784 1460.87 441.98L1453.09 450.182L1453.76 441.476ZM1460.96 411.411H1461.13C1461.77 411.119 1462.31 410.635 1462.67 410.023C1463.03 409.412 1463.2 408.704 1463.14 407.996L1464.71 407.24L1464.71 440.245L1460.96 439.937L1460.96 411.411ZM1466.56 406.233C1469.75 404.637 1472.91 403.013 1475.91 401.306C1476.13 401.482 1476.37 401.623 1476.63 401.726L1476.63 441.169L1466.56 440.385L1466.56 406.233ZM1476.97 443.268L1483.74 443.828L1475.74 451.946L1476.97 443.268ZM1478.51 441.308L1478.51 402.117C1478.99 402.072 1479.46 401.929 1479.88 401.698C1480.49 401.337 1480.98 400.797 1481.27 400.152C1481.57 399.506 1481.66 398.785 1481.53 398.086L1484.14 396.379L1484.14 441.868L1478.51 441.308ZM1490.91 391.704C1491.75 391.088 1492.65 390.5 1493.46 389.884C1493.76 390.064 1494.08 390.205 1494.41 390.304L1494.41 442.848C1493.23 442.848 1492.09 442.596 1490.91 442.512L1490.91 391.704ZM1490.91 365.502L1490.91 364.074C1491.47 366.034 1492.03 368.049 1492.73 370.037C1493.43 372.025 1494.3 374.096 1495.19 376.14C1494.68 376.644 1494.33 377.297 1494.2 378.008C1494.07 378.718 1494.17 379.451 1494.48 380.104C1494.79 380.757 1495.29 381.298 1495.92 381.651C1496.55 382.004 1497.27 382.152 1497.99 382.074C1498.11 382.325 1498.24 382.569 1498.38 382.802L1497.07 383.95C1496.47 383.602 1495.79 383.441 1495.1 383.488C1494.41 383.535 1493.75 383.787 1493.21 384.213C1492.67 384.638 1492.26 385.217 1492.05 385.873C1491.84 386.53 1491.83 387.235 1492.03 387.897C1491.69 388.177 1491.3 388.429 1490.94 388.681L1490.91 365.502ZM1513.64 371.101C1515.86 368.551 1517.94 365.888 1519.88 363.122C1520.47 362.311 1521 361.443 1521.54 360.575L1521.54 409.172C1521.02 409.124 1520.51 409.191 1520.02 409.368C1516.94 405.897 1514.09 402.425 1511.46 398.87L1511.46 397.219C1511.57 396.702 1511.57 396.168 1511.46 395.651L1511.46 376.056C1511.96 375.922 1512.43 375.677 1512.83 375.337C1513.23 374.996 1513.54 374.571 1513.75 374.092C1513.96 373.613 1514.06 373.092 1514.04 372.569C1514.02 372.046 1513.89 371.535 1513.64 371.073L1513.64 371.101ZM1525.93 357.776C1526.01 357.657 1526.05 357.523 1526.07 357.384C1526.29 359.903 1526.29 362.619 1526.29 365.39L1526.29 416.002C1525.65 415.331 1524.98 414.715 1524.36 414.043C1524.61 413.431 1524.68 412.761 1524.56 412.111C1524.44 411.462 1524.14 410.86 1523.69 410.376L1523.35 410.096L1523.35 359.707C1523.88 359.629 1524.37 359.435 1524.81 359.139C1525.24 358.844 1525.61 358.454 1525.87 358L1525.93 357.776ZM1509.5 393.579C1508.81 393.259 1508.03 393.171 1507.29 393.327C1505.13 390.08 1503.14 386.805 1501.38 383.502C1504.18 381.122 1506.75 378.659 1509.19 376.14C1509.29 376.156 1509.4 376.156 1509.5 376.14L1509.5 393.579ZM1508.74 400.046H1508.99C1508.99 400.27 1509.33 400.494 1509.5 400.718L1509.5 444.416H1508.74L1508.74 400.046ZM1511.54 403.125C1513.67 405.925 1515.88 408.556 1518.26 411.215C1517.92 411.841 1517.79 412.557 1517.89 413.262C1517.98 413.966 1518.3 414.622 1518.79 415.135C1519.14 415.523 1519.58 415.826 1520.06 416.02C1520.55 416.214 1521.07 416.294 1521.59 416.254L1521.59 445.731L1511.51 444.584L1511.54 403.125ZM1522.07 447.915C1523.49 448.055 1524.87 448.223 1526.38 448.419L1526.38 451.61L1520.78 456.845L1522.07 447.915ZM1523.52 445.955L1523.52 416.842L1526.32 419.641L1526.32 446.235L1523.52 445.955ZM1533.15 428.515C1533.36 429.016 1533.68 429.465 1534.08 429.831C1534.46 430.147 1534.91 430.376 1535.39 430.503L1535.39 447.299L1533.15 447.019L1533.15 428.515ZM1537.27 430.503C1537.53 430.452 1537.79 430.357 1538.02 430.223C1538.39 430.531 1538.78 430.811 1539.12 431.119L1539.12 447.915L1537.27 447.663L1537.27 430.503ZM1541.02 432.631C1542.05 433.498 1543.09 434.366 1544.18 435.206C1545.86 436.522 1547.63 437.809 1549.39 439.097C1549.27 439.533 1549.25 439.988 1549.31 440.435C1549.37 440.882 1549.52 441.313 1549.75 441.7L1549.75 449.343C1546.95 448.923 1543.93 448.531 1541.02 448.167L1541.02 432.631ZM1552.22 449.679H1551.74L1551.74 443.324C1551.9 443.353 1552.06 443.353 1552.22 443.324L1552.22 449.679ZM1545.36 450.854L1552.24 451.806L1543.85 459.308L1545.36 450.854ZM1554.09 443.184C1554.33 443.1 1554.55 442.988 1554.76 442.848C1557.56 444.696 1560.36 446.487 1563.16 448.251L1563.16 451.274C1560.19 450.798 1557.23 450.378 1554.2 449.931L1554.09 443.184ZM1564.95 449.427C1565.6 449.847 1566.21 450.266 1566.88 450.658C1566.8 451.055 1566.8 451.466 1566.88 451.862L1564.93 451.554L1564.95 449.427ZM1567.42 454.074L1568.56 454.269C1569.29 454.693 1570.15 454.823 1570.97 454.633L1574.83 455.249C1571.9 457.685 1569.01 460.12 1566.16 462.584L1567.42 454.074ZM1575.81 423.449C1575.51 424.27 1575.51 425.175 1575.81 425.996L1575.81 453.038C1575.09 452.646 1574.33 452.254 1573.63 451.834C1573.75 451.14 1573.65 450.428 1573.35 449.791C1573.05 449.155 1572.57 448.623 1571.96 448.268C1571.35 447.913 1570.65 447.751 1569.95 447.803C1569.25 447.855 1568.58 448.118 1568.03 448.559L1564.81 446.543L1564.81 413.623H1565.29C1568.48 416.87 1571.95 420.201 1575.62 423.449H1575.81ZM1560.98 408.696C1560.65 409.33 1560.53 410.047 1560.63 410.753C1560.72 411.458 1561.03 412.117 1561.51 412.643C1561.93 413.067 1562.45 413.384 1563.02 413.567L1563.02 445.368C1560.67 443.856 1558.37 442.344 1556.14 440.805C1556.3 440.137 1556.26 439.437 1556.02 438.793C1555.78 438.15 1555.35 437.593 1554.79 437.193C1554.35 436.878 1553.84 436.673 1553.31 436.595C1552.77 436.517 1552.22 436.569 1551.71 436.746L1551.71 397.555C1554.46 401.306 1557.48 405.02 1560.78 408.696H1560.98ZM1548.1 392.18C1547.69 392.761 1547.47 393.456 1547.47 394.167C1547.47 394.879 1547.69 395.574 1548.1 396.155C1548.53 396.747 1549.12 397.196 1549.81 397.443L1549.81 436.298C1546.81 434.086 1543.9 431.819 1541.07 429.523L1541.07 380.227C1543.11 384.342 1545.4 388.333 1547.91 392.18H1548.1ZM1533.07 359.987C1533.74 362.535 1534.47 365.054 1535.36 367.574C1536.09 369.626 1536.9 371.67 1537.8 373.704C1537.29 374.209 1536.95 374.859 1536.82 375.566C1536.7 376.273 1536.79 377.002 1537.1 377.651C1537.48 378.442 1538.15 379.054 1538.98 379.359L1538.98 425.184C1538.84 424.939 1538.66 424.721 1538.44 424.54C1537.92 424.092 1537.27 423.81 1536.58 423.73C1535.89 423.651 1535.2 423.777 1534.58 424.093L1533.01 422.665L1533.01 359.987H1533.07ZM1508.35 342.351C1518.06 342.351 1522.49 345.542 1524.5 350.469C1524.15 351.253 1523.76 352.037 1523.33 352.821C1522.65 352.736 1521.97 352.849 1521.35 353.148C1520.74 353.446 1520.23 353.916 1519.88 354.5C1519.56 355.089 1519.41 355.76 1519.46 356.432C1519.51 357.104 1519.75 357.746 1520.16 358.28C1519.41 359.483 1518.62 360.715 1517.81 361.891C1515.92 364.595 1513.89 367.202 1511.74 369.701C1511.1 369.459 1510.4 369.413 1509.73 369.567C1509.06 369.722 1508.46 370.07 1507.99 370.569C1507.54 371.087 1507.24 371.724 1507.14 372.404C1507.04 373.084 1507.14 373.778 1507.43 374.404C1505.19 376.727 1502.72 378.967 1500.2 381.206L1500.2 381.01C1500.67 380.505 1500.97 379.873 1501.07 379.196C1501.18 378.518 1501.08 377.825 1500.79 377.203C1500.5 376.588 1500.02 376.076 1499.44 375.731C1498.85 375.387 1498.17 375.227 1497.49 375.272C1496.62 373.256 1495.84 371.269 1495.11 369.253C1494.24 366.79 1493.51 364.326 1492.9 361.863C1493.45 361.465 1493.87 360.919 1494.12 360.289C1494.36 359.659 1494.43 358.972 1494.3 358.308C1494.14 357.642 1493.79 357.037 1493.29 356.569C1492.8 356.101 1492.17 355.791 1491.5 355.676C1491.5 355.396 1491.5 355.116 1491.36 354.836C1492.39 347.558 1496.03 342.407 1508.35 342.407L1508.35 342.351ZM1480.36 353.941C1481.77 351.215 1483.02 348.411 1484.11 345.543L1484.11 393.579L1480.22 396.127C1479.71 395.751 1479.11 395.51 1478.48 395.427L1478.48 359.623C1478.95 359.527 1479.39 359.333 1479.78 359.053C1480.16 358.773 1480.48 358.414 1480.72 358C1481.09 357.378 1481.25 356.654 1481.18 355.934C1481.11 355.213 1480.81 354.534 1480.33 353.997L1480.36 353.941ZM1467.96 375.244C1468.44 374.713 1468.75 374.045 1468.83 373.333C1468.92 372.62 1468.78 371.898 1468.43 371.269C1470.65 368.719 1472.73 366.056 1474.67 363.29C1475.35 362.339 1475.99 361.359 1476.61 360.351L1476.61 395.623H1476.33C1475.73 395.975 1475.26 396.497 1474.97 397.121C1474.68 397.746 1474.59 398.443 1474.7 399.122C1471.9 400.634 1469.33 402.062 1466.53 403.461L1466.53 376.027C1467.04 375.897 1467.52 375.648 1467.93 375.3L1467.96 375.244ZM1452.22 389.716C1452.79 389.282 1453.21 388.682 1453.42 388C1453.63 387.318 1453.62 386.587 1453.4 385.909C1457.13 382.837 1460.68 379.557 1464.04 376.084C1464.24 376.156 1464.44 376.212 1464.65 376.251L1464.65 404.525L1462.05 405.813C1461.55 405.33 1460.92 405.008 1460.23 404.888C1459.55 404.769 1458.85 404.857 1458.21 405.141C1457.58 405.423 1457.05 405.89 1456.69 406.48C1456.33 407.069 1456.16 407.754 1456.2 408.444C1454.85 409.032 1453.4 409.62 1452.17 410.18L1451.36 410.488L1451.36 390.192C1451.66 390.104 1451.94 389.962 1452.2 389.772L1452.22 389.716ZM1436.32 398.114C1440.52 395.52 1444.5 392.814 1448.25 389.996C1448.63 390.215 1449.05 390.367 1449.48 390.444L1449.48 411.299C1447.32 412.139 1445.14 412.979 1442.93 413.791C1442.48 413.26 1441.88 412.877 1441.21 412.692C1440.54 412.507 1439.83 412.529 1439.18 412.755C1438.52 413.002 1437.95 413.441 1437.55 414.015C1437.14 414.59 1436.92 415.272 1436.91 415.974L1434.11 416.87L1434.11 401.978C1434.34 401.901 1434.57 401.808 1434.78 401.698C1435.36 401.32 1435.82 400.776 1436.09 400.138C1436.36 399.499 1436.43 398.794 1436.29 398.114H1436.32ZM1417.9 408.052C1422.34 405.962 1426.61 403.75 1430.7 401.418C1431.11 401.738 1431.59 401.958 1432.1 402.062L1432.1 417.402C1429.3 418.298 1426.22 419.166 1423.19 419.977C1422.78 419.419 1422.21 418.996 1421.56 418.762C1420.91 418.528 1420.2 418.493 1419.53 418.662C1418.87 418.824 1418.28 419.176 1417.82 419.673C1417.36 420.171 1417.06 420.793 1416.95 421.461L1415.27 421.853L1415.27 411.523C1415.49 411.507 1415.69 411.45 1415.89 411.355C1416.52 411.072 1417.04 410.604 1417.4 410.014C1417.75 409.424 1417.92 408.739 1417.88 408.052H1417.9ZM1398.56 415.974C1403.15 414.295 1407.63 412.503 1411.94 410.628C1412.34 411.017 1412.83 411.305 1413.37 411.467L1413.37 422.273C1409.92 423.057 1406.48 423.785 1402.95 424.456C1402.6 423.865 1402.07 423.396 1401.44 423.111C1400.81 422.826 1400.11 422.739 1399.43 422.861C1398.73 422.987 1398.09 423.322 1397.59 423.822C1397.09 424.323 1396.75 424.964 1396.63 425.66H1395.87L1395.87 419.334H1396.24C1396.93 419.099 1397.54 418.645 1397.96 418.04C1398.37 417.434 1398.59 416.71 1398.56 415.974ZM1378.63 422.217C1383.33 420.957 1387.95 419.586 1392.43 418.102C1392.83 418.591 1393.37 418.959 1393.97 419.166L1393.97 425.996C1390.19 426.584 1386.38 427.116 1382.49 427.536C1382.17 426.922 1381.67 426.419 1381.06 426.092C1380.44 425.766 1379.75 425.629 1379.06 425.702C1378.37 425.774 1377.72 426.051 1377.19 426.498C1376.65 426.945 1376.27 427.54 1376.08 428.208L1376.08 425.184C1376.74 425.014 1377.33 424.651 1377.79 424.143C1378.24 423.635 1378.53 423.003 1378.63 422.329L1378.63 422.217ZM1372.3 423.841C1372.74 424.459 1373.37 424.913 1374.09 425.128L1374.09 428.375C1370.06 428.739 1365.95 429.019 1361.83 429.187C1361.54 428.564 1361.07 428.04 1360.48 427.681C1359.9 427.323 1359.22 427.146 1358.53 427.172C1358.39 427.156 1358.25 427.156 1358.11 427.172C1358.11 427.172 1358.11 426.948 1358.11 426.808C1363.04 426.08 1367.71 425.044 1372.3 423.952L1372.3 423.841ZM1351.84 428.012C1352.26 428.692 1352.9 429.206 1353.66 429.467H1349.99C1347.19 429.467 1344.25 429.467 1341.42 429.467C1344.92 429.159 1348.42 428.683 1351.84 428.124L1351.84 428.012ZM1314.61 435.598L1314.61 433.834C1315.28 433.61 1315.87 433.179 1316.29 432.603H1316.73L1316.73 435.402L1314.61 435.598ZM1314.19 446.151L1307.5 437.753H1314.19L1314.19 446.151ZM1305.79 435.598H1297.64L1297.64 431.903C1299.99 431.903 1302.37 431.903 1304.75 431.903C1306.57 431.903 1308.36 431.903 1310.18 431.903C1310.4 432.417 1310.73 432.872 1311.16 433.228C1311.59 433.584 1312.1 433.83 1312.65 433.946L1312.65 435.626L1305.79 435.598ZM1277.24 435.962L1277.24 431.091C1281.24 431.399 1285.24 431.679 1289.3 431.847C1289.5 432.405 1289.84 432.904 1290.28 433.296C1290.73 433.687 1291.27 433.959 1291.85 434.086L1291.85 435.822L1277.24 435.962ZM1291.23 446.291L1284.4 437.893C1286.64 437.893 1288.91 437.893 1291.18 437.893L1291.23 446.291ZM1257.33 436.494L1257.33 428.683C1261 429.243 1264.69 429.747 1268.53 430.167C1268.69 430.751 1269 431.281 1269.44 431.704C1269.87 432.127 1270.41 432.427 1270.99 432.574L1270.99 436.102L1257.33 436.494ZM1268.53 446.851L1261.39 438.453C1263.63 438.453 1265.9 438.453 1268.14 438.285L1268.53 446.851ZM1252.52 436.662L1252.52 429.663C1253.2 429.371 1253.78 428.872 1254.17 428.236L1255.4 428.403L1255.4 436.55L1252.52 436.662ZM1201.85 439.265L1201.85 414.239C1203.67 414.967 1205.54 415.666 1207.45 416.338C1207.46 417.043 1207.7 417.726 1208.11 418.296C1208.53 418.866 1209.11 419.297 1209.77 419.53H1210.13L1210.13 438.649L1201.85 439.265ZM1200.34 450.182L1192.56 441.98C1194.91 441.784 1197.29 441.644 1199.67 441.476L1200.34 450.182ZM1192.16 439.909L1192.16 411.915C1192.86 411.801 1193.51 411.468 1194.01 410.964C1195.94 411.803 1197.96 412.615 1199.95 413.427L1199.95 439.321L1192.16 439.909ZM1146.87 443.968L1146.87 399.906C1147.53 399.666 1148.1 399.226 1148.49 398.646C1148.9 398.069 1149.12 397.38 1149.12 396.673C1149.12 395.966 1148.9 395.276 1148.49 394.699C1150 392.404 1151.29 390.108 1152.75 387.813C1152.87 388.662 1153.31 389.434 1153.98 389.968C1154.44 390.334 1154.99 390.566 1155.58 390.64L1155.58 443.184L1146.87 443.968ZM1155.27 454.13L1146.87 446.039L1153.9 445.34L1155.27 454.13ZM1079.24 455.081L1082.93 454.493C1083.79 454.707 1084.69 454.577 1085.45 454.13L1086.49 453.962L1087.61 462.64C1084.81 460.176 1081.84 457.713 1078.9 455.277L1079.24 455.081ZM1087.1 451.722C1087.16 451.332 1087.16 450.936 1087.1 450.546C1087.8 450.126 1088.45 449.679 1089.15 449.287L1089.15 451.386L1087.1 451.722ZM1091.02 448.083C1093.82 446.347 1096.62 444.556 1099.2 442.736C1099.6 443.013 1100.06 443.201 1100.54 443.288C1101.02 443.375 1101.52 443.358 1102 443.24L1102 449.567C1098.33 450.07 1094.66 450.602 1091.05 451.162L1091.02 448.083ZM1108.35 450.882L1109.92 459.28L1101.52 451.778L1108.35 450.882ZM1103.84 449.371L1103.84 442.176C1104.19 441.756 1104.43 441.26 1104.54 440.73C1104.66 440.201 1104.65 439.651 1104.52 439.125C1106.28 437.837 1108.01 436.55 1109.72 435.234C1110.76 434.422 1111.74 433.61 1112.72 432.798L1112.72 448.167L1103.84 449.371ZM1114.62 431.287L1115.88 430.251C1116.09 430.352 1116.3 430.436 1116.52 430.503L1116.52 447.663L1114.62 447.915L1114.62 431.287ZM1118.4 430.559C1118.92 430.436 1119.41 430.196 1119.83 429.859C1119.95 429.732 1120.07 429.591 1120.16 429.439L1120.16 447.187L1118.4 447.411L1118.4 430.559ZM1126.8 365.642C1126.8 363.291 1126.8 361.023 1126.8 358.867C1127.13 359.089 1127.49 359.267 1127.86 359.399L1127.86 415.694L1126.71 416.814L1126.8 365.642ZM1138.3 375.328C1138.75 375.796 1139.31 376.135 1139.93 376.308L1139.93 401.978C1137.94 404.525 1135.87 407.016 1133.66 409.508C1133.02 409.262 1132.32 409.214 1131.65 409.368C1130.98 409.523 1130.37 409.874 1129.91 410.376L1129.91 359.987C1131.17 362.031 1132.45 364.046 1133.88 366.062C1135.31 368.077 1136.68 369.561 1137.97 371.241C1137.61 371.879 1137.46 372.614 1137.54 373.342C1137.62 374.071 1137.93 374.755 1138.42 375.3L1138.3 375.328ZM1158.49 376.279C1159.38 374.236 1160.22 372.192 1160.92 370.177C1161.4 368.861 1161.82 367.545 1162.21 366.23L1162.21 390.36C1161.23 389.66 1160.25 388.988 1159.41 388.261C1159.61 387.605 1159.6 386.905 1159.4 386.252C1159.19 385.599 1158.8 385.021 1158.26 384.594C1158.01 384.402 1157.74 384.243 1157.45 384.118L1157.45 381.934C1158.27 381.628 1158.93 381.015 1159.3 380.227C1159.61 379.574 1159.71 378.84 1159.59 378.127C1159.46 377.414 1159.12 376.758 1158.6 376.251L1158.49 376.279ZM1155.46 383.922C1155.18 383.976 1154.91 384.061 1154.65 384.174L1155.46 382.718L1155.46 383.922ZM1146.34 393.355C1145.67 393.197 1144.97 393.243 1144.32 393.487C1143.68 393.732 1143.12 394.164 1142.73 394.727C1142.35 395.296 1142.15 395.963 1142.15 396.645C1142.15 397.327 1142.35 397.994 1142.73 398.562C1142.45 398.926 1142.14 399.29 1141.89 399.654L1141.89 376.336H1142.25C1145.17 379.426 1148.26 382.36 1151.49 385.125C1149.98 387.785 1148.3 390.556 1146.45 393.327L1146.34 393.355ZM1126.74 420.285L1127.89 419.166L1127.89 446.235L1126.74 446.375L1126.74 420.285ZM1126.74 448.475L1131.39 447.943L1132.65 456.873L1126.74 451.274L1126.74 448.475ZM1129.77 446.011L1129.77 417.262L1131.05 416.002C1131.25 416.028 1131.45 416.028 1131.64 416.002L1131.64 445.62L1129.77 446.011ZM1133.54 416.058C1134.07 415.879 1134.54 415.571 1134.92 415.163C1135.4 414.644 1135.71 413.991 1135.81 413.291C1135.91 412.59 1135.79 411.876 1135.48 411.243C1136.99 409.536 1138.44 407.828 1139.87 406.093L1139.87 444.864L1133.54 445.536L1133.54 416.058ZM1141.77 403.685C1142.73 402.481 1143.68 401.278 1144.57 400.046H1144.77L1144.77 444.276L1141.75 444.612L1141.77 403.685ZM1157.28 390.472C1157.45 390.415 1157.61 390.339 1157.76 390.248C1159.19 391.34 1160.56 392.376 1162.15 393.412L1162.15 442.568L1157.28 443.044L1157.28 390.472ZM1168.93 397.946L1169.66 398.45C1169.53 399.149 1169.62 399.87 1169.91 400.516C1170.21 401.161 1170.7 401.701 1171.31 402.062C1171.9 402.434 1172.6 402.601 1173.3 402.537L1173.3 441.56L1168.93 441.952L1168.93 397.946ZM1176.57 443.38L1177.83 452.058L1169.82 443.94L1176.57 443.38ZM1175.39 441.393L1175.39 401.81C1178.45 403.545 1181.64 405.197 1184.91 406.82L1184.91 440.609L1175.39 441.393ZM1186.84 407.8L1188.24 408.5C1188.18 409.212 1188.35 409.923 1188.72 410.536C1189.08 411.149 1189.63 411.631 1190.29 411.915H1190.46L1190.46 440.217L1186.84 440.497L1186.84 407.8ZM1212.18 419.698C1212.78 419.5 1213.32 419.131 1213.72 418.634C1214.98 419.054 1216.24 419.418 1217.5 419.809L1217.5 438.369L1212.18 438.677L1212.18 419.698ZM1222.79 440.273L1223.15 448.895L1215.65 440.497L1222.79 440.273ZM1219.37 438.369L1219.37 420.397C1222.17 421.209 1224.78 422.021 1227.52 422.749C1227.6 423.439 1227.89 424.09 1228.34 424.618C1228.8 425.146 1229.4 425.528 1230.07 425.716L1230.07 437.809L1219.37 438.369ZM1231.97 425.66C1232.73 425.447 1233.39 424.983 1233.85 424.344L1236.2 424.848L1236.2 437.529L1231.97 437.725L1231.97 425.66ZM1238.1 425.296C1241.32 425.996 1244.59 426.696 1247.93 427.312C1248.05 428.01 1248.38 428.653 1248.88 429.154C1249.38 429.655 1250.03 429.989 1250.73 430.111L1250.73 436.969C1246.5 436.969 1242.33 437.277 1238.04 437.473L1238.1 425.296ZM1272.92 432.77C1273.38 432.634 1273.8 432.405 1274.16 432.096C1274.52 431.788 1274.82 431.407 1275.02 430.979H1275.44L1275.44 436.158H1272.92L1272.92 432.77ZM1293.84 434.058C1294.28 433.904 1294.68 433.66 1295.02 433.342C1295.36 433.024 1295.64 432.639 1295.82 432.211L1295.82 435.878H1293.84L1293.84 434.058ZM1299.43 428.46C1302.23 428.907 1305.26 429.327 1308.17 429.691H1304.75C1302.51 429.691 1300.3 429.691 1298.09 429.691C1298.67 429.378 1299.15 428.914 1299.49 428.347L1299.43 428.46ZM1279 424.372C1283.59 425.464 1288.29 426.472 1293 427.34C1293 427.34 1293 427.34 1293 427.48H1292.63C1291.94 427.46 1291.26 427.647 1290.68 428.016C1290.09 428.385 1289.63 428.919 1289.36 429.551C1285.27 429.383 1281.21 429.103 1277.18 428.795L1277.18 425.688C1277.92 425.467 1278.56 425.004 1279 424.372ZM1258.87 418.774C1263.39 420.267 1267.99 421.638 1272.67 422.889C1272.76 423.591 1273.05 424.253 1273.51 424.787C1273.98 425.321 1274.59 425.704 1275.28 425.884H1275.44L1275.44 428.683H1275.25C1275.05 428.019 1274.66 427.429 1274.13 426.988C1273.59 426.548 1272.94 426.277 1272.25 426.211C1271.56 426.144 1270.87 426.286 1270.26 426.617C1269.65 426.948 1269.16 427.453 1268.84 428.068C1265 427.648 1261.2 427.116 1257.44 426.528L1257.44 419.781C1258.03 419.521 1258.53 419.092 1258.87 418.55L1258.87 418.774ZM1239.28 411.355C1241.68 412.391 1244.09 413.399 1246.58 414.379C1248.57 415.162 1250.61 415.946 1252.69 416.674C1252.7 417.379 1252.93 418.062 1253.35 418.632C1253.76 419.202 1254.34 419.633 1255.01 419.865H1255.48L1255.48 426.164H1254.62C1254.49 425.466 1254.16 424.823 1253.66 424.322C1253.16 423.821 1252.52 423.487 1251.82 423.365C1251.13 423.255 1250.43 423.35 1249.79 423.639C1249.16 423.928 1248.63 424.397 1248.26 424.988C1244.79 424.344 1241.38 423.617 1237.99 422.861L1237.99 412.083C1238.5 411.872 1238.96 411.547 1239.33 411.132L1239.28 411.355ZM1220.55 402.006C1224.64 404.329 1228.95 406.541 1233.34 408.64C1233.28 409.351 1233.45 410.063 1233.81 410.676C1234.18 411.289 1234.73 411.771 1235.39 412.055C1235.62 412.155 1235.86 412.23 1236.11 412.279L1236.11 422.497L1234.32 422.105C1234.24 421.417 1233.95 420.769 1233.49 420.248C1233.03 419.727 1232.43 419.356 1231.76 419.183C1231.09 419.011 1230.38 419.045 1229.73 419.282C1229.08 419.518 1228.51 419.946 1228.11 420.509C1225.11 419.697 1222.2 418.858 1219.29 417.962L1219.29 402.593C1219.78 402.425 1220.23 402.148 1220.6 401.782L1220.55 402.006ZM1214.95 398.646C1214.82 399.345 1214.91 400.066 1215.21 400.711C1215.5 401.357 1215.99 401.897 1216.6 402.257C1216.85 402.411 1217.13 402.525 1217.41 402.593L1217.41 417.374L1214.39 416.422C1214.37 415.728 1214.14 415.057 1213.72 414.498C1213.31 413.94 1212.74 413.52 1212.08 413.295C1211.43 413.07 1210.72 413.05 1210.05 413.239C1209.38 413.428 1208.79 413.815 1208.34 414.351C1206.16 413.567 1204.03 412.755 1201.93 411.943L1201.93 390.78C1202.33 390.722 1202.71 390.579 1203.05 390.36C1206.84 393.122 1210.83 395.81 1215.01 398.422L1214.95 398.646ZM1197.99 386.385C1197.75 387.057 1197.73 387.786 1197.93 388.47C1198.13 389.153 1198.54 389.756 1199.11 390.192C1199.38 390.422 1199.69 390.602 1200.03 390.724L1200.03 411.16C1198.35 410.488 1196.7 409.816 1195.07 409.116C1195.1 408.42 1194.93 407.731 1194.57 407.134C1194.21 406.536 1193.69 406.058 1193.06 405.757C1192.42 405.48 1191.72 405.396 1191.04 405.516C1190.36 405.635 1189.73 405.953 1189.22 406.429L1186.76 405.197L1186.76 376.363C1186.99 376.344 1187.21 376.297 1187.43 376.223C1190.77 379.741 1194.31 383.059 1198.04 386.161L1197.99 386.385ZM1179.03 366.342C1180.32 368.105 1181.83 369.841 1183.09 371.521C1182.75 372.154 1182.61 372.877 1182.69 373.592C1182.77 374.308 1183.07 374.982 1183.54 375.524C1183.91 375.922 1184.37 376.221 1184.88 376.391L1184.88 404.385C1182.09 402.957 1179.29 401.586 1176.49 399.934C1176.57 399.336 1176.49 398.727 1176.27 398.168C1176.04 397.608 1175.67 397.117 1175.2 396.743L1175.2 360.407C1176.57 362.339 1177.75 364.242 1179.09 366.118L1179.03 366.342ZM1171.59 353.913C1171.21 354.364 1170.95 354.904 1170.84 355.482C1170.73 356.059 1170.76 356.656 1170.95 357.216C1171.13 357.776 1171.45 358.281 1171.88 358.682C1172.31 359.084 1172.84 359.369 1173.41 359.511L1173.41 395.903C1172.59 395.847 1171.78 396.074 1171.11 396.547L1169.04 395.203L1169.04 347.922C1169.85 349.854 1170.72 351.785 1171.64 353.689L1171.59 353.913ZM1144.38 342.715C1157.26 342.715 1160.84 348.314 1161.85 356.18C1161.27 356.357 1160.75 356.679 1160.34 357.116C1159.93 357.552 1159.64 358.088 1159.49 358.672C1159.36 359.336 1159.42 360.026 1159.67 360.657C1159.91 361.288 1160.34 361.834 1160.89 362.227C1160.28 364.69 1159.55 367.154 1158.68 369.617C1157.95 371.633 1157.17 373.62 1156.3 375.636C1155.62 375.593 1154.94 375.753 1154.35 376.097C1153.75 376.441 1153.27 376.952 1152.97 377.567C1152.69 378.193 1152.6 378.886 1152.71 379.562C1152.82 380.238 1153.13 380.868 1153.59 381.374L1152.69 383.082C1149.61 380.283 1146.7 377.679 1144.04 374.852C1144.34 374.234 1144.46 373.54 1144.37 372.858C1144.28 372.176 1143.99 371.536 1143.54 371.017C1143.08 370.506 1142.49 370.143 1141.82 369.973C1141.16 369.804 1140.46 369.835 1139.82 370.065C1138.42 368.385 1137.02 366.706 1135.87 364.998C1134.72 363.29 1132.93 360.687 1131.64 358.503C1132.06 357.976 1132.32 357.336 1132.38 356.665C1132.44 355.993 1132.3 355.318 1131.98 354.724C1131.65 354.131 1131.16 353.647 1130.56 353.333C1129.97 353.019 1129.29 352.89 1128.62 352.961C1128.42 352.569 1128.25 352.177 1128.09 351.785C1129.88 345.99 1134.1 342.407 1144.43 342.407L1144.38 342.715ZM1118.32 367.909C1119.02 366.006 1119.55 364.102 1120.08 362.171L1120.08 423.505L1119.1 424.428C1118.48 424.113 1117.79 423.986 1117.1 424.066C1116.41 424.146 1115.76 424.428 1115.24 424.876C1114.97 425.123 1114.73 425.405 1114.54 425.716L1114.54 379.583C1114.98 379.443 1115.38 379.214 1115.73 378.91C1116.07 378.607 1116.36 378.236 1116.55 377.819C1116.87 377.174 1116.98 376.446 1116.86 375.737C1116.73 375.028 1116.39 374.376 1115.88 373.872C1116.8 371.717 1117.78 369.673 1118.37 367.629L1118.32 367.909ZM1105.75 396.435C1106.16 395.855 1106.38 395.16 1106.38 394.447C1106.38 393.734 1106.16 393.039 1105.75 392.46C1108.24 388.704 1110.53 384.817 1112.61 380.814L1112.61 429.915C1109.81 432.239 1106.81 434.534 1103.73 436.802L1103.73 397.499C1104.57 397.33 1105.31 396.849 1105.8 396.155L1105.75 396.435ZM1092.34 412.923C1092.83 412.407 1093.15 411.748 1093.25 411.04C1093.35 410.331 1093.23 409.61 1092.9 408.976C1096.15 405.374 1099.14 401.716 1101.88 398.003L1101.88 436.941C1101.41 436.82 1100.91 436.804 1100.42 436.896C1099.94 436.988 1099.48 437.185 1099.08 437.473C1098.52 437.87 1098.09 438.427 1097.85 439.071C1097.62 439.716 1097.58 440.417 1097.74 441.084C1095.53 442.624 1093.23 444.108 1090.94 445.564L1090.94 413.539C1091.49 413.364 1091.99 413.057 1092.39 412.643L1092.34 412.923ZM1078.06 423.729C1081.73 420.481 1085.23 417.15 1088.5 413.791H1089.06L1089.06 446.487L1085.73 448.559C1085.18 448.118 1084.51 447.855 1083.81 447.803C1083.11 447.751 1082.41 447.913 1081.8 448.268C1081.2 448.623 1080.71 449.155 1080.41 449.791C1080.12 450.428 1080.02 451.14 1080.13 451.834L1077.33 453.346H1076.58L1076.58 427.396C1076.72 427.338 1076.85 427.263 1076.97 427.172C1077.51 426.737 1077.91 426.15 1078.11 425.486C1078.32 424.823 1078.32 424.113 1078.12 423.449L1078.06 423.729ZM1076.69 468.294L1076.69 456.817C1080.52 460.008 1084.25 463.218 1087.89 466.447C1084.19 466.783 1080.5 467.399 1076.75 468.014L1076.69 468.294ZM1088.92 453.934L1094.13 453.122C1092.73 456.257 1091.33 459.42 1090.04 462.556L1088.92 453.934ZM1091.33 465.971C1093.12 461.744 1094.91 457.573 1096.79 453.318L1098.92 464.851L1091.33 465.971ZM1101.3 464.515L1099.22 453.318C1102.96 456.621 1106.69 459.952 1110.42 463.311C1107.43 463.367 1104.38 463.815 1101.35 464.235L1101.3 464.515ZM1112.3 459.672L1110.67 450.826C1112.72 450.546 1114.73 450.239 1116.8 449.987C1115.35 452.926 1113.84 456.173 1112.35 459.392L1112.3 459.672ZM1113.61 462.836C1115.48 458.618 1117.44 454.391 1119.49 450.155L1120.08 454.381L1120.08 461.996L1113.61 462.836ZM1126.85 461.156L1126.85 454.829L1132.87 460.428L1126.85 461.156ZM1133.88 447.915C1135.78 447.691 1137.66 447.439 1139.48 447.243L1135 456.285L1133.88 447.915ZM1136.01 460.064C1138.06 455.846 1140.15 451.638 1142.28 447.439L1143.93 459.196L1136.01 460.064ZM1146.34 458.944L1144.74 447.747C1148.33 451.218 1151.88 454.661 1155.41 458.161L1146.34 458.944ZM1156.36 445.507C1158.32 445.312 1160.28 445.088 1162.27 444.92L1162.27 445.144L1157.56 454.074L1156.36 445.507ZM1158.46 457.713L1162.27 450.518L1162.27 457.377L1158.46 457.713ZM1169.15 456.761L1169.15 455.893L1169.15 446.851L1178.11 455.949L1169.15 456.761ZM1178.92 443.464C1181.05 443.268 1183.12 443.072 1185.25 442.932L1180.15 452.142L1178.92 443.464ZM1180.99 455.697C1183.21 451.666 1185.47 447.635 1187.71 443.604L1188.61 455.137L1180.99 455.697ZM1191.02 454.969L1190.12 443.156C1193.65 446.823 1197.15 450.546 1200.62 454.354L1191.02 454.969ZM1202.21 441.7L1208.2 441.308L1202.88 450.462L1202.21 441.7ZM1203.64 454.074C1206.05 449.902 1208.46 445.676 1210.92 441.589L1211.81 453.57C1209.1 453.458 1206.36 453.598 1203.64 453.794L1203.64 454.074ZM1214.25 453.43L1213.35 441.924C1216.71 445.545 1220.03 449.175 1223.29 452.814L1214.25 453.43ZM1225.2 440.329L1231.13 440.021L1225.53 449.175L1225.2 440.329ZM1226.26 452.73C1228.78 448.55 1231.33 444.378 1233.9 440.217L1234.41 452.338L1226.26 452.73ZM1236.84 452.226L1236.36 440.777C1239.61 444.509 1242.83 448.186 1246.02 451.806L1236.84 452.226ZM1238.58 439.685L1245.71 439.405L1246.08 448.251L1238.58 439.685ZM1248.12 439.321L1254.08 439.069L1248.49 447.831L1248.12 439.321ZM1248.93 451.694C1251.45 447.719 1254 443.688 1256.58 439.713L1257.08 451.442L1248.93 451.694ZM1259.49 451.386L1258.98 439.517C1262.29 443.38 1265.53 447.215 1268.75 451.078L1259.49 451.386ZM1270.68 438.565L1277.01 438.425L1271.05 447.383L1270.68 438.565ZM1271.58 451.022C1274.21 446.991 1276.88 442.97 1279.59 438.957L1280.09 450.854C1277.35 450.63 1274.55 450.658 1271.75 450.742L1271.58 451.022ZM1282.53 450.798L1282.02 439.069C1285.19 442.904 1288.35 446.767 1291.46 450.63L1282.53 450.798ZM1293.72 438.173H1300.02L1293.78 446.767L1293.72 438.173ZM1302.51 450.546H1294.34L1302.51 438.733L1302.51 450.546ZM1313.91 450.546H1304.92L1304.92 438.369C1308.06 442.316 1311.16 446.235 1314.24 450.21L1313.91 450.546ZM1316.71 438.089H1323.06L1316.54 446.767L1316.71 438.089ZM1317.15 450.546L1325.55 438.985L1325.55 450.742C1322.67 450.266 1319.87 450.21 1317.04 450.21L1317.15 450.546ZM1318.72 436.046L1318.72 432.798C1319.16 432.599 1319.54 432.302 1319.84 431.931L1325.02 431.623L1331.93 432.043C1332.21 432.324 1332.55 432.543 1332.91 432.686L1332.91 436.046H1318.72ZM1328.07 450.602L1328.07 438.873L1336.47 450.546L1328.07 450.602ZM1336.97 446.935L1330.54 437.781H1336.86L1336.97 446.935ZM1348.7 450.574H1339.72H1339.38C1342.46 446.599 1345.54 442.68 1348.7 438.733L1348.7 450.574ZM1351.11 450.574L1351.11 438.817L1359.26 450.63L1351.11 450.574ZM1359.82 447.103L1353.6 438.117H1359.9L1359.82 447.103ZM1371.01 450.826L1362.08 450.658C1365.19 446.795 1368.35 442.932 1371.52 439.097L1371.01 450.826ZM1373.45 450.826L1373.95 438.929C1376.75 442.932 1379.3 446.963 1381.93 450.966L1373.45 450.826ZM1382.46 447.355L1376.53 438.397L1382.86 438.537L1382.46 447.355ZM1394.08 451.33L1384.81 451.05C1388.03 447.187 1391.28 443.352 1394.58 439.489L1394.08 451.33ZM1396.49 451.33L1396.99 439.601C1399.57 443.576 1402.11 447.57 1404.63 451.582L1396.49 451.33ZM1405.08 447.719L1399.48 438.957L1405.45 439.181L1405.08 447.719ZM1407.88 439.321L1415.05 439.629L1407.52 448.195L1407.88 439.321ZM1416.76 452.17L1407.57 451.75C1410.76 448.018 1413.98 444.341 1417.23 440.721L1416.76 452.17ZM1419.16 452.17L1419.69 440.049C1422.27 444.229 1424.81 448.391 1427.31 452.534L1419.16 452.17ZM1428.04 449.007L1422.44 439.825L1428.43 440.161L1428.04 449.007ZM1439.23 453.262L1430.19 452.702C1433.46 449.063 1436.76 445.433 1440.1 441.812L1439.23 453.262ZM1441.64 453.402L1442.57 441.421C1445.03 445.564 1447.44 449.818 1449.84 453.878L1441.64 453.402ZM1450.6 450.294L1445.31 441.169L1451.3 441.56L1450.6 450.294ZM1462.41 454.801L1452.81 454.074C1456.28 450.35 1459.75 446.655 1463.31 442.876L1462.41 454.801ZM1464.82 454.969L1465.72 443.436C1467.96 447.467 1470.22 451.47 1472.41 455.529C1469.92 455.165 1467.34 455.165 1464.9 454.857L1464.82 454.969ZM1473.22 451.974L1468.12 442.736L1474.45 443.268L1473.22 451.974ZM1475.37 455.781C1478.23 452.851 1481.11 449.931 1484.02 447.019L1484.02 456.593L1475.37 455.781ZM1490.8 457.181L1490.8 449.567C1492.17 452.17 1493.6 454.745 1494.89 457.349L1490.8 457.181ZM1495.78 453.906L1490.97 444.724L1497.01 445.34L1495.78 453.906ZM1506.98 458.776C1503.98 458.44 1500.99 458.161 1497.94 457.853C1501.46 454.354 1505.02 450.91 1508.6 447.439L1506.98 458.776ZM1509.39 459.028L1511.07 447.271C1513.19 451.47 1515.26 455.669 1517.34 459.896L1509.39 459.028ZM1518.26 456.229L1513.75 447.187C1515.68 447.383 1517.53 447.607 1519.35 447.859L1518.26 456.229ZM1520.47 460.372C1522.35 458.58 1524.25 456.817 1526.07 455.053L1526.07 460.764L1520.47 460.372ZM1532.93 461.912L1532.93 456.285L1533.85 449.874C1535.85 454.092 1537.8 458.319 1539.7 462.556L1532.93 461.912ZM1541.02 459.616C1539.56 456.369 1538.05 453.15 1536.54 449.931L1542.67 450.742L1541.02 459.616ZM1552.05 464.431L1542.92 463.199C1546.65 459.84 1550.39 456.509 1554.12 453.206L1552.05 464.431ZM1554.43 464.795L1556.56 453.262C1558.43 457.461 1560.22 461.66 1561.99 465.915L1554.43 464.795ZM1563.39 462.752C1562.01 459.532 1560.59 456.285 1559.21 453.066L1564.65 453.934L1563.39 462.752ZM1565.4 466.447L1565.4 466.307C1568.73 463.507 1572.15 460.512 1575.56 457.657L1575.56 468.07L1565.4 466.447Z" fill="url(#paint9_linear_4510_18677)"/>
</g>
<defs>
<linearGradient id="paint0_linear_4510_18677" x1="64.92" y1="132.074" x2="357.481" y2="424.662" gradientUnits="userSpaceOnUse">
<stop stop-color="#4C6E51"/>
<stop offset="0.5" stop-color="#E6E6E6"/>
<stop offset="1" stop-color="#4C6E51"/>
</linearGradient>
<linearGradient id="paint1_linear_4510_18677" x1="133.724" y1="173.244" x2="398.711" y2="438.231" gradientUnits="userSpaceOnUse">
<stop stop-color="#4C6E51"/>
<stop offset="0.5" stop-color="#E6E6E6"/>
<stop offset="1" stop-color="#4C6E51"/>
</linearGradient>
<linearGradient id="paint2_linear_4510_18677" x1="202.812" y1="214.951" x2="439.945" y2="452.113" gradientUnits="userSpaceOnUse">
<stop stop-color="#4C6E51"/>
<stop offset="0.5" stop-color="#E6E6E6"/>
<stop offset="1" stop-color="#4C6E51"/>
</linearGradient>
<linearGradient id="paint3_linear_4510_18677" x1="941.152" y1="218.49" x2="1187.78" y2="465.085" gradientUnits="userSpaceOnUse">
<stop stop-color="#4C6E51"/>
<stop offset="0.5" stop-color="#E6E6E6"/>
<stop offset="1" stop-color="#4C6E51"/>
</linearGradient>
<linearGradient id="paint4_linear_4510_18677" x1="762.776" y1="169.045" x2="1077.9" y2="484.169" gradientUnits="userSpaceOnUse">
<stop stop-color="#4C6E51"/>
<stop offset="0.5" stop-color="#E6E6E6"/>
<stop offset="1" stop-color="#4C6E51"/>
</linearGradient>
<linearGradient id="paint5_linear_4510_18677" x1="618.406" y1="223.556" x2="861.082" y2="466.26" gradientUnits="userSpaceOnUse">
<stop stop-color="#4C6E51"/>
<stop offset="0.5" stop-color="#E6E6E6"/>
<stop offset="1" stop-color="#4C6E51"/>
</linearGradient>
<linearGradient id="paint6_linear_4510_18677" x1="337.608" y1="326.079" x2="540.729" y2="529.2" gradientUnits="userSpaceOnUse">
<stop stop-color="#4C6E51"/>
<stop offset="0.5" stop-color="#E6E6E6"/>
<stop offset="1" stop-color="#333333"/>
</linearGradient>
<linearGradient id="paint7_linear_4510_18677" x1="417.554" y1="113.942" x2="765.905" y2="462.294" gradientUnits="userSpaceOnUse">
<stop stop-color="#4C6E51"/>
<stop offset="0.5" stop-color="#E6E6E6"/>
<stop offset="1" stop-color="#4C6E51"/>
</linearGradient>
<linearGradient id="paint8_linear_4510_18677" x1="-50.5595" y1="265.742" x2="284.047" y2="600.349" gradientUnits="userSpaceOnUse">
<stop stop-color="#4C6E51"/>
<stop offset="0.5" stop-color="#E6E6E6"/>
<stop offset="1" stop-color="#4C6E51"/>
</linearGradient>
<linearGradient id="paint9_linear_4510_18677" x1="1058.05" y1="362.574" x2="1329.24" y2="527.932" gradientUnits="userSpaceOnUse">
<stop stop-color="#4C6E51"/>
<stop offset="0.5" stop-color="#E6E6E6"/>
<stop offset="1" stop-color="#4C6E51"/>
</linearGradient>
</defs>
</svg>
