<svg width="18" height="20" viewBox="0 0 18 20" fill="none" xmlns="http://www.w3.org/2000/svg">
<path d="M9.00104 0.5C8.33809 0.5 7.79445 1.03268 7.79445 1.69862V10.1506C7.79445 10.8165 8.33809 11.3492 9.00104 11.3492C9.66399 11.3492 10.2076 10.8165 10.2076 10.1506V1.69862C10.2076 1.03268 9.66399 0.5 9.00104 0.5Z" fill="#86F097"/>
<path d="M11.5618 3.19329C11.8734 2.60841 12.6036 2.38642 13.1899 2.69267C16.1563 4.24103 18 7.26351 18 10.5837C18 15.5044 13.9591 19.5 9.00104 19.5C4.04094 19.5 0 15.5045 0 10.5837C0 7.28691 1.8242 4.27304 4.75863 2.71818C5.34405 2.40728 6.07489 2.62342 6.3896 3.20847C6.70724 3.79506 6.48295 4.52277 5.89445 4.83301C3.74458 5.97174 2.41319 8.17577 2.41319 10.5837C2.41319 14.1726 5.36476 17.1007 8.99896 17.1007C12.6332 17.1007 15.5847 14.1726 15.5847 10.5837C15.5847 8.15993 14.2394 5.94995 12.0671 4.81504C11.479 4.50784 11.2488 3.78081 11.5618 3.19329Z" fill="#86F097"/>
</svg>
