<svg width="294" height="233" viewBox="0 0 294 233" fill="none" xmlns="http://www.w3.org/2000/svg">
<path fill-rule="evenodd" clip-rule="evenodd" d="M18.3881 99.4421C7.03703 110.626 0 126.177 0 143.371C0 177.428 27.6087 205.036 61.6658 205.036C68.7937 205.036 75.6391 203.827 82.008 201.602C87.6596 219.763 104.601 232.949 124.622 232.949C140.614 232.949 154.642 224.536 162.52 211.895C173.07 218.042 185.339 221.564 198.43 221.564C237.879 221.564 269.859 189.584 269.859 150.134C269.859 144.605 269.231 139.223 268.042 134.055C283.896 120.954 294 101.14 294 78.9664C294 39.517 262.02 7.53692 222.57 7.53692C210.78 7.53692 199.657 10.3934 189.856 15.452C179.741 5.87423 166.084 0 151.055 0C128.025 0 108.217 13.7932 99.4403 33.5691C91.4204 29.1923 82.2213 26.7048 72.4413 26.7048C41.2696 26.7048 16 51.9745 16 83.1461C16 88.8119 16.8348 94.2826 18.3881 99.4421Z" fill="#86F097"/>
</svg>
