<svg width="294" height="233" viewBox="0 0 294 233" fill="none" xmlns="http://www.w3.org/2000/svg">
<path fill-rule="evenodd" clip-rule="evenodd" d="M275.612 99.4421C286.963 110.626 294 126.177 294 143.371C294 177.428 266.391 205.036 232.334 205.036C225.206 205.036 218.361 203.827 211.992 201.602C206.34 219.763 189.399 232.949 169.378 232.949C153.386 232.949 139.358 224.536 131.48 211.895C120.93 218.042 108.661 221.564 95.5705 221.564C56.121 221.564 24.141 189.584 24.141 150.134C24.141 144.605 24.7691 139.223 25.958 134.055C10.1038 120.954 0.000366211 101.14 0.000366211 78.9664C0.000366211 39.517 31.9804 7.53692 71.4299 7.53692C83.2199 7.53692 94.3428 10.3934 104.144 15.452C114.259 5.87423 127.916 0 142.945 0C165.975 0 185.783 13.7932 194.56 33.5691C202.58 29.1923 211.779 26.7048 221.559 26.7048C252.73 26.7048 278 51.9745 278 83.1461C278 88.8119 277.165 94.2826 275.612 99.4421Z" fill="#86F097"/>
</svg>
