<svg width="101" height="101" viewBox="0 0 101 101" fill="none" xmlns="http://www.w3.org/2000/svg">
<g filter="url(#filter0_d_575_2775)">
<circle cx="50.0464" cy="50.0462" r="43.5364" transform="rotate(-8.47639 50.0464 50.0462)" fill="#1E1E1E" stroke="#86F097"/>
<circle cx="49.5249" cy="49.6599" r="32.986" transform="rotate(-8.47639 49.5249 49.6599)" fill="#1E1E1E" stroke="#86F097"/>
<path fill-rule="evenodd" clip-rule="evenodd" d="M48.7567 34.4697C52.6372 33.8918 56.574 34.7827 59.7013 36.9464C62.829 39.1105 64.8908 42.3705 65.4331 46.0093C65.9754 49.6481 64.9538 53.3677 62.5929 56.3497C60.3393 59.1963 57.0416 61.1482 53.3709 61.8227C53.1962 61.8548 53.0208 61.884 52.8445 61.9103L52.0267 56.4222C54.3553 56.0752 56.4592 54.8751 57.8757 53.0859C59.2922 51.2966 59.9052 49.0649 59.5798 46.8816C59.2544 44.6984 58.0173 42.7423 56.1407 41.4439C54.2645 40.1458 51.9027 39.6112 49.5746 39.9578L43.1718 40.912L46.4434 62.8642L40.0406 63.8184L35.9512 36.3781C35.9512 36.3781 36.1509 36.3484 36.4789 36.2996C37.0832 36.2096 38.1232 36.0547 39.1522 35.9011C40.7367 35.6645 42.3474 35.4249 42.3531 35.424L48.7567 34.4697ZM36.5575 36.8272L40.4896 63.2122L45.8371 62.4152L42.5656 40.463L49.4959 39.4301C51.9534 39.0643 54.4527 39.6273 56.4442 41.0052C58.4375 42.3843 59.7595 44.4684 60.1074 46.803C60.4554 49.1376 59.7985 51.5166 58.294 53.417C56.8984 55.1798 54.8793 56.3983 52.6308 56.8571L53.2922 61.2948C56.833 60.6398 60.0077 58.7557 62.1747 56.0186C64.4475 53.1477 65.4252 49.5755 64.9055 46.088C64.3857 42.6005 62.4089 39.4685 59.3978 37.3851C56.3857 35.3012 52.5864 34.4387 48.8353 34.9973C48.8353 34.9974 48.8353 34.9973 48.8353 34.9973L42.4321 35.9516C42.4263 35.9525 40.8153 36.1922 39.231 36.4287C38.4372 36.5472 37.6369 36.6665 37.035 36.7561L36.5575 36.8272Z" fill="#86F097"/>
<path fill-rule="evenodd" clip-rule="evenodd" d="M47.7431 48.0438C48.7146 47.899 49.3848 46.9941 49.24 46.0226C49.0953 45.0511 48.1903 44.3809 47.2188 44.5257C46.2473 44.6705 45.5772 45.5754 45.7219 46.5469C45.8667 47.5184 46.7716 48.1886 47.7431 48.0438ZM47.8218 48.5715C49.0847 48.3833 49.9559 47.2069 49.7677 45.944C49.5795 44.6811 48.4031 43.8099 47.1402 43.9981C45.8773 44.1863 45.0061 45.3627 45.1943 46.6256C45.3825 47.8885 46.5589 48.7597 47.8218 48.5715Z" fill="#86F097"/>
<path fill-rule="evenodd" clip-rule="evenodd" d="M54.5576 47.0287C55.5291 46.8839 56.1993 45.979 56.0545 45.0075C55.9097 44.036 55.0048 43.3658 54.0333 43.5106C53.0618 43.6554 52.3916 44.5603 52.5364 45.5318C52.6812 46.5033 53.5861 47.1735 54.5576 47.0287ZM54.6362 47.5563C55.8991 47.3681 56.7703 46.1918 56.5821 44.9289C56.3939 43.6659 55.2176 42.7947 53.9547 42.9829C52.6918 43.1712 51.8205 44.3475 52.0088 45.6104C52.197 46.8733 53.3733 47.7445 54.6362 47.5563Z" fill="#86F097"/>
</g>
<defs>
<filter id="filter0_d_575_2775" x="4.00391" y="6.00391" width="90.084" height="89.0845" filterUnits="userSpaceOnUse" color-interpolation-filters="sRGB">
<feFlood flood-opacity="0" result="BackgroundImageFix"/>
<feColorMatrix in="SourceAlpha" type="matrix" values="0 0 0 0 0 0 0 0 0 0 0 0 0 0 0 0 0 0 127 0" result="hardAlpha"/>
<feOffset dx="-2" dy="1"/>
<feComposite in2="hardAlpha" operator="out"/>
<feColorMatrix type="matrix" values="0 0 0 0 0.52549 0 0 0 0 0.941176 0 0 0 0 0.592157 0 0 0 1 0"/>
<feBlend mode="normal" in2="BackgroundImageFix" result="effect1_dropShadow_575_2775"/>
<feBlend mode="normal" in="SourceGraphic" in2="effect1_dropShadow_575_2775" result="shape"/>
</filter>
</defs>
</svg>
