<svg width="163" height="150" viewBox="0 0 163 150" fill="none" xmlns="http://www.w3.org/2000/svg">
<g filter="url(#filter0_d_477_590)">
<circle cx="53.468" cy="81.4679" r="43.5364" transform="rotate(-14.1546 53.468 81.4679)" fill="#1E1E1E" stroke="#86F097"/>
<circle cx="52.9099" cy="81.1352" r="32.986" transform="rotate(-14.1546 52.9099 81.1352)" fill="#1E1E1E" stroke="#86F097"/>
<path fill-rule="evenodd" clip-rule="evenodd" d="M50.6437 66.0959C54.448 65.1369 58.4536 65.6339 61.7797 67.4776C65.1062 69.3216 67.4804 72.3616 68.38 75.9289C69.2797 79.4962 68.6311 83.2986 66.5769 86.4995C64.616 89.5551 61.5276 91.8238 57.9416 92.8581C57.771 92.9074 57.5993 92.9538 57.4265 92.9973L56.0697 87.6171C58.3525 87.0414 60.3274 85.639 61.5599 83.7184C62.7924 81.7979 63.1816 79.5164 62.6418 77.3761C62.102 75.2357 60.6774 73.4117 58.6816 72.3053C56.6861 71.1991 54.283 70.9009 52.0006 71.4761L45.7237 73.0591L51.1511 94.58L44.8742 96.163L38.0899 69.2619C38.0899 69.2619 38.2857 69.2126 38.6072 69.1315C39.1997 68.9822 40.2193 68.7252 41.228 68.4705C42.7813 68.0783 44.3604 67.6805 44.366 67.6791L50.6437 66.0959ZM38.7376 69.6488L45.261 95.5153L50.5034 94.1931L45.0759 72.6723L51.8701 70.9588C54.2793 70.3517 56.8221 70.6646 58.9402 71.8387C61.0601 73.0138 62.5818 74.9569 63.159 77.2456C63.7362 79.5343 63.318 81.9666 62.0089 84.0066C60.7945 85.8988 58.9059 87.3111 56.7139 87.9901L57.8111 92.3406C61.2697 91.3385 64.2424 89.1495 66.1279 86.2114C68.1055 83.1298 68.725 79.4783 67.8628 76.0593C67.0005 72.6404 64.7235 69.7194 61.521 67.9442C58.3176 66.1684 54.4516 65.6861 50.7742 66.6131C50.7742 66.6131 50.7742 66.6131 50.7742 66.6131L44.4968 68.1963C44.4911 68.1977 42.9118 68.5956 41.3586 68.9877C40.5804 69.1842 39.7958 69.382 39.2058 69.5308L38.7376 69.6488Z" fill="#86F097"/>
<path fill-rule="evenodd" clip-rule="evenodd" d="M50.9764 79.7041C51.9288 79.4639 52.5062 78.4971 52.266 77.5447C52.0258 76.5923 51.059 76.0149 50.1066 76.2551C49.1542 76.4953 48.5768 77.4621 48.817 78.4145C49.0572 79.3669 50.024 79.9443 50.9764 79.7041ZM51.1069 80.2214C52.3449 79.9091 53.0955 78.6523 52.7832 77.4143C52.471 76.1762 51.2142 75.4256 49.9761 75.7379C48.738 76.0501 47.9875 77.3069 48.2997 78.545C48.612 79.7831 49.8688 80.5336 51.1069 80.2214Z" fill="#86F097"/>
<path fill-rule="evenodd" clip-rule="evenodd" d="M57.6561 78.0195C58.6085 77.7793 59.1859 76.8125 58.9457 75.8601C58.7055 74.9077 57.7387 74.3304 56.7863 74.5706C55.8339 74.8108 55.2565 75.7775 55.4967 76.73C55.7369 77.6824 56.7037 78.2597 57.6561 78.0195ZM57.7865 78.5368C59.0246 78.2246 59.7752 76.9678 59.4629 75.7297C59.1507 74.4916 57.8939 73.7411 56.6558 74.0533C55.4177 74.3655 54.6672 75.6223 54.9794 76.8604C55.2917 78.0985 56.5485 78.849 57.7865 78.5368Z" fill="#86F097"/>
</g>
<g filter="url(#filter1_d_477_590)">
<circle cx="100.046" cy="99.0462" r="43.5364" transform="rotate(-8.47639 100.046 99.0462)" fill="#1E1E1E" stroke="#86F097"/>
<circle cx="99.5249" cy="98.6599" r="32.986" transform="rotate(-8.47639 99.5249 98.6599)" fill="#1E1E1E" stroke="#86F097"/>
<path fill-rule="evenodd" clip-rule="evenodd" d="M98.7567 83.4697C102.637 82.8918 106.574 83.7827 109.701 85.9464C112.829 88.1105 114.891 91.3705 115.433 95.0093C115.975 98.6481 114.954 102.368 112.593 105.35C110.339 108.196 107.042 110.148 103.371 110.823C103.196 110.855 103.021 110.884 102.845 110.91L102.027 105.422C104.355 105.075 106.459 103.875 107.876 102.086C109.292 100.297 109.905 98.0649 109.58 95.8816C109.254 93.6984 108.017 91.7423 106.141 90.4439C104.264 89.1458 101.903 88.6112 99.5746 88.9578L93.1718 89.912L96.4434 111.864L90.0406 112.818L85.9512 85.3781C85.9512 85.3781 86.1509 85.3484 86.4789 85.2996C87.0832 85.2096 88.1232 85.0547 89.1522 84.9011C90.7367 84.6645 92.3474 84.4249 92.3531 84.424L98.7567 83.4697ZM86.5575 85.8272L90.4896 112.212L95.8371 111.415L92.5656 89.463L99.4959 88.4301C101.953 88.0643 104.453 88.6273 106.444 90.0052C108.438 91.3843 109.76 93.4684 110.107 95.803C110.455 98.1376 109.798 100.517 108.294 102.417C106.898 104.18 104.879 105.398 102.631 105.857L103.292 110.295C106.833 109.64 110.008 107.756 112.175 105.019C114.447 102.148 115.425 98.5755 114.905 95.088C114.386 91.6005 112.409 88.4685 109.398 86.3851C106.386 84.3012 102.586 83.4387 98.8353 83.9973C98.8353 83.9974 98.8353 83.9973 98.8353 83.9973L92.4321 84.9516C92.4263 84.9525 90.8153 85.1922 89.231 85.4287C88.4372 85.5472 87.6369 85.6665 87.035 85.7561L86.5575 85.8272Z" fill="#86F097"/>
<path fill-rule="evenodd" clip-rule="evenodd" d="M97.7431 97.0438C98.7146 96.899 99.3848 95.9941 99.24 95.0226C99.0953 94.0511 98.1903 93.3809 97.2188 93.5257C96.2473 93.6705 95.5772 94.5754 95.7219 95.5469C95.8667 96.5184 96.7716 97.1886 97.7431 97.0438ZM97.8218 97.5715C99.0847 97.3833 99.9559 96.2069 99.7677 94.944C99.5795 93.6811 98.4031 92.8099 97.1402 92.9981C95.8773 93.1863 95.0061 94.3627 95.1943 95.6256C95.3825 96.8885 96.5589 97.7597 97.8218 97.5715Z" fill="#86F097"/>
<path fill-rule="evenodd" clip-rule="evenodd" d="M104.558 96.0287C105.529 95.8839 106.199 94.979 106.055 94.0075C105.91 93.036 105.005 92.3658 104.033 92.5106C103.062 92.6554 102.392 93.5603 102.536 94.5318C102.681 95.5033 103.586 96.1735 104.558 96.0287ZM104.636 96.5563C105.899 96.3681 106.77 95.1918 106.582 93.9289C106.394 92.6659 105.218 91.7947 103.955 91.9829C102.692 92.1712 101.821 93.3475 102.009 94.6104C102.197 95.8733 103.373 96.7445 104.636 96.5563Z" fill="#86F097"/>
</g>
<g filter="url(#filter2_d_477_590)">
<circle cx="112.046" cy="50.0462" r="43.5364" transform="rotate(-8.47639 112.046 50.0462)" fill="#1E1E1E" stroke="#86F097"/>
<circle cx="111.525" cy="49.6599" r="32.986" transform="rotate(-8.47639 111.525 49.6599)" fill="#1E1E1E" stroke="#86F097"/>
<path fill-rule="evenodd" clip-rule="evenodd" d="M110.757 34.4697C114.637 33.8918 118.574 34.7827 121.701 36.9464C124.829 39.1105 126.891 42.3705 127.433 46.0093C127.975 49.6481 126.954 53.3677 124.593 56.3497C122.339 59.1963 119.042 61.1482 115.371 61.8227C115.196 61.8548 115.021 61.884 114.845 61.9103L114.027 56.4222C116.355 56.0752 118.459 54.8751 119.876 53.0859C121.292 51.2966 121.905 49.0649 121.58 46.8816C121.254 44.6984 120.017 42.7423 118.141 41.4439C116.264 40.1458 113.903 39.6112 111.575 39.9578L105.172 40.912L108.443 62.8642L102.041 63.8184L97.9512 36.3781C97.9512 36.3781 98.1509 36.3484 98.4789 36.2996C99.0832 36.2096 100.123 36.0547 101.152 35.9011C102.737 35.6645 104.347 35.4249 104.353 35.424L110.757 34.4697ZM98.5575 36.8272L102.49 63.2122L107.837 62.4152L104.566 40.463L111.496 39.4301C113.953 39.0643 116.453 39.6273 118.444 41.0052C120.438 42.3843 121.76 44.4684 122.107 46.803C122.455 49.1376 121.798 51.5166 120.294 53.417C118.898 55.1798 116.879 56.3983 114.631 56.8571L115.292 61.2948C118.833 60.6398 122.008 58.7557 124.175 56.0186C126.447 53.1477 127.425 49.5755 126.905 46.088C126.386 42.6005 124.409 39.4685 121.398 37.3851C118.386 35.3012 114.586 34.4387 110.835 34.9973C110.835 34.9974 110.835 34.9973 110.835 34.9973L104.432 35.9516C104.426 35.9525 102.815 36.1922 101.231 36.4287C100.437 36.5472 99.6369 36.6665 99.035 36.7561L98.5575 36.8272Z" fill="#86F097"/>
<path fill-rule="evenodd" clip-rule="evenodd" d="M109.743 48.0438C110.715 47.899 111.385 46.9941 111.24 46.0226C111.095 45.0511 110.19 44.3809 109.219 44.5257C108.247 44.6705 107.577 45.5754 107.722 46.5469C107.867 47.5184 108.772 48.1886 109.743 48.0438ZM109.822 48.5715C111.085 48.3833 111.956 47.2069 111.768 45.944C111.579 44.6811 110.403 43.8099 109.14 43.9981C107.877 44.1863 107.006 45.3627 107.194 46.6256C107.383 47.8885 108.559 48.7597 109.822 48.5715Z" fill="#86F097"/>
<path fill-rule="evenodd" clip-rule="evenodd" d="M116.558 47.0287C117.529 46.8839 118.199 45.979 118.055 45.0075C117.91 44.036 117.005 43.3658 116.033 43.5106C115.062 43.6554 114.392 44.5603 114.536 45.5318C114.681 46.5033 115.586 47.1735 116.558 47.0287ZM116.636 47.5563C117.899 47.3681 118.77 46.1918 118.582 44.9289C118.394 43.6659 117.218 42.7947 115.955 42.9829C114.692 43.1712 113.821 44.3475 114.009 45.6104C114.197 46.8733 115.373 47.7445 116.636 47.5563Z" fill="#86F097"/>
</g>
<defs>
<filter id="filter0_d_477_590" x="7.42188" y="37.4209" width="90.0938" height="89.0938" filterUnits="userSpaceOnUse" color-interpolation-filters="sRGB">
<feFlood flood-opacity="0" result="BackgroundImageFix"/>
<feColorMatrix in="SourceAlpha" type="matrix" values="0 0 0 0 0 0 0 0 0 0 0 0 0 0 0 0 0 0 127 0" result="hardAlpha"/>
<feOffset dx="-2" dy="1"/>
<feComposite in2="hardAlpha" operator="out"/>
<feColorMatrix type="matrix" values="0 0 0 0 0.52549 0 0 0 0 0.941176 0 0 0 0 0.592157 0 0 0 1 0"/>
<feBlend mode="normal" in2="BackgroundImageFix" result="effect1_dropShadow_477_590"/>
<feBlend mode="normal" in="SourceGraphic" in2="effect1_dropShadow_477_590" result="shape"/>
</filter>
<filter id="filter1_d_477_590" x="54.0039" y="55.0039" width="90.084" height="89.0845" filterUnits="userSpaceOnUse" color-interpolation-filters="sRGB">
<feFlood flood-opacity="0" result="BackgroundImageFix"/>
<feColorMatrix in="SourceAlpha" type="matrix" values="0 0 0 0 0 0 0 0 0 0 0 0 0 0 0 0 0 0 127 0" result="hardAlpha"/>
<feOffset dx="-2" dy="1"/>
<feComposite in2="hardAlpha" operator="out"/>
<feColorMatrix type="matrix" values="0 0 0 0 0.52549 0 0 0 0 0.941176 0 0 0 0 0.592157 0 0 0 1 0"/>
<feBlend mode="normal" in2="BackgroundImageFix" result="effect1_dropShadow_477_590"/>
<feBlend mode="normal" in="SourceGraphic" in2="effect1_dropShadow_477_590" result="shape"/>
</filter>
<filter id="filter2_d_477_590" x="66.0039" y="6.00391" width="90.084" height="89.0845" filterUnits="userSpaceOnUse" color-interpolation-filters="sRGB">
<feFlood flood-opacity="0" result="BackgroundImageFix"/>
<feColorMatrix in="SourceAlpha" type="matrix" values="0 0 0 0 0 0 0 0 0 0 0 0 0 0 0 0 0 0 127 0" result="hardAlpha"/>
<feOffset dx="-2" dy="1"/>
<feComposite in2="hardAlpha" operator="out"/>
<feColorMatrix type="matrix" values="0 0 0 0 0.52549 0 0 0 0 0.941176 0 0 0 0 0.592157 0 0 0 1 0"/>
<feBlend mode="normal" in2="BackgroundImageFix" result="effect1_dropShadow_477_590"/>
<feBlend mode="normal" in="SourceGraphic" in2="effect1_dropShadow_477_590" result="shape"/>
</filter>
</defs>
</svg>
