<svg width="12" height="12" viewBox="0 0 12 12" fill="none" xmlns="http://www.w3.org/2000/svg">
<path d="M4.57622 4.04175L6 0.955005L7.42378 4.04174C7.42378 4.04174 7.42378 4.04175 7.42378 4.04175C7.51118 4.23123 7.69075 4.3617 7.89797 4.38627L11.2736 4.7865L8.77791 7.09445L9.04949 7.38812L8.77791 7.09445C8.62471 7.23613 8.55612 7.44723 8.59678 7.65189L9.25927 10.986L6.29307 9.32564C6.11098 9.22372 5.88902 9.22372 5.70693 9.32564L2.74073 10.986L3.40322 7.65189C3.44388 7.44723 3.37529 7.23613 3.22209 7.09445L0.726396 4.7865L4.10203 4.38627C4.30925 4.3617 4.48882 4.23123 4.57622 4.04175ZM9.63762 11.1978L9.63723 11.1976L9.63762 11.1978ZM2.36238 11.1978C2.36249 11.1977 2.3626 11.1977 2.36272 11.1976L2.36238 11.1978ZM0.408055 4.49211C0.408145 4.49219 0.408235 4.49228 0.408324 4.49236L0.408055 4.49211Z" fill="#FFD84E" stroke="#FFD84E" stroke-width="0.8"/>
</svg>
