<svg width="16" height="16" viewBox="0 0 16 16" fill="none" xmlns="http://www.w3.org/2000/svg">
<mask id="path-1-outside-1_191_54757" maskUnits="userSpaceOnUse" x="0" y="0.491211" width="16" height="16" fill="black">
<rect fill="white" y="0.491211" width="16" height="16"/>
<path fill-rule="evenodd" clip-rule="evenodd" d="M10.5314 12.1595H12.8562C13.9927 12.1595 14.9226 11.241 14.9484 10.1184L15 3.53234C15 2.40972 14.0701 1.49121 12.9336 1.49121H3.118C1.98146 1.49121 1.05156 2.40972 1.05156 3.53234L1 10.1184C1 11.241 1.9299 12.1595 3.06644 12.1595H5.39118C5.46867 12.1595 5.52033 12.185 5.57199 12.236L6.91507 14.0696C7.535 14.6565 8.51656 14.6565 9.11066 14.0696L10.3506 12.236C10.4023 12.185 10.4539 12.1595 10.5314 12.1595ZM5.67541 6.42936C5.67541 5.99562 5.33962 5.66394 4.9005 5.66394C4.46138 5.66394 4.12559 5.99562 4.12559 6.42936V6.93964C4.12559 7.37338 4.46138 7.70507 4.9005 7.70507C5.33962 7.70507 5.67541 7.37338 5.67541 6.93964V6.42936ZM8.77507 6.42936C8.77507 5.99562 8.43927 5.66394 8.00015 5.66394C7.56104 5.66394 7.22524 5.99562 7.22524 6.42936V6.93964C7.22524 7.37338 7.56104 7.70507 8.00015 7.70507C8.43927 7.70507 8.77507 7.37338 8.77507 6.93964V6.42936ZM11.0998 5.66394C11.5389 5.66394 11.8747 5.99562 11.8747 6.42936V6.93964C11.8747 7.37338 11.5389 7.70507 11.0998 7.70507C10.6607 7.70507 10.3249 7.37338 10.3249 6.93964V6.42936C10.3249 5.99562 10.6607 5.66394 11.0998 5.66394Z"/>
</mask>
<path d="M14.9484 10.1184L15.9482 10.1414L15.9484 10.1338L15.9484 10.1262L14.9484 10.1184ZM15 3.53234L16 3.54016V3.53234H15ZM1.05156 3.53234L2.05156 3.54016V3.53234H1.05156ZM1 10.1184L0 10.1106V10.1184H1ZM5.57199 12.236L6.37872 11.6451L6.33154 11.5807L6.27473 11.5246L5.57199 12.236ZM6.91507 14.0696L6.10834 14.6606L6.16186 14.7336L6.22762 14.7959L6.91507 14.0696ZM9.11066 14.0696L9.8134 14.7811L9.88369 14.7117L9.93903 14.6298L9.11066 14.0696ZM10.3506 12.236L9.64789 11.5246L9.5776 11.594L9.52226 11.6759L10.3506 12.236ZM12.8562 11.1595H10.5314V13.1595H12.8562V11.1595ZM13.9487 10.0954C13.9353 10.6768 13.4474 11.1595 12.8562 11.1595V13.1595C14.538 13.1595 15.9099 11.8052 15.9482 10.1414L13.9487 10.0954ZM14 3.52451L13.9485 10.1106L15.9484 10.1262L16 3.54016L14 3.52451ZM12.9336 2.49121C13.5295 2.49121 14 2.97359 14 3.53234H16C16 1.84585 14.6107 0.491211 12.9336 0.491211V2.49121ZM3.118 2.49121H12.9336V0.491211H3.118V2.49121ZM2.05156 3.53234C2.05156 2.97359 2.52209 2.49121 3.118 2.49121V0.491211C1.44083 0.491211 0.0515589 1.84585 0.0515589 3.53234H2.05156ZM1.99997 10.1262L2.05153 3.54016L0.0515895 3.52451L3.06368e-05 10.1106L1.99997 10.1262ZM3.06644 11.1595C2.47053 11.1595 2 10.6771 2 10.1184H0C0 11.8049 1.38927 13.1595 3.06644 13.1595V11.1595ZM5.39118 11.1595H3.06644V13.1595H5.39118V11.1595ZM6.27473 11.5246C6.18935 11.4403 6.06473 11.3383 5.89325 11.263C5.71778 11.186 5.54504 11.1595 5.39118 11.1595V13.1595C5.31481 13.1595 5.20665 13.1458 5.08929 13.0943C4.97593 13.0445 4.90297 12.9808 4.86925 12.9475L6.27473 11.5246ZM7.7218 13.4787L6.37872 11.6451L4.76526 12.827L6.10834 14.6606L7.7218 13.4787ZM8.40793 13.3582C8.2114 13.5523 7.84526 13.5732 7.60252 13.3434L6.22762 14.7959C7.22475 15.7398 8.82172 15.7606 9.8134 14.7811L8.40793 13.3582ZM9.52226 11.6759L8.28229 13.5095L9.93903 14.6298L11.179 12.7962L9.52226 11.6759ZM10.5314 11.1595C10.3776 11.1595 10.2048 11.186 10.0294 11.263C9.85789 11.3383 9.73327 11.4403 9.64789 11.5246L11.0534 12.9475C11.0196 12.9808 10.9467 13.0445 10.8333 13.0943C10.716 13.1458 10.6078 13.1595 10.5314 13.1595V11.1595ZM4.9005 6.66394C4.86243 6.66394 4.80206 6.64698 4.74989 6.59545C4.69723 6.54344 4.67541 6.47803 4.67541 6.42936H6.67541C6.67541 5.43175 5.88025 4.66394 4.9005 4.66394V6.66394ZM5.12559 6.42936C5.12559 6.47803 5.10377 6.54344 5.05111 6.59545C4.99894 6.64698 4.93857 6.66394 4.9005 6.66394V4.66394C3.92075 4.66394 3.12559 5.43175 3.12559 6.42936H5.12559ZM5.12559 6.93964V6.42936H3.12559V6.93964H5.12559ZM4.9005 6.70507C4.93857 6.70507 4.99894 6.72202 5.05111 6.77356C5.10377 6.82557 5.12559 6.89098 5.12559 6.93964H3.12559C3.12559 7.93725 3.92075 8.70507 4.9005 8.70507V6.70507ZM4.67541 6.93964C4.67541 6.89098 4.69723 6.82557 4.74989 6.77356C4.80206 6.72202 4.86243 6.70507 4.9005 6.70507V8.70507C5.88025 8.70507 6.67541 7.93725 6.67541 6.93964H4.67541ZM4.67541 6.42936V6.93964H6.67541V6.42936H4.67541ZM8.00015 6.66394C7.96208 6.66394 7.90172 6.64698 7.84955 6.59545C7.79689 6.54344 7.77507 6.47803 7.77507 6.42936H9.77507C9.77507 5.43175 8.9799 4.66394 8.00015 4.66394V6.66394ZM8.22524 6.42936C8.22524 6.47803 8.20342 6.54344 8.15076 6.59545C8.09859 6.64698 8.03823 6.66394 8.00015 6.66394V4.66394C7.02041 4.66394 6.22524 5.43175 6.22524 6.42936H8.22524ZM8.22524 6.93964V6.42936H6.22524V6.93964H8.22524ZM8.00015 6.70507C8.03823 6.70507 8.09859 6.72202 8.15076 6.77356C8.20342 6.82557 8.22524 6.89098 8.22524 6.93964H6.22524C6.22524 7.93725 7.02041 8.70507 8.00015 8.70507V6.70507ZM7.77507 6.93964C7.77507 6.89098 7.79689 6.82557 7.84955 6.77356C7.90172 6.72202 7.96208 6.70507 8.00015 6.70507V8.70507C8.9799 8.70507 9.77507 7.93725 9.77507 6.93964H7.77507ZM7.77507 6.42936V6.93964H9.77507V6.42936H7.77507ZM12.8747 6.42936C12.8747 5.43175 12.0796 4.66394 11.0998 4.66394V6.66394C11.0617 6.66394 11.0014 6.64698 10.9492 6.59545C10.8965 6.54344 10.8747 6.47803 10.8747 6.42936H12.8747ZM12.8747 6.93964V6.42936H10.8747V6.93964H12.8747ZM11.0998 8.70507C12.0796 8.70507 12.8747 7.93725 12.8747 6.93964H10.8747C10.8747 6.89098 10.8965 6.82557 10.9492 6.77356C11.0014 6.72202 11.0617 6.70507 11.0998 6.70507V8.70507ZM9.3249 6.93964C9.3249 7.93725 10.1201 8.70507 11.0998 8.70507V6.70507C11.1379 6.70507 11.1982 6.72202 11.2504 6.77356C11.3031 6.82557 11.3249 6.89098 11.3249 6.93964H9.3249ZM9.3249 6.42936V6.93964H11.3249V6.42936H9.3249ZM11.0998 4.66394C10.1201 4.66394 9.3249 5.43175 9.3249 6.42936H11.3249C11.3249 6.47803 11.3031 6.54344 11.2504 6.59545C11.1982 6.64698 11.1379 6.66394 11.0998 6.66394V4.66394Z" fill="white" fill-opacity="0.55" mask="url(#path-1-outside-1_191_54757)"/>
</svg>
