<svg width="16" height="16" viewBox="0 0 16 16" fill="none" xmlns="http://www.w3.org/2000/svg">
<path fill-rule="evenodd" clip-rule="evenodd" d="M5.77684 0C5.31676 0 4.87552 0.182766 4.5502 0.508093C4.22487 0.833419 4.04211 1.27466 4.04211 1.73474V4.72089C3.99975 4.56817 3.91852 4.42746 3.80448 4.31342C3.63076 4.1397 3.39515 4.04211 3.14947 4.04211H1.73474C1.27466 4.04211 0.833419 4.22487 0.508093 4.5502C0.182766 4.87552 0 5.31676 0 5.77684V14.2653C0 14.7253 0.182766 15.1666 0.508093 15.4919C0.833419 15.8172 1.27466 16 1.73474 16H10.2232C10.6832 16 11.1245 15.8172 11.4498 15.4919C11.7751 15.1666 11.9579 14.7253 11.9579 14.2653V12.8505C11.9579 12.6049 11.8603 12.3692 11.6866 12.1955C11.5725 12.0815 11.4318 12.0003 11.2791 11.9579H14.2653C14.7253 11.9579 15.1666 11.7751 15.4919 11.4498C15.8172 11.1245 16 10.6832 16 10.2232V1.73474C16 1.27466 15.8172 0.833419 15.4919 0.508093C15.1666 0.182766 14.7253 0 14.2653 0H5.77684ZM3.80448 5.62343C3.91852 5.50939 3.99975 5.36868 4.04211 5.21596V10.2232C4.04211 10.6832 4.22487 11.1245 4.5502 11.4498C4.87552 11.7751 5.31676 11.9579 5.77684 11.9579H10.784C10.6313 12.0003 10.4906 12.0815 10.3766 12.1955C10.2029 12.3692 10.1053 12.6049 10.1053 12.8505V14.1474H1.85263V5.89474H3.14947C3.39515 5.89474 3.63076 5.79714 3.80448 5.62343ZM5.89474 10.1053V1.85263H14.1474V10.1053H5.89474Z" fill="#86F097"/>
</svg>
