<svg width="20" height="20" viewBox="0 0 20 20" fill="none" xmlns="http://www.w3.org/2000/svg">
<path fill-rule="evenodd" clip-rule="evenodd" d="M7.49895 1C6.98136 1 6.48496 1.20561 6.11897 1.5716C5.75298 1.9376 5.54737 2.43399 5.54737 2.95158V6.311C5.49972 6.13919 5.40833 5.98089 5.28004 5.85259C5.08461 5.65716 4.81954 5.54737 4.54316 5.54737H2.95158C2.43399 5.54737 1.9376 5.75298 1.5716 6.11897C1.20561 6.48496 1 6.98136 1 7.49895V17.0484C1 17.566 1.20561 18.0624 1.5716 18.4284C1.9376 18.7944 2.43399 19 2.95158 19H12.5011C13.0186 19 13.515 18.7944 13.881 18.4284C14.247 18.0624 14.4526 17.566 14.4526 17.0484V15.4568C14.4526 15.1805 14.3428 14.9154 14.1474 14.72C14.0191 14.5917 13.8608 14.5003 13.689 14.4526H17.0484C17.566 14.4526 18.0624 14.247 18.4284 13.881C18.7944 13.515 19 13.0186 19 12.5011V2.95158C19 2.43399 18.7944 1.9376 18.4284 1.5716C18.0624 1.20561 17.566 1 17.0484 1H7.49895ZM5.28004 7.32635C5.40833 7.19806 5.49972 7.03976 5.54737 6.86795V12.5011C5.54737 13.0186 5.75298 13.515 6.11897 13.881C6.48496 14.247 6.98136 14.4526 7.49895 14.4526H13.132C12.9602 14.5003 12.8019 14.5917 12.6736 14.72C12.4782 14.9154 12.3684 15.1805 12.3684 15.4568V16.9158H3.08421V7.63158H4.54316C4.81954 7.63158 5.08461 7.52179 5.28004 7.32635ZM7.63158 12.3684V3.08421H16.9158V12.3684H7.63158Z" fill="#86F097"/>
</svg>
