<svg width="12" height="12" viewBox="0 0 12 12" fill="none" xmlns="http://www.w3.org/2000/svg">
<path fill-rule="evenodd" clip-rule="evenodd" d="M4.33263 0C3.98757 0 3.65664 0.137075 3.41265 0.38107C3.16865 0.625064 3.03158 0.955992 3.03158 1.30105V3.54066C2.99981 3.42612 2.93889 3.32059 2.85336 3.23506C2.72307 3.10477 2.54636 3.03158 2.36211 3.03158H1.30105C0.955992 3.03158 0.625064 3.16865 0.38107 3.41265C0.137075 3.65664 0 3.98757 0 4.33263V10.6989C0 11.044 0.137075 11.3749 0.38107 11.6189C0.625064 11.8629 0.955992 12 1.30105 12H7.66737C8.01243 12 8.34336 11.8629 8.58735 11.6189C8.83135 11.3749 8.96842 11.044 8.96842 10.6989V9.63789C8.96842 9.45364 8.89523 9.27693 8.76494 9.14664C8.67941 9.06111 8.57387 9.00019 8.45934 8.96842H10.6989C11.044 8.96842 11.3749 8.83135 11.6189 8.58735C11.8629 8.34336 12 8.01243 12 7.66737V1.30105C12 0.955992 11.8629 0.625064 11.6189 0.38107C11.3749 0.137075 11.044 0 10.6989 0H4.33263ZM2.85336 4.21757C2.93889 4.13204 2.99981 4.02651 3.03158 3.91197V7.66737C3.03158 8.01243 3.16865 8.34336 3.41265 8.58735C3.65664 8.83135 3.98757 8.96842 4.33263 8.96842H8.08803C7.97349 9.00019 7.86796 9.06111 7.78243 9.14664C7.65214 9.27693 7.57895 9.45364 7.57895 9.63789V10.6105H1.38947V4.42105H2.36211C2.54636 4.42105 2.72307 4.34786 2.85336 4.21757ZM4.42105 7.57895V1.38947H10.6105V7.57895H4.42105Z" fill="#86F097"/>
</svg>
