<svg width="12" height="12" viewBox="0 0 12 12" fill="none" xmlns="http://www.w3.org/2000/svg">
<path d="M8.78106 1.84497C8.78106 2.02012 8.66391 2.13728 8.48876 2.13728C8.31361 2.13728 8.19645 2.02012 8.19645 1.84497V1.46391C8.19645 0.966864 7.81538 0.585799 7.31834 0.585799H1.46391C0.966864 0.585799 0.585799 0.966864 0.585799 1.46391V7.31716C0.585799 7.8142 0.966864 8.19527 1.46391 8.19527H1.93254C2.10769 8.19527 2.22485 8.31243 2.22485 8.48757C2.22485 8.66272 2.10769 8.77988 1.93254 8.77988H1.46391C0.643787 8.78106 0 8.13728 0 7.31716V1.46391C0 0.64497 0.643787 0 1.46391 0H7.31716C8.1361 0 8.78106 0.64497 8.78106 1.46391V1.84497ZM12 8.34201C12 8.51716 11.8828 8.63432 11.7077 8.63432C11.5325 8.63432 11.4154 8.51716 11.4154 8.34201V4.68402C11.4154 4.18698 11.0343 3.80592 10.5373 3.80592H4.68284C4.1858 3.80592 3.80473 4.18698 3.80473 4.68402V10.5373C3.80473 11.0343 4.1858 11.4154 4.68284 11.4154H10.5361C11.0331 11.4154 11.4142 11.0343 11.4142 10.5373V9.89349C11.4142 9.71834 11.5314 9.60118 11.7065 9.60118C11.8817 9.60118 11.9988 9.71834 11.9988 9.89349V10.5373C11.9988 11.3562 11.355 12.0012 10.5349 12.0012H4.68284C3.86391 12.0012 3.21894 11.3574 3.21894 10.5373V4.68402C3.21894 3.86509 3.86272 3.22012 4.68284 3.22012H10.5361C11.355 3.22012 12 3.8639 12 4.68402V8.34201Z" fill="#D6DFD7"/>
</svg>
