<svg width="63" height="63" viewBox="0 0 63 63" fill="none" xmlns="http://www.w3.org/2000/svg">
<path d="M14.2708 50.1927V62.1111H0.888908L0.888913 57.8524V12.5485V0.63017L0.892414 0.630171L2.55785 0.630386C3.93408 0.630501 5.76408 0.630501 7.57914 0.63004C11.2024 0.629119 14.8854 0.630036 14.8985 0.63004H14.8986H14.8993H29.5381H29.5416C29.5416 0.63004 29.5416 0.63004 29.5416 0.63004C38.2607 0.630925 46.6148 3.87879 52.7686 9.64786C58.9218 15.4164 62.3704 23.2313 62.3704 31.3706C62.3704 39.5099 58.9218 47.3247 52.7686 53.0933C46.7623 58.7241 38.6597 61.9531 30.1677 62.1055V50.8133C35.419 50.6634 40.4286 48.6424 44.1654 45.1392C48.0527 41.4949 50.2449 36.5431 50.2449 31.3706C50.2449 26.1981 48.0527 21.2463 44.1654 17.602C40.2803 13.9598 35.0196 11.9198 29.5417 11.9189H29.5416H29.5381H14.9005H14.2708V12.5485V50.1927Z" stroke="#86F097" stroke-width="1.25926"/>
<path d="M27.9731 26.004C27.9731 28.8915 25.632 31.2323 22.7441 31.2323C19.8562 31.2323 17.5151 28.8915 17.5151 26.004C17.5151 23.1165 19.8562 20.7756 22.7441 20.7756C25.632 20.7756 27.9731 23.1165 27.9731 26.004Z" fill="#86F097"/>
<path d="M43.5566 26.0037C43.5566 28.8913 41.2155 31.2321 38.3276 31.2321C35.4397 31.2321 33.0986 28.8913 33.0986 26.0037C33.0986 23.1162 35.4397 20.7754 38.3276 20.7754C41.2155 20.7754 43.5566 23.1162 43.5566 26.0037Z" fill="#86F097"/>
</svg>
