<svg width="16" height="16" viewBox="0 0 16 16" fill="none" xmlns="http://www.w3.org/2000/svg">
<mask id="path-1-inside-1_1172_10446" fill="white">
<path d="M0 1.34345e-08H7.46661C7.46691 1.34345e-08 7.46721 -1.67931e-08 7.46752 1.34345e-08C9.73039 0.000225933 11.9005 0.843152 13.5006 2.34341C15.1009 3.84388 16 5.87894 16 8.00091C16 10.1229 15.1009 12.1579 13.5006 13.6584C11.9003 15.1589 9.7298 16.0018 7.46661 16.0018V12.8015C8.82452 12.8015 10.1268 12.2957 11.087 11.3954C12.0472 10.4951 12.5866 9.2741 12.5866 8.00091C12.5866 6.72773 12.0472 5.50669 11.087 4.60641C10.127 3.70634 8.82511 3.20059 7.46752 3.20036C7.46721 3.20036 7.46691 3.20036 7.46661 3.20036H3.73376V16.0018H0V1.34345e-08Z"/>
</mask>
<path d="M0 1.34345e-08H7.46661C7.46691 1.34345e-08 7.46721 -1.67931e-08 7.46752 1.34345e-08C9.73039 0.000225933 11.9005 0.843152 13.5006 2.34341C15.1009 3.84388 16 5.87894 16 8.00091C16 10.1229 15.1009 12.1579 13.5006 13.6584C11.9003 15.1589 9.7298 16.0018 7.46661 16.0018V12.8015C8.82452 12.8015 10.1268 12.2957 11.087 11.3954C12.0472 10.4951 12.5866 9.2741 12.5866 8.00091C12.5866 6.72773 12.0472 5.50669 11.087 4.60641C10.127 3.70634 8.82511 3.20059 7.46752 3.20036C7.46721 3.20036 7.46691 3.20036 7.46661 3.20036H3.73376V16.0018H0V1.34345e-08Z" fill="white"/>
<path d="M0 1.34345e-08V-15.4618H-15.4618V1.34345e-08H0ZM7.46752 1.34345e-08L7.46906 -15.4618L7.46752 1.34345e-08ZM13.5006 2.34341L24.0762 -8.93598L24.0762 -8.93598L13.5006 2.34341ZM13.5006 13.6584L24.0762 24.9378L24.0762 24.9378L13.5006 13.6584ZM7.46661 16.0018H-7.99519V31.4636H7.46661V16.0018ZM7.46661 12.8015V-2.66034H-7.99519V12.8015H7.46661ZM11.087 11.3954L21.6626 22.6748L21.6626 22.6748L11.087 11.3954ZM12.5866 8.00091L-2.87516 8.0009V8.00091H12.5866ZM11.087 4.60641L21.6626 -6.67298L21.6626 -6.67298L11.087 4.60641ZM7.46752 3.20036L7.47009 -12.2614H7.46752V3.20036ZM3.73376 3.20036V-12.2614H-11.728V3.20036H3.73376ZM3.73376 16.0018V31.4636H19.1956V16.0018H3.73376ZM0 16.0018H-15.4618V31.4636H0V16.0018ZM7.46661 15.4618H7.46597L7.46906 -15.4618C7.46794 -15.4618 7.46703 -15.4618 7.46668 -15.4618C7.46598 -15.4618 7.46653 -15.4618 7.46661 -15.4618V15.4618ZM7.46597 15.4618C5.93859 15.4616 4.28934 14.9019 2.92507 13.6228L24.0762 -8.93598C19.5117 -13.2156 13.5222 -15.4612 7.46906 -15.4618L7.46597 15.4618ZM2.92506 13.6228C1.52689 12.3119 0.538202 10.3129 0.538202 8.00091H31.4618C31.4618 1.44499 28.675 -4.62412 24.0762 -8.93598L2.92506 13.6228ZM0.538202 8.00091C0.538202 5.68893 1.52689 3.68995 2.92506 2.37902L24.0762 24.9378C28.675 20.6259 31.4618 14.5568 31.4618 8.00091H0.538202ZM2.92507 2.37901C4.28952 1.09971 5.93903 0.540024 7.46661 0.540024V31.4636C13.5206 31.4636 19.5111 29.218 24.0762 24.9378L2.92507 2.37901ZM22.9284 16.0018V12.8015H-7.99519V16.0018H22.9284ZM7.46661 28.2633C12.6153 28.2633 17.7376 26.3548 21.6626 22.6748L0.511461 0.116015C2.51604 -1.76348 5.03375 -2.66034 7.46661 -2.66034V28.2633ZM21.6626 22.6748C25.6213 18.9631 28.0484 13.708 28.0484 8.00091H-2.87516C-2.87516 4.84015 -1.52685 2.02713 0.511456 0.11602L21.6626 22.6748ZM28.0484 8.00092C28.0484 2.29378 25.6213 -2.96131 21.6626 -6.67298L0.511456 15.8858C-1.52685 13.9747 -2.87516 11.1617 -2.87516 8.0009L28.0484 8.00092ZM21.6626 -6.67298C17.7385 -10.3522 12.6176 -12.2606 7.47009 -12.2614L7.46494 18.6622C5.03264 18.6618 2.5156 17.7649 0.511461 15.8858L21.6626 -6.67298ZM7.46752 -12.2614C7.46752 -12.2614 7.46751 -12.2614 7.46751 -12.2614C7.46751 -12.2614 7.46751 -12.2614 7.46751 -12.2614C7.46751 -12.2614 7.46751 -12.2614 7.46751 -12.2614C7.46751 -12.2614 7.46751 -12.2614 7.46751 -12.2614C7.46751 -12.2614 7.46751 -12.2614 7.46751 -12.2614C7.46751 -12.2614 7.46751 -12.2614 7.46751 -12.2614C7.4675 -12.2614 7.4675 -12.2614 7.4675 -12.2614C7.4675 -12.2614 7.4675 -12.2614 7.4675 -12.2614C7.4675 -12.2614 7.4675 -12.2614 7.4675 -12.2614C7.4675 -12.2614 7.4675 -12.2614 7.4675 -12.2614C7.4675 -12.2614 7.4675 -12.2614 7.4675 -12.2614C7.4675 -12.2614 7.4675 -12.2614 7.46749 -12.2614C7.46749 -12.2614 7.46749 -12.2614 7.46749 -12.2614C7.46749 -12.2614 7.46749 -12.2614 7.46749 -12.2614C7.46749 -12.2614 7.46749 -12.2614 7.46749 -12.2614C7.46749 -12.2614 7.46749 -12.2614 7.46749 -12.2614C7.46749 -12.2614 7.46749 -12.2614 7.46749 -12.2614C7.46748 -12.2614 7.46748 -12.2614 7.46748 -12.2614C7.46748 -12.2614 7.46748 -12.2614 7.46748 -12.2614C7.46748 -12.2614 7.46748 -12.2614 7.46748 -12.2614C7.46748 -12.2614 7.46748 -12.2614 7.46748 -12.2614C7.46748 -12.2614 7.46748 -12.2614 7.46748 -12.2614C7.46748 -12.2614 7.46748 -12.2614 7.46747 -12.2614C7.46747 -12.2614 7.46747 -12.2614 7.46747 -12.2614C7.46747 -12.2614 7.46747 -12.2614 7.46747 -12.2614C7.46747 -12.2614 7.46747 -12.2614 7.46747 -12.2614C7.46747 -12.2614 7.46747 -12.2614 7.46747 -12.2614C7.46747 -12.2614 7.46747 -12.2614 7.46747 -12.2614C7.46747 -12.2614 7.46746 -12.2614 7.46746 -12.2614C7.46746 -12.2614 7.46746 -12.2614 7.46746 -12.2614C7.46746 -12.2614 7.46746 -12.2614 7.46746 -12.2614C7.46746 -12.2614 7.46746 -12.2614 7.46746 -12.2614C7.46746 -12.2614 7.46746 -12.2614 7.46746 -12.2614C7.46746 -12.2614 7.46746 -12.2614 7.46746 -12.2614C7.46745 -12.2614 7.46745 -12.2614 7.46745 -12.2614C7.46745 -12.2614 7.46745 -12.2614 7.46745 -12.2614C7.46745 -12.2614 7.46745 -12.2614 7.46745 -12.2614C7.46745 -12.2614 7.46745 -12.2614 7.46745 -12.2614C7.46745 -12.2614 7.46745 -12.2614 7.46745 -12.2614C7.46745 -12.2614 7.46745 -12.2614 7.46744 -12.2614C7.46744 -12.2614 7.46744 -12.2614 7.46744 -12.2614C7.46744 -12.2614 7.46744 -12.2614 7.46744 -12.2614C7.46744 -12.2614 7.46744 -12.2614 7.46744 -12.2614C7.46744 -12.2614 7.46744 -12.2614 7.46744 -12.2614C7.46744 -12.2614 7.46744 -12.2614 7.46744 -12.2614C7.46744 -12.2614 7.46743 -12.2614 7.46743 -12.2614C7.46743 -12.2614 7.46743 -12.2614 7.46743 -12.2614C7.46743 -12.2614 7.46743 -12.2614 7.46743 -12.2614C7.46743 -12.2614 7.46743 -12.2614 7.46743 -12.2614C7.46743 -12.2614 7.46743 -12.2614 7.46743 -12.2614C7.46743 -12.2614 7.46743 -12.2614 7.46743 -12.2614C7.46742 -12.2614 7.46742 -12.2614 7.46742 -12.2614C7.46742 -12.2614 7.46742 -12.2614 7.46742 -12.2614C7.46742 -12.2614 7.46742 -12.2614 7.46742 -12.2614C7.46742 -12.2614 7.46742 -12.2614 7.46742 -12.2614C7.46742 -12.2614 7.46742 -12.2614 7.46742 -12.2614C7.46742 -12.2614 7.46742 -12.2614 7.46741 -12.2614C7.46741 -12.2614 7.46741 -12.2614 7.46741 -12.2614C7.46741 -12.2614 7.46741 -12.2614 7.46741 -12.2614C7.46741 -12.2614 7.46741 -12.2614 7.46741 -12.2614C7.46741 -12.2614 7.46741 -12.2614 7.46741 -12.2614C7.46741 -12.2614 7.46741 -12.2614 7.46741 -12.2614C7.46741 -12.2614 7.4674 -12.2614 7.4674 -12.2614C7.4674 -12.2614 7.4674 -12.2614 7.4674 -12.2614C7.4674 -12.2614 7.4674 -12.2614 7.4674 -12.2614C7.4674 -12.2614 7.4674 -12.2614 7.4674 -12.2614C7.4674 -12.2614 7.4674 -12.2614 7.4674 -12.2614C7.4674 -12.2614 7.4674 -12.2614 7.4674 -12.2614C7.46739 -12.2614 7.46739 -12.2614 7.46739 -12.2614C7.46739 -12.2614 7.46739 -12.2614 7.46739 -12.2614C7.46739 -12.2614 7.46739 -12.2614 7.46739 -12.2614C7.46739 -12.2614 7.46739 -12.2614 7.46739 -12.2614C7.46739 -12.2614 7.46739 -12.2614 7.46739 -12.2614C7.46739 -12.2614 7.46739 -12.2614 7.46738 -12.2614C7.46738 -12.2614 7.46738 -12.2614 7.46738 -12.2614C7.46738 -12.2614 7.46738 -12.2614 7.46738 -12.2614C7.46738 -12.2614 7.46738 -12.2614 7.46738 -12.2614C7.46738 -12.2614 7.46738 -12.2614 7.46738 -12.2614C7.46738 -12.2614 7.46738 -12.2614 7.46738 -12.2614C7.46738 -12.2614 7.46737 -12.2614 7.46737 -12.2614C7.46737 -12.2614 7.46737 -12.2614 7.46737 -12.2614C7.46737 -12.2614 7.46737 -12.2614 7.46737 -12.2614C7.46737 -12.2614 7.46737 -12.2614 7.46737 -12.2614C7.46737 -12.2614 7.46737 -12.2614 7.46737 -12.2614C7.46737 -12.2614 7.46737 -12.2614 7.46737 -12.2614C7.46736 -12.2614 7.46736 -12.2614 7.46736 -12.2614C7.46736 -12.2614 7.46736 -12.2614 7.46736 -12.2614C7.46736 -12.2614 7.46736 -12.2614 7.46736 -12.2614C7.46736 -12.2614 7.46736 -12.2614 7.46736 -12.2614C7.46736 -12.2614 7.46736 -12.2614 7.46736 -12.2614C7.46736 -12.2614 7.46735 -12.2614 7.46735 -12.2614C7.46735 -12.2614 7.46735 -12.2614 7.46735 -12.2614C7.46735 -12.2614 7.46735 -12.2614 7.46735 -12.2614C7.46735 -12.2614 7.46735 -12.2614 7.46735 -12.2614C7.46735 -12.2614 7.46735 -12.2614 7.46735 -12.2614C7.46735 -12.2614 7.46735 -12.2614 7.46735 -12.2614C7.46734 -12.2614 7.46734 -12.2614 7.46734 -12.2614C7.46734 -12.2614 7.46734 -12.2614 7.46734 -12.2614C7.46734 -12.2614 7.46734 -12.2614 7.46734 -12.2614C7.46734 -12.2614 7.46734 -12.2614 7.46734 -12.2614C7.46734 -12.2614 7.46734 -12.2614 7.46734 -12.2614C7.46734 -12.2614 7.46734 -12.2614 7.46733 -12.2614C7.46733 -12.2614 7.46733 -12.2614 7.46733 -12.2614C7.46733 -12.2614 7.46733 -12.2614 7.46733 -12.2614C7.46733 -12.2614 7.46733 -12.2614 7.46733 -12.2614C7.46733 -12.2614 7.46733 -12.2614 7.46733 -12.2614C7.46733 -12.2614 7.46733 -12.2614 7.46733 -12.2614C7.46733 -12.2614 7.46732 -12.2614 7.46732 -12.2614C7.46732 -12.2614 7.46732 -12.2614 7.46732 -12.2614C7.46732 -12.2614 7.46732 -12.2614 7.46732 -12.2614C7.46732 -12.2614 7.46732 -12.2614 7.46732 -12.2614C7.46732 -12.2614 7.46732 -12.2614 7.46732 -12.2614C7.46732 -12.2614 7.46732 -12.2614 7.46732 -12.2614C7.46731 -12.2614 7.46731 -12.2614 7.46731 -12.2614C7.46731 -12.2614 7.46731 -12.2614 7.46731 -12.2614C7.46731 -12.2614 7.46731 -12.2614 7.46731 -12.2614C7.46731 -12.2614 7.46731 -12.2614 7.46731 -12.2614C7.46731 -12.2614 7.46731 -12.2614 7.46731 -12.2614C7.46731 -12.2614 7.46731 -12.2614 7.4673 -12.2614C7.4673 -12.2614 7.4673 -12.2614 7.4673 -12.2614C7.4673 -12.2614 7.4673 -12.2614 7.4673 -12.2614C7.4673 -12.2614 7.4673 -12.2614 7.4673 -12.2614C7.4673 -12.2614 7.4673 -12.2614 7.4673 -12.2614C7.4673 -12.2614 7.4673 -12.2614 7.4673 -12.2614C7.4673 -12.2614 7.46729 -12.2614 7.46729 -12.2614C7.46729 -12.2614 7.46729 -12.2614 7.46729 -12.2614C7.46729 -12.2614 7.46729 -12.2614 7.46729 -12.2614C7.46729 -12.2614 7.46729 -12.2614 7.46729 -12.2614C7.46729 -12.2614 7.46729 -12.2614 7.46729 -12.2614C7.46729 -12.2614 7.46729 -12.2614 7.46729 -12.2614C7.46728 -12.2614 7.46728 -12.2614 7.46728 -12.2614C7.46728 -12.2614 7.46728 -12.2614 7.46728 -12.2614C7.46728 -12.2614 7.46728 -12.2614 7.46728 -12.2614C7.46728 -12.2614 7.46728 -12.2614 7.46728 -12.2614C7.46728 -12.2614 7.46728 -12.2614 7.46728 -12.2614C7.46728 -12.2614 7.46728 -12.2614 7.46727 -12.2614C7.46727 -12.2614 7.46727 -12.2614 7.46727 -12.2614C7.46727 -12.2614 7.46727 -12.2614 7.46727 -12.2614C7.46727 -12.2614 7.46727 -12.2614 7.46727 -12.2614C7.46727 -12.2614 7.46727 -12.2614 7.46727 -12.2614C7.46727 -12.2614 7.46727 -12.2614 7.46727 -12.2614C7.46727 -12.2614 7.46726 -12.2614 7.46726 -12.2614C7.46726 -12.2614 7.46726 -12.2614 7.46726 -12.2614C7.46726 -12.2614 7.46726 -12.2614 7.46726 -12.2614C7.46726 -12.2614 7.46726 -12.2614 7.46726 -12.2614C7.46726 -12.2614 7.46726 -12.2614 7.46726 -12.2614C7.46726 -12.2614 7.46726 -12.2614 7.46726 -12.2614C7.46725 -12.2614 7.46725 -12.2614 7.46725 -12.2614C7.46725 -12.2614 7.46725 -12.2614 7.46725 -12.2614C7.46725 -12.2614 7.46725 -12.2614 7.46725 -12.2614C7.46725 -12.2614 7.46725 -12.2614 7.46725 -12.2614C7.46725 -12.2614 7.46725 -12.2614 7.46725 -12.2614C7.46725 -12.2614 7.46725 -12.2614 7.46724 -12.2614C7.46724 -12.2614 7.46724 -12.2614 7.46724 -12.2614C7.46724 -12.2614 7.46724 -12.2614 7.46724 -12.2614C7.46724 -12.2614 7.46724 -12.2614 7.46724 -12.2614C7.46724 -12.2614 7.46724 -12.2614 7.46724 -12.2614C7.46724 -12.2614 7.46724 -12.2614 7.46724 -12.2614C7.46723 -12.2614 7.46723 -12.2614 7.46723 -12.2614C7.46723 -12.2614 7.46723 -12.2614 7.46723 -12.2614C7.46723 -12.2614 7.46723 -12.2614 7.46723 -12.2614C7.46723 -12.2614 7.46723 -12.2614 7.46723 -12.2614C7.46723 -12.2614 7.46723 -12.2614 7.46723 -12.2614C7.46723 -12.2614 7.46723 -12.2614 7.46722 -12.2614C7.46722 -12.2614 7.46722 -12.2614 7.46722 -12.2614C7.46722 -12.2614 7.46722 -12.2614 7.46722 -12.2614C7.46722 -12.2614 7.46722 -12.2614 7.46722 -12.2614C7.46722 -12.2614 7.46722 -12.2614 7.46722 -12.2614C7.46722 -12.2614 7.46722 -12.2614 7.46722 -12.2614C7.46722 -12.2614 7.46721 -12.2614 7.46721 -12.2614C7.46721 -12.2614 7.46721 -12.2614 7.46721 -12.2614C7.46721 -12.2614 7.46721 -12.2614 7.46721 -12.2614C7.46721 -12.2614 7.46721 -12.2614 7.46721 -12.2614C7.46721 -12.2614 7.46721 -12.2614 7.46721 -12.2614C7.46721 -12.2614 7.46721 -12.2614 7.46721 -12.2614C7.4672 -12.2614 7.4672 -12.2614 7.4672 -12.2614C7.4672 -12.2614 7.4672 -12.2614 7.4672 -12.2614C7.4672 -12.2614 7.4672 -12.2614 7.4672 -12.2614C7.4672 -12.2614 7.4672 -12.2614 7.4672 -12.2614C7.4672 -12.2614 7.4672 -12.2614 7.4672 -12.2614C7.4672 -12.2614 7.4672 -12.2614 7.46719 -12.2614C7.46719 -12.2614 7.46719 -12.2614 7.46719 -12.2614C7.46719 -12.2614 7.46719 -12.2614 7.46719 -12.2614C7.46719 -12.2614 7.46719 -12.2614 7.46719 -12.2614C7.46719 -12.2614 7.46719 -12.2614 7.46719 -12.2614C7.46719 -12.2614 7.46719 -12.2614 7.46719 -12.2614C7.46719 -12.2614 7.46718 -12.2614 7.46718 -12.2614C7.46718 -12.2614 7.46718 -12.2614 7.46718 -12.2614C7.46718 -12.2614 7.46718 -12.2614 7.46718 -12.2614C7.46718 -12.2614 7.46718 -12.2614 7.46718 -12.2614C7.46718 -12.2614 7.46718 -12.2614 7.46718 -12.2614C7.46718 -12.2614 7.46718 -12.2614 7.46718 -12.2614C7.46717 -12.2614 7.46717 -12.2614 7.46717 -12.2614C7.46717 -12.2614 7.46717 -12.2614 7.46717 -12.2614C7.46717 -12.2614 7.46717 -12.2614 7.46717 -12.2614C7.46717 -12.2614 7.46717 -12.2614 7.46717 -12.2614C7.46717 -12.2614 7.46717 -12.2614 7.46717 -12.2614C7.46717 -12.2614 7.46716 -12.2614 7.46716 -12.2614C7.46716 -12.2614 7.46716 -12.2614 7.46716 -12.2614C7.46716 -12.2614 7.46716 -12.2614 7.46716 -12.2614C7.46716 -12.2614 7.46716 -12.2614 7.46716 -12.2614C7.46716 -12.2614 7.46716 -12.2614 7.46716 -12.2614C7.46716 -12.2614 7.46716 -12.2614 7.46716 -12.2614C7.46715 -12.2614 7.46715 -12.2614 7.46715 -12.2614C7.46715 -12.2614 7.46715 -12.2614 7.46715 -12.2614C7.46715 -12.2614 7.46715 -12.2614 7.46715 -12.2614C7.46715 -12.2614 7.46715 -12.2614 7.46715 -12.2614C7.46715 -12.2614 7.46715 -12.2614 7.46715 -12.2614C7.46715 -12.2614 7.46715 -12.2614 7.46714 -12.2614C7.46714 -12.2614 7.46714 -12.2614 7.46714 -12.2614C7.46714 -12.2614 7.46714 -12.2614 7.46714 -12.2614C7.46714 -12.2614 7.46714 -12.2614 7.46714 -12.2614C7.46714 -12.2614 7.46714 -12.2614 7.46714 -12.2614C7.46714 -12.2614 7.46714 -12.2614 7.46714 -12.2614C7.46714 -12.2614 7.46713 -12.2614 7.46713 -12.2614C7.46713 -12.2614 7.46713 -12.2614 7.46713 -12.2614C7.46713 -12.2614 7.46713 -12.2614 7.46713 -12.2614C7.46713 -12.2614 7.46713 -12.2614 7.46713 -12.2614C7.46713 -12.2614 7.46713 -12.2614 7.46713 -12.2614C7.46713 -12.2614 7.46713 -12.2614 7.46713 -12.2614C7.46712 -12.2614 7.46712 -12.2614 7.46712 -12.2614C7.46712 -12.2614 7.46712 -12.2614 7.46712 -12.2614C7.46712 -12.2614 7.46712 -12.2614 7.46712 -12.2614C7.46712 -12.2614 7.46712 -12.2614 7.46712 -12.2614C7.46712 -12.2614 7.46712 -12.2614 7.46712 -12.2614C7.46712 -12.2614 7.46712 -12.2614 7.46711 -12.2614C7.46711 -12.2614 7.46711 -12.2614 7.46711 -12.2614C7.46711 -12.2614 7.46711 -12.2614 7.46711 -12.2614C7.46711 -12.2614 7.46711 -12.2614 7.46711 -12.2614C7.46711 -12.2614 7.46711 -12.2614 7.46711 -12.2614C7.46711 -12.2614 7.46711 -12.2614 7.46711 -12.2614C7.46711 -12.2614 7.4671 -12.2614 7.4671 -12.2614C7.4671 -12.2614 7.4671 -12.2614 7.4671 -12.2614C7.4671 -12.2614 7.4671 -12.2614 7.4671 -12.2614C7.4671 -12.2614 7.4671 -12.2614 7.4671 -12.2614C7.4671 -12.2614 7.4671 -12.2614 7.4671 -12.2614C7.4671 -12.2614 7.4671 -12.2614 7.46709 -12.2614C7.46709 -12.2614 7.46709 -12.2614 7.46709 -12.2614C7.46709 -12.2614 7.46709 -12.2614 7.46709 -12.2614C7.46709 -12.2614 7.46709 -12.2614 7.46709 -12.2614C7.46709 -12.2614 7.46709 -12.2614 7.46709 -12.2614C7.46709 -12.2614 7.46709 -12.2614 7.46709 -12.2614C7.46709 -12.2614 7.46708 -12.2614 7.46708 -12.2614C7.46708 -12.2614 7.46708 -12.2614 7.46708 -12.2614C7.46708 -12.2614 7.46708 -12.2614 7.46708 -12.2614C7.46708 -12.2614 7.46708 -12.2614 7.46708 -12.2614C7.46708 -12.2614 7.46708 -12.2614 7.46708 -12.2614C7.46708 -12.2614 7.46708 -12.2614 7.46708 -12.2614C7.46707 -12.2614 7.46707 -12.2614 7.46707 -12.2614C7.46707 -12.2614 7.46707 -12.2614 7.46707 -12.2614C7.46707 -12.2614 7.46707 -12.2614 7.46707 -12.2614C7.46707 -12.2614 7.46707 -12.2614 7.46707 -12.2614C7.46707 -12.2614 7.46707 -12.2614 7.46707 -12.2614C7.46707 -12.2614 7.46707 -12.2614 7.46706 -12.2614C7.46706 -12.2614 7.46706 -12.2614 7.46706 -12.2614C7.46706 -12.2614 7.46706 -12.2614 7.46706 -12.2614C7.46706 -12.2614 7.46706 -12.2614 7.46706 -12.2614C7.46706 -12.2614 7.46706 -12.2614 7.46706 -12.2614C7.46706 -12.2614 7.46706 -12.2614 7.46706 -12.2614C7.46706 -12.2614 7.46705 -12.2614 7.46705 -12.2614C7.46705 -12.2614 7.46705 -12.2614 7.46705 -12.2614C7.46705 -12.2614 7.46705 -12.2614 7.46705 -12.2614C7.46705 -12.2614 7.46705 -12.2614 7.46705 -12.2614C7.46705 -12.2614 7.46705 -12.2614 7.46705 -12.2614C7.46705 -12.2614 7.46705 -12.2614 7.46705 -12.2614C7.46704 -12.2614 7.46704 -12.2614 7.46704 -12.2614C7.46704 -12.2614 7.46704 -12.2614 7.46704 -12.2614C7.46704 -12.2614 7.46704 -12.2614 7.46704 -12.2614C7.46704 -12.2614 7.46704 -12.2614 7.46704 -12.2614C7.46704 -12.2614 7.46704 -12.2614 7.46704 -12.2614C7.46704 -12.2614 7.46704 -12.2614 7.46703 -12.2614C7.46703 -12.2614 7.46703 -12.2614 7.46703 -12.2614C7.46703 -12.2614 7.46703 -12.2614 7.46703 -12.2614C7.46703 -12.2614 7.46703 -12.2614 7.46703 -12.2614C7.46703 -12.2614 7.46703 -12.2614 7.46703 -12.2614C7.46703 -12.2614 7.46703 -12.2614 7.46703 -12.2614C7.46703 -12.2614 7.46702 -12.2614 7.46702 -12.2614C7.46702 -12.2614 7.46702 -12.2614 7.46702 -12.2614C7.46702 -12.2614 7.46702 -12.2614 7.46702 -12.2614C7.46702 -12.2614 7.46702 -12.2614 7.46702 -12.2614C7.46702 -12.2614 7.46702 -12.2614 7.46702 -12.2614C7.46702 -12.2614 7.46702 -12.2614 7.46702 -12.2614C7.46701 -12.2614 7.46701 -12.2614 7.46701 -12.2614C7.46701 -12.2614 7.46701 -12.2614 7.46701 -12.2614C7.46701 -12.2614 7.46701 -12.2614 7.46701 -12.2614C7.46701 -12.2614 7.46701 -12.2614 7.46701 -12.2614C7.46701 -12.2614 7.46701 -12.2614 7.46701 -12.2614C7.46701 -12.2614 7.46701 -12.2614 7.467 -12.2614C7.467 -12.2614 7.467 -12.2614 7.467 -12.2614C7.467 -12.2614 7.467 -12.2614 7.467 -12.2614C7.467 -12.2614 7.467 -12.2614 7.467 -12.2614C7.467 -12.2614 7.467 -12.2614 7.467 -12.2614C7.467 -12.2614 7.467 -12.2614 7.467 -12.2614C7.467 -12.2614 7.46699 -12.2614 7.46699 -12.2614C7.46699 -12.2614 7.46699 -12.2614 7.46699 -12.2614C7.46699 -12.2614 7.46699 -12.2614 7.46699 -12.2614C7.46699 -12.2614 7.46699 -12.2614 7.46699 -12.2614C7.46699 -12.2614 7.46699 -12.2614 7.46699 -12.2614C7.46699 -12.2614 7.46699 -12.2614 7.46698 -12.2614C7.46698 -12.2614 7.46698 -12.2614 7.46698 -12.2614C7.46698 -12.2614 7.46698 -12.2614 7.46698 -12.2614C7.46698 -12.2614 7.46698 -12.2614 7.46698 -12.2614C7.46698 -12.2614 7.46698 -12.2614 7.46698 -12.2614C7.46698 -12.2614 7.46698 -12.2614 7.46698 -12.2614C7.46698 -12.2614 7.46697 -12.2614 7.46697 -12.2614C7.46697 -12.2614 7.46697 -12.2614 7.46697 -12.2614C7.46697 -12.2614 7.46697 -12.2614 7.46697 -12.2614C7.46697 -12.2614 7.46697 -12.2614 7.46697 -12.2614C7.46697 -12.2614 7.46697 -12.2614 7.46697 -12.2614C7.46697 -12.2614 7.46697 -12.2614 7.46697 -12.2614C7.46696 -12.2614 7.46696 -12.2614 7.46696 -12.2614C7.46696 -12.2614 7.46696 -12.2614 7.46696 -12.2614C7.46696 -12.2614 7.46696 -12.2614 7.46696 -12.2614C7.46696 -12.2614 7.46696 -12.2614 7.46696 -12.2614C7.46696 -12.2614 7.46696 -12.2614 7.46696 -12.2614C7.46696 -12.2614 7.46696 -12.2614 7.46695 -12.2614C7.46695 -12.2614 7.46695 -12.2614 7.46695 -12.2614C7.46695 -12.2614 7.46695 -12.2614 7.46695 -12.2614C7.46695 -12.2614 7.46695 -12.2614 7.46695 -12.2614C7.46695 -12.2614 7.46695 -12.2614 7.46695 -12.2614C7.46695 -12.2614 7.46695 -12.2614 7.46695 -12.2614C7.46695 -12.2614 7.46694 -12.2614 7.46694 -12.2614C7.46694 -12.2614 7.46694 -12.2614 7.46694 -12.2614C7.46694 -12.2614 7.46694 -12.2614 7.46694 -12.2614C7.46694 -12.2614 7.46694 -12.2614 7.46694 -12.2614C7.46694 -12.2614 7.46694 -12.2614 7.46694 -12.2614C7.46694 -12.2614 7.46694 -12.2614 7.46694 -12.2614C7.46693 -12.2614 7.46693 -12.2614 7.46693 -12.2614C7.46693 -12.2614 7.46693 -12.2614 7.46693 -12.2614C7.46693 -12.2614 7.46693 -12.2614 7.46693 -12.2614C7.46693 -12.2614 7.46693 -12.2614 7.46693 -12.2614C7.46693 -12.2614 7.46693 -12.2614 7.46693 -12.2614C7.46693 -12.2614 7.46693 -12.2614 7.46692 -12.2614C7.46692 -12.2614 7.46692 -12.2614 7.46692 -12.2614C7.46692 -12.2614 7.46692 -12.2614 7.46692 -12.2614C7.46692 -12.2614 7.46692 -12.2614 7.46692 -12.2614C7.46692 -12.2614 7.46692 -12.2614 7.46692 -12.2614C7.46692 -12.2614 7.46692 -12.2614 7.46692 -12.2614C7.46692 -12.2614 7.46691 -12.2614 7.46691 -12.2614C7.46691 -12.2614 7.46691 -12.2614 7.46691 -12.2614C7.46691 -12.2614 7.46691 -12.2614 7.46691 -12.2614C7.46691 -12.2614 7.46691 -12.2614 7.46691 -12.2614C7.46691 -12.2614 7.46691 -12.2614 7.46691 -12.2614C7.46691 -12.2614 7.46691 -12.2614 7.46691 -12.2614C7.4669 -12.2614 7.4669 -12.2614 7.4669 -12.2614C7.4669 -12.2614 7.4669 -12.2614 7.4669 -12.2614C7.4669 -12.2614 7.4669 -12.2614 7.4669 -12.2614C7.4669 -12.2614 7.4669 -12.2614 7.4669 -12.2614C7.4669 -12.2614 7.4669 -12.2614 7.4669 -12.2614C7.4669 -12.2614 7.4669 -12.2614 7.46689 -12.2614C7.46689 -12.2614 7.46689 -12.2614 7.46689 -12.2614C7.46689 -12.2614 7.46689 -12.2614 7.46689 -12.2614C7.46689 -12.2614 7.46689 -12.2614 7.46689 -12.2614C7.46689 -12.2614 7.46689 -12.2614 7.46689 -12.2614C7.46689 -12.2614 7.46689 -12.2614 7.46689 -12.2614C7.46689 -12.2614 7.46688 -12.2614 7.46688 -12.2614C7.46688 -12.2614 7.46688 -12.2614 7.46688 -12.2614C7.46688 -12.2614 7.46688 -12.2614 7.46688 -12.2614C7.46688 -12.2614 7.46688 -12.2614 7.46688 -12.2614C7.46688 -12.2614 7.46688 -12.2614 7.46688 -12.2614C7.46688 -12.2614 7.46688 -12.2614 7.46688 -12.2614C7.46687 -12.2614 7.46687 -12.2614 7.46687 -12.2614C7.46687 -12.2614 7.46687 -12.2614 7.46687 -12.2614C7.46687 -12.2614 7.46687 -12.2614 7.46687 -12.2614C7.46687 -12.2614 7.46687 -12.2614 7.46687 -12.2614C7.46687 -12.2614 7.46687 -12.2614 7.46687 -12.2614C7.46687 -12.2614 7.46686 -12.2614 7.46686 -12.2614C7.46686 -12.2614 7.46686 -12.2614 7.46686 -12.2614C7.46686 -12.2614 7.46686 -12.2614 7.46686 -12.2614C7.46686 -12.2614 7.46686 -12.2614 7.46686 -12.2614C7.46686 -12.2614 7.46686 -12.2614 7.46686 -12.2614C7.46686 -12.2614 7.46686 -12.2614 7.46686 -12.2614C7.46685 -12.2614 7.46685 -12.2614 7.46685 -12.2614C7.46685 -12.2614 7.46685 -12.2614 7.46685 -12.2614C7.46685 -12.2614 7.46685 -12.2614 7.46685 -12.2614C7.46685 -12.2614 7.46685 -12.2614 7.46685 -12.2614C7.46685 -12.2614 7.46685 -12.2614 7.46685 -12.2614C7.46685 -12.2614 7.46685 -12.2614 7.46684 -12.2614C7.46684 -12.2614 7.46684 -12.2614 7.46684 -12.2614C7.46684 -12.2614 7.46684 -12.2614 7.46684 -12.2614C7.46684 -12.2614 7.46684 -12.2614 7.46684 -12.2614C7.46684 -12.2614 7.46684 -12.2614 7.46684 -12.2614C7.46684 -12.2614 7.46684 -12.2614 7.46684 -12.2614C7.46684 -12.2614 7.46683 -12.2614 7.46683 -12.2614C7.46683 -12.2614 7.46683 -12.2614 7.46683 -12.2614C7.46683 -12.2614 7.46683 -12.2614 7.46683 -12.2614C7.46683 -12.2614 7.46683 -12.2614 7.46683 -12.2614C7.46683 -12.2614 7.46683 -12.2614 7.46683 -12.2614C7.46683 -12.2614 7.46683 -12.2614 7.46683 -12.2614C7.46682 -12.2614 7.46682 -12.2614 7.46682 -12.2614C7.46682 -12.2614 7.46682 -12.2614 7.46682 -12.2614C7.46682 -12.2614 7.46682 -12.2614 7.46682 -12.2614C7.46682 -12.2614 7.46682 -12.2614 7.46682 -12.2614C7.46682 -12.2614 7.46682 -12.2614 7.46682 -12.2614C7.46682 -12.2614 7.46681 -12.2614 7.46681 -12.2614C7.46681 -12.2614 7.46681 -12.2614 7.46681 -12.2614C7.46681 -12.2614 7.46681 -12.2614 7.46681 -12.2614C7.46681 -12.2614 7.46681 -12.2614 7.46681 -12.2614C7.46681 -12.2614 7.46681 -12.2614 7.46681 -12.2614C7.46681 -12.2614 7.46681 -12.2614 7.46681 -12.2614C7.4668 -12.2614 7.4668 -12.2614 7.4668 -12.2614C7.4668 -12.2614 7.4668 -12.2614 7.4668 -12.2614C7.4668 -12.2614 7.4668 -12.2614 7.4668 -12.2614C7.4668 -12.2614 7.4668 -12.2614 7.4668 -12.2614C7.4668 -12.2614 7.4668 -12.2614 7.4668 -12.2614C7.4668 -12.2614 7.4668 -12.2614 7.46679 -12.2614C7.46679 -12.2614 7.46679 -12.2614 7.46679 -12.2614C7.46679 -12.2614 7.46679 -12.2614 7.46679 -12.2614C7.46679 -12.2614 7.46679 -12.2614 7.46679 -12.2614C7.46679 -12.2614 7.46679 -12.2614 7.46679 -12.2614C7.46679 -12.2614 7.46679 -12.2614 7.46679 -12.2614C7.46679 -12.2614 7.46678 -12.2614 7.46678 -12.2614C7.46678 -12.2614 7.46678 -12.2614 7.46678 -12.2614C7.46678 -12.2614 7.46678 -12.2614 7.46678 -12.2614C7.46678 -12.2614 7.46678 -12.2614 7.46678 -12.2614C7.46678 -12.2614 7.46678 -12.2614 7.46678 -12.2614C7.46678 -12.2614 7.46678 -12.2614 7.46678 -12.2614C7.46677 -12.2614 7.46677 -12.2614 7.46677 -12.2614C7.46677 -12.2614 7.46677 -12.2614 7.46677 -12.2614C7.46677 -12.2614 7.46677 -12.2614 7.46677 -12.2614C7.46677 -12.2614 7.46677 -12.2614 7.46677 -12.2614C7.46677 -12.2614 7.46677 -12.2614 7.46677 -12.2614C7.46677 -12.2614 7.46677 -12.2614 7.46676 -12.2614C7.46676 -12.2614 7.46676 -12.2614 7.46676 -12.2614C7.46676 -12.2614 7.46676 -12.2614 7.46676 -12.2614C7.46676 -12.2614 7.46676 -12.2614 7.46676 -12.2614C7.46676 -12.2614 7.46676 -12.2614 7.46676 -12.2614C7.46676 -12.2614 7.46676 -12.2614 7.46676 -12.2614C7.46676 -12.2614 7.46675 -12.2614 7.46675 -12.2614C7.46675 -12.2614 7.46675 -12.2614 7.46675 -12.2614C7.46675 -12.2614 7.46675 -12.2614 7.46675 -12.2614C7.46675 -12.2614 7.46675 -12.2614 7.46675 -12.2614C7.46675 -12.2614 7.46675 -12.2614 7.46675 -12.2614C7.46675 -12.2614 7.46675 -12.2614 7.46675 -12.2614C7.46674 -12.2614 7.46674 -12.2614 7.46674 -12.2614C7.46674 -12.2614 7.46674 -12.2614 7.46674 -12.2614C7.46674 -12.2614 7.46674 -12.2614 7.46674 -12.2614C7.46674 -12.2614 7.46674 -12.2614 7.46674 -12.2614C7.46674 -12.2614 7.46674 -12.2614 7.46674 -12.2614C7.46674 -12.2614 7.46674 -12.2614 7.46673 -12.2614C7.46673 -12.2614 7.46673 -12.2614 7.46673 -12.2614C7.46673 -12.2614 7.46673 -12.2614 7.46673 -12.2614C7.46673 -12.2614 7.46673 -12.2614 7.46673 -12.2614C7.46673 -12.2614 7.46673 -12.2614 7.46673 -12.2614C7.46673 -12.2614 7.46673 -12.2614 7.46673 -12.2614C7.46672 -12.2614 7.46672 -12.2614 7.46672 -12.2614C7.46672 -12.2614 7.46672 -12.2614 7.46672 -12.2614C7.46672 -12.2614 7.46672 -12.2614 7.46672 -12.2614C7.46672 -12.2614 7.46672 -12.2614 7.46672 -12.2614C7.46672 -12.2614 7.46672 -12.2614 7.46672 -12.2614C7.46672 -12.2614 7.46672 -12.2614 7.46671 -12.2614C7.46671 -12.2614 7.46671 -12.2614 7.46671 -12.2614C7.46671 -12.2614 7.46671 -12.2614 7.46671 -12.2614C7.46671 -12.2614 7.46671 -12.2614 7.46671 -12.2614C7.46671 -12.2614 7.46671 -12.2614 7.46671 -12.2614C7.46671 -12.2614 7.46671 -12.2614 7.46671 -12.2614C7.46671 -12.2614 7.4667 -12.2614 7.4667 -12.2614C7.4667 -12.2614 7.4667 -12.2614 7.4667 -12.2614C7.4667 -12.2614 7.4667 -12.2614 7.4667 -12.2614C7.4667 -12.2614 7.4667 -12.2614 7.4667 -12.2614C7.4667 -12.2614 7.4667 -12.2614 7.4667 -12.2614C7.4667 -12.2614 7.4667 -12.2614 7.4667 -12.2614C7.46669 -12.2614 7.46669 -12.2614 7.46669 -12.2614C7.46669 -12.2614 7.46669 -12.2614 7.46669 -12.2614C7.46669 -12.2614 7.46669 -12.2614 7.46669 -12.2614C7.46669 -12.2614 7.46669 -12.2614 7.46669 -12.2614C7.46669 -12.2614 7.46669 -12.2614 7.46669 -12.2614C7.46669 -12.2614 7.46669 -12.2614 7.46668 -12.2614C7.46668 -12.2614 7.46668 -12.2614 7.46668 -12.2614C7.46668 -12.2614 7.46668 -12.2614 7.46668 -12.2614C7.46668 -12.2614 7.46668 -12.2614 7.46668 -12.2614C7.46668 -12.2614 7.46668 -12.2614 7.46668 -12.2614C7.46668 -12.2614 7.46668 -12.2614 7.46668 -12.2614C7.46668 -12.2614 7.46667 -12.2614 7.46667 -12.2614C7.46667 -12.2614 7.46667 -12.2614 7.46667 -12.2614C7.46667 -12.2614 7.46667 -12.2614 7.46667 -12.2614C7.46667 -12.2614 7.46667 -12.2614 7.46667 -12.2614C7.46667 -12.2614 7.46667 -12.2614 7.46667 -12.2614C7.46667 -12.2614 7.46667 -12.2614 7.46667 -12.2614C7.46666 -12.2614 7.46666 -12.2614 7.46666 -12.2614C7.46666 -12.2614 7.46666 -12.2614 7.46666 -12.2614C7.46666 -12.2614 7.46666 -12.2614 7.46666 -12.2614C7.46666 -12.2614 7.46666 -12.2614 7.46666 -12.2614C7.46666 -12.2614 7.46666 -12.2614 7.46666 -12.2614C7.46666 -12.2614 7.46666 -12.2614 7.46665 -12.2614C7.46665 -12.2614 7.46665 -12.2614 7.46665 -12.2614C7.46665 -12.2614 7.46665 -12.2614 7.46665 -12.2614C7.46665 -12.2614 7.46665 -12.2614 7.46665 -12.2614C7.46665 -12.2614 7.46665 -12.2614 7.46665 -12.2614C7.46665 -12.2614 7.46665 -12.2614 7.46665 -12.2614C7.46665 -12.2614 7.46664 -12.2614 7.46664 -12.2614C7.46664 -12.2614 7.46664 -12.2614 7.46664 -12.2614C7.46664 -12.2614 7.46664 -12.2614 7.46664 -12.2614C7.46664 -12.2614 7.46664 -12.2614 7.46664 -12.2614C7.46664 -12.2614 7.46664 -12.2614 7.46664 -12.2614C7.46664 -12.2614 7.46664 -12.2614 7.46664 -12.2614C7.46663 -12.2614 7.46663 -12.2614 7.46663 -12.2614C7.46663 -12.2614 7.46663 -12.2614 7.46663 -12.2614C7.46663 -12.2614 7.46663 -12.2614 7.46663 -12.2614C7.46663 -12.2614 7.46663 -12.2614 7.46663 -12.2614C7.46663 -12.2614 7.46663 -12.2614 7.46663 -12.2614C7.46663 -12.2614 7.46663 -12.2614 7.46662 -12.2614C7.46662 -12.2614 7.46662 -12.2614 7.46662 -12.2614C7.46662 -12.2614 7.46662 -12.2614 7.46662 -12.2614C7.46662 -12.2614 7.46662 -12.2614 7.46662 -12.2614C7.46662 -12.2614 7.46662 -12.2614 7.46662 -12.2614C7.46662 -12.2614 7.46662 -12.2614 7.46662 -12.2614C7.46662 -12.2614 7.46661 -12.2614 7.46661 -12.2614C7.46661 -12.2614 7.46661 -12.2614 7.46661 -12.2614C7.46661 -12.2614 7.46661 -12.2614 7.46661 -12.2614C7.46661 -12.2614 7.46661 -12.2614 7.46661 -12.2614C7.46661 -12.2614 7.46661 -12.2614 7.46661 -12.2614V18.6622C7.46661 18.6622 7.46661 18.6622 7.46661 18.6622C7.46661 18.6622 7.46661 18.6622 7.46661 18.6622C7.46661 18.6622 7.46661 18.6622 7.46661 18.6622C7.46661 18.6622 7.46661 18.6622 7.46661 18.6622C7.46661 18.6622 7.46662 18.6622 7.46662 18.6622C7.46662 18.6622 7.46662 18.6622 7.46662 18.6622C7.46662 18.6622 7.46662 18.6622 7.46662 18.6622C7.46662 18.6622 7.46662 18.6622 7.46662 18.6622C7.46662 18.6622 7.46662 18.6622 7.46662 18.6622C7.46662 18.6622 7.46662 18.6622 7.46662 18.6622C7.46663 18.6622 7.46663 18.6622 7.46663 18.6622C7.46663 18.6622 7.46663 18.6622 7.46663 18.6622C7.46663 18.6622 7.46663 18.6622 7.46663 18.6622C7.46663 18.6622 7.46663 18.6622 7.46663 18.6622C7.46663 18.6622 7.46663 18.6622 7.46663 18.6622C7.46663 18.6622 7.46663 18.6622 7.46664 18.6622C7.46664 18.6622 7.46664 18.6622 7.46664 18.6622C7.46664 18.6622 7.46664 18.6622 7.46664 18.6622C7.46664 18.6622 7.46664 18.6622 7.46664 18.6622C7.46664 18.6622 7.46664 18.6622 7.46664 18.6622C7.46664 18.6622 7.46664 18.6622 7.46664 18.6622C7.46664 18.6622 7.46665 18.6622 7.46665 18.6622C7.46665 18.6622 7.46665 18.6622 7.46665 18.6622C7.46665 18.6622 7.46665 18.6622 7.46665 18.6622C7.46665 18.6622 7.46665 18.6622 7.46665 18.6622C7.46665 18.6622 7.46665 18.6622 7.46665 18.6622C7.46665 18.6622 7.46665 18.6622 7.46665 18.6622C7.46666 18.6622 7.46666 18.6622 7.46666 18.6622C7.46666 18.6622 7.46666 18.6622 7.46666 18.6622C7.46666 18.6622 7.46666 18.6622 7.46666 18.6622C7.46666 18.6622 7.46666 18.6622 7.46666 18.6622C7.46666 18.6622 7.46666 18.6622 7.46666 18.6622C7.46666 18.6622 7.46666 18.6622 7.46667 18.6622C7.46667 18.6622 7.46667 18.6622 7.46667 18.6622C7.46667 18.6622 7.46667 18.6622 7.46667 18.6622C7.46667 18.6622 7.46667 18.6622 7.46667 18.6622C7.46667 18.6622 7.46667 18.6622 7.46667 18.6622C7.46667 18.6622 7.46667 18.6622 7.46667 18.6622C7.46667 18.6622 7.46668 18.6622 7.46668 18.6622C7.46668 18.6622 7.46668 18.6622 7.46668 18.6622C7.46668 18.6622 7.46668 18.6622 7.46668 18.6622C7.46668 18.6622 7.46668 18.6622 7.46668 18.6622C7.46668 18.6622 7.46668 18.6622 7.46668 18.6622C7.46668 18.6622 7.46668 18.6622 7.46668 18.6622C7.46669 18.6622 7.46669 18.6622 7.46669 18.6622C7.46669 18.6622 7.46669 18.6622 7.46669 18.6622C7.46669 18.6622 7.46669 18.6622 7.46669 18.6622C7.46669 18.6622 7.46669 18.6622 7.46669 18.6622C7.46669 18.6622 7.46669 18.6622 7.46669 18.6622C7.46669 18.6622 7.46669 18.6622 7.4667 18.6622C7.4667 18.6622 7.4667 18.6622 7.4667 18.6622C7.4667 18.6622 7.4667 18.6622 7.4667 18.6622C7.4667 18.6622 7.4667 18.6622 7.4667 18.6622C7.4667 18.6622 7.4667 18.6622 7.4667 18.6622C7.4667 18.6622 7.4667 18.6622 7.4667 18.6622C7.4667 18.6622 7.46671 18.6622 7.46671 18.6622C7.46671 18.6622 7.46671 18.6622 7.46671 18.6622C7.46671 18.6622 7.46671 18.6622 7.46671 18.6622C7.46671 18.6622 7.46671 18.6622 7.46671 18.6622C7.46671 18.6622 7.46671 18.6622 7.46671 18.6622C7.46671 18.6622 7.46671 18.6622 7.46671 18.6622C7.46672 18.6622 7.46672 18.6622 7.46672 18.6622C7.46672 18.6622 7.46672 18.6622 7.46672 18.6622C7.46672 18.6622 7.46672 18.6622 7.46672 18.6622C7.46672 18.6622 7.46672 18.6622 7.46672 18.6622C7.46672 18.6622 7.46672 18.6622 7.46672 18.6622C7.46672 18.6622 7.46672 18.6622 7.46673 18.6622C7.46673 18.6622 7.46673 18.6622 7.46673 18.6622C7.46673 18.6622 7.46673 18.6622 7.46673 18.6622C7.46673 18.6622 7.46673 18.6622 7.46673 18.6622C7.46673 18.6622 7.46673 18.6622 7.46673 18.6622C7.46673 18.6622 7.46673 18.6622 7.46673 18.6622C7.46674 18.6622 7.46674 18.6622 7.46674 18.6622C7.46674 18.6622 7.46674 18.6622 7.46674 18.6622C7.46674 18.6622 7.46674 18.6622 7.46674 18.6622C7.46674 18.6622 7.46674 18.6622 7.46674 18.6622C7.46674 18.6622 7.46674 18.6622 7.46674 18.6622C7.46674 18.6622 7.46674 18.6622 7.46675 18.6622C7.46675 18.6622 7.46675 18.6622 7.46675 18.6622C7.46675 18.6622 7.46675 18.6622 7.46675 18.6622C7.46675 18.6622 7.46675 18.6622 7.46675 18.6622C7.46675 18.6622 7.46675 18.6622 7.46675 18.6622C7.46675 18.6622 7.46675 18.6622 7.46675 18.6622C7.46675 18.6622 7.46676 18.6622 7.46676 18.6622C7.46676 18.6622 7.46676 18.6622 7.46676 18.6622C7.46676 18.6622 7.46676 18.6622 7.46676 18.6622C7.46676 18.6622 7.46676 18.6622 7.46676 18.6622C7.46676 18.6622 7.46676 18.6622 7.46676 18.6622C7.46676 18.6622 7.46676 18.6622 7.46676 18.6622C7.46677 18.6622 7.46677 18.6622 7.46677 18.6622C7.46677 18.6622 7.46677 18.6622 7.46677 18.6622C7.46677 18.6622 7.46677 18.6622 7.46677 18.6622C7.46677 18.6622 7.46677 18.6622 7.46677 18.6622C7.46677 18.6622 7.46677 18.6622 7.46677 18.6622C7.46677 18.6622 7.46677 18.6622 7.46678 18.6622C7.46678 18.6622 7.46678 18.6622 7.46678 18.6622C7.46678 18.6622 7.46678 18.6622 7.46678 18.6622C7.46678 18.6622 7.46678 18.6622 7.46678 18.6622C7.46678 18.6622 7.46678 18.6622 7.46678 18.6622C7.46678 18.6622 7.46678 18.6622 7.46678 18.6622C7.46678 18.6622 7.46679 18.6622 7.46679 18.6622C7.46679 18.6622 7.46679 18.6622 7.46679 18.6622C7.46679 18.6622 7.46679 18.6622 7.46679 18.6622C7.46679 18.6622 7.46679 18.6622 7.46679 18.6622C7.46679 18.6622 7.46679 18.6622 7.46679 18.6622C7.46679 18.6622 7.46679 18.6622 7.46679 18.6622C7.4668 18.6622 7.4668 18.6622 7.4668 18.6622C7.4668 18.6622 7.4668 18.6622 7.4668 18.6622C7.4668 18.6622 7.4668 18.6622 7.4668 18.6622C7.4668 18.6622 7.4668 18.6622 7.4668 18.6622C7.4668 18.6622 7.4668 18.6622 7.4668 18.6622C7.4668 18.6622 7.4668 18.6622 7.46681 18.6622C7.46681 18.6622 7.46681 18.6622 7.46681 18.6622C7.46681 18.6622 7.46681 18.6622 7.46681 18.6622C7.46681 18.6622 7.46681 18.6622 7.46681 18.6622C7.46681 18.6622 7.46681 18.6622 7.46681 18.6622C7.46681 18.6622 7.46681 18.6622 7.46681 18.6622C7.46681 18.6622 7.46682 18.6622 7.46682 18.6622C7.46682 18.6622 7.46682 18.6622 7.46682 18.6622C7.46682 18.6622 7.46682 18.6622 7.46682 18.6622C7.46682 18.6622 7.46682 18.6622 7.46682 18.6622C7.46682 18.6622 7.46682 18.6622 7.46682 18.6622C7.46682 18.6622 7.46682 18.6622 7.46683 18.6622C7.46683 18.6622 7.46683 18.6622 7.46683 18.6622C7.46683 18.6622 7.46683 18.6622 7.46683 18.6622C7.46683 18.6622 7.46683 18.6622 7.46683 18.6622C7.46683 18.6622 7.46683 18.6622 7.46683 18.6622C7.46683 18.6622 7.46683 18.6622 7.46683 18.6622C7.46683 18.6622 7.46684 18.6622 7.46684 18.6622C7.46684 18.6622 7.46684 18.6622 7.46684 18.6622C7.46684 18.6622 7.46684 18.6622 7.46684 18.6622C7.46684 18.6622 7.46684 18.6622 7.46684 18.6622C7.46684 18.6622 7.46684 18.6622 7.46684 18.6622C7.46684 18.6622 7.46684 18.6622 7.46684 18.6622C7.46685 18.6622 7.46685 18.6622 7.46685 18.6622C7.46685 18.6622 7.46685 18.6622 7.46685 18.6622C7.46685 18.6622 7.46685 18.6622 7.46685 18.6622C7.46685 18.6622 7.46685 18.6622 7.46685 18.6622C7.46685 18.6622 7.46685 18.6622 7.46685 18.6622C7.46685 18.6622 7.46685 18.6622 7.46686 18.6622C7.46686 18.6622 7.46686 18.6622 7.46686 18.6622C7.46686 18.6622 7.46686 18.6622 7.46686 18.6622C7.46686 18.6622 7.46686 18.6622 7.46686 18.6622C7.46686 18.6622 7.46686 18.6622 7.46686 18.6622C7.46686 18.6622 7.46686 18.6622 7.46686 18.6622C7.46686 18.6622 7.46687 18.6622 7.46687 18.6622C7.46687 18.6622 7.46687 18.6622 7.46687 18.6622C7.46687 18.6622 7.46687 18.6622 7.46687 18.6622C7.46687 18.6622 7.46687 18.6622 7.46687 18.6622C7.46687 18.6622 7.46687 18.6622 7.46687 18.6622C7.46687 18.6622 7.46687 18.6622 7.46688 18.6622C7.46688 18.6622 7.46688 18.6622 7.46688 18.6622C7.46688 18.6622 7.46688 18.6622 7.46688 18.6622C7.46688 18.6622 7.46688 18.6622 7.46688 18.6622C7.46688 18.6622 7.46688 18.6622 7.46688 18.6622C7.46688 18.6622 7.46688 18.6622 7.46688 18.6622C7.46688 18.6622 7.46689 18.6622 7.46689 18.6622C7.46689 18.6622 7.46689 18.6622 7.46689 18.6622C7.46689 18.6622 7.46689 18.6622 7.46689 18.6622C7.46689 18.6622 7.46689 18.6622 7.46689 18.6622C7.46689 18.6622 7.46689 18.6622 7.46689 18.6622C7.46689 18.6622 7.46689 18.6622 7.46689 18.6622C7.4669 18.6622 7.4669 18.6622 7.4669 18.6622C7.4669 18.6622 7.4669 18.6622 7.4669 18.6622C7.4669 18.6622 7.4669 18.6622 7.4669 18.6622C7.4669 18.6622 7.4669 18.6622 7.4669 18.6622C7.4669 18.6622 7.4669 18.6622 7.4669 18.6622C7.4669 18.6622 7.4669 18.6622 7.46691 18.6622C7.46691 18.6622 7.46691 18.6622 7.46691 18.6622C7.46691 18.6622 7.46691 18.6622 7.46691 18.6622C7.46691 18.6622 7.46691 18.6622 7.46691 18.6622C7.46691 18.6622 7.46691 18.6622 7.46691 18.6622C7.46691 18.6622 7.46691 18.6622 7.46691 18.6622C7.46691 18.6622 7.46692 18.6622 7.46692 18.6622C7.46692 18.6622 7.46692 18.6622 7.46692 18.6622C7.46692 18.6622 7.46692 18.6622 7.46692 18.6622C7.46692 18.6622 7.46692 18.6622 7.46692 18.6622C7.46692 18.6622 7.46692 18.6622 7.46692 18.6622C7.46692 18.6622 7.46692 18.6622 7.46692 18.6622C7.46693 18.6622 7.46693 18.6622 7.46693 18.6622C7.46693 18.6622 7.46693 18.6622 7.46693 18.6622C7.46693 18.6622 7.46693 18.6622 7.46693 18.6622C7.46693 18.6622 7.46693 18.6622 7.46693 18.6622C7.46693 18.6622 7.46693 18.6622 7.46693 18.6622C7.46693 18.6622 7.46693 18.6622 7.46694 18.6622C7.46694 18.6622 7.46694 18.6622 7.46694 18.6622C7.46694 18.6622 7.46694 18.6622 7.46694 18.6622C7.46694 18.6622 7.46694 18.6622 7.46694 18.6622C7.46694 18.6622 7.46694 18.6622 7.46694 18.6622C7.46694 18.6622 7.46694 18.6622 7.46694 18.6622C7.46694 18.6622 7.46695 18.6622 7.46695 18.6622C7.46695 18.6622 7.46695 18.6622 7.46695 18.6622C7.46695 18.6622 7.46695 18.6622 7.46695 18.6622C7.46695 18.6622 7.46695 18.6622 7.46695 18.6622C7.46695 18.6622 7.46695 18.6622 7.46695 18.6622C7.46695 18.6622 7.46695 18.6622 7.46695 18.6622C7.46696 18.6622 7.46696 18.6622 7.46696 18.6622C7.46696 18.6622 7.46696 18.6622 7.46696 18.6622C7.46696 18.6622 7.46696 18.6622 7.46696 18.6622C7.46696 18.6622 7.46696 18.6622 7.46696 18.6622C7.46696 18.6622 7.46696 18.6622 7.46696 18.6622C7.46696 18.6622 7.46696 18.6622 7.46697 18.6622C7.46697 18.6622 7.46697 18.6622 7.46697 18.6622C7.46697 18.6622 7.46697 18.6622 7.46697 18.6622C7.46697 18.6622 7.46697 18.6622 7.46697 18.6622C7.46697 18.6622 7.46697 18.6622 7.46697 18.6622C7.46697 18.6622 7.46697 18.6622 7.46697 18.6622C7.46697 18.6622 7.46698 18.6622 7.46698 18.6622C7.46698 18.6622 7.46698 18.6622 7.46698 18.6622C7.46698 18.6622 7.46698 18.6622 7.46698 18.6622C7.46698 18.6622 7.46698 18.6622 7.46698 18.6622C7.46698 18.6622 7.46698 18.6622 7.46698 18.6622C7.46698 18.6622 7.46698 18.6622 7.46698 18.6622C7.46699 18.6622 7.46699 18.6622 7.46699 18.6622C7.46699 18.6622 7.46699 18.6622 7.46699 18.6622C7.46699 18.6622 7.46699 18.6622 7.46699 18.6622C7.46699 18.6622 7.46699 18.6622 7.46699 18.6622C7.46699 18.6622 7.46699 18.6622 7.46699 18.6622C7.46699 18.6622 7.467 18.6622 7.467 18.6622C7.467 18.6622 7.467 18.6622 7.467 18.6622C7.467 18.6622 7.467 18.6622 7.467 18.6622C7.467 18.6622 7.467 18.6622 7.467 18.6622C7.467 18.6622 7.467 18.6622 7.467 18.6622C7.467 18.6622 7.467 18.6622 7.467 18.6622C7.46701 18.6622 7.46701 18.6622 7.46701 18.6622C7.46701 18.6622 7.46701 18.6622 7.46701 18.6622C7.46701 18.6622 7.46701 18.6622 7.46701 18.6622C7.46701 18.6622 7.46701 18.6622 7.46701 18.6622C7.46701 18.6622 7.46701 18.6622 7.46701 18.6622C7.46701 18.6622 7.46701 18.6622 7.46702 18.6622C7.46702 18.6622 7.46702 18.6622 7.46702 18.6622C7.46702 18.6622 7.46702 18.6622 7.46702 18.6622C7.46702 18.6622 7.46702 18.6622 7.46702 18.6622C7.46702 18.6622 7.46702 18.6622 7.46702 18.6622C7.46702 18.6622 7.46702 18.6622 7.46702 18.6622C7.46702 18.6622 7.46703 18.6622 7.46703 18.6622C7.46703 18.6622 7.46703 18.6622 7.46703 18.6622C7.46703 18.6622 7.46703 18.6622 7.46703 18.6622C7.46703 18.6622 7.46703 18.6622 7.46703 18.6622C7.46703 18.6622 7.46703 18.6622 7.46703 18.6622C7.46703 18.6622 7.46703 18.6622 7.46703 18.6622C7.46704 18.6622 7.46704 18.6622 7.46704 18.6622C7.46704 18.6622 7.46704 18.6622 7.46704 18.6622C7.46704 18.6622 7.46704 18.6622 7.46704 18.6622C7.46704 18.6622 7.46704 18.6622 7.46704 18.6622C7.46704 18.6622 7.46704 18.6622 7.46704 18.6622C7.46704 18.6622 7.46704 18.6622 7.46705 18.6622C7.46705 18.6622 7.46705 18.6622 7.46705 18.6622C7.46705 18.6622 7.46705 18.6622 7.46705 18.6622C7.46705 18.6622 7.46705 18.6622 7.46705 18.6622C7.46705 18.6622 7.46705 18.6622 7.46705 18.6622C7.46705 18.6622 7.46705 18.6622 7.46705 18.6622C7.46705 18.6622 7.46706 18.6622 7.46706 18.6622C7.46706 18.6622 7.46706 18.6622 7.46706 18.6622C7.46706 18.6622 7.46706 18.6622 7.46706 18.6622C7.46706 18.6622 7.46706 18.6622 7.46706 18.6622C7.46706 18.6622 7.46706 18.6622 7.46706 18.6622C7.46706 18.6622 7.46706 18.6622 7.46706 18.6622C7.46707 18.6622 7.46707 18.6622 7.46707 18.6622C7.46707 18.6622 7.46707 18.6622 7.46707 18.6622C7.46707 18.6622 7.46707 18.6622 7.46707 18.6622C7.46707 18.6622 7.46707 18.6622 7.46707 18.6622C7.46707 18.6622 7.46707 18.6622 7.46707 18.6622C7.46707 18.6622 7.46707 18.6622 7.46708 18.6622C7.46708 18.6622 7.46708 18.6622 7.46708 18.6622C7.46708 18.6622 7.46708 18.6622 7.46708 18.6622C7.46708 18.6622 7.46708 18.6622 7.46708 18.6622C7.46708 18.6622 7.46708 18.6622 7.46708 18.6622C7.46708 18.6622 7.46708 18.6622 7.46708 18.6622C7.46708 18.6622 7.46709 18.6622 7.46709 18.6622C7.46709 18.6622 7.46709 18.6622 7.46709 18.6622C7.46709 18.6622 7.46709 18.6622 7.46709 18.6622C7.46709 18.6622 7.46709 18.6622 7.46709 18.6622C7.46709 18.6622 7.46709 18.6622 7.46709 18.6622C7.46709 18.6622 7.46709 18.6622 7.46709 18.6622C7.4671 18.6622 7.4671 18.6622 7.4671 18.6622C7.4671 18.6622 7.4671 18.6622 7.4671 18.6622C7.4671 18.6622 7.4671 18.6622 7.4671 18.6622C7.4671 18.6622 7.4671 18.6622 7.4671 18.6622C7.4671 18.6622 7.4671 18.6622 7.4671 18.6622C7.4671 18.6622 7.46711 18.6622 7.46711 18.6622C7.46711 18.6622 7.46711 18.6622 7.46711 18.6622C7.46711 18.6622 7.46711 18.6622 7.46711 18.6622C7.46711 18.6622 7.46711 18.6622 7.46711 18.6622C7.46711 18.6622 7.46711 18.6622 7.46711 18.6622C7.46711 18.6622 7.46711 18.6622 7.46711 18.6622C7.46712 18.6622 7.46712 18.6622 7.46712 18.6622C7.46712 18.6622 7.46712 18.6622 7.46712 18.6622C7.46712 18.6622 7.46712 18.6622 7.46712 18.6622C7.46712 18.6622 7.46712 18.6622 7.46712 18.6622C7.46712 18.6622 7.46712 18.6622 7.46712 18.6622C7.46712 18.6622 7.46712 18.6622 7.46713 18.6622C7.46713 18.6622 7.46713 18.6622 7.46713 18.6622C7.46713 18.6622 7.46713 18.6622 7.46713 18.6622C7.46713 18.6622 7.46713 18.6622 7.46713 18.6622C7.46713 18.6622 7.46713 18.6622 7.46713 18.6622C7.46713 18.6622 7.46713 18.6622 7.46713 18.6622C7.46713 18.6622 7.46714 18.6622 7.46714 18.6622C7.46714 18.6622 7.46714 18.6622 7.46714 18.6622C7.46714 18.6622 7.46714 18.6622 7.46714 18.6622C7.46714 18.6622 7.46714 18.6622 7.46714 18.6622C7.46714 18.6622 7.46714 18.6622 7.46714 18.6622C7.46714 18.6622 7.46714 18.6622 7.46714 18.6622C7.46715 18.6622 7.46715 18.6622 7.46715 18.6622C7.46715 18.6622 7.46715 18.6622 7.46715 18.6622C7.46715 18.6622 7.46715 18.6622 7.46715 18.6622C7.46715 18.6622 7.46715 18.6622 7.46715 18.6622C7.46715 18.6622 7.46715 18.6622 7.46715 18.6622C7.46715 18.6622 7.46715 18.6622 7.46716 18.6622C7.46716 18.6622 7.46716 18.6622 7.46716 18.6622C7.46716 18.6622 7.46716 18.6622 7.46716 18.6622C7.46716 18.6622 7.46716 18.6622 7.46716 18.6622C7.46716 18.6622 7.46716 18.6622 7.46716 18.6622C7.46716 18.6622 7.46716 18.6622 7.46716 18.6622C7.46716 18.6622 7.46717 18.6622 7.46717 18.6622C7.46717 18.6622 7.46717 18.6622 7.46717 18.6622C7.46717 18.6622 7.46717 18.6622 7.46717 18.6622C7.46717 18.6622 7.46717 18.6622 7.46717 18.6622C7.46717 18.6622 7.46717 18.6622 7.46717 18.6622C7.46717 18.6622 7.46717 18.6622 7.46718 18.6622C7.46718 18.6622 7.46718 18.6622 7.46718 18.6622C7.46718 18.6622 7.46718 18.6622 7.46718 18.6622C7.46718 18.6622 7.46718 18.6622 7.46718 18.6622C7.46718 18.6622 7.46718 18.6622 7.46718 18.6622C7.46718 18.6622 7.46718 18.6622 7.46718 18.6622C7.46718 18.6622 7.46719 18.6622 7.46719 18.6622C7.46719 18.6622 7.46719 18.6622 7.46719 18.6622C7.46719 18.6622 7.46719 18.6622 7.46719 18.6622C7.46719 18.6622 7.46719 18.6622 7.46719 18.6622C7.46719 18.6622 7.46719 18.6622 7.46719 18.6622C7.46719 18.6622 7.46719 18.6622 7.46719 18.6622C7.4672 18.6622 7.4672 18.6622 7.4672 18.6622C7.4672 18.6622 7.4672 18.6622 7.4672 18.6622C7.4672 18.6622 7.4672 18.6622 7.4672 18.6622C7.4672 18.6622 7.4672 18.6622 7.4672 18.6622C7.4672 18.6622 7.4672 18.6622 7.4672 18.6622C7.4672 18.6622 7.4672 18.6622 7.46721 18.6622C7.46721 18.6622 7.46721 18.6622 7.46721 18.6622C7.46721 18.6622 7.46721 18.6622 7.46721 18.6622C7.46721 18.6622 7.46721 18.6622 7.46721 18.6622C7.46721 18.6622 7.46721 18.6622 7.46721 18.6622C7.46721 18.6622 7.46721 18.6622 7.46721 18.6622C7.46721 18.6622 7.46722 18.6622 7.46722 18.6622C7.46722 18.6622 7.46722 18.6622 7.46722 18.6622C7.46722 18.6622 7.46722 18.6622 7.46722 18.6622C7.46722 18.6622 7.46722 18.6622 7.46722 18.6622C7.46722 18.6622 7.46722 18.6622 7.46722 18.6622C7.46722 18.6622 7.46722 18.6622 7.46722 18.6622C7.46723 18.6622 7.46723 18.6622 7.46723 18.6622C7.46723 18.6622 7.46723 18.6622 7.46723 18.6622C7.46723 18.6622 7.46723 18.6622 7.46723 18.6622C7.46723 18.6622 7.46723 18.6622 7.46723 18.6622C7.46723 18.6622 7.46723 18.6622 7.46723 18.6622C7.46723 18.6622 7.46723 18.6622 7.46724 18.6622C7.46724 18.6622 7.46724 18.6622 7.46724 18.6622C7.46724 18.6622 7.46724 18.6622 7.46724 18.6622C7.46724 18.6622 7.46724 18.6622 7.46724 18.6622C7.46724 18.6622 7.46724 18.6622 7.46724 18.6622C7.46724 18.6622 7.46724 18.6622 7.46724 18.6622C7.46725 18.6622 7.46725 18.6622 7.46725 18.6622C7.46725 18.6622 7.46725 18.6622 7.46725 18.6622C7.46725 18.6622 7.46725 18.6622 7.46725 18.6622C7.46725 18.6622 7.46725 18.6622 7.46725 18.6622C7.46725 18.6622 7.46725 18.6622 7.46725 18.6622C7.46725 18.6622 7.46725 18.6622 7.46726 18.6622C7.46726 18.6622 7.46726 18.6622 7.46726 18.6622C7.46726 18.6622 7.46726 18.6622 7.46726 18.6622C7.46726 18.6622 7.46726 18.6622 7.46726 18.6622C7.46726 18.6622 7.46726 18.6622 7.46726 18.6622C7.46726 18.6622 7.46726 18.6622 7.46726 18.6622C7.46726 18.6622 7.46727 18.6622 7.46727 18.6622C7.46727 18.6622 7.46727 18.6622 7.46727 18.6622C7.46727 18.6622 7.46727 18.6622 7.46727 18.6622C7.46727 18.6622 7.46727 18.6622 7.46727 18.6622C7.46727 18.6622 7.46727 18.6622 7.46727 18.6622C7.46727 18.6622 7.46727 18.6622 7.46727 18.6622C7.46728 18.6622 7.46728 18.6622 7.46728 18.6622C7.46728 18.6622 7.46728 18.6622 7.46728 18.6622C7.46728 18.6622 7.46728 18.6622 7.46728 18.6622C7.46728 18.6622 7.46728 18.6622 7.46728 18.6622C7.46728 18.6622 7.46728 18.6622 7.46728 18.6622C7.46728 18.6622 7.46728 18.6622 7.46729 18.6622C7.46729 18.6622 7.46729 18.6622 7.46729 18.6622C7.46729 18.6622 7.46729 18.6622 7.46729 18.6622C7.46729 18.6622 7.46729 18.6622 7.46729 18.6622C7.46729 18.6622 7.46729 18.6622 7.46729 18.6622C7.46729 18.6622 7.46729 18.6622 7.46729 18.6622C7.46729 18.6622 7.4673 18.6622 7.4673 18.6622C7.4673 18.6622 7.4673 18.6622 7.4673 18.6622C7.4673 18.6622 7.4673 18.6622 7.4673 18.6622C7.4673 18.6622 7.4673 18.6622 7.4673 18.6622C7.4673 18.6622 7.4673 18.6622 7.4673 18.6622C7.4673 18.6622 7.4673 18.6622 7.4673 18.6622C7.46731 18.6622 7.46731 18.6622 7.46731 18.6622C7.46731 18.6622 7.46731 18.6622 7.46731 18.6622C7.46731 18.6622 7.46731 18.6622 7.46731 18.6622C7.46731 18.6622 7.46731 18.6622 7.46731 18.6622C7.46731 18.6622 7.46731 18.6622 7.46731 18.6622C7.46731 18.6622 7.46731 18.6622 7.46732 18.6622C7.46732 18.6622 7.46732 18.6622 7.46732 18.6622C7.46732 18.6622 7.46732 18.6622 7.46732 18.6622C7.46732 18.6622 7.46732 18.6622 7.46732 18.6622C7.46732 18.6622 7.46732 18.6622 7.46732 18.6622C7.46732 18.6622 7.46732 18.6622 7.46732 18.6622C7.46732 18.6622 7.46733 18.6622 7.46733 18.6622C7.46733 18.6622 7.46733 18.6622 7.46733 18.6622C7.46733 18.6622 7.46733 18.6622 7.46733 18.6622C7.46733 18.6622 7.46733 18.6622 7.46733 18.6622C7.46733 18.6622 7.46733 18.6622 7.46733 18.6622C7.46733 18.6622 7.46733 18.6622 7.46733 18.6622C7.46734 18.6622 7.46734 18.6622 7.46734 18.6622C7.46734 18.6622 7.46734 18.6622 7.46734 18.6622C7.46734 18.6622 7.46734 18.6622 7.46734 18.6622C7.46734 18.6622 7.46734 18.6622 7.46734 18.6622C7.46734 18.6622 7.46734 18.6622 7.46734 18.6622C7.46734 18.6622 7.46734 18.6622 7.46735 18.6622C7.46735 18.6622 7.46735 18.6622 7.46735 18.6622C7.46735 18.6622 7.46735 18.6622 7.46735 18.6622C7.46735 18.6622 7.46735 18.6622 7.46735 18.6622C7.46735 18.6622 7.46735 18.6622 7.46735 18.6622C7.46735 18.6622 7.46735 18.6622 7.46735 18.6622C7.46735 18.6622 7.46736 18.6622 7.46736 18.6622C7.46736 18.6622 7.46736 18.6622 7.46736 18.6622C7.46736 18.6622 7.46736 18.6622 7.46736 18.6622C7.46736 18.6622 7.46736 18.6622 7.46736 18.6622C7.46736 18.6622 7.46736 18.6622 7.46736 18.6622C7.46736 18.6622 7.46736 18.6622 7.46737 18.6622C7.46737 18.6622 7.46737 18.6622 7.46737 18.6622C7.46737 18.6622 7.46737 18.6622 7.46737 18.6622C7.46737 18.6622 7.46737 18.6622 7.46737 18.6622C7.46737 18.6622 7.46737 18.6622 7.46737 18.6622C7.46737 18.6622 7.46737 18.6622 7.46737 18.6622C7.46737 18.6622 7.46738 18.6622 7.46738 18.6622C7.46738 18.6622 7.46738 18.6622 7.46738 18.6622C7.46738 18.6622 7.46738 18.6622 7.46738 18.6622C7.46738 18.6622 7.46738 18.6622 7.46738 18.6622C7.46738 18.6622 7.46738 18.6622 7.46738 18.6622C7.46738 18.6622 7.46738 18.6622 7.46738 18.6622C7.46739 18.6622 7.46739 18.6622 7.46739 18.6622C7.46739 18.6622 7.46739 18.6622 7.46739 18.6622C7.46739 18.6622 7.46739 18.6622 7.46739 18.6622C7.46739 18.6622 7.46739 18.6622 7.46739 18.6622C7.46739 18.6622 7.46739 18.6622 7.46739 18.6622C7.46739 18.6622 7.46739 18.6622 7.4674 18.6622C7.4674 18.6622 7.4674 18.6622 7.4674 18.6622C7.4674 18.6622 7.4674 18.6622 7.4674 18.6622C7.4674 18.6622 7.4674 18.6622 7.4674 18.6622C7.4674 18.6622 7.4674 18.6622 7.4674 18.6622C7.4674 18.6622 7.4674 18.6622 7.4674 18.6622C7.4674 18.6622 7.46741 18.6622 7.46741 18.6622C7.46741 18.6622 7.46741 18.6622 7.46741 18.6622C7.46741 18.6622 7.46741 18.6622 7.46741 18.6622C7.46741 18.6622 7.46741 18.6622 7.46741 18.6622C7.46741 18.6622 7.46741 18.6622 7.46741 18.6622C7.46741 18.6622 7.46741 18.6622 7.46741 18.6622C7.46742 18.6622 7.46742 18.6622 7.46742 18.6622C7.46742 18.6622 7.46742 18.6622 7.46742 18.6622C7.46742 18.6622 7.46742 18.6622 7.46742 18.6622C7.46742 18.6622 7.46742 18.6622 7.46742 18.6622C7.46742 18.6622 7.46742 18.6622 7.46742 18.6622C7.46742 18.6622 7.46742 18.6622 7.46743 18.6622C7.46743 18.6622 7.46743 18.6622 7.46743 18.6622C7.46743 18.6622 7.46743 18.6622 7.46743 18.6622C7.46743 18.6622 7.46743 18.6622 7.46743 18.6622C7.46743 18.6622 7.46743 18.6622 7.46743 18.6622C7.46743 18.6622 7.46743 18.6622 7.46743 18.6622C7.46743 18.6622 7.46744 18.6622 7.46744 18.6622C7.46744 18.6622 7.46744 18.6622 7.46744 18.6622C7.46744 18.6622 7.46744 18.6622 7.46744 18.6622C7.46744 18.6622 7.46744 18.6622 7.46744 18.6622C7.46744 18.6622 7.46744 18.6622 7.46744 18.6622C7.46744 18.6622 7.46744 18.6622 7.46744 18.6622C7.46745 18.6622 7.46745 18.6622 7.46745 18.6622C7.46745 18.6622 7.46745 18.6622 7.46745 18.6622C7.46745 18.6622 7.46745 18.6622 7.46745 18.6622C7.46745 18.6622 7.46745 18.6622 7.46745 18.6622C7.46745 18.6622 7.46745 18.6622 7.46745 18.6622C7.46745 18.6622 7.46745 18.6622 7.46746 18.6622C7.46746 18.6622 7.46746 18.6622 7.46746 18.6622C7.46746 18.6622 7.46746 18.6622 7.46746 18.6622C7.46746 18.6622 7.46746 18.6622 7.46746 18.6622C7.46746 18.6622 7.46746 18.6622 7.46746 18.6622C7.46746 18.6622 7.46746 18.6622 7.46746 18.6622C7.46746 18.6622 7.46747 18.6622 7.46747 18.6622C7.46747 18.6622 7.46747 18.6622 7.46747 18.6622C7.46747 18.6622 7.46747 18.6622 7.46747 18.6622C7.46747 18.6622 7.46747 18.6622 7.46747 18.6622C7.46747 18.6622 7.46747 18.6622 7.46747 18.6622C7.46747 18.6622 7.46747 18.6622 7.46747 18.6622C7.46748 18.6622 7.46748 18.6622 7.46748 18.6622C7.46748 18.6622 7.46748 18.6622 7.46748 18.6622C7.46748 18.6622 7.46748 18.6622 7.46748 18.6622C7.46748 18.6622 7.46748 18.6622 7.46748 18.6622C7.46748 18.6622 7.46748 18.6622 7.46748 18.6622C7.46748 18.6622 7.46748 18.6622 7.46749 18.6622C7.46749 18.6622 7.46749 18.6622 7.46749 18.6622C7.46749 18.6622 7.46749 18.6622 7.46749 18.6622C7.46749 18.6622 7.46749 18.6622 7.46749 18.6622C7.46749 18.6622 7.46749 18.6622 7.46749 18.6622C7.46749 18.6622 7.46749 18.6622 7.46749 18.6622C7.4675 18.6622 7.4675 18.6622 7.4675 18.6622C7.4675 18.6622 7.4675 18.6622 7.4675 18.6622C7.4675 18.6622 7.4675 18.6622 7.4675 18.6622C7.4675 18.6622 7.4675 18.6622 7.4675 18.6622C7.4675 18.6622 7.4675 18.6622 7.4675 18.6622C7.4675 18.6622 7.4675 18.6622 7.46751 18.6622C7.46751 18.6622 7.46751 18.6622 7.46751 18.6622C7.46751 18.6622 7.46751 18.6622 7.46751 18.6622C7.46751 18.6622 7.46751 18.6622 7.46751 18.6622C7.46751 18.6622 7.46751 18.6622 7.46751 18.6622C7.46751 18.6622 7.46751 18.6622 7.46751 18.6622C7.46751 18.6622 7.46752 18.6622 7.46752 18.6622V-12.2614ZM7.46661 -12.2614H3.73376V18.6622H7.46661V-12.2614ZM19.1956 16.0018V3.20036H-11.728V16.0018H19.1956ZM0 31.4636H3.73376V0.540024H0V31.4636ZM-15.4618 1.34345e-08V16.0018H15.4618V1.34345e-08H-15.4618ZM7.46661 -15.4618H0V15.4618H7.46661V-15.4618Z" fill="white" mask="url(#path-1-inside-1_1172_10446)"/>
<circle cx="5.73412" cy="6.93407" r="1.33349" fill="white"/>
<circle cx="9.70751" cy="6.93407" r="1.33349" fill="white"/>
</svg>
