<svg width="48" height="38" viewBox="0 0 48 38" fill="none" xmlns="http://www.w3.org/2000/svg">
<path d="M16.17 23.1535C13.83 23.1535 11.922 21.0272 11.922 18.4262C11.922 15.823 13.7828 13.6967 16.1723 13.6967C18.5348 13.6967 20.4698 15.823 20.4225 18.4262C20.4225 21.0272 18.5348 23.1535 16.17 23.1535ZM31.8615 23.1512C29.5215 23.1512 27.609 21.025 27.609 18.424C27.609 15.8207 29.4743 13.6945 31.8615 13.6945C34.224 13.6945 36.159 15.8207 36.114 18.424C36.114 21.025 34.2488 23.1512 31.8615 23.1512ZM19.7813 1.72225L19.0883 0.455498L17.6618 0.693998C14.4289 1.23306 11.2826 2.20163 8.30629 3.574L7.79329 3.81025L7.47379 4.28275C1.59454 12.952 -0.0187131 21.4907 0.780037 29.8765L0.867787 30.7922L1.61029 31.3323C5.06899 33.87 8.93196 35.8045 13.0358 37.054L14.8133 37.5985L17.3175 31.4875C21.615 32.5495 26.385 32.5495 30.6803 31.4875L33.171 37.6007L34.9485 37.0562C39.0557 35.8095 42.9208 33.8731 46.3785 31.33L47.1143 30.7945L47.2043 29.89C48.1853 20.17 45.636 11.7032 40.5488 4.276L40.2293 3.808L39.7163 3.574C36.7407 2.20787 33.5982 1.23955 30.3698 0.693998L28.9793 0.462248L28.2728 1.68175C28.0748 2.01925 27.8745 2.40175 27.681 2.791C25.2403 2.53887 22.78 2.53887 20.3393 2.791C20.148 2.4085 19.9568 2.0395 19.7813 1.72225ZM12.1088 29.3725C12.552 29.629 13.02 29.881 13.4813 30.1105L12.471 32.5765C9.73859 31.5805 7.14616 30.2359 4.75804 28.576C4.25179 21.5155 5.68729 14.3897 10.527 7.0435C12.5695 6.14397 14.6986 5.45564 16.881 4.98925C17.016 5.2705 17.142 5.54725 17.2455 5.79025L17.8598 7.237L19.4168 7.00975C22.468 6.56274 25.5681 6.56274 28.6193 7.00975L30.1718 7.23475L30.7838 5.79025C30.8895 5.53825 31.0133 5.26375 31.1438 4.98925C33.342 5.46175 35.4705 6.15925 37.5068 7.048C41.7255 13.393 43.854 20.4715 43.2353 28.5737C40.8474 30.2373 38.2531 31.5828 35.5178 32.5765L34.5165 30.1127C34.98 29.8832 35.448 29.6313 35.8958 29.3725C36.9983 28.738 38.184 27.946 38.94 27.19L36.06 24.31C35.6933 24.679 34.8833 25.255 33.8618 25.8445C32.8628 26.4205 31.8705 26.8862 31.236 27.0955C26.7293 28.5872 21.273 28.5872 16.764 27.0955C16.1318 26.8862 15.1395 26.4205 14.1405 25.8445C13.119 25.2572 12.309 24.679 11.94 24.31L9.06004 27.19C9.81829 27.946 11.0063 28.738 12.1088 29.3725Z" fill="#86F097"/>
</svg>
