<svg width="16" height="16" viewBox="0 0 16 16" fill="none" xmlns="http://www.w3.org/2000/svg">
<path fill-rule="evenodd" clip-rule="evenodd" d="M0.318191 9.17246L7.23182 15.6996C7.65607 16.1001 8.34393 16.1001 8.76818 15.6996L15.6818 9.17246C16.1061 8.77192 16.1061 8.12252 15.6818 7.72198C15.2576 7.32144 14.5697 7.32144 14.1454 7.72198L9.08637 12.4982L9.08637 1.02564C9.08637 0.459195 8.59999 3.75917e-07 8 3.49691e-07C7.40001 3.23465e-07 6.91363 0.459195 6.91363 1.02564L6.91363 12.4982L1.85455 7.72198C1.4303 7.32144 0.742445 7.32144 0.318191 7.72198C-0.106064 8.12252 -0.106064 8.77192 0.318191 9.17246Z" fill="#1A1A1A"/>
</svg>
