<?xml version="1.0" standalone="no"?><!DOCTYPE svg PUBLIC "-//W3C//DTD SVG 1.1//EN" "http://www.w3.org/Graphics/SVG/1.1/DTD/svg11.dtd"><svg t="1715762113502" class="icon" viewBox="0 0 1024 1024" version="1.1" xmlns="http://www.w3.org/2000/svg" p-id="1535" xmlns:xlink="http://www.w3.org/1999/xlink" width="20" height="20"><path d="M782.50672 156.372796a359.173804 359.173804 0 0 0-118.005037-117.037783A352.080605 352.080605 0 0 0 508.451305 0a325.964736 325.964736 0 0 0-204.09068 75.768262A340.151134 340.151134 0 0 0 218.597401 206.992443 301.138539 301.138539 0 0 0 202.154076 326.609572 326.93199 326.93199 0 0 0 236.652816 451.38539s17.732997 37.722922 43.848867 92.856424C358.526872 709.319899 503.292615 1018.518892 506.516796 1022.065491a4.513854 4.513854 0 0 0 3.546599 1.934509c2.256927 0 3.869018-2.579345 4.191436-2.901763 10.962217-23.536524 275.345088-576.161209 278.246852-585.188917a37.078086 37.078086 0 0 1 3.224181-7.415617 259.869018 259.869018 0 0 0 24.18136-86.408061A292.110831 292.110831 0 0 0 782.50672 156.372796zM241.16667 357.561713c-3.869018-17.088161-10.639798-58.035264 11.607053-68.352645a43.526448 43.526448 0 0 1 9.350126 0c20.957179 0 48.685139 18.377834 64.483627 74.801008 11.607053 43.848866 85.763224 315.647355 125.743073 461.70277 15.153652 56.423174 25.471033 93.823678 25.793451 95.11335-3.224181-7.738035-236.654912-561.329975-236.97733-563.264483zM492.330398 911.798489c0-5.481108-123.163728-548.110831-124.130982-554.881612a73.188917 73.188917 0 0 1 47.395466-78.992444H427.846771a73.511335 73.511335 0 0 1 64.483627 79.959698v553.914358z m32.241814-551.012595a78.025189 78.025189 0 0 1 60.614609-83.506297H589.055839a58.357683 58.357683 0 0 1 47.717884 25.793451 79.63728 79.63728 0 0 1 11.607053 54.811083c-8.382872 52.876574-121.874055 548.110831-122.84131 553.59194C524.572212 856.020151 524.572212 372.715365 524.572212 360.785894z m238.911838 28.050378a25.148615 25.148615 0 0 1 0 4.513854c-1.612091 5.803526-207.959698 519.738035-209.894206 524.574307 0-5.481108 128.967254-523.607053 146.055415-580.352645A64.483627 64.483627 0 0 1 750.264907 287.919395a26.438287 26.438287 0 0 1 20.634761 9.027708c17.732997 29.984887-1.289673 76.735516-7.738036 91.889169z" fill="#687c69" p-id="1536"></path></svg>