<svg width="16" height="16" viewBox="0 0 16 16" fill="none" xmlns="http://www.w3.org/2000/svg">
<g clip-path="url(#clip0_2406_19568)">
<path d="M7.71822 15.7134C7.47083 15.4631 1.67285 9.53916 1.67285 6.21354C1.70392 4.556 2.38418 2.97683 3.56738 1.8156C4.75058 0.654372 6.34221 0.0038147 8.00004 0.0038147C9.65788 0.0038147 11.2495 0.654372 12.4327 1.8156C13.6159 2.97683 14.2962 4.556 14.3272 6.21354C14.3188 6.58775 14.2592 6.95905 14.1502 7.31714C14.111 7.46528 14.105 7.48898 14.0717 7.59267C12.8933 11.0131 8.47 15.5238 8.28187 15.7134L8.00041 16L7.71822 15.7134ZM4.33705 5.74396C3.91019 5.74045 3.4986 5.90256 3.18879 6.19621C2.87897 6.48987 2.69507 6.89219 2.67572 7.31862C3.48676 9.76284 6.22354 12.9477 7.36418 14.2069L7.83895 14.7861L7.62563 14.0632C6.93494 11.7484 6.37655 9.39616 5.9532 7.01791C5.86593 6.6549 5.65908 6.33181 5.36594 6.1006C5.0728 5.86939 4.7104 5.74351 4.33705 5.74321V5.74396ZM11.6934 5.74396C11.3263 5.74264 10.9692 5.86304 10.6778 6.08631C10.3865 6.30958 10.1774 6.62314 10.0832 6.97791C10.0647 7.9519 8.69146 13.0085 8.41667 14.0143L8.19447 14.7861L8.68109 14.1587C9.82765 12.89 12.5763 9.68211 13.3414 7.30751C13.3215 6.88454 13.139 6.48561 12.8319 6.19409C12.5247 5.90257 12.1168 5.74103 11.6934 5.74321V5.74396ZM8.01523 13.3795L8.19373 12.6544C8.19373 12.6544 9.06032 8.48 9.24252 7.42824L9.24919 7.39047L9.26622 7.23197C9.27756 7.13882 9.28325 7.04508 9.28326 6.95125C9.26738 6.62891 9.12954 6.32466 8.89768 6.10016C8.66582 5.87567 8.35728 5.74773 8.03459 5.74226C7.7119 5.7368 7.39921 5.85423 7.15988 6.07074C6.92055 6.28726 6.77249 6.58667 6.74572 6.90829C6.74739 7.06698 6.762 7.22527 6.78941 7.38158M8.01523 4.97514C8.32814 4.97511 8.63695 5.04633 8.91825 5.18338C9.19955 5.32044 9.44595 5.51974 9.63878 5.76618L9.75136 5.90764L9.87283 5.77432C10.2945 5.3162 10.8732 5.03374 11.4938 4.98323C12.1144 4.93271 12.7312 5.11785 13.2214 5.50176L13.531 5.74544L13.4681 5.35658C13.2549 4.0645 12.5865 2.89132 11.5837 2.0491C10.5809 1.20688 9.3099 0.751191 8.00041 0.764416C6.68922 0.764152 5.42027 1.22814 4.4185 2.07413C3.41673 2.92012 2.74685 4.09348 2.52759 5.38621L2.46537 5.78247L2.77719 5.5299C3.26665 5.13385 3.88857 4.93907 4.5165 4.98516C5.14443 5.03125 5.73124 5.31475 6.15762 5.77803L6.27909 5.91135L6.39242 5.76988C6.58517 5.52354 6.83145 5.3243 7.11261 5.18725C7.39378 5.0502 7.70244 4.97893 8.01523 4.97884V4.97514ZM14.3272 6.2091C14.3188 6.58331 14.2592 6.95461 14.1502 7.3127C14.1117 7.46083 14.1087 7.47935 14.0717 7.58823" fill="#687C69"/>
</g>
<defs>
<clipPath id="clip0_2406_19568">
<rect width="16" height="16" fill="white"/>
</clipPath>
</defs>
</svg>
