 <svg width="40" height="40" viewBox="0 0 40 40" fill="none" xmlns="http://www.w3.org/2000/svg">
<g clip-path="url(#clip0_2660_24097)">
<path d="M20 40C31.0457 40 40 31.0457 40 20C40 8.9543 31.0457 0 20 0C8.9543 0 0 8.9543 0 20C0 31.0457 8.9543 40 20 40Z" fill="#7A57DD"/>
<path d="M19.9978 6.66663V16.5222L28.3278 20.2444L19.9978 6.66663Z" fill="white" fill-opacity="0.602"/>
<path d="M19.9979 6.66663L11.6667 20.2444L19.9979 16.5222V6.66663Z" fill="white"/>
<path d="M19.9978 26.6311V33.3278L28.3334 21.7955L19.9978 26.6311Z" fill="white" fill-opacity="0.602"/>
<path d="M19.9979 33.3278V26.63L11.6667 21.7955L19.9979 33.3278Z" fill="white"/>
<path d="M19.9978 25.0811L28.3278 20.2444L19.9978 16.5244V25.0811Z" fill="white" fill-opacity="0.2"/>
<path d="M11.6667 20.2444L19.9979 25.0811V16.5244L11.6667 20.2444Z" fill="white" fill-opacity="0.602"/>
</g>
<defs>
<clipPath id="clip0_2660_24097">
<rect width="40" height="40" fill="white"/>
</clipPath>
</defs>
</svg>
