<svg width="24" height="24" viewBox="0 0 24 24" fill="none" xmlns="http://www.w3.org/2000/svg">
<path d="M23.6433 14.8962C22.042 21.3208 15.5349 25.244 9.0985 23.6417C2.67383 22.0356 -1.24298 15.5285 0.358284 9.1038C1.95955 2.67916 8.46271 -1.24396 14.8835 0.358273C21.3238 1.94087 25.2406 8.46762 23.6433 14.8962Z" fill="#ECEFF0"/>
<path d="M12.1399 14.9109C12.0933 14.9268 12.0667 14.8862 12.035 14.8676C10.4809 13.9504 8.92857 13.0325 7.37792 12.1141C7.36631 12.1082 7.35436 12.1031 7.34213 12.0986C7.33572 12.0963 7.3313 12.0903 7.3313 12.0835C7.3313 12.0779 7.33429 12.0727 7.33916 12.0699L7.35363 12.0616C7.35707 12.0596 7.36075 12.0581 7.36458 12.0571C7.40165 12.0471 7.43817 12.0352 7.47397 12.0213L11.1361 10.355C11.4612 10.2069 11.7863 10.061 12.1114 9.91428C12.1139 9.91316 12.1166 9.91258 12.1193 9.91258C12.1299 9.91258 12.1385 9.92117 12.1385 9.93176C12.1385 9.9708 12.1385 10.0069 12.1385 10.045C12.1397 11.6671 12.1402 13.2891 12.1399 14.9109Z" fill="#343535"/>
<path d="M12.1422 9.91371C12.1293 9.91371 12.1189 9.90327 12.1192 9.8904C12.1203 9.85149 12.1236 9.81231 12.1236 9.77151C12.1236 7.94952 12.1236 6.12738 12.1236 4.30508C12.1184 4.2602 12.1211 4.21479 12.1315 4.17087C12.1323 4.16754 12.1353 4.16521 12.1387 4.16521C12.1412 4.16521 12.1435 4.16644 12.1449 4.1685C12.3356 4.45052 12.5019 4.74772 12.6774 5.03891C14.0736 7.35478 15.469 9.67034 16.8636 11.9856C16.8803 12.0138 16.8535 12.0467 16.8222 12.0367C16.8094 12.0326 16.7966 12.0281 16.7839 12.0234C16.528 11.9077 16.2711 11.7902 16.0174 11.6723C15.6202 11.4905 15.2228 11.309 14.8253 11.1277L12.9101 10.2601C12.6551 10.1426 12.3986 10.0284 12.1422 9.91371Z" fill="#2F3030"/>
<path d="M12.133 4.15947C12.1339 4.16163 12.1341 4.16404 12.1336 4.16632C12.1227 4.21091 12.1199 4.25707 12.1251 4.30267C12.1251 6.12466 12.1251 7.9468 12.1251 9.7691C12.1251 9.85628 12.0702 9.93398 11.9907 9.96981C11.7076 10.0975 11.4245 10.2247 11.1414 10.3537L7.47921 12.02C7.43472 12.0373 7.39649 11.9915 7.41909 11.9494C7.51515 11.7708 7.62821 11.6028 7.73284 11.427C9.18589 9.01165 10.64 6.59678 12.0953 4.18238C12.1016 4.17351 12.1084 4.16491 12.1155 4.1566C12.1205 4.15065 12.13 4.15228 12.133 4.15947Z" fill="#828384"/>
<path d="M12.1422 9.91371C12.3986 10.0284 12.6551 10.1427 12.9111 10.2583L14.8263 11.1259C15.2242 11.3068 15.6215 11.4883 16.0185 11.6705C16.2739 11.7875 16.5313 11.9059 16.7849 12.0215C16.7873 12.0224 16.7897 12.0233 16.7921 12.0242C16.861 12.0494 16.9205 12.091 16.8577 12.1288C16.46 12.3665 16.0604 12.601 15.6618 12.837C14.5177 13.5139 13.3739 14.1907 12.2304 14.8673C12.2015 14.8841 12.1702 14.8965 12.1399 14.9109C12.1399 13.2894 12.14 11.668 12.14 10.0462C12.1404 10.0019 12.1417 9.958 12.1422 9.91371Z" fill="#131313"/>
<path d="M12.1241 19.2622C12.1244 17.1368 13.2476 15.1695 15.0786 14.0903L15.119 14.0665C15.6909 13.7289 16.2625 13.3911 16.8337 13.0529C16.8584 13.0393 16.8868 13.0569 16.8717 13.0806C16.8618 13.0962 16.8487 13.1092 16.8389 13.1228C15.5335 14.9631 14.228 16.8029 12.9226 18.6419C12.6755 18.9907 12.4289 19.3413 12.1795 19.6872C12.1762 19.6917 12.1725 19.7004 12.1682 19.7095C12.1429 19.7628 12.124 19.6661 12.124 19.607C12.124 19.4921 12.124 19.3771 12.1241 19.2622Z" fill="#2F3030"/>
<path d="M12.0449 15.7796C12.0949 15.8107 12.1233 15.8678 12.1233 15.9267C12.1233 17.153 12.1233 18.3791 12.1233 19.6049C12.1233 19.6651 12.0696 19.678 12.0341 19.6294C12.01 19.5964 11.9902 19.5598 11.9657 19.5271C10.452 17.3949 8.93913 15.2624 7.42702 13.1296C7.4252 13.127 7.42339 13.1244 7.42159 13.1218C7.39284 13.0801 7.41001 13.0399 7.4536 13.0657C8.98435 13.9696 10.5148 14.8742 12.0449 15.7796Z" fill="#828384"/>
<path d="M12.1382 4.16229C12.1361 4.16259 12.134 4.16165 12.1329 4.15989L12.1304 4.15609C12.1267 4.15027 12.1283 4.14072 12.1352 4.14113C12.1411 4.14147 12.142 4.14851 12.1432 4.15509C12.1437 4.1584 12.1415 4.16182 12.1382 4.16229Z" fill="#393939"/>
</svg>
