<svg width="40" height="40" viewBox="0 0 40 40" fill="none" xmlns="http://www.w3.org/2000/svg">
<path d="M39.4055 24.827C36.7367 35.5347 25.8916 42.0733 15.1642 39.4029C4.45639 36.7259 -2.07163 25.8808 0.597141 15.173C3.26591 4.46526 14.1045 -2.07327 24.8058 0.597122C35.5397 3.23479 42.0677 14.1127 39.4055 24.827Z" fill="#ECEFF0"/>
<path d="M20.2331 24.8515C20.1554 24.878 20.1111 24.8104 20.0583 24.7793C17.4681 23.2506 14.8809 21.7209 12.2965 20.1901C12.2714 20.1775 12.2454 20.1668 12.2188 20.1583V20.1241L12.2646 20.0976C12.3297 20.0806 12.3938 20.0598 12.4565 20.0355L18.5601 17.2584C19.1041 17.0105 19.648 16.7665 20.1919 16.521H20.2308C20.2308 16.5987 20.2308 16.6678 20.2308 16.7416C20.2328 19.4452 20.2336 22.1485 20.2331 24.8515Z" fill="#343535"/>
<path d="M20.2369 16.5228H20.1981C20.1981 16.4451 20.2059 16.3674 20.2059 16.2859C20.2059 13.2492 20.2059 10.2123 20.2059 7.17513C20.1969 7.09713 20.2022 7.01815 20.2214 6.94202H20.2377C20.5571 7.41368 20.8353 7.91098 21.129 8.39818C23.4559 12.258 25.7816 16.1172 28.106 19.976C28.1285 20.0141 28.1464 20.0537 28.1666 20.0957C28.1008 20.0816 28.0361 20.0626 27.9731 20.0389C27.5465 19.8462 27.1184 19.6504 26.6957 19.4538C26.0336 19.1508 25.3713 18.8483 24.7088 18.5462L21.5167 17.1002C21.0917 16.9044 20.6643 16.714 20.2369 16.5228Z" fill="#2F3030"/>
<path d="M20.224 6.938C20.2048 7.01413 20.1995 7.09311 20.2084 7.17111C20.2084 10.2078 20.2084 13.2447 20.2084 16.2818C20.2084 16.3595 20.2038 16.4372 20.2007 16.5188C19.6567 16.7644 19.1128 17.0084 18.5689 17.2562L12.4653 20.0334C12.4025 20.0577 12.3384 20.0784 12.2733 20.0955C12.4497 19.7288 12.679 19.3962 12.888 19.045C15.3097 15.0194 17.7333 10.9946 20.1587 6.97064C20.1747 6.94835 20.1921 6.92707 20.2108 6.90692L20.224 6.938Z" fill="#828384"/>
<path d="M20.2369 16.5228C20.6643 16.714 21.0918 16.9044 21.5184 17.0971L24.7105 18.5432C25.3735 18.8447 26.0358 19.1472 26.6973 19.4508C27.1232 19.6458 27.5521 19.8432 27.9748 20.0359C28.0378 20.0596 28.1024 20.0786 28.1683 20.0926C28.246 20.1897 28.131 20.1936 28.096 20.2146C27.4332 20.6109 26.7673 21.0017 26.1029 21.3949C24.1961 22.5232 22.2897 23.6512 20.3839 24.7789C20.3358 24.8069 20.2836 24.8275 20.2331 24.8515C20.2331 22.149 20.2332 19.4466 20.2332 16.7436C20.234 16.6698 20.2362 16.5967 20.2369 16.5228Z" fill="#131313"/>
<path d="M20.2058 26.3867L25.1982 23.4441C26.1514 22.8815 27.104 22.3184 28.0562 21.7548L28.1424 21.7074C28.151 21.7851 28.0973 21.8263 28.0647 21.8714C25.889 24.9386 23.7133 28.0048 21.5376 31.0699C21.1258 31.6511 20.7147 32.2354 20.299 32.812C20.2773 32.8423 20.2439 32.9845 20.177 32.8338C20.2299 32.7887 20.2066 32.7281 20.2066 32.6784C20.2071 30.5804 20.2068 28.4831 20.2058 26.3867Z" fill="#2F3030"/>
<path d="M20.2054 26.3871C20.2054 28.4835 20.2054 30.5795 20.2054 32.6749C20.2054 32.7285 20.2287 32.7891 20.1758 32.8303C20.0647 32.7634 20.0165 32.6438 19.9427 32.5451C17.4199 28.9915 14.8985 25.4373 12.3783 21.8826C12.3464 21.8376 12.3169 21.7894 12.2843 21.7397C12.3495 21.7016 12.3845 21.7537 12.4226 21.7762C14.9738 23.2826 17.5246 24.7903 20.0748 26.2993C20.1222 26.3288 20.1626 26.3591 20.2054 26.3871Z" fill="#828384"/>
<path d="M20.2245 6.93796L20.2059 6.90921C20.2401 6.88745 20.2354 6.91931 20.2409 6.93563L20.2245 6.93796Z" fill="#393939"/>
</svg>
