<svg width="12" height="12" viewBox="0 0 12 12" fill="none" xmlns="http://www.w3.org/2000/svg">
<path fill-rule="evenodd" clip-rule="evenodd" d="M0.238643 6.87934L5.42386 11.7747C5.74205 12.0751 6.25794 12.0751 6.57614 11.7747L11.7614 6.87934C12.0795 6.57894 12.0795 6.09189 11.7614 5.79149C11.4432 5.49108 10.9273 5.49108 10.6091 5.79149L6.81478 9.37368L6.81478 0.769231C6.81478 0.344397 6.44999 2.81938e-07 6 2.62268e-07C5.55001 2.42599e-07 5.18522 0.344397 5.18522 0.769231L5.18522 9.37368L1.39091 5.79149C1.07272 5.49108 0.556834 5.49108 0.238643 5.79149C-0.079548 6.09189 -0.079548 6.57894 0.238643 6.87934Z" fill="#86F097"/>
</svg>
