<svg width="14" height="18" viewBox="0 0 14 18" fill="none" xmlns="http://www.w3.org/2000/svg">
<path d="M13.2205 7.06513C12.7929 7.06513 12.443 7.43344 12.443 7.8836V12.2706C12.443 13.171 11.7432 13.9076 10.8878 13.9076H2.6534L3.65646 12.8518C3.72845 12.776 3.78556 12.686 3.82452 12.587C3.86348 12.488 3.88353 12.3819 3.88353 12.2747C3.88353 12.1676 3.86348 12.0615 3.82452 11.9625C3.78556 11.8635 3.72845 11.7735 3.65646 11.6977C3.58447 11.6219 3.49901 11.5618 3.40495 11.5208C3.3109 11.4798 3.21009 11.4587 3.10828 11.4587C3.00647 11.4587 2.90566 11.4798 2.8116 11.5208C2.71755 11.5618 2.63208 11.6219 2.56009 11.6977L0.227395 14.1532C0.155312 14.2289 0.0981233 14.3188 0.0591038 14.4178C0.0200844 14.5168 0 14.623 0 14.7302C0 14.8374 0.0200844 14.9435 0.0591038 15.0425C0.0981233 15.1415 0.155312 15.2315 0.227395 15.3072L2.56009 17.7626C2.71561 17.9182 2.91 18 3.11217 18C3.31433 18 3.50873 17.9182 3.66424 17.7626C3.73632 17.6869 3.79351 17.597 3.83253 17.498C3.87155 17.399 3.89163 17.2928 3.89163 17.1856C3.89163 17.0784 3.87155 16.9723 3.83253 16.8733C3.79351 16.7742 3.73632 16.6843 3.66424 16.6086L2.6534 15.5446H10.8878C12.6063 15.5446 13.9981 14.0795 13.9981 12.2706V7.8836C13.9981 7.42526 13.6482 7.06513 13.2205 7.06513ZM0.779467 10.9283C1.20713 10.9283 1.55703 10.56 1.55703 10.1099V5.72282C1.55703 4.82249 2.25684 4.08586 3.11217 4.08586H11.3466L10.3435 5.1417C10.2715 5.21742 10.2143 5.30736 10.1752 5.40638C10.1362 5.50539 10.1161 5.61153 10.1161 5.71873C10.1161 5.82592 10.1362 5.93207 10.1752 6.03108C10.2143 6.13009 10.2715 6.22004 10.3435 6.29576C10.4913 6.45945 10.6857 6.5413 10.8878 6.5413C11.09 6.5413 11.2844 6.45945 11.4399 6.30394L13.7726 3.8485C13.8447 3.77278 13.9019 3.68284 13.9409 3.58383C13.9799 3.48481 14 3.37867 14 3.27148C14 3.16428 13.9799 3.05814 13.9409 2.95912C13.9019 2.86011 13.8447 2.77017 13.7726 2.69445L11.4399 0.239013C11.3679 0.163236 11.2825 0.103127 11.1884 0.0621173C11.0943 0.0211075 10.9935 2.25831e-09 10.8917 0C10.7899 -2.25831e-09 10.6891 0.0211075 10.595 0.0621173C10.501 0.103127 10.4155 0.163236 10.3435 0.239013C10.2715 0.314789 10.2144 0.404749 10.1755 0.503755C10.1365 0.602762 10.1165 0.708876 10.1165 0.81604C10.1165 0.923204 10.1365 1.02932 10.1755 1.12833C10.2144 1.22733 10.2715 1.31729 10.3435 1.39307L11.3466 2.44891H3.11217C1.39374 2.44891 0.0019004 3.91398 0.0019004 5.72282V10.1099C0.0019004 10.5682 0.351805 10.9283 0.779467 10.9283Z" fill="#86F097"/>
</svg>
