<svg width="12" height="12" viewBox="0 0 12 12" fill="none" xmlns="http://www.w3.org/2000/svg">
<g clip-path="url(#clip0_2185_2149)">
<path d="M6 12C9.31371 12 12 9.31371 12 6C12 2.68629 9.31371 0 6 0C2.68629 0 0 2.68629 0 6C0 9.31371 2.68629 12 6 12Z" fill="#DC6BE5"/>
<path d="M4.84549 3.02311C4.76189 3.01022 4.75836 3.00871 4.79769 3.0027C4.87309 2.99118 5.05106 3.00689 5.17369 3.03587C5.46002 3.10351 5.72056 3.2768 5.99866 3.58456L6.07256 3.6663L6.17823 3.64943C6.62349 3.5783 7.07649 3.63483 7.45536 3.8088C7.55959 3.85663 7.72393 3.9519 7.74446 3.9764C7.75099 3.9842 7.76299 4.0344 7.77113 4.088C7.79926 4.2734 7.78519 4.41553 7.72816 4.52166C7.69709 4.57943 7.69536 4.59773 7.71626 4.64716C7.73292 4.68663 7.77936 4.7158 7.82536 4.71576C7.91949 4.71563 8.02082 4.56436 8.06779 4.35386L8.08646 4.27026L8.12339 4.31186C8.32606 4.54006 8.48526 4.85133 8.51259 5.07286L8.51972 5.13063L8.48566 5.0781C8.42706 4.98776 8.36812 4.92623 8.29269 4.87663C8.15669 4.7872 8.01292 4.75676 7.63216 4.73683C7.28822 4.71883 7.09359 4.68963 6.90059 4.62706C6.57222 4.52066 6.40669 4.37893 6.01662 3.8703C5.84339 3.6444 5.73629 3.5194 5.62979 3.41873C5.38776 3.19 5.14992 3.07004 4.84549 3.02311Z" fill="white"/>
<path d="M7.82209 3.52738C7.83075 3.37602 7.85135 3.27615 7.89292 3.18496C7.90935 3.14887 7.92475 3.11932 7.92715 3.11932C7.92949 3.11932 7.92235 3.14596 7.91122 3.17852C7.88105 3.26702 7.87609 3.38808 7.89689 3.52892C7.92329 3.70758 7.93829 3.73338 8.12835 3.92642C8.21745 4.01695 8.32115 4.13115 8.35869 4.18015L8.42705 4.26932L8.35869 4.20558C8.27515 4.12768 8.08295 3.97575 8.04052 3.95405C8.01202 3.93948 8.00782 3.93972 7.99025 3.95708C7.97409 3.97312 7.97065 3.99715 7.96842 4.11085C7.96492 4.28805 7.94062 4.40178 7.88199 4.51552C7.85025 4.57702 7.84522 4.56388 7.87395 4.49448C7.89535 4.44262 7.89755 4.41985 7.89742 4.24832C7.89705 3.90362 7.85589 3.82078 7.61449 3.67882C7.55332 3.64285 7.45252 3.59102 7.39052 3.56358C7.32852 3.53615 7.27925 3.51225 7.28105 3.51045C7.28789 3.50372 7.52332 3.57202 7.61812 3.60825C7.75909 3.66212 7.78235 3.66912 7.79945 3.66262C7.81095 3.65825 7.81652 3.62505 7.82209 3.52738Z" fill="white"/>
<path d="M5.00794 4.11713C4.83827 3.88496 4.7333 3.52899 4.756 3.26289L4.76304 3.18054L4.80167 3.18755C4.8742 3.20069 4.99924 3.24696 5.0578 3.28231C5.2185 3.37929 5.28807 3.50699 5.35884 3.83493C5.37957 3.93099 5.40677 4.03969 5.4193 4.07649C5.43944 4.13573 5.51557 4.27406 5.57747 4.36393C5.62207 4.42866 5.59244 4.45933 5.49387 4.45046C5.34337 4.43696 5.13947 4.29709 5.00794 4.11713Z" fill="white"/>
<path d="M7.61615 5.8448C6.82321 5.5275 6.54395 5.25206 6.54395 4.78733C6.54395 4.71893 6.54631 4.66296 6.54921 4.66296C6.55211 4.66296 6.58278 4.68553 6.61738 4.71313C6.77818 4.8413 6.95821 4.89606 7.45668 4.96833C7.75001 5.01086 7.91508 5.04523 8.06735 5.0954C8.55128 5.25493 8.85071 5.57866 8.92215 6.01963C8.94288 6.14776 8.93071 6.38803 8.89708 6.51466C8.87055 6.6147 8.78948 6.79496 8.76795 6.8019C8.76201 6.80383 8.75618 6.7811 8.75461 6.75023C8.74648 6.58463 8.66231 6.42343 8.52095 6.3027C8.36018 6.1654 8.14421 6.0561 7.61615 5.8448Z" fill="white"/>
<path d="M7.42316 6.6184C7.3178 6.3933 7.29363 6.17597 7.35133 5.9733C7.35753 5.95163 7.36743 5.9339 7.37343 5.9339C7.3794 5.9339 7.40426 5.94727 7.42866 5.96357C7.4772 5.99607 7.5746 6.05077 7.83396 6.19133C8.15766 6.36673 8.34223 6.50257 8.46773 6.65773C8.57766 6.79363 8.64566 6.94843 8.6784 7.1372C8.69693 7.24407 8.68606 7.50133 8.65846 7.60897C8.57143 7.94843 8.36916 8.21507 8.08066 8.37067C8.0384 8.39347 8.00046 8.41217 7.99636 8.41227C7.99223 8.41233 8.00766 8.3734 8.0306 8.32577C8.1276 8.12413 8.13866 7.928 8.0653 7.70967C8.02036 7.576 7.92876 7.41287 7.74383 7.1372C7.52876 6.8167 7.47606 6.7314 7.42316 6.6184Z" fill="white"/>
<path d="M4.44481 7.83267C4.73904 7.58573 5.10518 7.41033 5.43868 7.35647C5.58238 7.33327 5.82181 7.34247 5.95491 7.37633C6.16824 7.4306 6.35908 7.55213 6.45834 7.69693C6.55534 7.83847 6.59694 7.9618 6.64028 8.2362C6.65738 8.34447 6.67595 8.45313 6.68158 8.47773C6.71411 8.61997 6.77744 8.7336 6.85591 8.79073C6.98051 8.8814 7.19511 8.887 7.40621 8.80517C7.44201 8.79127 7.47311 8.78167 7.47531 8.78383C7.48298 8.7914 7.37668 8.8621 7.30168 8.89933C7.20078 8.94943 7.12054 8.9688 7.01394 8.9688C6.82061 8.9688 6.66008 8.87107 6.52614 8.67173C6.49978 8.6325 6.44054 8.51503 6.39451 8.41063C6.25308 8.09007 6.18324 7.9924 6.01904 7.88553C5.87618 7.79253 5.69188 7.77587 5.55324 7.84343C5.37114 7.9322 5.32034 8.16347 5.45078 8.31007C5.50261 8.36833 5.59928 8.41853 5.67831 8.42833C5.82621 8.44663 5.95328 8.3348 5.95328 8.1864C5.95328 8.09007 5.91601 8.03507 5.82221 7.993C5.69411 7.93553 5.55641 8.00273 5.55704 8.12233C5.55734 8.17333 5.57968 8.20533 5.63114 8.2285C5.66414 8.24333 5.66491 8.2445 5.63798 8.23893C5.52044 8.21473 5.49291 8.07387 5.58741 7.98037C5.70088 7.86813 5.93554 7.91767 6.01611 8.0709C6.04998 8.13527 6.05388 8.26343 6.02438 8.3408C5.95831 8.51407 5.76574 8.60513 5.57034 8.55557C5.43734 8.5218 5.38318 8.48527 5.22281 8.32107C4.94411 8.03573 4.83594 7.98047 4.43418 7.91813L4.35718 7.9062L4.44481 7.83267Z" fill="white"/>
<path fill-rule="evenodd" clip-rule="evenodd" d="M3.13706 2.72632C4.0677 3.84898 4.7087 4.31218 4.77993 4.41001C4.83873 4.49081 4.8166 4.56348 4.71587 4.62041C4.65983 4.65205 4.54463 4.68411 4.48697 4.68411C4.42173 4.68411 4.39933 4.65911 4.39933 4.65911C4.3615 4.62345 4.3402 4.62971 4.14597 4.28701C3.8763 3.87115 3.65063 3.52615 3.64447 3.52035C3.63023 3.50701 3.63047 3.50745 4.11847 4.37528C4.1973 4.55615 4.13413 4.62255 4.13413 4.64831C4.13413 4.70071 4.11977 4.72825 4.0547 4.80038C3.9463 4.92058 3.8978 5.05568 3.86283 5.33525C3.8236 5.64868 3.7133 5.87005 3.40763 6.24895C3.22869 6.47075 3.19942 6.51138 3.15427 6.60078C3.0974 6.71335 3.08176 6.77641 3.07542 6.91855C3.06872 7.06885 3.08177 7.16598 3.12797 7.30965C3.16842 7.43548 3.21064 7.51855 3.31857 7.68468C3.4117 7.82805 3.46533 7.93465 3.46533 7.97631C3.46533 8.00948 3.4717 8.00951 3.61603 7.97711C3.96147 7.89961 4.24193 7.76325 4.39967 7.59615C4.4973 7.49271 4.5202 7.43561 4.52097 7.29391C4.52143 7.20121 4.51817 7.18178 4.49297 7.12845C4.4519 7.04165 4.3772 6.96948 4.21253 6.85761C3.99677 6.71101 3.9046 6.59298 3.87913 6.43068C3.85827 6.29751 3.8825 6.20355 4.00183 5.95488C4.1254 5.69751 4.156 5.58785 4.17673 5.32841C4.1901 5.16081 4.20863 5.09471 4.25707 5.04165C4.3076 4.98631 4.3531 4.96758 4.47817 4.95061C4.68203 4.92291 4.81187 4.87051 4.91857 4.77278C5.01113 4.68798 5.04987 4.60628 5.0558 4.48331L5.06033 4.39008L5.0086 4.33015C4.82127 4.11305 3.0116 2.55566 3.00007 2.55566C2.99761 2.55566 3.05926 2.63246 3.13706 2.72632ZM3.5705 7.08865C3.61287 7.01405 3.59037 6.91825 3.5195 6.87138C3.45257 6.82718 3.34857 6.84801 3.34857 6.90565C3.34857 6.92325 3.35837 6.93605 3.3804 6.94735C3.41757 6.96631 3.42027 6.98771 3.39103 7.03135C3.36143 7.07558 3.36383 7.11445 3.39777 7.14085C3.4525 7.18345 3.52993 7.16001 3.5705 7.08865Z" fill="white"/>
<path fill-rule="evenodd" clip-rule="evenodd" d="M5.18899 4.99943C5.09329 5.02866 5.00026 5.12946 4.97146 5.23519C4.95389 5.29969 4.96386 5.41279 4.99016 5.44776C5.03269 5.50416 5.07379 5.51903 5.18512 5.51826C5.40309 5.51676 5.59256 5.42383 5.61459 5.30769C5.63266 5.21249 5.54942 5.08053 5.43482 5.02259C5.37566 4.99273 5.24986 4.98086 5.18899 4.99943ZM5.44379 5.19746C5.47742 5.14999 5.46269 5.09869 5.40556 5.06399C5.29669 4.99793 5.13206 5.05259 5.13206 5.15483C5.13206 5.20569 5.21789 5.26119 5.29659 5.26119C5.34896 5.26119 5.42066 5.23016 5.44379 5.19746Z" fill="white"/>
</g>
<defs>
<clipPath id="clip0_2185_2149">
<rect width="12" height="12" fill="white"/>
</clipPath>
</defs>
</svg>
