<svg width="20" height="18" viewBox="0 0 20 18" fill="none" xmlns="http://www.w3.org/2000/svg">
<path d="M16.8609 4.51661C16.9705 4.41455 17.0936 4.29939 17.1736 4.16791C17.773 3.47319 17.8446 2.42164 17.3417 1.65848C16.835 0.88978 16.0841 0.5 15.1098 0.5H3.05173C2.81807 0.5 2.57662 0.5 2.36636 0.561909C1.85152 0.678177 1.38051 0.962272 1.03915 1.36264C0.691443 1.77026 0.5 2.27416 0.5 2.78146C0.5 3.43975 0.76867 4.02315 1.25679 4.425C2.80728 5.82294 4.35526 7.26766 5.85313 8.66625V13.2822L5.85572 13.3211C5.93713 13.9289 6.43165 14.2609 7.03022 14.0208L7.04063 14.0163C7.36449 13.8652 7.55013 13.5608 7.55013 13.1813V8.43575C7.55013 8.11543 7.4444 7.85422 7.23577 7.65942C6.48758 6.96078 5.7504 6.23479 5.03762 5.53258C4.30273 4.80863 3.54275 4.06004 2.74845 3.31844L2.70954 3.28175L2.66266 3.26015C2.65161 3.25307 2.62723 3.22338 2.60873 3.20069C2.58841 3.17612 2.56861 3.15287 2.54782 3.13166C2.41066 2.96759 2.38173 2.82815 2.44577 2.63999C2.55711 2.40473 2.78038 2.13474 3.05163 2.13474H15.2178C15.366 2.13474 15.5088 2.20945 15.6199 2.34524C15.7641 2.52147 15.8177 2.75447 15.7584 2.95788C15.7282 3.07042 15.6778 3.12139 15.5259 3.26354C13.8506 4.77709 12.2504 6.27101 10.5563 7.85264L10.5473 7.86114C10.3756 8.02121 10.1787 8.25421 10.1787 8.63757V16.6143C10.1787 16.7124 10.1787 16.9887 10.395 17.2099C10.395 17.2099 10.4607 17.3484 10.744 17.4489C11.0941 17.5732 11.4361 17.4317 11.4361 17.4317L11.5254 17.3693C11.8757 17.1239 11.8757 16.7416 11.8757 16.5132V8.96918C12.7134 8.18894 13.5814 7.42996 14.4214 6.69556C15.2769 5.94791 16.0846 5.2415 16.8609 4.51661H16.8609ZM18.7326 14.7365H14.1364C13.6562 14.7365 13.3692 15.1008 13.3692 15.4531V15.6552C13.3692 16.1036 13.7592 16.3715 14.1364 16.3715H18.7326C19.213 16.3715 19.5 16.0073 19.5 15.6551V15.453C19.5 15.0245 19.1916 14.7365 18.7326 14.7365V14.7365ZM18.7326 12.162H14.1364C13.6562 12.162 13.3692 12.5263 13.3692 12.8785V13.0297C13.3692 13.4784 13.7592 13.7464 14.1364 13.7464H18.7326C19.213 13.7464 19.5 13.3821 19.5 13.0297V12.8785C19.5 12.5263 19.2131 12.162 18.7326 12.162ZM18.7326 9.68819H14.1364C13.6562 9.68819 13.3692 10.0525 13.3692 10.4047V10.5057C13.3692 10.954 13.7592 11.2221 14.1364 11.2221H18.7326C19.213 11.2221 19.5 10.8579 19.5 10.5057V10.4047C19.5 9.97614 19.1916 9.68819 18.7326 9.68819Z" fill="white"/>
</svg>
