<svg width="34" height="35" viewBox="0 0 34 35" fill="none" xmlns="http://www.w3.org/2000/svg">
<path d="M16.1496 21.6832C15.5121 22.3207 14.5559 22.3207 13.9184 21.7895L9.34961 17.4332L8.28711 18.602L12.8559 22.9582C14.1309 24.127 16.0434 24.127 17.3184 22.852L26.6684 12.9707L25.4996 11.9082L16.1496 21.6832Z" fill="#00FF47"/>
<path d="M17.0002 2.45197C8.60644 2.45197 1.7002 9.25197 1.7002 17.752C1.7002 26.252 8.5002 33.052 17.0002 33.052C25.5002 33.052 32.3002 26.252 32.3002 17.752C32.3002 9.25197 25.3939 2.45197 17.0002 2.45197ZM17.0002 31.4582C9.45645 31.4582 3.29395 25.2957 3.29395 17.752C3.29395 10.2082 9.45645 4.04572 17.0002 4.04572C24.5439 4.04572 30.7064 10.2082 30.7064 17.752C30.7064 25.2957 24.5439 31.4582 17.0002 31.4582Z" fill="#00FF47"/>
</svg>
