<svg width="20" height="20" viewBox="0 0 20 20" fill="none" xmlns="http://www.w3.org/2000/svg">
<path d="M13.3333 17.2487V8.85094H13.9643C14.3073 8.85094 14.5953 9.11123 14.5953 9.42632V14.7691C14.5953 16.1391 15.8025 17.2487 17.2977 17.2487C18.7929 17.2487 20 16.1391 20 14.7691V4.4945C20 3.96022 19.7531 3.46704 19.369 3.12455L17.1605 1.11073C16.7627 0.740841 16.118 0.740841 15.7202 1.11073C15.3224 1.48061 15.3224 2.06969 15.7202 2.43958L17.1468 3.75473L16.0905 4.76849C15.7476 5.09728 15.7476 5.61786 16.0905 5.94664C16.2551 6.11104 16.4883 6.19324 16.7215 6.19324H17.915V14.7828C17.915 15.0979 17.6406 15.3582 17.284 15.3582C16.941 15.3582 16.6529 15.0979 16.6529 14.7828V9.44001C16.6529 8.07007 15.4458 6.96041 13.9506 6.96041H13.3333V2.38478C13.3333 1.53541 12.5926 0.864137 11.6598 0.864137H2.92181C2.00274 0.864137 1.24829 1.54911 1.24829 2.38478V17.2487H1.04252C0.466392 17.2487 0 17.6734 0 18.2077C0 18.742 0.466392 19.1666 1.04252 19.1666H13.5391C14.1152 19.1666 14.5816 18.742 14.5816 18.2077C14.5816 17.6734 14.1152 17.2487 13.5391 17.2487H13.3333ZM4.2524 2.75467H10.3292C10.8368 2.75467 11.2483 3.12455 11.2483 3.59033V7.63168C11.2483 8.09746 10.8368 8.46735 10.3292 8.46735H4.2524C3.74486 8.46735 3.33333 8.09746 3.33333 7.63168V3.59033C3.33333 3.12455 3.74486 2.75467 4.2524 2.75467Z" fill="#D6DFD7"/>
</svg>
