<svg width="28" height="28" viewBox="0 0 28 28" fill="none" xmlns="http://www.w3.org/2000/svg">
<path d="M23.3335 14V24.9667C23.3335 25.0586 23.3154 25.1497 23.2802 25.2346C23.245 25.3195 23.1935 25.3967 23.1285 25.4617C23.0635 25.5267 22.9863 25.5782 22.9014 25.6134C22.8164 25.6486 22.7254 25.6667 22.6335 25.6667H5.36683C5.2749 25.6667 5.18388 25.6486 5.09895 25.6134C5.01402 25.5782 4.93686 25.5267 4.87185 25.4617C4.80685 25.3967 4.75529 25.3195 4.72011 25.2346C4.68494 25.1497 4.66683 25.0586 4.66683 24.9667V14M14.0002 25.6667V8.16671M14.0002 8.16671H8.75016C7.97662 8.16671 7.23475 7.85942 6.68777 7.31244C6.14079 6.76545 5.8335 6.02359 5.8335 5.25004C5.8335 4.47649 6.14079 3.73463 6.68777 3.18765C7.23475 2.64066 7.97662 2.33337 8.75016 2.33337C12.8335 2.33337 14.0002 8.16671 14.0002 8.16671ZM14.0002 8.16671H19.2502C20.0237 8.16671 20.7656 7.85942 21.3126 7.31244C21.8595 6.76545 22.1668 6.02359 22.1668 5.25004C22.1668 4.47649 21.8595 3.73463 21.3126 3.18765C20.7656 2.64066 20.0237 2.33337 19.2502 2.33337C15.1668 2.33337 14.0002 8.16671 14.0002 8.16671ZM24.9668 8.16671H3.0335C2.84784 8.16671 2.6698 8.24046 2.53852 8.37173C2.40725 8.50301 2.3335 8.68106 2.3335 8.86671V13.3C2.3335 13.4857 2.40725 13.6637 2.53852 13.795C2.6698 13.9263 2.84784 14 3.0335 14H24.9668C25.1525 14 25.3305 13.9263 25.4618 13.795C25.5931 13.6637 25.6668 13.4857 25.6668 13.3V8.86671C25.6668 8.68106 25.5931 8.50301 25.4618 8.37173C25.3305 8.24046 25.1525 8.16671 24.9668 8.16671Z" stroke="#86F097" stroke-width="1.5" stroke-linecap="round" stroke-linejoin="round"/>
</svg>
