<svg width="20" height="20" viewBox="0 0 20 20" fill="none" xmlns="http://www.w3.org/2000/svg">
<g clip-path="url(#clip0_648_887)">
<path d="M16.666 9.99984V17.8332C16.666 17.8988 16.6531 17.9639 16.628 18.0245C16.6028 18.0852 16.566 18.1403 16.5196 18.1867C16.4731 18.2332 16.418 18.27 16.3574 18.2951C16.2967 18.3202 16.2317 18.3332 16.166 18.3332H3.83268C3.76702 18.3332 3.702 18.3202 3.64134 18.2951C3.58068 18.27 3.52556 18.2332 3.47913 18.1867C3.4327 18.1403 3.39587 18.0852 3.37074 18.0245C3.34562 17.9639 3.33268 17.8988 3.33268 17.8332V9.99984M9.99935 18.3332V5.83317M9.99935 5.83317H6.24935C5.69681 5.83317 5.16691 5.61368 4.77621 5.22298C4.38551 4.83228 4.16602 4.30237 4.16602 3.74984C4.16602 3.1973 4.38551 2.6674 4.77621 2.2767C5.16691 1.886 5.69681 1.6665 6.24935 1.6665C9.16602 1.6665 9.99935 5.83317 9.99935 5.83317ZM9.99935 5.83317H13.7493C14.3019 5.83317 14.8318 5.61368 15.2225 5.22298C15.6132 4.83228 15.8327 4.30237 15.8327 3.74984C15.8327 3.1973 15.6132 2.6674 15.2225 2.2767C14.8318 1.886 14.3019 1.6665 13.7493 1.6665C10.8327 1.6665 9.99935 5.83317 9.99935 5.83317ZM17.8327 5.83317H2.16602C2.03341 5.83317 1.90623 5.88585 1.81246 5.97962C1.71869 6.07339 1.66602 6.20056 1.66602 6.33317V9.49984C1.66602 9.63245 1.71869 9.75962 1.81246 9.85339C1.90623 9.94716 2.03341 9.99984 2.16602 9.99984H17.8327C17.9653 9.99984 18.0925 9.94716 18.1862 9.85339C18.28 9.75962 18.3327 9.63245 18.3327 9.49984V6.33317C18.3327 6.20056 18.28 6.07339 18.1862 5.97962C18.0925 5.88585 17.9653 5.83317 17.8327 5.83317Z" stroke="#D6DFD7" stroke-width="1.5" stroke-linecap="round" stroke-linejoin="round"/>
</g>
<defs>
<clipPath id="clip0_648_887">
<rect width="20" height="20" fill="white"/>
</clipPath>
</defs>
</svg>
