<svg width="17" height="16" viewBox="0 0 17 16" fill="none" xmlns="http://www.w3.org/2000/svg">
<path fill-rule="evenodd" clip-rule="evenodd" d="M8.92261 16C13.3409 16 16.9226 12.4183 16.9226 8C16.9226 3.58172 13.3409 0 8.92261 0C4.50433 0 0.922607 3.58172 0.922607 8C0.922607 12.4183 4.50433 16 8.92261 16ZM12.954 5.5586C13.1514 5.22619 13.0419 4.7967 12.7095 4.5993C12.3771 4.4019 11.9476 4.51134 11.7502 4.84375L8.42452 10.4439L5.98795 8.00674C5.71462 7.73335 5.2714 7.73329 4.998 8.00663C4.7246 8.27996 4.72455 8.72318 4.99789 8.99658L8.07137 12.0708C8.22418 12.2236 8.43902 12.2973 8.65347 12.2704C8.86791 12.2436 9.05792 12.1191 9.16828 11.9333L12.954 5.5586Z" fill="#FFE600"/>
</svg>
