<svg width="142" height="95" viewBox="0 0 142 95" fill="none" xmlns="http://www.w3.org/2000/svg">
<g filter="url(#filter0_d_575_2805)">
<path fill-rule="evenodd" clip-rule="evenodd" d="M134.135 67.4475L6.47345 48.6578L4.52787 61.8765L132.19 80.6662L134.135 67.4475ZM134.205 66.9712L6.54356 48.1814L12.7835 5.7863C13.2094 2.89242 15.9006 0.891749 18.7945 1.31768L135.976 18.565C138.87 18.991 140.871 21.6822 140.445 24.5761L134.205 66.9712ZM140.921 24.6462C141.386 21.4892 139.204 18.5533 136.047 18.0887L18.8646 0.841334C15.7077 0.376678 12.7718 2.55923 12.3071 5.71619L2.8421 70.0234C2.37744 73.1803 4.55999 76.1162 7.71696 76.5809L124.899 93.8282C128.056 94.2929 130.992 92.1104 131.456 88.9534L140.921 24.6462ZM132.119 81.1426L4.45775 62.3528L3.31845 70.0935C2.89251 72.9874 4.89318 75.6786 7.78707 76.1046L124.969 93.3519C127.863 93.7778 130.554 91.7772 130.98 88.8833L132.119 81.1426Z" fill="#86F097"/>
<path d="M134.205 66.9712L6.54356 48.1814L12.7835 5.7863C13.2094 2.89242 15.9006 0.891749 18.7945 1.31768L135.976 18.565C138.87 18.991 140.871 21.6822 140.445 24.5761L134.205 66.9712Z" fill="#1E1E1E"/>
<path d="M6.47345 48.6578L134.135 67.4475L132.19 80.6662L4.52787 61.8765L6.47345 48.6578Z" fill="#1E1E1E"/>
<path d="M4.45775 62.3528L132.119 81.1426L130.98 88.8833C130.554 91.7772 127.863 93.7778 124.969 93.3519L7.78707 76.1046C4.89318 75.6786 2.89251 72.9874 3.31845 70.0935L4.45775 62.3528Z" fill="#1E1E1E"/>
<path fill-rule="evenodd" clip-rule="evenodd" d="M96.8238 40.9375L100.119 39.3722L100.287 39.8959C100.473 40.4746 100.737 40.887 101.058 41.1662C101.391 41.4431 101.793 41.6208 102.28 41.6926C102.631 41.7442 102.923 41.7497 103.163 41.7188C103.403 41.678 103.556 41.6117 103.65 41.5439C103.731 41.4777 103.766 41.4097 103.779 41.3252C103.798 41.1933 103.776 41.1097 103.739 41.0473C103.703 40.9844 103.586 40.8606 103.303 40.6938L103.295 40.6892L103.287 40.6842C103.027 40.5168 102.615 40.3086 102.037 40.0596L102.024 40.0538L101.933 40.0083C101.167 39.6649 100.52 39.3362 99.995 39.022L99.9917 39.02L99.9885 39.018C99.4153 38.6621 98.9439 38.1755 98.5733 37.5691C98.1664 36.9034 98.0518 36.1131 98.1807 35.2375C98.2998 34.4286 98.6411 33.7291 99.2032 33.1551L99.2043 33.154C99.7684 32.5816 100.468 32.1818 101.288 31.9493L101.29 31.9486C102.119 31.7187 102.993 31.6747 103.906 31.8092C105.087 31.983 106.081 32.4065 106.862 33.1009C107.633 33.7683 108.163 34.5635 108.433 35.4839L108.548 35.878L105.372 37.3869L105.191 36.8904C105.024 36.4341 104.78 36.0801 104.462 35.8128C104.144 35.5442 103.779 35.3802 103.359 35.3183C103.096 35.2795 102.858 35.2878 102.643 35.3362L102.638 35.3374L102.633 35.3384C102.424 35.3805 102.277 35.4509 102.171 35.5347C102.086 35.6025 102.049 35.6717 102.036 35.7582C102.021 35.8633 102.037 35.9286 102.063 35.9767C102.126 36.0535 102.265 36.1739 102.526 36.3314C102.792 36.492 103.212 36.6974 103.801 36.9483C104.586 37.275 105.252 37.6028 105.793 37.9332C106.379 38.2797 106.862 38.7624 107.244 39.37C107.664 40.0399 107.782 40.8441 107.65 41.7393C107.526 42.5827 107.184 43.3079 106.619 43.895C106.06 44.4763 105.345 44.8699 104.495 45.0864C103.653 45.3146 102.735 45.3491 101.748 45.2039C100.518 45.0229 99.473 44.5929 98.6347 43.8958C97.8046 43.2055 97.2356 42.348 96.9388 41.3313L96.8238 40.9375ZM104.372 44.6207C105.149 44.4235 105.782 44.0703 106.272 43.5611C106.763 43.0518 107.063 42.4212 107.174 41.6692C107.293 40.8562 107.181 40.1752 106.836 39.6261C106.491 39.077 106.061 38.6503 105.545 38.3459C105.031 38.0314 104.387 37.7135 103.614 37.3921C103.018 37.1382 102.572 36.9221 102.277 36.7436C101.981 36.5651 101.777 36.4001 101.664 36.2486C101.563 36.0884 101.529 35.9015 101.56 35.6881C101.591 35.4747 101.695 35.298 101.872 35.1578C102.048 35.0176 102.27 34.9205 102.537 34.8665C102.817 34.8037 103.114 34.7955 103.429 34.8419C103.937 34.9167 104.385 35.1176 104.773 35.4446C105.046 35.6752 105.271 35.9554 105.448 36.2852C105.521 36.4232 105.587 36.5698 105.643 36.7252L107.971 35.6194C107.729 34.7948 107.253 34.0759 106.544 33.4628C105.846 32.841 104.944 32.4486 103.836 32.2855C102.983 32.1599 102.177 32.2022 101.419 32.4126C100.672 32.6244 100.048 32.9842 99.5472 33.4919C99.0585 33.991 98.7618 34.5962 98.6571 35.3076C98.5404 36.1002 98.6494 36.7704 98.9841 37.318C99.3188 37.8656 99.7382 38.2959 100.242 38.6089C100.748 38.9117 101.381 39.2333 102.141 39.5735L102.228 39.6174C102.813 39.8698 103.253 40.0903 103.547 40.2789C103.853 40.4589 104.056 40.634 104.155 40.8044C104.255 40.9748 104.288 41.1718 104.255 41.3953C104.224 41.6088 104.12 41.7855 103.943 41.9257C103.769 42.0557 103.532 42.1455 103.234 42.1951C102.938 42.2345 102.596 42.2258 102.21 42.1689C101.641 42.0852 101.153 41.8732 100.746 41.533C100.442 41.2695 100.193 40.9234 100.001 40.4944C99.9374 40.353 99.8801 40.2025 99.8289 40.0431L97.401 41.1963C97.6702 42.1185 98.184 42.8949 98.9425 43.5256C99.701 44.1564 100.66 44.557 101.818 44.7275C102.753 44.8651 103.604 44.8295 104.372 44.6207Z" fill="#86F097"/>
<path fill-rule="evenodd" clip-rule="evenodd" d="M86.2984 39.3881L89.5937 37.8228L89.7619 38.3465C89.9478 38.9253 90.2113 39.3377 90.533 39.6169C90.8652 39.8938 91.2675 40.0715 91.7549 40.1433C92.1057 40.1949 92.398 40.2004 92.6376 40.1695C92.8777 40.1287 93.0306 40.0624 93.1246 39.9946C93.2056 39.9283 93.241 39.8604 93.2534 39.7759C93.2728 39.644 93.2506 39.5604 93.2141 39.4979C93.1774 39.4351 93.061 39.3112 92.7777 39.1445L92.7698 39.1398L92.762 39.1349C92.5011 38.9675 92.0896 38.7593 91.5117 38.5103L91.4981 38.5045L91.4081 38.459C90.6419 38.1155 89.9944 37.7869 89.4697 37.4726L89.4664 37.4707L89.4631 37.4686C88.8899 37.1128 88.4185 36.6262 88.0479 36.0197C87.641 35.354 87.5264 34.5638 87.6553 33.6882C87.7744 32.8793 88.1157 32.1798 88.6778 31.6057L88.6789 31.6046C89.243 31.0323 89.9422 30.6325 90.7625 30.4L90.765 30.3993C91.5935 30.1693 92.4673 30.1254 93.3809 30.2599C94.5615 30.4336 95.556 30.8572 96.3362 31.5516C97.1073 32.219 97.6373 33.0142 97.9074 33.9345L98.0231 34.3287L94.8471 35.8376L94.6657 35.3411C94.499 34.8848 94.2542 34.5308 93.9371 34.2634C93.6185 33.9949 93.2539 33.8309 92.8333 33.7689C92.5701 33.7302 92.333 33.7385 92.1176 33.7869L92.1126 33.788L92.1075 33.7891C91.899 33.8312 91.7513 33.9016 91.6458 33.9854C91.5605 34.0532 91.5237 34.1223 91.511 34.2089C91.4955 34.314 91.5113 34.3792 91.5374 34.4274C91.6003 34.5042 91.7394 34.6246 92.0002 34.7821C92.2662 34.9427 92.6867 35.1481 93.2755 35.399C94.0609 35.7257 94.7267 36.0535 95.2675 36.3839C95.8535 36.7303 96.3368 37.2131 96.7183 37.8207C97.139 38.4906 97.2565 39.2947 97.1247 40.19C97.0006 41.0334 96.6591 41.7586 96.0939 42.3457C95.5342 42.927 94.8192 43.3206 93.9693 43.537C93.1276 43.7653 92.2094 43.7998 91.2225 43.6546C89.9931 43.4736 88.9476 43.0436 88.1093 42.3465C87.2792 41.6562 86.7102 40.7987 86.4134 39.782L86.2984 39.3881ZM93.8468 43.0714C94.6234 42.8742 95.2568 42.521 95.747 42.0117C96.2372 41.5025 96.5377 40.8719 96.6484 40.1199C96.7681 39.3069 96.6555 38.6259 96.3106 38.0768C95.9657 37.5277 95.5354 37.1009 95.0195 36.7966C94.5052 36.4821 93.8616 36.1642 93.0887 35.8428C92.4927 35.5889 92.0469 35.3728 91.7514 35.1943C91.4558 35.0158 91.2517 34.8508 91.139 34.6993C91.038 34.539 91.0032 34.3522 91.0346 34.1388C91.066 33.9254 91.1699 33.7486 91.3463 33.6085C91.5226 33.4683 91.7446 33.3712 92.0121 33.3171C92.2913 33.2544 92.5883 33.2462 92.9034 33.2926C93.4115 33.3674 93.8595 33.5683 94.2474 33.8953C94.5209 34.1259 94.7458 34.4061 94.9221 34.7358C94.9959 34.8738 95.0612 35.0205 95.1179 35.1759L97.4454 34.0701C97.2034 33.2454 96.7278 32.5266 96.0186 31.9134C95.3211 31.2917 94.4185 30.8993 93.3108 30.7362C92.4572 30.6106 91.6515 30.6529 90.8938 30.8633C90.1462 31.0751 89.5222 31.4349 89.0218 31.9426C88.5331 32.4417 88.2364 33.0469 88.1317 33.7583C88.015 34.5509 88.124 35.221 88.4587 35.7687C88.7934 36.3163 89.2128 36.7466 89.717 37.0596C90.2227 37.3624 90.8554 37.6839 91.6152 38.0242L91.7021 38.0681C92.2879 38.3205 92.7279 38.541 93.022 38.7296C93.3277 38.9096 93.5303 39.0847 93.6298 39.2551C93.7294 39.4255 93.7627 39.6225 93.7298 39.846C93.6983 40.0594 93.5945 40.2362 93.4181 40.3764C93.2432 40.5064 93.0068 40.5962 92.7088 40.6457C92.4123 40.6852 92.071 40.6764 91.6848 40.6196C91.1157 40.5359 90.6278 40.3239 90.221 39.9837C89.9163 39.7202 89.6678 39.374 89.4754 38.9451C89.412 38.8037 89.3547 38.6532 89.3035 38.4938L86.8756 39.647C87.1448 40.5691 87.6586 41.3456 88.4171 41.9763C89.1757 42.6071 90.1341 43.0077 91.2926 43.1782C92.2275 43.3158 93.0789 43.2802 93.8468 43.0714Z" fill="#86F097"/>
<path fill-rule="evenodd" clip-rule="evenodd" d="M73.3139 40.8005L80.1284 28.5271L83.6835 29.0504L86.6727 42.7667L82.6437 42.1737L82.1343 39.5602L78.5837 39.0376L77.3429 41.3935L73.3139 40.8005ZM78.3165 38.5116L82.5417 39.1335L83.0511 41.747L86.054 42.1889L83.2839 29.4782L80.3877 29.052L74.0728 40.4255L77.0757 40.8675L78.3165 38.5116ZM81.3386 32.9607L81.2472 32.9472L79.641 35.9968L81.998 36.3437L81.3386 32.9607ZM81.3953 35.7684L81.1009 34.2581L80.3839 35.6195L81.3953 35.7684Z" fill="#86F097"/>
<path fill-rule="evenodd" clip-rule="evenodd" d="M69.0755 33.3517L70.7066 33.5918C71.3671 33.689 71.8903 33.6258 72.2762 33.4023C72.6738 33.1701 72.9114 32.7898 72.9892 32.2614C73.067 31.733 72.949 31.3003 72.6352 30.9634C72.3214 30.6265 71.8393 30.4102 71.1889 30.3145L69.5579 30.0744L69.0755 33.3517ZM69.9642 30.6209L69.622 32.9455L70.7767 33.1154C71.3803 33.2043 71.7791 33.1336 72.0342 32.9861C72.2839 32.8399 72.4526 32.6006 72.5129 32.1913C72.5732 31.7815 72.4803 31.5036 72.2829 31.2916C72.0697 31.0627 71.7062 30.8773 71.1188 30.7908L69.9642 30.6209ZM68.6986 35.9126L68.1624 39.5557L65.3272 39.1384L67.0996 27.0963L71.9927 27.8164C73.4052 28.0243 74.4532 28.5576 75.1367 29.4161C75.8303 30.276 76.0799 31.3666 75.8854 32.6877C75.6925 33.9986 75.1552 34.9681 74.2737 35.5963C73.3922 36.2244 72.2706 36.4383 70.9089 36.2379L68.6986 35.9126ZM69.1049 36.459L68.5687 40.1021L64.7807 39.5446L66.6934 26.5498L72.0628 27.3401C73.558 27.5602 74.7321 28.1356 75.5124 29.115C76.3069 30.1008 76.5713 31.3344 76.3618 32.7578C76.1543 34.1672 75.5645 35.2677 74.5532 35.9884C73.5449 36.7069 72.2886 36.9276 70.8388 36.7142L69.1049 36.459Z" fill="#86F097"/>
<path fill-rule="evenodd" clip-rule="evenodd" d="M37.1779 16.1905C40.6811 16.7065 43.8487 18.5059 45.984 21.1931C48.1196 23.8807 49.0478 27.2361 48.5642 30.5212C48.0807 33.8063 46.2252 36.752 43.4057 38.7103C40.7144 40.5796 37.3551 41.403 34.0078 41.0254C33.8486 41.0074 33.6894 40.9867 33.5303 40.9633L34.2595 36.0087C36.3618 36.3181 38.4932 35.8319 40.1848 34.6569C41.8765 33.4819 42.9898 31.7145 43.2799 29.7435C43.57 27.7724 43.0131 25.7591 41.7318 24.1466C40.4507 22.5344 38.5503 21.4548 36.4487 21.1451L30.6683 20.2943L27.7513 40.1127L21.971 39.2619L25.6172 14.4889C25.6172 14.4889 25.7974 14.5155 26.0935 14.5591C26.6391 14.6395 27.578 14.7778 28.507 14.9143C29.9376 15.1245 31.3916 15.3388 31.3968 15.3396L37.1779 16.1905ZM26.0234 15.0355L22.5174 38.8557L27.3451 39.5663L30.2621 19.7479L36.5188 20.6687C38.7372 20.9956 40.7489 22.1358 42.1087 23.8471C43.4697 25.5598 44.0665 27.7059 43.7562 29.8136C43.446 31.9212 42.2563 33.8044 40.4595 35.0523C38.7928 36.21 36.7299 36.7343 34.6676 36.5424L34.078 40.5487C37.3079 40.9093 40.5432 40.1123 43.1311 38.3148C45.8454 36.4296 47.6245 33.5996 48.0879 30.4511C48.5513 27.3026 47.663 24.08 45.607 21.4927C43.5504 18.9045 40.4942 17.1656 37.1078 16.6668C37.1078 16.6668 37.1078 16.6668 37.1078 16.6668L31.327 15.816C31.3218 15.8152 29.8675 15.6008 28.437 15.3906C27.7204 15.2853 26.9978 15.179 26.4545 15.099L26.0234 15.0355Z" fill="#86F097"/>
<path fill-rule="evenodd" clip-rule="evenodd" d="M32.7495 27.6512C33.6265 27.7802 34.4422 27.1739 34.5713 26.2968C34.7004 25.4198 34.094 24.6041 33.217 24.475C32.3399 24.3459 31.5242 24.9523 31.3952 25.8294C31.2661 26.7064 31.8724 27.5221 32.7495 27.6512ZM32.6794 28.1275C33.8195 28.2953 34.8798 27.5071 35.0476 26.3669C35.2155 25.2268 34.4272 24.1665 33.2871 23.9987C32.1469 23.8309 31.0866 24.6191 30.9188 25.7592C30.751 26.8994 31.5392 27.9597 32.6794 28.1275Z" fill="#86F097"/>
<path fill-rule="evenodd" clip-rule="evenodd" d="M38.9018 28.5564C39.7789 28.6855 40.5945 28.0792 40.7236 27.2021C40.8527 26.325 40.2464 25.5094 39.3693 25.3803C38.4922 25.2512 37.6766 25.8576 37.5475 26.7346C37.4184 27.6117 38.0248 28.4273 38.9018 28.5564ZM38.8317 29.0328C39.9719 29.2006 41.0322 28.4124 41.2 27.2722C41.3678 26.1321 40.5796 25.0718 39.4394 24.9039C38.2993 24.7361 37.239 25.5244 37.0712 26.6645C36.9033 27.8047 37.6916 28.865 38.8317 29.0328Z" fill="#86F097"/>
</g>
<defs>
<filter id="filter0_d_575_2805" x="0.779297" y="0.778809" width="140.205" height="94.1118" filterUnits="userSpaceOnUse" color-interpolation-filters="sRGB">
<feFlood flood-opacity="0" result="BackgroundImageFix"/>
<feColorMatrix in="SourceAlpha" type="matrix" values="0 0 0 0 0 0 0 0 0 0 0 0 0 0 0 0 0 0 127 0" result="hardAlpha"/>
<feOffset dx="-2" dy="1"/>
<feComposite in2="hardAlpha" operator="out"/>
<feColorMatrix type="matrix" values="0 0 0 0 0.52549 0 0 0 0 0.941176 0 0 0 0 0.592157 0 0 0 1 0"/>
<feBlend mode="normal" in2="BackgroundImageFix" result="effect1_dropShadow_575_2805"/>
<feBlend mode="normal" in="SourceGraphic" in2="effect1_dropShadow_575_2805" result="shape"/>
</filter>
</defs>
</svg>
