<svg width="12" height="12" viewBox="0 0 12 12" fill="none" xmlns="http://www.w3.org/2000/svg">
<path d="M11.292 5.49L9.79805 6.072C11.298 4.998 10.998 3.192 10.998 3.192L10.98 3.21C10.53 3.744 8.93405 4.356 8.93405 4.356C10.992 3.324 10.974 1.338 10.974 1.194V1.188C10.404 0.984001 7.86005 1.746 7.01405 1.95C6.18005 2.154 1.14604 3.516 0.414045 6.99C0.150045 8.964 0.984045 9.984 2.01604 10.464C2.67604 10.776 3.42004 10.866 3.99605 10.836C5.47205 10.77 7.69805 9.984 7.50605 8.508C7.31405 7.032 5.73004 6.768 5.73004 6.768C6.25805 7.296 5.92205 7.734 5.30405 8.058C4.71604 8.37 3.86405 8.574 3.27605 8.658C2.29204 8.544 2.58004 8.028 2.58004 8.028L3.63604 6.294L1.79404 5.43L3.41405 5.712L4.00204 5.814C4.33205 5.274 4.75205 5.394 4.75205 5.394L4.49405 4.878C4.89005 4.752 5.78405 4.794 5.78405 4.794L5.88005 5.37L6.01805 4.812C6.43205 4.806 7.16405 5.124 7.16405 5.124L7.04405 5.616L7.40405 5.25C7.91405 5.484 8.32205 5.772 8.65205 6.084C9.04805 6.468 9.33005 6.888 9.53405 7.308C10.104 8.496 10.008 9.642 10.008 9.642C11.904 7.44 11.292 5.49 11.292 5.49Z" fill="#00E545"/>
<path d="M4.37998 7.04998L4.97398 6.61198C4.97398 6.60598 4.08598 6.41398 4.37998 7.04998Z" fill="#00DD62"/>
<path d="M11.292 5.49002L9.798 6.07202C11.298 4.99802 10.998 3.19202 10.998 3.19202L10.98 3.21002C10.464 4.84802 9.27 5.71802 8.646 6.07802C9.042 6.46202 9.324 6.88202 9.528 7.30202C9.528 7.30202 10.854 6.79802 11.292 5.49002Z" fill="#00E545"/>
<path d="M10.008 9.64197C11.904 7.44597 11.292 5.48997 11.292 5.48997C10.854 6.79797 9.52801 7.30797 9.52801 7.30797C10.098 8.49597 10.008 9.64197 10.008 9.64197ZM10.986 3.20997C10.536 3.74397 8.94001 4.35597 8.94001 4.35597C10.998 3.32397 10.98 1.33797 10.98 1.19397C10.164 1.48797 6.91201 2.68197 5.58601 3.67797C4.23001 4.69197 3.51601 4.99197 3.41401 5.71197L4.00201 5.81397C4.33201 5.27397 4.75201 5.39397 4.75201 5.39397L4.49401 4.87797C4.89001 4.75197 5.78401 4.79397 5.78401 4.79397L5.88001 5.36997L6.01801 4.81197C6.43201 4.80597 7.16401 5.12397 7.16401 5.12397L7.04401 5.61597L7.40401 5.24997C7.91401 5.48397 8.32201 5.77197 8.65201 6.08397C9.27601 5.72397 10.47 4.84797 10.986 3.20997ZM5.47201 8.27397C5.65201 8.63997 5.91601 9.54597 5.13601 10.038C4.54801 10.41 3.33001 10.626 2.01001 10.476C2.67001 10.788 3.41401 10.878 3.99001 10.848C5.46601 10.782 7.69201 9.99597 7.50001 8.51997C7.30801 7.04397 5.72401 6.77997 5.72401 6.77997C6.25201 7.30797 5.91601 7.74597 5.29801 8.06997C5.36401 8.10597 5.42401 8.17197 5.47201 8.27397Z" fill="#00D674"/>
</svg>
