<svg width="17" height="16" viewBox="0 0 17 16" fill="none" xmlns="http://www.w3.org/2000/svg">
<g clip-path="url(#clip0_2253_54521)">
<path d="M11.706 0.607206C10.7351 0.205068 9.69438 -0.0012838 8.64355 6.00927e-06C4.22515 6.00927e-06 0.643555 3.58161 0.643555 8C0.643555 12.4184 4.22515 16 8.64355 16C13.062 16 16.6436 12.4184 16.6436 8C16.6436 6.93601 16.4356 5.9 16.0364 4.93761C15.9942 4.84186 15.9163 4.76643 15.8192 4.72748C15.7221 4.68853 15.6136 4.68916 15.517 4.72923C15.4204 4.76931 15.3433 4.84563 15.3023 4.94186C15.2613 5.03808 15.2596 5.14655 15.2976 5.24401C15.6594 6.11773 15.8449 7.05434 15.8436 8C15.8436 11.9764 12.62 15.2 8.64355 15.2C4.66715 15.2 1.44355 11.9764 1.44355 8C1.44355 4.02361 4.66715 0.800006 8.64355 0.800006C9.60195 0.800006 10.5336 0.987206 11.3996 1.34601C11.497 1.384 11.6055 1.3823 11.7017 1.34128C11.7979 1.30026 11.8743 1.22318 11.9143 1.12656C11.9544 1.02994 11.955 0.92146 11.9161 0.824379C11.8771 0.727299 11.8017 0.649338 11.706 0.607206ZM4.64355 8.8C4.85573 8.8 5.05921 8.71572 5.20924 8.56569C5.35927 8.41566 5.44355 8.21218 5.44355 8C5.44355 7.78783 5.35927 7.58435 5.20924 7.43432C5.05921 7.28429 4.85573 7.20001 4.64355 7.20001C4.43138 7.20001 4.2279 7.28429 4.07787 7.43432C3.92784 7.58435 3.84355 7.78783 3.84355 8C3.84355 8.21218 3.92784 8.41566 4.07787 8.56569C4.2279 8.71572 4.43138 8.8 4.64355 8.8ZM8.64355 8.8C8.85573 8.8 9.05921 8.71572 9.20924 8.56569C9.35927 8.41566 9.44355 8.21218 9.44355 8C9.44355 7.78783 9.35927 7.58435 9.20924 7.43432C9.05921 7.28429 8.85573 7.20001 8.64355 7.20001C8.43138 7.20001 8.2279 7.28429 8.07787 7.43432C7.92784 7.58435 7.84355 7.78783 7.84355 8C7.84355 8.21218 7.92784 8.41566 8.07787 8.56569C8.2279 8.71572 8.43138 8.8 8.64355 8.8ZM12.6436 8.8C12.8557 8.8 13.0592 8.71572 13.2092 8.56569C13.3593 8.41566 13.4436 8.21218 13.4436 8C13.4436 7.78783 13.3593 7.58435 13.2092 7.43432C13.0592 7.28429 12.8557 7.20001 12.6436 7.20001C12.4314 7.20001 12.2279 7.28429 12.0779 7.43432C11.9278 7.58435 11.8436 7.78783 11.8436 8C11.8436 8.21218 11.9278 8.41566 12.0779 8.56569C12.2279 8.71572 12.4314 8.8 12.6436 8.8Z" fill="#D6DFD7"/>
</g>
<defs>
<clipPath id="clip0_2253_54521">
<rect width="16" height="16" fill="white" transform="translate(0.643555)"/>
</clipPath>
</defs>
</svg>
