<svg width="41" height="16" viewBox="0 0 41 16" fill="none" xmlns="http://www.w3.org/2000/svg">
<path d="M1.91699 7C1.36471 7 0.916992 7.44772 0.916992 8C0.916992 8.55228 1.36471 9 1.91699 9L1.91699 7ZM40.6241 8.70711C41.0146 8.31659 41.0146 7.68342 40.6241 7.2929L34.2601 0.928935C33.8696 0.538411 33.2364 0.538411 32.8459 0.928935C32.4554 1.31946 32.4554 1.95262 32.8459 2.34315L38.5028 8L32.8459 13.6569C32.4554 14.0474 32.4554 14.6805 32.8459 15.0711C33.2364 15.4616 33.8696 15.4616 34.2601 15.0711L40.6241 8.70711ZM1.91699 9L3.81699 9L3.81699 7L1.91699 7L1.91699 9ZM7.61699 9L11.417 9L11.417 7L7.61699 7L7.61699 9ZM15.217 9L19.017 9L19.017 7L15.217 7L15.217 9ZM22.817 9L26.617 9L26.617 7L22.817 7L22.817 9ZM30.417 9L34.217 9L34.217 7L30.417 7L30.417 9ZM38.017 9L39.917 9L39.917 7L38.017 7L38.017 9ZM1.91699 7C1.36471 7 0.916992 7.44772 0.916992 8C0.916992 8.55228 1.36471 9 1.91699 9L1.91699 7ZM40.6241 8.70711C41.0146 8.31659 41.0146 7.68342 40.6241 7.2929L34.2601 0.928935C33.8696 0.538411 33.2364 0.538411 32.8459 0.928935C32.4554 1.31946 32.4554 1.95262 32.8459 2.34315L38.5028 8L32.8459 13.6569C32.4554 14.0474 32.4554 14.6805 32.8459 15.0711C33.2364 15.4616 33.8696 15.4616 34.2601 15.0711L40.6241 8.70711ZM1.91699 9L3.81699 9L3.81699 7L1.91699 7L1.91699 9ZM7.61699 9L11.417 9L11.417 7L7.61699 7L7.61699 9ZM15.217 9L19.017 9L19.017 7L15.217 7L15.217 9ZM22.817 9L26.617 9L26.617 7L22.817 7L22.817 9ZM30.417 9L34.217 9L34.217 7L30.417 7L30.417 9ZM38.017 9L39.917 9L39.917 7L38.017 7L38.017 9Z" fill="#86F097"/>
</svg>
