<svg width="16" height="18" viewBox="0 0 16 18" fill="none" xmlns="http://www.w3.org/2000/svg">
<path d="M11.3103 3.375H4.68966V0H11.3103V3.375ZM5.7931 2.25H10.2069V1.125H5.7931V2.25Z" fill="#86F097"/>
<path d="M16 17.482C16 17.7681 15.7725 18 15.4919 18H0.508062C0.227467 18 0 17.7681 0 17.482V1.64299C0 1.35691 0.227467 1.125 0.508063 1.125H4.18159C4.46219 1.125 4.68966 1.35691 4.68966 1.64299V1.73201C4.68966 2.01809 4.46219 2.25 4.18159 2.25H1.61151C1.33092 2.25 1.10345 2.48191 1.10345 2.76799V16.357C1.10345 16.6431 1.33092 16.875 1.61151 16.875H14.3885C14.6691 16.875 14.8966 16.6431 14.8966 16.357V2.76799C14.8966 2.48191 14.6691 2.25 14.3885 2.25H11.7963C11.5157 2.25 11.2883 2.01809 11.2883 1.73201V1.64299C11.2883 1.35691 11.5157 1.125 11.7963 1.125H15.4919C15.7725 1.125 16 1.35691 16 1.64299V17.482Z" fill="#86F097"/>
<path d="M12.0552 6.51375L9.90345 6.98062L12.2262 8.7525L12.0552 6.51375ZM7.54207 13.6125L3.44828 10.4906L4.10483 9.59062L7.31586 12.0375L10.6207 7.53188L11.5034 8.20125L7.54207 13.6125Z" fill="#86F097"/>
</svg>
