<svg width="54" height="54" viewBox="0 0 54 54" fill="none" xmlns="http://www.w3.org/2000/svg">
<g clip-path="url(#clip0_2371_17619)">
<path d="M10.8 10.8V52.2H1.8V1.8H25.1969H25.1998C32.3949 1.80072 39.2736 4.48198 44.3283 9.22122C49.3797 13.9574 52.1939 20.3553 52.1939 27C52.1939 33.6447 49.3797 40.0426 44.3283 44.7788C39.6962 49.1218 33.5323 51.7366 26.9969 52.144V44.9197C31.3649 44.5294 35.4907 42.7262 38.6456 39.7682C42.2349 36.4028 44.2751 31.8127 44.2751 27C44.2751 22.1873 42.235 17.5972 38.6456 14.2318C35.061 10.8708 30.2228 9.00083 25.2003 9H25.2H25.2H25.2H25.1999H25.1999H25.1999H25.1999H25.1999H25.1999H25.1998H25.1998H25.1998H25.1998H25.1998H25.1997H25.1997H25.1997H25.1997H25.1997H25.1997H25.1996H25.1996H25.1996H25.1996H25.1996H25.1995H25.1995H25.1995H25.1995H25.1995H25.1995H25.1994H25.1994H25.1994H25.1994H25.1994H25.1994H25.1993H25.1993H25.1993H25.1993H25.1993H25.1992H25.1992H25.1992H25.1992H25.1992H25.1992H25.1991H25.1991H25.1991H25.1991H25.1991H25.199H25.199H25.199H25.199H25.199H25.199H25.1989H25.1989H25.1989H25.1989H25.1989H25.1988H25.1988H25.1988H25.1988H25.1988H25.1988H25.1987H25.1987H25.1987H25.1987H25.1987H25.1986H25.1986H25.1986H25.1986H25.1986H25.1986H25.1985H25.1985H25.1985H25.1985H25.1985H25.1985H25.1984H25.1984H25.1984H25.1984H25.1984H25.1983H25.1983H25.1983H25.1983H25.1983H25.1983H25.1982H25.1982H25.1982H25.1982H25.1982H25.1981H25.1981H25.1981H25.1981H25.1981H25.1981H25.198H25.198H25.198H25.198H25.198H25.1979H25.1979H25.1979H25.1979H25.1979H25.1979H25.1978H25.1978H25.1978H25.1978H25.1978H25.1977H25.1977H25.1977H25.1977H25.1977H25.1977H25.1976H25.1976H25.1976H25.1976H25.1976H25.1976H25.1975H25.1975H25.1975H25.1975H25.1975H25.1974H25.1974H25.1974H25.1974H25.1974H25.1974H25.1973H25.1973H25.1973H25.1973H25.1973H25.1972H25.1972H25.1972H25.1972H25.1972H25.1972H25.1971H25.1971H25.1971H25.1971H25.1971H25.197H25.197H25.197H25.197H25.197H25.197H25.1969H12.6H10.8V10.8Z" fill="#86F097" stroke="#86F097" stroke-width="3.6"/>
<g clip-path="url(#clip1_2371_17619)">
<circle cx="19.3499" cy="23.4001" r="3.24" fill="#86F097" stroke="#86F097" stroke-width="2.52"/>
<circle cx="32.7599" cy="23.4001" r="3.24" fill="#86F097" stroke="#86F097" stroke-width="2.52"/>
</g>
</g>
<defs>
<clipPath id="clip0_2371_17619">
<rect width="54" height="54" fill="white"/>
</clipPath>
<clipPath id="clip1_2371_17619">
<rect width="22.41" height="9" fill="white" transform="translate(14.8504 18.9001)"/>
</clipPath>
</defs>
</svg>
