<svg width="318" height="86" viewBox="0 0 318 86" fill="none" xmlns="http://www.w3.org/2000/svg">
<path d="M40.1282 0.000561849H40.1331C52.2945 0.00177602 63.9575 4.53196 72.5571 12.5949C81.1578 20.6589 85.9896 31.5961 85.9896 43.0003C85.9896 54.4045 81.1578 65.3417 72.5571 73.4057C63.9564 81.4697 52.2914 86 40.1282 86V68.8001C47.4261 68.8001 54.4251 66.0819 59.5855 61.2435C64.746 56.4051 67.645 49.8428 67.645 43.0003C67.645 36.1578 64.746 29.5955 59.5855 24.757C54.4263 19.9197 47.4292 17.2017 40.1331 17.2005H40.1282H20.0665V68.8001V86H0L7.85448e-06 79.2995V17.2005V0.000564911C7.85448e-06 0.000564911 5.05703 0.00182602 10.0321 0.000561849C14.9982 -0.000700061 20.046 0.000557355 20.064 0.000561849H20.0649H40.1282Z" fill="#86F097"/>
<path d="M37.9836 35.6439C37.9836 39.6019 34.775 42.8105 30.817 42.8105C26.859 42.8105 23.6504 39.6019 23.6504 35.6439C23.6504 31.6859 26.859 28.4773 30.817 28.4773C34.775 28.4773 37.9836 31.6859 37.9836 35.6439Z" fill="#86F097"/>
<path d="M59.3418 35.6437C59.3418 39.6017 56.1332 42.8103 52.1752 42.8103C48.2171 42.8103 45.0085 39.6017 45.0085 35.6437C45.0085 31.6857 48.2171 28.4771 52.1752 28.4771C56.1332 28.4771 59.3418 31.6857 59.3418 35.6437Z" fill="#86F097"/>
<path d="M298.122 65.7001V32.6265H289.831C289.551 31.7576 289.298 30.929 288.714 30.0825C288.161 29.2814 287.597 28.6866 286.919 28.1282V26.0332H317.259V32.6265H306.056V65.7001H298.122Z" fill="url(#paint0_linear_301_411)"/>
<path fill-rule="evenodd" clip-rule="evenodd" d="M259.958 25.8945V65.5614H267.891V50.6059H273.734C282.043 50.6059 288.636 46.7464 288.636 37.9018C288.636 28.7891 282.043 25.8945 273.734 25.8945H259.958ZM272.984 44.3343H267.891V32.2198H272.984C278.13 32.2198 280.917 33.6671 280.917 37.9018C280.917 42.1365 278.13 44.3343 272.984 44.3343Z" fill="url(#paint1_linear_301_411)"/>
<path d="M289.793 65.5614H287.946H280.948L273.734 52.2655C273.734 52.2655 276.43 52.2142 278.384 51.8589C279.848 51.5929 281.502 51.1192 281.502 51.1192L289.793 65.5614Z" fill="#43DFC1"/>
<path d="M233.303 65.5614V25.8945H257.639V32.4878H241.236V41.6541H257.592V48.3546H241.236V58.9145H258.229V65.5614H233.303Z" fill="url(#paint2_linear_301_411)"/>
<path d="M203.546 65.7001V26.0332H216.572C225.309 26.0332 232.063 29.0886 232.063 38.5229C232.063 47.582 225.309 51.6023 216.786 51.6023H211.479V65.7001H203.546ZM211.479 45.3306H216.25C221.718 45.3306 224.344 43.0256 224.344 38.5229C224.344 33.8594 221.45 32.3585 215.982 32.3585H211.479V45.3306Z" fill="url(#paint3_linear_301_411)"/>
<path d="M147.724 65.6998V26.033H172.06V32.6262H155.657V41.7925V48.493V59.053H172.649V65.6998H147.724Z" fill="#86F097"/>
<path d="M171.881 41.7925V48.493H156.805V41.7925H171.881Z" fill="#26D8D4"/>
<path d="M195.187 25.8955H202.167L191.837 44.3218L188.208 37.3422L195.187 25.8955Z" fill="#26D8D4"/>
<path d="M180.39 65.54H173.411L183.74 47.1137L187.37 54.0934L180.39 65.54Z" fill="#26D8D4"/>
<path d="M181.787 25.8955H174.807L193.792 65.5401H200.771L181.787 25.8955Z" fill="#7CEE9E"/>
<path d="M126.065 65.5391H111.989V25.8945H126.181C130.175 25.8945 133.613 26.6882 136.496 28.2755C139.378 29.85 141.595 32.1148 143.146 35.0701C144.71 38.0254 145.492 41.5614 145.492 45.6781C145.492 49.8077 144.71 53.3566 143.146 56.3248C141.595 59.293 139.365 61.5708 136.457 63.1581C133.562 64.7454 130.098 65.5391 126.065 65.5391ZM120.384 58.3574H125.716C128.198 58.3574 130.285 57.9186 131.978 57.0411C133.684 56.1506 134.964 54.7762 135.817 52.9179C136.683 51.0466 137.116 48.6334 137.116 45.6781C137.116 42.7486 136.683 40.3547 135.817 38.4964C134.964 36.6381 133.691 35.2701 131.998 34.3926C130.304 33.515 128.217 33.0762 125.735 33.0762H120.384V58.3574Z" fill="#86F097"/>
<defs>
<linearGradient id="paint0_linear_301_411" x1="138.938" y1="42.5276" x2="374.013" y2="42.5276" gradientUnits="userSpaceOnUse">
<stop stop-color="#86F097"/>
<stop offset="1" stop-color="#23D7D5"/>
</linearGradient>
<linearGradient id="paint1_linear_301_411" x1="139.059" y1="42.3889" x2="374.134" y2="42.3889" gradientUnits="userSpaceOnUse">
<stop stop-color="#86F097"/>
<stop offset="1" stop-color="#23D7D5"/>
</linearGradient>
<linearGradient id="paint2_linear_301_411" x1="140.559" y1="42.3889" x2="375.634" y2="42.3889" gradientUnits="userSpaceOnUse">
<stop stop-color="#86F097"/>
<stop offset="1" stop-color="#23D7D5"/>
</linearGradient>
<linearGradient id="paint3_linear_301_411" x1="141.731" y1="42.5276" x2="376.806" y2="42.5276" gradientUnits="userSpaceOnUse">
<stop stop-color="#86F097"/>
<stop offset="1" stop-color="#23D7D5"/>
</linearGradient>
</defs>
</svg>
