<svg width="18" height="14" viewBox="0 0 18 14" fill="none" xmlns="http://www.w3.org/2000/svg">
<path d="M18 7.00211C18 6.88747 17.9817 6.79157 17.9765 6.78016C17.9726 6.72336 17.9543 6.61982 17.9373 6.56548C17.9328 6.55196 17.9269 6.53778 17.9217 6.52426C17.9125 6.49309 17.9028 6.46262 17.8917 6.43839C16.2319 2.58793 12.6583 0 9.00047 0C5.34331 0 1.77005 2.58554 0.117772 6.41517C0.0978645 6.45674 0.083812 6.49656 0.074996 6.53119C0.0710851 6.54261 0.0665115 6.55334 0.062932 6.56339C0.0302753 6.66486 0.0296346 6.73547 0.0322418 6.71712C0.0169077 6.79157 0.00285512 6.93977 0.00285512 6.93977C-0.00105573 6.98442 -0.00105569 7.02008 0.00351801 7.06442C0.00351801 7.06442 0.0175485 7.19392 0.0244201 7.22021C0.0263645 7.25691 0.0348491 7.31025 0.0449687 7.35873H0.0443058C0.0531217 7.40028 0.0652078 7.44045 0.0818455 7.47991C0.0903521 7.51038 0.100472 7.53878 0.109288 7.56025C1.77136 11.4114 5.34398 14 9.00047 14C12.6589 14 16.2325 11.4135 17.8734 7.60318C17.8988 7.55331 17.9152 7.50623 17.9263 7.46536C17.9315 7.45292 17.9361 7.44183 17.9393 7.43075C17.9681 7.34207 17.9739 7.26523 17.9713 7.26523L17.9707 7.26591C17.9824 7.20432 18 7.11223 18 7.00211ZM16.7882 7.04919C16.7875 7.05198 16.7862 7.05542 16.7849 7.05821C16.783 7.06651 16.7797 7.07621 16.7777 7.08591C15.3007 10.4619 12.1823 12.7272 9.00047 12.7272C5.82649 12.7272 2.71356 10.4682 1.22189 7.08038C1.21829 7.06862 1.21568 7.05751 1.21177 7.04645C1.21111 7.03536 1.20917 7.02636 1.20852 7.02011C1.20722 7.01322 1.20592 7.00351 1.20492 6.99517V6.98652C1.20852 6.97232 1.21111 6.95815 1.21244 6.94256C1.21504 6.93427 1.21701 6.9263 1.21995 6.9173C2.69754 3.53951 5.81862 1.27322 9.00044 1.27322C12.1835 1.27322 15.304 3.54157 16.7771 6.91416C16.7784 6.92074 16.7797 6.9263 16.7816 6.9308C16.783 6.93633 16.7842 6.94188 16.7868 6.94776C16.7901 6.97305 16.7927 6.99798 16.796 7.01043C16.7921 7.02357 16.7901 7.03604 16.7882 7.04919Z" fill="white" fill-opacity="0.55"/>
<path d="M9 3.65217C7.23956 3.65217 5.80645 5.15386 5.80645 6.99981C5.80645 8.8454 7.23956 10.3478 9 10.3478C10.7604 10.3478 12.1935 8.8454 12.1935 6.99981C12.1935 5.15386 10.7604 3.65217 9 3.65217ZM9 9.00862C7.94429 9.00862 7.08389 8.10733 7.08389 6.99984C7.08389 5.8927 7.94429 4.99143 9 4.99143C10.0564 4.99143 10.9162 5.89272 10.9162 6.99984C10.9161 8.10733 10.0564 9.00862 9 9.00862Z" fill="white" fill-opacity="0.55"/>
</svg>
