<svg width="20" height="14" viewBox="0 0 20 14" fill="none" xmlns="http://www.w3.org/2000/svg">
<path opacity="0.5" d="M19.3364 5.94298C19.7788 6.48118 20 6.74914 20 7.15849C20 7.56784 19.7788 7.8358 19.3364 8.374C17.7172 10.3398 14.146 14 10 14C5.85405 14 2.28278 10.3398 0.663626 8.374C0.221209 7.8358 0 7.56784 0 7.15849C0 6.74914 0.221209 6.48118 0.663626 5.94298C2.28278 3.97719 5.85405 0.316986 10 0.316986C14.146 0.316986 17.7172 3.97719 19.3364 5.94298Z" fill="white"/>
<path d="M10.0001 10.5791C11.8893 10.5791 13.4209 9.04761 13.4209 7.15838C13.4209 5.26915 11.8893 3.73763 10.0001 3.73763C8.11087 3.73763 6.57935 5.26915 6.57935 7.15838C6.57935 9.04761 8.11087 10.5791 10.0001 10.5791Z" fill="white"/>
</svg>
