<svg width="16" height="14" viewBox="0 0 16 14" fill="none" xmlns="http://www.w3.org/2000/svg">
<path fill-rule="evenodd" clip-rule="evenodd" d="M8.0005 2.88578L7.27759 2.13051C6.59188 1.41411 5.64797 1 4.66258 1C2.65168 1 1 2.65259 1 4.6995C1 4.72558 1.00236 4.75466 1.00927 4.81628L1.01869 4.90027L1.01388 4.98465L1.01321 4.9966L1.01314 4.99815C1.01425 5.29199 1.08901 5.66066 1.27467 6.10153L1.28426 6.1243L1.2897 6.13925L1.29468 6.15084C1.90846 7.58107 3.47333 9.23313 5.04365 10.6178C6.3831 11.7988 7.60152 12.6803 7.98591 12.9577C8.32882 12.7095 9.36587 11.9577 10.5679 10.9269C11.9757 9.71964 13.5002 8.2194 14.3385 6.82211L14.3522 6.79926L14.3672 6.77717C14.402 6.72556 14.4288 6.67548 14.4787 6.58221L14.4796 6.58049C14.4812 6.57746 14.4816 6.57658 14.4822 6.5754C14.4832 6.57318 14.4848 6.56989 14.4954 6.5492C14.5009 6.53839 14.5082 6.5241 14.5171 6.50753L14.5263 6.48796L14.5468 6.45226C14.5521 6.4429 14.5607 6.42816 14.5721 6.40984C14.655 6.24966 14.7177 6.10812 14.7664 5.97653L14.7698 5.96743L14.7734 5.95839C14.9321 5.55421 14.9899 5.24559 14.9904 4.99638L14.9811 4.90525L14.9932 4.79827C14.9976 4.75892 15 4.73001 15 4.6995C15 2.65375 13.3471 1 11.3374 1C10.3495 1 9.40714 1.41416 8.72289 2.13002L8.0005 2.88578ZM15.4346 6.91831C15.4275 6.92758 15.4203 6.93917 15.4143 6.9496L15.4084 6.96235C15.3973 6.98142 15.3874 7.00106 15.3774 7.02087C15.3735 7.02876 15.3695 7.03668 15.3654 7.0446C15.3616 7.0517 15.3578 7.05889 15.3539 7.06616C15.3102 7.14801 15.2607 7.24084 15.196 7.33659C13.4529 10.2421 9.21472 13.3037 8.55972 13.7768C8.51913 13.8062 8.4923 13.8255 8.48067 13.8343C8.33519 13.9444 8.16222 14 7.98688 14C7.81389 14 7.64216 13.9467 7.49782 13.8389C7.48529 13.8295 7.45755 13.8095 7.41606 13.7796C6.68762 13.255 1.71978 9.67713 0.375722 6.54521C0.367369 6.52787 0.36022 6.50932 0.353055 6.48964C0.127619 5.95431 0.0131248 5.45029 0.0131248 4.99149C0.0131248 4.96949 0.0143121 4.94865 0.0155002 4.9278L0.0155026 4.92776C0.00835356 4.86403 0 4.78641 0 4.6995C0 2.1076 2.09213 0 4.66258 0C5.78777 0 6.86211 0.419604 7.69673 1.14917C7.80174 1.24096 7.90296 1.33766 8 1.43905C8.09684 1.33774 8.19784 1.24111 8.30263 1.14938C9.13628 0.419676 10.21 0 11.3374 0C13.9067 0 16 2.10876 16 4.6995C16 4.78524 15.9929 4.85708 15.9869 4.91035C15.9892 4.93353 15.9904 4.96134 15.9904 4.99262C15.9904 5.3993 15.8962 5.83496 15.7042 6.32391C15.6338 6.51393 15.5455 6.70858 15.4346 6.91831Z" fill="#9E9E9E"/>
</svg>
