<svg width="16" height="14" viewBox="0 0 16 14" fill="none" xmlns="http://www.w3.org/2000/svg">
<path d="M16 4.6995C16 2.10876 13.9067 0 11.3374 0C10.0683 0 8.86718 0.53182 8 1.43905C7.13165 0.531835 5.92934 0 4.66258 0C2.09213 0 0 2.1076 0 4.6995C0 4.78641 0.00835356 4.86403 0.0155026 4.92776C0.0143137 4.94862 0.0131248 4.96947 0.0131248 4.99149C0.0131248 5.45029 0.127619 5.95431 0.353055 6.48964C0.36022 6.50932 0.367369 6.52787 0.375722 6.54521C1.79633 9.8555 7.26525 13.664 7.49782 13.8389C7.64216 13.9467 7.81389 14 7.98688 14C8.16222 14 8.33519 13.9444 8.48067 13.8343C8.67986 13.6837 13.3448 10.4221 15.196 7.33659C15.2664 7.23233 15.3189 7.13153 15.3654 7.0446C15.3797 7.01681 15.3929 6.98901 15.4084 6.96235L15.4143 6.9496C15.4203 6.93917 15.4275 6.92758 15.4346 6.91831C15.5455 6.70858 15.6338 6.51393 15.7042 6.32391C15.8962 5.83496 15.9904 5.3993 15.9904 4.99262C15.9904 4.96134 15.9892 4.93353 15.9869 4.91035C15.9929 4.85708 16 4.78524 16 4.6995Z" fill="#F93B3B"/>
</svg>
