<svg width="16" height="14" viewBox="0 0 16 14" fill="none" xmlns="http://www.w3.org/2000/svg">
<path d="M7.49782 13.8389L7.79836 13.4393C7.78372 13.4283 7.75288 13.4061 7.70745 13.3733C7.35042 13.116 6.09221 12.209 4.71297 10.9928C3.14087 9.60659 1.49724 7.89071 0.835199 6.34802L0.830899 6.33801L0.827667 6.3313L0.822884 6.31858L0.818657 6.30697L0.813862 6.29558C0.607612 5.80581 0.513125 5.36835 0.513125 4.99149C0.513125 4.98589 0.5134 4.9789 0.514693 4.95621L0.517097 4.91402L0.512386 4.87202C0.505355 4.80935 0.5 4.756 0.5 4.6995C0.5 2.38009 2.37191 0.5 4.66258 0.5C5.78865 0.5 6.86176 0.972971 7.63879 1.78478L8.00025 2.16241L8.36144 1.78453C9.13716 0.972989 10.2089 0.5 11.3374 0.5C13.6269 0.5 15.5 2.38125 15.5 4.6995C15.5 4.75763 15.4952 4.80801 15.49 4.85431L15.484 4.9078L15.4895 4.96134L15.4895 4.96135L15.4895 4.96193L15.4897 4.96368L15.49 4.97017C15.4903 4.97582 15.4904 4.98329 15.4904 4.99262C15.4904 5.32089 15.4145 5.69357 15.2388 6.14115L15.2387 6.14112L15.2353 6.15022C15.1763 6.30938 15.1017 6.47601 15.0058 6.65954C14.9945 6.67689 14.9859 6.69157 14.9805 6.70093L14.9703 6.71878L14.9632 6.73396C14.9469 6.76381 14.9312 6.79523 14.9241 6.80924C14.9226 6.81243 14.9214 6.81472 14.9208 6.81588L15.3654 7.0446M7.49782 13.8389L7.79695 13.4383C7.85103 13.4787 7.91677 13.5 7.98688 13.5C8.05574 13.5 8.12227 13.4785 8.17898 13.4356L8.17912 13.4355C8.1932 13.4248 8.22376 13.4027 8.26915 13.3699C8.59121 13.137 9.66018 12.364 10.8934 11.3065C12.3086 10.0929 13.8853 8.54937 14.7673 7.07935L14.7741 7.06792L14.7816 7.05688C14.8312 6.98341 14.8693 6.91215 14.9146 6.82733C14.9179 6.82118 14.9212 6.81497 14.9246 6.80868L15.3654 7.0446M7.49782 13.8389C7.64216 13.9467 7.81389 14 7.98688 14C8.16222 14 8.33519 13.9444 8.48067 13.8343C8.4923 13.8255 8.51913 13.8062 8.55972 13.7768C9.21472 13.3037 13.4529 10.2421 15.196 7.33659C15.2607 7.24084 15.3102 7.14801 15.3539 7.06616C15.3578 7.05889 15.3616 7.0517 15.3654 7.0446M7.49782 13.8389C7.48529 13.8295 7.45755 13.8095 7.41606 13.7796C6.68762 13.255 1.71978 9.67713 0.375722 6.54521C0.367369 6.52787 0.36022 6.50932 0.353055 6.48964C0.127619 5.95431 0.0131248 5.45029 0.0131248 4.99149C0.0131248 4.96949 0.0143121 4.94865 0.0155002 4.9278L0.0155026 4.92776C0.00835356 4.86403 0 4.78641 0 4.6995C0 2.1076 2.09213 0 4.66258 0C5.78777 0 6.86211 0.419604 7.69673 1.14917L15.4084 6.96235C15.3973 6.98142 15.3874 7.00106 15.3774 7.02087C15.3735 7.02876 15.3695 7.03668 15.3654 7.0446" stroke="#9E9E9E"/>
</svg>
