<svg width="12" height="20" viewBox="0 0 12 20" fill="none" xmlns="http://www.w3.org/2000/svg">
<path d="M9.49848 10.9102L9.06844 10.503L9.11282 9.90679C9.39597 6.01088 8.08021 2.99431 6.01437 1.47552C3.92853 3.00449 2.58964 6.03188 2.8778 9.92142L2.92093 10.5087L2.50213 10.9159C1.87394 11.5261 1.49765 12.2031 1.32889 13.0812L4.53859 12.4366L4.848 13.5355C4.92238 13.7995 5.38306 14.0916 5.98249 14.0897C6.58256 14.0897 7.0551 13.7906 7.13011 13.5386L7.44952 12.4538L10.683 13.1111C10.5211 12.1993 10.1442 11.5204 9.49848 10.9102ZM5.88186 0.0808073L6.015 0L6.14814 0.0808068C8.43462 1.42844 10.7149 4.74979 10.3323 9.99777C11.5006 11.1043 12.0025 12.4296 12 14.3219L11.9987 14.6464L8.30211 13.8956C8.06208 14.7087 7.10073 15.3323 5.98562 15.3336C4.868 15.3361 3.9104 14.7164 3.67413 13.879L0 14.6171L0.000625181 14.2933C0.00437561 12.4532 0.513179 11.1272 1.6583 10.015C1.26951 4.76951 3.591 1.43925 5.88123 0.0814437L5.88186 0.0808073ZM5.97937 16.2663C6.55818 16.2663 7.01135 16.8562 7.01073 17.5758C7.01135 18.5258 5.97937 20 5.97937 20C5.97937 20 4.94676 18.4271 4.94801 17.5758C4.94739 16.8562 5.39681 16.2663 5.97874 16.267L5.97937 16.2663ZM5.36431 6.43591C5.27475 6.52158 5.20302 6.62469 5.15336 6.73912C5.1037 6.85355 5.07713 6.97697 5.07522 7.10205C5.07331 7.22713 5.09611 7.35133 5.14225 7.46727C5.1884 7.58321 5.25696 7.68854 5.34386 7.777C5.43075 7.86545 5.53422 7.93524 5.64812 7.98221C5.76202 8.02919 5.88403 8.05239 6.00691 8.05045C6.12979 8.04851 6.25104 8.02146 6.36345 7.97091C6.47586 7.92036 6.57715 7.84734 6.66131 7.75618C6.82459 7.57932 6.91383 7.34472 6.91013 7.10205C6.90643 6.85938 6.81008 6.6277 6.64149 6.45609C6.4729 6.28448 6.24531 6.1864 6.00691 6.18263C5.76852 6.17887 5.53805 6.26971 5.36431 6.43591Z" fill="#86F097"/>
</svg>
