<svg width="24" height="28" viewBox="0 0 24 28" fill="none" xmlns="http://www.w3.org/2000/svg">
<mask id="path-1-inside-1_198_54000" fill="white">
<path d="M11.605 0.5H11.6037H0.870483V23.5026H6.23776V5.10052H11.6037H11.605C13.5566 5.10085 15.4281 5.82786 16.8081 7.12172C18.1884 8.41587 18.9638 10.1711 18.9638 12.0013C18.9638 12.1213 18.9768 12.4458 18.8914 12.6145C20.3453 12.952 22.1496 13.6011 23.3049 15.2366C23.8341 13.9381 23.8705 13.4183 23.8705 12.0013C23.8705 8.95097 22.5781 6.02557 20.2776 3.86866C17.9775 1.71203 14.8579 0.500325 11.605 0.5Z"/>
</mask>
<path d="M11.605 0.5L11.6066 -14.98H11.605V0.5ZM20.2776 3.86866L30.8657 -7.42401L30.8656 -7.42402L20.2776 3.86866ZM18.9638 12.0013L3.48378 12.0013V12.0013H18.9638ZM16.8081 7.12172L27.3961 -4.17095L27.3961 -4.17096L16.8081 7.12172ZM11.605 5.10052L11.6076 -10.3795H11.605V5.10052ZM6.23776 5.10052V-10.3795H-9.24224V5.10052H6.23776ZM6.23776 23.5026V38.9826H21.7178V23.5026H6.23776ZM0.870483 23.5026H-14.6095V38.9826H0.870483V23.5026ZM0.870483 0.5V-14.98H-14.6095V0.5H0.870483ZM18.8914 12.6145L5.0768 5.62985L-3.82341 23.2331L15.391 27.6936L18.8914 12.6145ZM23.3049 15.2366L10.661 24.1676L26.9704 47.2573L37.6399 21.0793L23.3049 15.2366ZM11.6037 15.98H11.605V-14.98H11.6037V15.98ZM11.6035 15.98C11.0617 15.9799 10.3573 15.7874 9.68963 15.1613L30.8656 -7.42402C25.5976 -12.3633 18.6542 -14.9793 11.6066 -14.98L11.6035 15.98ZM9.68962 15.1613C8.98806 14.5035 8.39048 13.3901 8.39048 12.0013H39.3505C39.3505 4.5118 36.1681 -2.4524 30.8657 -7.42401L9.68962 15.1613ZM34.4438 12.0013C34.4438 5.73194 31.7784 -0.0621046 27.3961 -4.17095L6.22006 18.4144C4.59831 16.8938 3.48378 14.6103 3.48378 12.0013L34.4438 12.0013ZM27.3961 -4.17096C23.0485 -8.24724 17.3535 -10.3785 11.6076 -10.3795L11.6025 20.5805C9.75964 20.5802 7.8077 19.903 6.22006 18.4144L27.3961 -4.17096ZM11.605 -10.3795H11.6037V20.5805H11.605V-10.3795ZM11.6037 -10.3795H6.23776V20.5805H11.6037V-10.3795ZM21.7178 23.5026V5.10052H-9.24224V23.5026H21.7178ZM0.870483 38.9826H6.23776V8.02262H0.870483V38.9826ZM-14.6095 0.5V23.5026H16.3505V0.5H-14.6095ZM11.6037 -14.98H0.870483V15.98H11.6037V-14.98ZM32.7061 19.5992C33.6217 17.7883 33.9846 16.1965 34.1399 15.3894C34.3143 14.4829 34.3795 13.7283 34.4087 13.2675C34.4572 12.5008 34.4438 11.503 34.4438 12.0013H3.48378C3.48378 12.6196 3.47683 11.844 3.51052 11.3118C3.53227 10.9682 3.58473 10.3339 3.7376 9.53938C3.87133 8.84441 4.20385 7.35641 5.0768 5.62985L32.7061 19.5992ZM8.39048 12.0013C8.39048 12.3392 8.38699 12.3451 8.39118 12.2488C8.39758 12.1018 8.41983 11.7214 8.50128 11.2132C8.68557 10.0636 9.00656 9.30386 8.96982 9.39402L37.6399 21.0793C38.1325 19.8709 38.7362 18.202 39.071 16.1135C39.3674 14.2647 39.3505 12.6175 39.3505 12.0013H8.39048ZM15.391 27.6936C15.3849 27.6922 15.2472 27.6605 15.0253 27.5847C14.8031 27.5087 14.4444 27.371 14.0027 27.1386C13.0884 26.6576 11.7719 25.7404 10.661 24.1676L35.9488 6.30565C31.4274 -0.09535 24.9057 -1.88092 22.3919 -2.46448L15.391 27.6936Z" fill="white" mask="url(#path-1-inside-1_198_54000)"/>
<circle cx="9.11311" cy="10.4678" r="1.91688" fill="white"/>
<circle cx="14.8254" cy="10.4678" r="1.91688" fill="white"/>
<circle cx="16.8705" cy="20.5" r="6.3" stroke="white" stroke-width="1.4"/>
<path d="M16.1597 16.7408H17.5813L17.318 22.1005H16.423L16.1597 16.7408ZM16.8652 22.6692C17.1039 22.6692 17.3005 22.7429 17.4549 22.8903C17.6094 23.0447 17.6866 23.2343 17.6866 23.4589C17.6866 23.6906 17.6094 23.8836 17.4549 24.038C17.2864 24.1855 17.0899 24.2592 16.8652 24.2592C16.6406 24.2592 16.4511 24.182 16.2966 24.0275C16.1352 23.8871 16.0544 23.6976 16.0544 23.4589C16.0544 23.2202 16.1352 23.0307 16.2966 22.8903C16.444 22.7429 16.6336 22.6692 16.8652 22.6692Z" fill="white"/>
</svg>
