<svg width="23" height="27" viewBox="0 0 23 27" fill="none" xmlns="http://www.w3.org/2000/svg">
<mask id="path-1-inside-1_197_55282" fill="white">
<path d="M10.7346 0H10.7332H0V23.0026H5.36728V4.60052H10.7332H10.7346C12.6861 4.60085 14.5576 5.32786 15.9376 6.62172C17.3179 7.91587 18.0933 9.67111 18.0933 11.5013C18.0933 11.6213 18.1063 11.9458 18.021 12.1145C19.4748 12.452 21.2791 13.1011 22.4344 14.7366C22.9636 13.4381 23 12.9183 23 11.5013C23 8.45097 21.7076 5.52557 19.4072 3.36866C17.107 1.21203 13.9874 0.000324779 10.7346 0Z"/>
</mask>
<path d="M10.7346 0L10.7361 -15.48H10.7346V0ZM19.4072 3.36866L29.9952 -7.92401L29.9952 -7.92402L19.4072 3.36866ZM18.0933 11.5013L2.6133 11.5013V11.5013H18.0933ZM15.9376 6.62172L26.5256 -4.67095L26.5256 -4.67096L15.9376 6.62172ZM10.7346 4.60052L10.7371 -10.8795H10.7346V4.60052ZM5.36728 4.60052V-10.8795H-10.1127V4.60052H5.36728ZM5.36728 23.0026V38.4826H20.8473V23.0026H5.36728ZM0 23.0026H-15.48V38.4826H0V23.0026ZM0 0V-15.48H-15.48V0H0ZM18.021 12.1145L4.20631 5.12985L-4.69389 22.7331L14.5205 27.1936L18.021 12.1145ZM22.4344 14.7366L9.79052 23.6676L26.0999 46.7573L36.7695 20.5793L22.4344 14.7366ZM10.7332 15.48H10.7346V-15.48H10.7332V15.48ZM10.733 15.48C10.1912 15.4799 9.48685 15.2874 8.81914 14.6613L29.9952 -7.92402C24.7271 -12.8633 17.7837 -15.4793 10.7361 -15.48L10.733 15.48ZM8.81914 14.6613C8.11757 14.0035 7.52 12.8901 7.52 11.5013H38.48C38.48 4.0118 35.2977 -2.9524 29.9952 -7.92401L8.81914 14.6613ZM33.5733 11.5013C33.5733 5.23194 30.9079 -0.562105 26.5256 -4.67095L5.34958 17.9144C3.72783 16.3938 2.61329 14.1103 2.6133 11.5013L33.5733 11.5013ZM26.5256 -4.67096C22.178 -8.74724 16.483 -10.8785 10.7371 -10.8795L10.732 20.0805C8.88916 20.0802 6.93722 19.403 5.34958 17.9144L26.5256 -4.67096ZM10.7346 -10.8795H10.7332V20.0805H10.7346V-10.8795ZM10.7332 -10.8795H5.36728V20.0805H10.7332V-10.8795ZM20.8473 23.0026V4.60052H-10.1127V23.0026H20.8473ZM0 38.4826H5.36728V7.52262H0V38.4826ZM-15.48 0V23.0026H15.48V0H-15.48ZM10.7332 -15.48H0V15.48H10.7332V-15.48ZM31.8356 19.0992C32.7512 17.2883 33.1141 15.6965 33.2694 14.8894C33.4438 13.9829 33.509 13.2283 33.5382 12.7675C33.5867 12.0008 33.5733 11.003 33.5733 11.5013H2.6133C2.6133 12.1196 2.60635 11.344 2.64004 10.8118C2.66179 10.4682 2.71424 9.83386 2.86712 9.03938C3.00084 8.34441 3.33336 6.85641 4.20631 5.12985L31.8356 19.0992ZM7.52 11.5013C7.52 11.8392 7.5165 11.8451 7.52069 11.7488C7.52709 11.6018 7.54935 11.2214 7.6308 10.7132C7.81509 9.56357 8.13608 8.80386 8.09933 8.89402L36.7695 20.5793C37.262 19.3709 37.8658 17.702 38.2005 15.6135C38.4969 13.7647 38.48 12.1175 38.48 11.5013H7.52ZM14.5205 27.1936C14.5144 27.1922 14.3767 27.1605 14.1549 27.0847C13.9326 27.0087 13.574 26.871 13.1322 26.6386C12.2179 26.1576 10.9014 25.2404 9.79052 23.6676L35.0783 5.80565C30.5569 -0.59535 24.0353 -2.38092 21.5215 -2.96448L14.5205 27.1936Z" fill="white" mask="url(#path-1-inside-1_197_55282)"/>
<mask id="path-3-inside-2_197_55282" fill="white">
<path d="M14.9213 10.7426C15.7203 10.0481 15.8051 8.83739 15.1106 8.03836L12.217 10.5533C12.9115 11.3524 14.1223 11.4371 14.9213 10.7426Z"/>
</mask>
<path d="M15.1106 8.03836L23.2891 0.929838L16.1806 -7.24866L8.00207 -0.140145L15.1106 8.03836ZM12.217 10.5533L5.10852 2.37484L-3.06998 9.48336L4.03854 17.6619L12.217 10.5533ZM6.93209 15.1469C3.70066 11.429 4.09496 5.79555 7.81279 2.56412L22.0298 18.9211C27.3457 14.3007 27.9095 6.24573 23.2891 0.929838L6.93209 15.1469ZM7.81279 2.56412C11.5306 -0.667307 17.1641 -0.273003 20.3955 3.44483L4.03854 17.6619C8.65896 22.9778 16.7139 23.5415 22.0298 18.9211L7.81279 2.56412ZM8.00207 -0.140145L5.10852 2.37484L19.3256 18.7318L22.2191 16.2169L8.00207 -0.140145Z" fill="white" mask="url(#path-3-inside-2_197_55282)"/>
<mask id="path-5-inside-3_197_55282" fill="white">
<path d="M7.92671 10.7425C7.12768 10.048 7.04294 8.83727 7.73743 8.03823L10.631 10.5532C9.93649 11.3523 8.72574 11.437 7.92671 10.7425Z"/>
</mask>
<path d="M7.73743 8.03823L-0.441067 0.929716L6.66745 -7.24878L14.846 -0.140267L7.73743 8.03823ZM10.631 10.5532L17.7395 2.37472L25.918 9.48324L18.8095 17.6617L10.631 10.5532ZM15.9159 15.1468C19.1474 11.4289 18.7531 5.79543 15.0352 2.564L0.818195 18.921C-4.4977 14.3006 -5.06149 6.24561 -0.441067 0.929716L15.9159 15.1468ZM15.0352 2.564C11.3174 -0.667429 5.68391 -0.273125 2.45248 3.4447L18.8095 17.6617C14.1891 22.9776 6.13409 23.5414 0.818195 18.921L15.0352 2.564ZM14.846 -0.140267L17.7395 2.37472L3.52246 18.7317L0.628915 16.2167L14.846 -0.140267Z" fill="white" mask="url(#path-5-inside-3_197_55282)"/>
<circle cx="16" cy="20" r="6.3" stroke="white" stroke-width="1.4"/>
<path d="M13.1716 17.1716C12.8976 17.4455 12.8976 17.8898 13.1716 18.1637L15.0078 20L13.1716 21.8362C12.8976 22.1102 12.8976 22.5544 13.1716 22.8284C13.4455 23.1024 13.8898 23.1024 14.1638 22.8284L16 20.9922L17.8362 22.8284C18.1102 23.1024 18.5545 23.1024 18.8284 22.8284C19.1025 22.5544 19.1025 22.1102 18.8284 21.8362L16.9922 20L18.8284 18.1638C19.1025 17.8898 19.1025 17.4455 18.8284 17.1716C18.5545 16.8976 18.1102 16.8976 17.8362 17.1716L16 19.0077L14.1638 17.1716C13.8898 16.8976 13.4455 16.8976 13.1716 17.1716Z" fill="white"/>
</svg>
