<svg width="33" height="27" viewBox="0 0 33 27" fill="none" xmlns="http://www.w3.org/2000/svg">
<path d="M14.6867 0.00015204H9.27793C9.27308 0.000150824 7.91264 -0.000189442 6.57422 0.00015204C5.2334 0.000494133 3.87048 0.000152869 3.87048 0.000152869V17.131L9.27861 19.7122V4.65457H14.6867C16.6531 4.6549 18.5389 5.39042 19.9294 6.69944C21.2679 7.95958 22.1595 9.8468 22.2157 11.6229C22.2167 11.655 22.2496 11.6743 22.2759 11.6626C22.2846 11.6587 22.2902 11.6516 22.2962 11.6442C22.8826 10.9118 24.8832 8.48298 26.0288 7.19424C25.4242 5.52692 24.7736 4.67761 23.4253 3.40827C21.1077 1.22638 17.9644 0.000480604 14.6867 0.00015204Z" fill="white"/>
<path d="M19.8637 9.6455C19.8637 10.7166 18.9989 11.5848 17.9322 11.5848C16.8655 11.5848 16.0008 10.7166 16.0008 9.6455C16.0008 8.57444 16.8655 7.70616 17.9322 7.70616C18.9989 7.70616 19.8637 8.57444 19.8637 9.6455Z" fill="white"/>
<path fill-rule="evenodd" clip-rule="evenodd" d="M10.7217 7.754C10.873 7.50457 11.1969 7.42544 11.4454 7.57727L14.1108 9.20633C14.2678 9.30227 14.3636 9.47345 14.3636 9.65797C14.3636 9.8425 14.2678 10.0137 14.1108 10.1096L11.4454 11.7387C11.1969 11.8905 10.873 11.8114 10.7217 11.5619C10.5705 11.3125 10.6493 10.9872 10.8978 10.8354L12.8242 9.65797L10.8978 8.48056C10.6493 8.32873 10.5705 8.00344 10.7217 7.754Z" fill="white"/>
<path d="M2 18.705L14.6619 24.8921L31.0647 4.74817" stroke="white" stroke-width="3" stroke-linecap="round" stroke-linejoin="round"/>
</svg>
