<svg width="26" height="26" viewBox="0 0 26 26" fill="none" xmlns="http://www.w3.org/2000/svg">
<path d="M18.33 22.49L14.95 20.8L15.21 23.14V24.05L18.33 22.49ZM7.66998 22.49L10.79 24.05V23.14L11.05 20.8L7.66998 22.49Z" fill="#D3BDB1"/>
<path d="M8.06 16.25L10.92 17.03L10.01 15.21L8.06 16.25ZM15.99 15.21L15.08 17.03L17.94 16.25L15.99 15.21Z" fill="#213346"/>
<path d="M15.21 24.05V23.14L14.95 22.88H11.05L10.79 23.14V24.05L7.53998 22.49L8.70998 23.4L11.05 24.96H14.95L17.29 23.4L18.46 22.49L15.21 24.05Z" fill="#BEAA9C"/>
<path d="M14.95 20.8L14.43 20.41H11.57L11.05 20.8L10.79 23.01L11.05 22.75H14.95L15.21 23.01L14.95 20.8Z" fill="#151515"/>
<path d="M20.28 13.91L14.56 14.17L15.08 17.03L15.99 15.34L17.94 16.25L20.28 13.91ZM8.06 16.25L10.01 15.21L10.92 17.03L11.44 14.17L5.72 13.91L8.06 16.25ZM21.06 18.46L17.94 18.59V18.46H17.81L18.33 22.49L21.06 18.46ZM8.06 18.59L5.07 18.46H4.94L7.67 22.49L8.19 18.46H8.06V18.59Z" fill="#C4602A"/>
<path d="M7.28 11.44L10.92 8.18999L1.3 1.03999L0 4.80999L0.91 8.96999L0.26 9.35999L1.17 10.01L0.52 10.53L1.3 11.18L0.78 11.57L1.95 13L7.28 11.44Z" fill="#733D1E"/>
<path d="M15.08 17.03L14.43 20.54L14.95 20.8L17.94 18.59V16.25L15.08 17.03Z" fill="#EB8126"/>
<path d="M24.05 13L18.72 11.44L20.28 13.91L17.94 18.59L21.06 18.46H25.74L24.05 13ZM7.28001 11.44L1.95001 13L0.26001 18.46H4.94001L8.06001 18.59L5.72001 13.91L7.28001 11.44ZM14.43 15.99L14.56 14.17L14.95 8.19L16.38 4.03H9.49001L11.05 8.19L11.44 14.17L11.57 15.99V20.54L10.92 17.03L8.06001 16.25V18.59L11.05 20.8L11.57 20.54H14.43V15.99Z" fill="#EB8126"/>
<path d="M14.56 14.17L14.43 15.99V20.54L15.08 17.03L14.56 14.17ZM11.44 14.17L10.92 17.03L11.57 20.54V15.99L11.44 14.17ZM8.06001 18.59L7.67001 22.49L4.94001 18.46H0.26001L1.82001 24.18L7.67001 22.49L11.05 20.8L8.06001 18.59Z" fill="#D97328"/>
<path d="M21.06 18.46H20.93L18.33 22.49L17.94 18.59L20.28 13.91L18.72 11.44L14.95 8.18999L24.7 1.03999L16.38 4.02999L14.95 8.18999L14.56 14.04V14.17L20.28 13.91L17.94 16.25V18.59L14.95 20.8L18.33 22.49L24.18 24.18L25.74 18.46H21.06ZM8.05997 18.59V16.25L5.71997 13.91L8.05997 18.59Z" fill="#D97328"/>
<path d="M7.27999 11.44L5.71999 13.91L11.44 14.17L11.05 8.18999L9.48999 4.02999L1.29999 1.03999L10.92 8.18999L7.27999 11.44Z" fill="#D97328"/>
<path d="M25.09 8.96999L26 4.80999L24.7 1.03999L14.95 8.18999L18.72 11.44L24.05 13L25.22 11.57L24.7 11.18L25.48 10.53L24.83 10.01L25.74 9.35999L25.09 8.96999Z" fill="#733D1E"/>
</svg>
