<svg width="18" height="16" viewBox="0 0 18 16" fill="none" xmlns="http://www.w3.org/2000/svg">
<g clip-path="url(#clip0_2406_19571)">
<path d="M13.7612 13.0898C12.48 14.3162 10.7747 15.0004 9.00117 14.9998C7.15508 14.984 5.38998 14.2395 4.09018 12.9284C2.79038 11.6174 2.06113 9.84597 2.0612 7.99981C2.06916 7.88559 2.03768 7.7721 1.97202 7.6783C1.90635 7.5845 1.81049 7.51608 1.70044 7.48447C1.5904 7.45286 1.47284 7.45998 1.36741 7.50464C1.26198 7.54929 1.17507 7.62878 1.1212 7.72981L0.0512037 9.8698C0.0221919 9.92887 0.00512762 9.99309 0.000989438 10.0588C-0.00314874 10.1245 0.00572063 10.1903 0.0270889 10.2526C0.0484571 10.3148 0.0819038 10.3722 0.125511 10.4215C0.169117 10.4708 0.222026 10.511 0.281203 10.5398C0.349648 10.5734 0.424978 10.5905 0.501202 10.5898C0.594912 10.59 0.686788 10.5638 0.766353 10.5143C0.845917 10.4648 0.909968 10.394 0.9512 10.3098L1.2512 9.7098C1.63878 11.4814 2.61681 13.0688 4.02493 14.2117C5.43305 15.3545 7.1877 15.985 9.00117 15.9998C11.0308 16.0021 12.983 15.2212 14.4511 13.8198C14.5042 13.776 14.5477 13.7218 14.5788 13.6604C14.6099 13.5991 14.6281 13.532 14.6321 13.4633C14.6361 13.3946 14.6259 13.3259 14.6021 13.2613C14.5783 13.1968 14.5415 13.1378 14.4939 13.0882C14.4463 13.0385 14.389 12.9992 14.3255 12.9727C14.262 12.9462 14.1938 12.9331 14.125 12.9342C14.0562 12.9353 13.9884 12.9506 13.9258 12.979C13.8632 13.0075 13.8071 13.0486 13.7612 13.0998V13.0898ZM17.7211 5.34982C17.6621 5.32081 17.5978 5.30374 17.5322 5.2996C17.4665 5.29547 17.4006 5.30434 17.3384 5.3257C17.2761 5.34707 17.2187 5.38052 17.1694 5.42413C17.1201 5.46773 17.0799 5.52064 17.0511 5.57982L16.7311 6.22982C16.3326 4.47259 15.3524 2.90138 13.9495 1.77068C12.5465 0.639982 10.803 0.0160127 9.00117 -0.000161265C7.95579 -0.00397918 6.92018 0.201041 5.95511 0.602868C4.99004 1.00469 4.11495 1.59523 3.38119 2.33983C3.32919 2.38503 3.2871 2.44049 3.25755 2.50273C3.228 2.56497 3.21163 2.63264 3.20947 2.7015C3.20731 2.77037 3.21941 2.83893 3.245 2.9029C3.27059 2.96687 3.30913 3.02486 3.35819 3.07323C3.40725 3.1216 3.46578 3.15931 3.53011 3.18399C3.59443 3.20867 3.66316 3.21979 3.73199 3.21666C3.80081 3.21352 3.86825 3.19619 3.93006 3.16577C3.99187 3.13534 4.04673 3.09246 4.09119 3.03983C4.73267 2.39017 5.49738 1.87509 6.3405 1.5248C7.18362 1.1745 8.08818 0.996025 9.00117 0.999835C10.8473 1.01566 12.6124 1.76013 13.9122 3.07117C15.212 4.38221 15.9412 6.15365 15.9411 7.99981C15.9411 8.13242 15.9938 8.25959 16.0876 8.35336C16.1814 8.44713 16.3085 8.49981 16.4411 8.49981C16.5524 8.50037 16.6606 8.46306 16.7478 8.394C16.835 8.32493 16.8962 8.22824 16.9211 8.11981L17.9211 6.01982C17.982 5.90415 17.9951 5.76927 17.9577 5.64404C17.9203 5.51882 17.8354 5.41321 17.7211 5.34982Z" fill="#687C69"/>
<path d="M8.72443 4.24719V3.41998H9.22543V4.24719C9.80658 4.28754 10.2875 4.45904 10.6483 4.76168C11.049 5.10466 11.2995 5.62924 11.3997 6.33539H10.5982C10.528 5.85117 10.3477 5.49809 10.0671 5.26607C9.84666 5.08449 9.5661 4.98361 9.22543 4.94326V7.58629C9.82662 7.80822 10.2374 7.95954 10.4579 8.05033C11.1593 8.42359 11.52 8.95825 11.52 9.6644C11.52 10.3706 11.2695 10.9052 10.7785 11.2583C10.3777 11.5307 9.8667 11.682 9.22543 11.7122V12.6H8.72443V11.7122C8.0531 11.6719 7.54209 11.46 7.18137 11.0868C6.78058 10.6833 6.55012 10.0881 6.47998 9.28106H7.29159C7.35171 9.88633 7.51203 10.3201 7.77254 10.5925C7.99298 10.8245 8.31362 10.9657 8.72443 11.0061V8.21174C8.36372 8.07051 8.01302 7.93937 7.66233 7.81831C6.94089 7.45515 6.5902 6.92049 6.5902 6.21433C6.5902 5.55862 6.82066 5.05422 7.30161 4.71124C7.67235 4.42877 8.14328 4.26737 8.72443 4.24719ZM9.22543 8.39332V11.0061C9.64626 10.9758 9.99696 10.8649 10.2575 10.6631C10.5481 10.4311 10.6984 10.1083 10.6984 9.68458C10.6984 9.19027 10.3376 8.80693 9.63624 8.53455C9.49596 8.48411 9.35569 8.43368 9.22543 8.39332ZM8.72443 7.40471V4.94326C8.36372 4.96343 8.07314 5.06431 7.86272 5.22572C7.56213 5.43757 7.41183 5.77047 7.41183 6.21433C7.41183 6.66829 7.76252 7.03146 8.47394 7.31392L8.72443 7.40471Z" fill="#687C69"/>
</g>
<defs>
<clipPath id="clip0_2406_19571">
<rect width="18" height="16.0002" fill="white"/>
</clipPath>
</defs>
</svg>
