<?xml version="1.0" standalone="no"?><!DOCTYPE svg PUBLIC "-//W3C//DTD SVG 1.1//EN" "http://www.w3.org/Graphics/SVG/1.1/DTD/svg11.dtd"><svg t="1715762295566" class="icon" viewBox="0 0 1024 1024" version="1.1" xmlns="http://www.w3.org/2000/svg" p-id="3090" xmlns:xlink="http://www.w3.org/1999/xlink" width="20" height="20"><path d="M190.3 668.6c-85.5 0-154.6-71.1-154.6-159 0-6.2 4.8-11 10.6-11h288.2c5.8 0 10.6 4.8 10.6 10.6-0.2 88.3-69.8 159.4-154.8 159.4z m153.6 264.6c0-39.4 30.7-71.1 69.2-71.1H477V260.3H208l113.8 185.9c5.8 9.6 2.9 22.1-6.2 27.9-9.1 5.8-21.1 2.9-26.9-6.2l-98.5-161.4-98.9 161.3c-3.8 6.2-10.1 9.6-16.8 9.6-3.4 0-7.2-1-10.6-2.9-9.1-5.8-12-18.3-6.2-27.9l113.8-185.9h-1.4c-16.8 0-30.3-13.9-30.3-31.2 0-17.3 13.4-31.2 30.3-31.2h223.3c12.5-18.7 31.2-33.1 52.8-39.9 2.9-36.5 32.7-64.8 68.7-64.8s65.8 28.3 68.7 64.8c21.6 6.7 40.3 21.1 52.8 39.9h223.3c16.8 0 30.3 13.9 30.3 31.2 0 17.3-13.4 31.2-30.3 31.2h-1.4l113.8 185.9c5.8 9.6 2.9 22.1-6.2 27.9-9.1 5.8-21.1 2.9-26.9-6.2l-97.5-161.8L743 467.8c-3.8 6.2-10.1 9.6-16.8 9.6-3.4 0-7.2-1-10.6-2.9-9.1-5.8-12-18.3-6.2-27.9l113.8-185.9H554.8v601.8h63.9c37.9 0 69.2 31.7 69.2 71.1h-344v-0.4z m497.6-264.6c-85 0-154.6-71.6-154.6-159.4 0-5.8 4.8-10.6 10.6-10.6h288.2c5.8 0 10.6 4.8 10.6 10.6-0.2 88.3-69.3 159.4-154.8 159.4z m0 0" p-id="3091" fill="#86f097"></path></svg>