<svg width="16" height="16" viewBox="0 0 16 16" fill="none" xmlns="http://www.w3.org/2000/svg">
<g clip-path="url(#clip0_2406_19576)">
<path d="M7.63975 0.0625007L7.696 0.0656257C7.96787 0.0875007 8.21787 0.225001 8.3835 0.443751C9.82412 2.35469 11.1788 4.0875 12.1288 5.32031L12.2054 5.41875H14.7101C15.4147 5.41875 15.9851 5.98906 15.9851 6.69375V9.24375C15.1351 9.45469 14.7101 9.93281 14.7101 10.6781C14.7101 11.4234 15.1351 11.9016 15.9851 12.1125V14.6625C15.9851 15.3672 15.4147 15.9375 14.7101 15.9375H1.31943C0.614746 15.9375 0.0444336 15.3672 0.0444336 14.6625V12.1141C0.894434 11.9031 1.31943 11.425 1.31943 10.6797C1.31943 9.93438 0.894434 9.45625 0.0444336 9.24531V6.69375C0.0444336 5.98906 0.614746 5.41875 1.31943 5.41875H1.53662L3.45068 2.10156C3.70381 1.66406 4.25381 1.49844 4.70537 1.72344L4.75693 1.75156L4.92725 1.85L5.12568 1.7L7.04443 0.254688C7.21475 0.125001 7.42568 0.0578132 7.63975 0.0625007ZM14.7085 6.21563H1.31787C1.19131 6.21563 1.06943 6.26563 0.980371 6.35625C0.891309 6.44531 0.839746 6.56719 0.839746 6.69375V8.68281C1.65381 9.06563 2.11475 9.75469 2.11475 10.6797C2.11475 11.6047 1.65381 12.2937 0.839746 12.6766V14.6656C0.839746 14.9297 1.05381 15.1438 1.31787 15.1438H14.7085C14.9726 15.1438 15.1866 14.9297 15.1866 14.6656V12.6766C14.3726 12.2937 13.9116 11.6047 13.9116 10.6797C13.9116 9.75469 14.3726 9.06563 15.1866 8.68281V6.69375C15.1866 6.56719 15.1366 6.44531 15.046 6.35625C14.9569 6.26563 14.8366 6.21563 14.7085 6.21563ZM7.62881 0.860938H7.60068C7.58193 0.862501 7.56475 0.868751 7.54756 0.876563L7.52256 0.892188L5.93037 2.09219L5.67568 2.28438L11.1054 5.42031H11.2226L11.1741 5.39688C10.1569 4.07813 8.60537 2.0625 7.81631 1.02031L7.74443 0.925001C7.72256 0.895313 7.68975 0.873438 7.65225 0.865626L7.62881 0.860938ZM4.27725 2.42031L4.25068 2.42344C4.21475 2.42969 4.18037 2.44844 4.15693 2.47656L4.13975 2.5L2.45537 5.41875H9.51318L4.35693 2.44219C4.3335 2.42813 4.30537 2.42031 4.27725 2.42031Z" fill="#D6DFD7"/>
</g>
<defs>
<clipPath id="clip0_2406_19576">
<rect width="16" height="16" fill="white"/>
</clipPath>
</defs>
</svg>
