<svg width="621" height="365" viewBox="0 0 621 365" fill="none" xmlns="http://www.w3.org/2000/svg">
<ellipse cx="310.914" cy="285.01" rx="310" ry="80" fill="url(#paint0_linear_568_83835)"/>
<mask id="mask0_568_83835" style="mask-type:alpha" maskUnits="userSpaceOnUse" x="0" y="0" width="621" height="366">
<path d="M620.914 286.061C620.914 329.661 482.123 365.005 310.914 365.005C139.706 365.005 0.914271 329.661 0.914271 286.061C0.914271 242.461 -20.5029 113.455 143.981 36.5784C209.238 2.61154 408.097 -19.1509 471.564 23.9913C558.28 82.9367 620.914 260.887 620.914 286.061Z" fill="#D9D9D9"/>
</mask>
<g mask="url(#mask0_568_83835)">
<path d="M151.101 91.5918H313.136C362.237 91.5967 409.326 109.887 444.046 142.441C478.771 174.999 498.279 219.157 498.279 265.201C498.279 311.244 478.771 355.403 444.046 387.961C409.321 420.518 362.224 438.809 313.116 438.809V369.366C342.581 369.366 370.839 358.391 391.674 338.857C412.509 319.322 424.214 292.827 424.214 265.201C424.214 237.574 412.509 211.079 391.674 191.545C370.844 172.014 342.594 161.04 313.136 161.035H232.118V438.809H151.101V91.5918Z" fill="#737C74"/>
<path d="M304.458 242.053C304.458 258.033 291.503 270.987 275.523 270.987C259.543 270.987 246.588 258.033 246.588 242.053C246.588 226.072 259.543 213.118 275.523 213.118C291.503 213.118 304.458 226.072 304.458 242.053Z" fill="#737C74"/>
<path d="M361.748 270.987C377.728 270.987 390.683 258.033 390.683 242.053C390.683 226.072 377.728 213.118 361.748 213.118C345.768 213.118 332.813 226.072 332.813 242.053C332.813 258.033 345.768 270.987 361.748 270.987Z" fill="#737C74"/>
<path d="M437.136 30.8297C439.603 25.4919 446.121 23.4247 451.214 26.3648L461.267 32.169C466.359 35.1092 467.828 41.7874 464.439 46.5928L433.35 90.6737C430.369 94.9003 424.657 96.1565 420.178 93.5705L418.583 92.6499C414.104 90.0639 412.336 84.4891 414.506 79.7942L437.136 30.8297Z" fill="#737C74"/>
<path d="M467.178 87.4435C472.585 84.1129 479.687 86.2193 482.403 91.9594C485.119 97.6996 482.245 104.527 476.242 106.596L453.282 114.509C449.439 115.833 445.214 114.055 443.476 110.381C441.737 106.706 443.04 102.312 446.501 100.18L467.178 87.4435Z" fill="#737C74"/>
<path d="M377.961 47.5796C376.617 41.3731 380.964 35.3753 387.28 34.721C393.597 34.0667 399.081 39.0463 399.037 45.3965L398.87 69.6811C398.842 73.7459 395.76 77.1391 391.717 77.5579C387.674 77.9767 383.963 75.2871 383.102 71.3143L377.961 47.5796Z" fill="#737C74"/>
</g>
<defs>
<linearGradient id="paint0_linear_568_83835" x1="310.914" y1="205.01" x2="310.914" y2="383.665" gradientUnits="userSpaceOnUse">
<stop stop-color="#38513B"/>
<stop offset="1" stop-color="#1D291F"/>
</linearGradient>
</defs>
</svg>
