<svg width="24" height="24" viewBox="0 0 24 24" fill="none" xmlns="http://www.w3.org/2000/svg">
<path d="M12 24C18.6274 24 24 18.6274 24 12C24 5.37258 18.6274 0 12 0C5.37258 0 0 5.37258 0 12C0 18.6274 5.37258 24 12 24Z" fill="#FF0420"/>
<path fill-rule="evenodd" clip-rule="evenodd" d="M6.74301 14.6782C7.25825 15.032 7.87416 15.209 8.49852 15.1824C9.36302 15.1824 10.0527 14.9813 10.5687 14.5792C11.0851 14.1711 11.4482 13.5559 11.658 12.7338C11.784 12.2296 11.892 11.7105 11.9819 11.1763C12.0088 11.0187 12.0238 10.8592 12.0268 10.6993C12.0376 10.3151 11.9277 9.93719 11.7121 9.61889C11.4985 9.30995 11.1977 9.07174 10.848 8.93468C10.4542 8.77326 10.0316 8.69362 9.60585 8.70058C7.9072 8.70058 6.85405 9.52583 6.44601 11.1763C6.30193 11.7818 6.19089 12.301 6.11289 12.7338C6.08561 12.8944 6.07063 13.0569 6.06794 13.2199C6.05372 13.4995 6.10751 13.7784 6.22508 14.0325C6.34265 14.2866 6.52055 14.5082 6.74301 14.6782ZM9.4802 13.5889C9.24084 13.7889 8.93653 13.8946 8.62454 13.886C8.0486 13.886 7.76043 13.6099 7.76043 13.0578C7.76005 12.9868 7.76389 12.9159 7.77119 12.8454C7.77695 12.7899 7.7854 12.7346 7.79616 12.6797C7.90413 12.0975 8.0121 11.6054 8.12045 11.2033C8.18845 10.8547 8.36481 10.5365 8.62454 10.294C8.86776 10.0948 9.17437 9.98944 9.48866 9.99698C10.0588 9.99685 10.3439 10.2699 10.3439 10.8161C10.3439 10.946 10.332 11.0756 10.3078 11.2033C10.236 11.6236 10.1311 12.1157 9.99314 12.6797C9.92437 13.0301 9.74455 13.349 9.4802 13.5889Z" fill="white"/>
<path fill-rule="evenodd" clip-rule="evenodd" d="M12.358 15.0784C12.3845 15.0893 12.413 15.0941 12.4418 15.0925L13.6663 15.0927C13.6963 15.0922 13.7259 15.0868 13.7535 15.077C13.7839 15.0663 13.8123 15.0504 13.8373 15.0297C13.8895 14.9901 13.9249 14.9322 13.9356 14.8676L14.3498 12.8961H15.5651C16.3512 12.8961 16.9694 12.731 17.4194 12.4009C17.9046 12.0236 18.2293 11.477 18.3288 10.8704C18.3638 10.7168 18.3818 10.5598 18.383 10.4022C18.3938 10.1667 18.3427 9.93234 18.2355 9.72236C18.1283 9.51238 17.968 9.33401 17.7705 9.20479C17.2907 8.90745 16.732 8.76303 16.168 8.7907H13.7735C13.7274 8.79138 13.6828 8.80351 13.6432 8.82562C13.629 8.83366 13.6152 8.84302 13.6021 8.85364C13.5503 8.89321 13.5149 8.95117 13.5038 9.01574L12.2616 14.8674C12.2489 14.9229 12.2585 14.9811 12.2885 15.0295C12.3042 15.0469 12.3231 15.0613 12.3438 15.0719L12.358 15.0784ZM16.2859 11.4464C16.0953 11.5858 15.8644 11.6586 15.6285 11.6534H14.5934L14.9354 10.042H16.0158C16.2014 10.0238 16.3877 10.0751 16.538 10.186C16.5906 10.2368 16.6321 10.2986 16.6586 10.3671C16.6847 10.4356 16.6959 10.509 16.6909 10.5822C16.6897 10.6729 16.6805 10.7632 16.664 10.8523C16.6163 11.0907 16.4815 11.3026 16.2859 11.4464Z" fill="white"/>
</svg>
