<?xml version="1.0" standalone="no"?><!DOCTYPE svg PUBLIC "-//W3C//DTD SVG 1.1//EN" "http://www.w3.org/Graphics/SVG/1.1/DTD/svg11.dtd"><svg t="1715764612026" class="icon" viewBox="0 0 1401 1024" version="1.1" xmlns="http://www.w3.org/2000/svg" p-id="1482" xmlns:xlink="http://www.w3.org/1999/xlink" width="27.36328125" height="20"><path d="M261.404101 1024a60.709782 60.709782 0 0 1-59.414552-48.18922L20.590845 402.488586a62.038224 62.038224 0 0 1 32.54682-77.713835l1.095964-0.498165 1.129176-0.332111 923.266928-266.717867 9.099825 31.5837a3.321104 3.321104 0 0 0 1.527708 1.959451 3.022205 3.022205 0 0 0 2.457617 0.199267l1.461286-0.398533a3.321104 3.321104 0 0 0 1.992662-1.527708 3.088627 3.088627 0 0 0 0.199267-2.490828l-0.232478-0.730643-8.767714-31.052323 174.25833-50.181882a64.030886 64.030886 0 0 1 72.366857 46.761145l166.055203 581.49211a63.798409 63.798409 0 0 1-37.893797 77.381724l-1.494497 0.531377-172.33209 49.816561-9.631201-33.211041a3.885692 3.885692 0 0 0-6.110832 4.251014l0.166055 0.564587 8.93377 30.687002-909.750035 260.407769a62.370334 62.370334 0 0 1-9.531568 0.730643zM65.957127 355.36212a28.793972 28.793972 0 0 0-14.114693 35.76829l0.2989 0.830276 182.062924 575.547334v0.896698a27.664797 27.664797 0 0 0 30.554158 22.184975l874.579543-250.344824a37.096732 37.096732 0 0 1 71.005204-21.354699l0.166056 0.464955 138.921782-40.284993a30.753424 30.753424 0 0 0 17.601852-36.997099l-166.055203-581.857431a31.052323 31.052323 0 0 0-34.174161-22.98204L1027.549596 77.452132a37.196365 37.196365 0 0 1-71.370526 20.922956z" fill="#ffffff" p-id="1483"></path><path d="M244.566103 1020.280363a60.709782 60.709782 0 0 1-59.414552-48.22243L3.786059 398.76895A62.038224 62.038224 0 0 1 36.532145 321.021904l1.095964-0.464955 1.129175-0.33211 923.266929-266.717867 9.099825 31.550488a3.321104 3.321104 0 0 0 1.560919 1.959452 3.022205 3.022205 0 0 0 2.457617 0.232477l1.428075-0.431744a3.121838 3.121838 0 0 0 1.992662-1.494496 2.988994 2.988994 0 0 0 0.199266-2.490828l-0.232477-0.763854-8.966981-31.052323L1143.788238 0.867472a64.097308 64.097308 0 0 1 72.400069 46.727934l166.055203 581.525321a63.83162 63.83162 0 0 1-37.927009 77.348514l-1.494497 0.531377-172.298878 49.81656-9.664413-33.21104a3.885692 3.885692 0 0 0-6.110832 4.251013l0.166056 0.564588 8.93377 30.687001L254.097672 1019.582932a62.137857 62.137857 0 0 1-9.531569 0.697431z m-195.446974-668.538247a28.793972 28.793972 0 0 0-14.081481 35.801502l0.265688 0.830276 182.062925 575.381278v0.929909a27.631586 27.631586 0 0 0 30.554157 22.151765L1122.533172 736.492022a37.096732 37.096732 0 0 1 71.005205-21.3547l0.166055 0.464955 138.921783-40.251781a30.753424 30.753424 0 0 0 17.601851-37.03031l-166.055203-581.857432a31.019112 31.019112 0 0 0-34.17416-22.948829l-139.287105 40.185359a37.196365 37.196365 0 0 1-71.370526 20.922956z" fill="#ffffff" p-id="1484"></path><path d="M1030.405746 278.179661a19.660936 19.660936 0 0 1 25.306812 14.081482l20.524424 71.669425a20.258735 20.258735 0 1 1-39.122606 10.561111L1016.257842 303.685741a19.660936 19.660936 0 0 1 14.081481-25.50608zM989.124422 135.770719a19.694147 19.694147 0 0 1 25.306813 14.015059l20.358368 71.636215a20.192313 20.192313 0 0 1-38.989762 10.594322l-20.358368-71.436948a19.660936 19.660936 0 0 1 13.682949-24.808648zM1102.606548 533.406508a19.694147 19.694147 0 0 1-25.340024-14.015059l-20.125891-72.400068a20.557634 20.557634 0 1 1 39.421505-11.690287l20.391579 71.436949a19.660936 19.660936 0 0 1-14.081481 25.506079zM1143.555761 676.512882a19.694147 19.694147 0 0 1-25.306813-14.015059l-19.926624-73.363189a20.657267 20.657267 0 0 1 14.081481-25.506079 19.660936 19.660936 0 0 1 25.306813 14.015059l20.524423 71.669426a19.627725 19.627725 0 0 1-14.04827 25.506079z" fill="#ffffff" p-id="1485"></path><path d="M298.567255 492.556928l52.373811-16.373043q44.66885-13.948637 59.779873-14.878546a72.13438 72.13438 0 0 1 29.524615 4.350647 66.222815 66.222815 0 0 1 25.306813 16.60552 70.507039 70.507039 0 0 1 16.107355 28.229384 72.300435 72.300435 0 0 1 3.022204 32.281132 61.340792 61.340792 0 0 1-11.557442 27.996907 78.909432 78.909432 0 0 1-25.638923 21.620387q-16.306621 9.066614-60.64336 22.915618l-15.343501 4.815601 35.934346 114.943412-29.889937 9.398724z m63.931253 99.035323l39.853249-12.45414q35.469391-10.295423 44.536005-26.004245a39.853249 39.853249 0 0 0 3.620004-33.21104q-12.288085-39.25545-70.905572-20.889745l-41.912333 13.08515zM716.162879 635.928991l-25.373235 7.904227-7.67175-24.609381q-18.365705 38.856917-54.532529 50.148672a87.577514 87.577514 0 0 1-70.141717-6.941108A90.599719 90.599719 0 0 1 513.21021 607.766028 92.725225 92.725225 0 0 1 574.551002 491.527386q37.262788-11.657075 71.835481 10.262212l-7.97065-25.506079 25.273602-7.904228z m-84.289621 12.919094a66.422081 66.422081 0 0 0 43.174353-84.223199 66.023549 66.023549 0 0 0-32.812508-40.384625 63.964464 63.964464 0 0 0-50.912525-4.516701 63.100977 63.100977 0 0 0-39.056184 33.21104 67.816945 67.816945 0 0 0 28.694339 90.63293 63.433088 63.433088 0 0 0 50.912525 5.280555zM801.780942 448.054134L790.422766 470.604431q-24.177638-11.424598-39.853249-6.642209a24.742225 24.742225 0 0 0-14.646068 11.291754 20.524423 20.524423 0 0 0-1.959452 17.136897 21.421121 21.421121 0 0 0 12.387718 13.284416 141.844354 141.844354 0 0 0 31.749755 8.335972 102.655326 102.655326 0 0 1 36.266456 12.586984 45.133804 45.133804 0 0 1 19.494881 25.971034A52.108123 52.108123 0 0 1 829.943904 594.481612a54.831428 54.831428 0 0 1-33.21104 26.967365q-31.550489 9.963312-60.742993-9.963312l10.826799-23.247729q23.247728 14.413592 41.214901 8.800926a30.919479 30.919479 0 0 0 18.232862-14.313958 25.340024 25.340024 0 0 0 2.856149-21.0558 23.878738 23.878738 0 0 0-13.284416-15.111024 130.785078 130.785078 0 0 0-31.91581-8.103494 93.721557 93.721557 0 0 1-35.170492-11.922763 47.392155 47.392155 0 0 1-19.12956-27.100209 44.403161 44.403161 0 0 1 3.885692-36.166823q9.764046-17.535429 32.480398-24.642593t55.794548 9.431936zM909.351503 414.41135l-11.491021 22.550296q-24.177638-11.424598-39.853248-6.642208A24.742225 24.742225 0 0 0 843.560431 441.710825a20.524423 20.524423 0 0 0-1.959451 17.136897 21.421121 21.421121 0 0 0 12.387718 13.284416 141.744721 141.744721 0 0 0 31.782966 8.335972 102.688538 102.688538 0 0 1 36.233245 12.620195 45.067382 45.067382 0 0 1 19.494881 25.937823 52.074912 52.074912 0 0 1-3.852481 41.845911 54.997483 54.997483 0 0 1-33.21104 26.967365q-31.484066 9.963312-60.742994-9.963312l10.860011-23.247729q23.247728 14.380381 41.18169 8.800926a30.919479 30.919479 0 0 0 18.232861-14.313958 25.273602 25.273602 0 0 0 2.656883-21.0558 23.911949 23.911949 0 0 0-13.284416-15.144235 130.785078 130.785078 0 0 0-31.91581-8.103494 92.990914 92.990914 0 0 1-35.170492-11.922763 47.192889 47.192889 0 0 1-19.096348-27.100209 44.170684 44.170684 0 0 1 3.885692-36.166824q9.697624-17.535429 32.480397-24.642592t55.82776 9.431936z" fill="#ffffff" p-id="1486"></path><path d="M308.132035 484.885178l52.938398-16.60552q45.133804-14.114692 60.377672-15.044602a73.263556 73.263556 0 0 1 29.889937 4.383858 66.787403 66.787403 0 0 1 25.572501 16.804786 71.204471 71.204471 0 0 1 16.27341 28.495073 73.462822 73.462822 0 0 1 3.055416 32.646453 62.204279 62.204279 0 0 1-11.723498 28.262596 79.507231 79.507231 0 0 1-25.904611 21.852864q-16.60552 9.166247-61.307581 23.247729l-15.542767 4.848812 36.299667 116.238642-30.354891 9.465146z m64.562263 99.998443l40.251781-12.586984q35.867924-10.395056 45.034171-26.303144a40.21857 40.21857 0 0 0 3.653214-33.576362q-12.420929-39.58756-71.669425-21.089011l-42.377288 13.284416zM712.642509 630.183481l-25.53929 7.970649-7.771384-24.841858Q660.899708 652.534511 624.367563 663.959109a88.441001 88.441001 0 0 1-70.905571-6.974319 91.562839 91.562839 0 0 1-45.831237-55.22996 90.167975 90.167975 0 0 1 6.442942-71.237682 91.097884 91.097884 0 0 1 55.661704-46.229769q37.694531-11.756708 72.665757 10.361845l-8.070283-25.771768 25.539291-8.00386z m-94.020456 9.26588a67.219146 67.219146 0 0 0 43.672519-85.086686 66.820614 66.820614 0 0 0-33.211041-40.783158 64.695107 64.695107 0 0 0-51.443902-4.549912A63.731987 63.731987 0 0 0 538.018858 542.7056a67.152724 67.152724 0 0 0-4.15138 51.776012 66.422081 66.422081 0 0 0 33.21104 39.853249 64.030886 64.030886 0 0 0 51.543535 5.1145zM788.828636 439.751374l-11.623864 22.749563q-24.410115-11.457809-40.185359-6.642208a25.107547 25.107547 0 0 0-14.812124 11.424598 20.723689 20.723689 0 0 0-1.992663 17.336163 21.653598 21.653598 0 0 0 12.520563 13.483682 145.86289 145.86289 0 0 0 32.115076 8.402393 104.249456 104.249456 0 0 1 36.532145 12.719829 45.432704 45.432704 0 0 1 19.660936 26.203511 52.440233 52.440233 0 0 1-3.786059 42.410499 55.429227 55.429227 0 0 1-33.675995 27.233053q-31.882599 9.963312-61.440425-9.963312l10.992854-23.646261q23.61305 14.546436 41.646645 8.900559a31.384433 31.384433 0 0 0 18.432128-14.446803 25.439657 25.439657 0 0 0 2.88936-21.255066 24.044793 24.044793 0 0 0-13.284416-15.310289 134.903247 134.903247 0 0 0-32.247921-8.169916 94.252933 94.252933 0 0 1-35.569024-12.022397 47.790687 47.790687 0 0 1-19.328826-27.365898 44.868116 44.868116 0 0 1 3.952114-36.532144q9.963312-17.668274 32.845719-24.87507t56.359136 9.365514zM897.594794 405.710057l-11.623864 22.782774q-24.410115-11.524231-40.185359-6.642208a24.974703 24.974703 0 0 0-14.812124 11.424598 20.723689 20.723689 0 0 0-1.992663 17.336163 21.819654 21.819654 0 0 0 12.520563 13.483683 145.86289 145.86289 0 0 0 32.115076 8.402393 104.249456 104.249456 0 0 1 36.532145 12.719828A45.432704 45.432704 0 0 1 929.909137 511.45401a52.573077 52.573077 0 0 1-3.885692 42.277655 55.562071 55.562071 0 0 1-33.709206 27.233053q-31.882599 9.963312-61.440425-9.963312l10.992854-23.646261q23.61305 14.546436 41.646645 8.900559a31.417644 31.417644 0 0 0 18.432127-14.446802 25.439657 25.439657 0 0 0 2.889361-21.255066 23.978371 23.978371 0 0 0-13.284416-15.31029 134.471503 134.471503 0 0 0-32.247921-8.169916 94.252933 94.252933 0 0 1-35.668657-12.022397 47.790687 47.790687 0 0 1-19.328826-27.365897 44.967749 44.967749 0 0 1 3.952114-36.532145q9.963312-17.701485 32.845719-24.875069t56.49198 9.431935z" fill="#ffffff" p-id="1487"></path><path d="M707.627642 747.252399L297.869823 881.757113a14.878546 14.878546 0 0 1-16.27341-12.354507l-0.166055-0.830276-131.748198-414.042043-0.265688-0.763854a18.19965 18.19965 0 0 1 7.704961-22.01892l407.898001-134.936458-9.465147-29.889936L146.128579 402.388953l-1.095965 0.332111-0.996331 0.531376a49.816561 49.816561 0 0 0-24.011582 61.141526l130.984344 412.115803A45.997291 45.997291 0 0 0 296.740648 913.307602a49.517662 49.517662 0 0 0 7.871016-0.830276L717.059577 777.142335z" fill="#ffffff" p-id="1488"></path><path d="M716.959944 754.791305L307.235337 889.229597A14.911757 14.911757 0 0 1 290.928716 876.775457v-0.830276L159.047673 462.002771l-0.265688-0.763854a18.19965 18.19965 0 0 1 7.67175-22.01892l407.898001-134.903247-9.465147-29.889936-409.525341 135.434623-1.095964 0.365322-1.029543 0.498165a49.816561 49.816561 0 0 0-23.978371 61.141526L260.374558 883.982253a45.997291 45.997291 0 0 0 45.698392 36.764622 49.119129 49.119129 0 0 0 7.871017-0.830276l412.481124-135.235358z" fill="#ffffff" p-id="1489"></path></svg>