<svg width="17" height="16" viewBox="0 0 17 16" fill="none" xmlns="http://www.w3.org/2000/svg">
<path d="M12.154 4.34774C11.8777 4.07143 11.716 3.70103 11.7011 3.31061C11.6862 2.9202 11.8193 2.53855 12.0736 2.24199C12.0946 2.21733 12.1056 2.18563 12.1042 2.15324C12.1029 2.12085 12.0893 2.09017 12.0663 2.06734L10.6011 0.600431C10.5768 0.576222 10.544 0.562622 10.5097 0.562622C10.4755 0.562622 10.4427 0.576222 10.4184 0.600431L8.08293 2.93594C7.99675 3.02209 7.93184 3.12713 7.89334 3.24274C7.85497 3.35861 7.79014 3.46395 7.70398 3.5504C7.61782 3.63685 7.51269 3.70203 7.39695 3.74078C7.28127 3.77933 7.17613 3.84423 7.08982 3.93037L1.10031 9.91856C1.0761 9.94278 1.0625 9.97562 1.0625 10.0099C1.0625 10.0441 1.0761 10.077 1.10031 10.1012L2.56556 11.5664C2.58838 11.5895 2.61906 11.603 2.65145 11.6044C2.68384 11.6057 2.71555 11.5948 2.74021 11.5737C3.03671 11.3191 3.41844 11.1858 3.80898 11.2007C4.19953 11.2155 4.57008 11.3772 4.84643 11.6536C5.12279 11.93 5.28457 12.3005 5.29938 12.6911C5.31419 13.0816 5.18094 13.4633 4.92631 13.7598C4.90527 13.7845 4.89433 13.8162 4.89568 13.8486C4.89704 13.881 4.91059 13.9117 4.93361 13.9345L6.39886 15.3997C6.42308 15.4239 6.45593 15.4375 6.49017 15.4375C6.52442 15.4375 6.55726 15.4239 6.58148 15.3997L12.5713 9.41022C12.6575 9.32391 12.7224 9.21877 12.7609 9.10309C12.7993 8.98722 12.8641 8.88188 12.9503 8.79542C13.0364 8.70897 13.1416 8.64379 13.2573 8.60504C13.3729 8.56654 13.4779 8.50162 13.5641 8.41545L15.8996 6.07994C15.9238 6.05572 15.9374 6.02288 15.9374 5.98863C15.9374 5.95439 15.9238 5.92155 15.8996 5.89733L14.4344 4.43207C14.4115 4.40905 14.3809 4.3955 14.3485 4.39415C14.3161 4.39279 14.2844 4.40373 14.2597 4.42477C13.9636 4.67956 13.5821 4.81317 13.1917 4.79889C12.8013 4.78461 12.4307 4.62348 12.154 4.34774Z" stroke="white" stroke-miterlimit="10"/>
<path d="M8.31723 4.16317L7.76904 3.61499M9.77883 5.62478L9.41326 5.25954M11.2404 7.08671L10.8752 6.72114M12.885 8.73093L12.3368 8.18274" stroke="white" stroke-miterlimit="10" stroke-linecap="round"/>
</svg>
