<svg width="31" height="34" viewBox="0 0 31 34" fill="none" xmlns="http://www.w3.org/2000/svg">
<path d="M12.7779 30.75L12.7779 3.44768C12.7779 2.04996 11.9393 0.838593 10.7279 0.372684C9.51657 -0.0932236 8.02566 0.0931396 7.00066 1.02496L0.850664 6.89541C-0.267518 8.01359 -0.267518 9.69087 0.757482 10.809C1.78248 11.9272 3.55294 11.9272 4.67112 10.9022L7.09385 8.57268L7.09385 30.75C7.09385 32.334 8.30521 33.5454 9.8893 33.5454C11.4734 33.5454 12.7779 32.2409 12.7779 30.75ZM17.8098 2.79541L17.8098 30.0977C17.8098 31.4954 18.6484 32.7068 19.8598 33.1727C21.0711 33.6386 22.562 33.4522 23.587 32.5204L29.737 26.65C30.2961 26.0909 30.5757 25.3454 30.5757 24.6C30.5757 23.9477 30.2961 23.2022 29.8302 22.6431C28.8052 21.525 27.0348 21.525 25.9166 22.55L23.4938 24.8795L23.4938 2.79541C23.4938 1.21132 22.2825 -4.57764e-05 20.6984 -4.57764e-05C19.1143 -4.57764e-05 17.8098 1.3045 17.8098 2.79541Z" fill="#86F097"/>
</svg>
