<svg width="175" height="162" viewBox="0 0 175 162" fill="none" xmlns="http://www.w3.org/2000/svg">
<g filter="url(#filter0_d_477_591)">
<path fill-rule="evenodd" clip-rule="evenodd" d="M133.106 39.5963L29.8271 116.953L37.837 127.647L141.116 50.2903L133.106 39.5963ZM132.817 39.211L29.5384 116.568L3.8491 82.2699C2.09555 79.9287 2.5719 76.6093 4.91307 74.8557L99.7137 3.84921C102.055 2.09566 105.374 2.57201 107.128 4.91318L132.817 39.211ZM107.513 4.62453C105.6 2.07053 101.979 1.55088 99.4251 3.46384L4.62442 74.4704C2.07042 76.3833 1.55077 80.0045 3.46373 82.5585L42.4307 134.583C44.3437 137.137 47.9649 137.657 50.5189 135.744L145.32 64.7374C147.874 62.8245 148.393 59.2033 146.48 56.6493L107.513 4.62453ZM141.404 50.6757L38.1256 128.032L42.8161 134.295C44.5696 136.636 47.8891 137.112 50.2302 135.359L145.031 64.3521C147.372 62.5985 147.848 59.2791 146.095 56.9379L141.404 50.6757Z" fill="#86F097"/>
<path d="M132.817 39.211L29.5384 116.568L3.8491 82.2699C2.09555 79.9287 2.5719 76.6093 4.91307 74.8557L99.7137 3.84921C102.055 2.09566 105.374 2.57201 107.128 4.91318L132.817 39.211Z" fill="#1E1E1E"/>
<path d="M29.8271 116.953L133.106 39.5963L141.116 50.2903L37.837 127.647L29.8271 116.953Z" fill="#1E1E1E"/>
<path d="M38.1256 128.032L141.404 50.6757L146.095 56.9379C147.848 59.2791 147.372 62.5985 145.031 64.3521L50.2302 135.359C47.8891 137.112 44.5696 136.636 42.8161 134.295L38.1256 128.032Z" fill="#1E1E1E"/>
<path fill-rule="evenodd" clip-rule="evenodd" d="M88.0049 47.3969L89.2158 43.9556L89.706 44.2052C90.2476 44.4811 90.7259 44.5846 91.1508 44.553C91.5813 44.5124 91.9909 44.3521 92.3852 44.0568C92.6689 43.8442 92.8788 43.6407 93.0256 43.4489C93.1659 43.2497 93.2266 43.0945 93.2446 42.98C93.2547 42.8759 93.2315 42.8029 93.1803 42.7345C93.1003 42.6278 93.0253 42.5847 92.9553 42.5666C92.8848 42.5484 92.7149 42.5437 92.397 42.6273L92.3881 42.6296L92.3791 42.6316C92.0765 42.6988 91.6388 42.8442 91.055 43.0789L91.0413 43.0844L90.9456 43.1162C90.162 43.418 89.4726 43.6459 88.8799 43.7969L88.8761 43.7979L88.8724 43.7987C88.216 43.9548 87.5386 43.9465 86.8471 43.7822C86.088 43.6019 85.4465 43.1264 84.9159 42.4181C84.4258 41.7637 84.1699 41.0286 84.1585 40.2253L84.1585 40.2237C84.1498 39.4201 84.3586 38.6423 84.7717 37.8964L84.7729 37.8941C85.1934 37.1442 85.7779 36.4931 86.517 35.9395C87.4722 35.2241 88.4734 34.8168 89.5159 34.7523C90.5328 34.6754 91.4705 34.8595 92.3139 35.3163L92.6751 35.5119L91.5083 38.8288L91.0281 38.6078C90.5868 38.4046 90.1632 38.3288 89.75 38.3655C89.3349 38.4024 88.9617 38.5455 88.6214 38.8005C88.4085 38.9599 88.2473 39.134 88.1299 39.321L88.1272 39.3254L88.1243 39.3297C88.0073 39.5074 87.9532 39.6618 87.9384 39.7956C87.9264 39.9039 87.9495 39.9788 88.002 40.0488C88.0657 40.1338 88.1231 40.1686 88.1757 40.1839C88.2745 40.1934 88.4579 40.1796 88.7535 40.1055C89.0548 40.0299 89.4968 39.8762 90.0897 39.6351C90.8748 39.3079 91.5766 39.0664 92.1922 38.9153C92.8509 38.7436 93.5339 38.7408 94.234 38.8981C95.0058 39.0715 95.6592 39.5547 96.2017 40.279C96.7127 40.9613 96.9867 41.7146 97.0051 42.5293C97.0234 43.3361 96.7989 44.1208 96.3537 44.8764C95.9227 45.6345 95.3003 46.3105 94.5019 46.9085C93.5072 47.6535 92.4655 48.0925 91.3802 48.1962C90.3054 48.2989 89.2961 48.0985 88.3654 47.5928L88.0049 47.3969ZM95.937 44.6353C96.3442 43.9453 96.5398 43.2469 96.5238 42.5402C96.5078 41.8335 96.272 41.176 95.8163 40.5676C95.3237 39.9099 94.761 39.51 94.1284 39.3679C93.4958 39.2257 92.8897 39.2305 92.3103 39.3821C91.7247 39.5255 91.0456 39.7583 90.273 40.0803C89.673 40.3244 89.2055 40.4884 88.8706 40.5725C88.5357 40.6565 88.2748 40.6851 88.0879 40.6583C87.903 40.617 87.7459 40.5101 87.6166 40.3375C87.4873 40.1648 87.435 39.9666 87.4598 39.7427C87.4846 39.5187 87.5721 39.2928 87.7222 39.0649C87.8744 38.8226 88.0779 38.606 88.3327 38.4151C88.7438 38.1072 89.202 37.9308 89.7074 37.8859C90.0637 37.8543 90.421 37.8921 90.7793 37.9993C90.9292 38.0442 91.0792 38.1012 91.2295 38.1704L92.0846 35.7397C91.3289 35.3304 90.4836 35.1614 89.5489 35.2327C88.6162 35.2896 87.7018 35.6537 86.8057 36.3249C86.1151 36.8421 85.5775 37.4437 85.1929 38.1296C84.8165 38.8093 84.6322 39.5056 84.64 40.2185C84.6498 40.917 84.8702 41.5539 85.3013 42.1294C85.7816 42.7707 86.334 43.1655 86.9584 43.3138C87.5828 43.4621 88.1837 43.4676 88.761 43.3303C89.3322 43.1848 90.0062 42.9624 90.7829 42.6629L90.8754 42.6322C91.4672 42.3942 91.9336 42.2374 92.2747 42.1616C92.6178 42.0714 92.8849 42.051 93.0759 42.1005C93.2669 42.1499 93.4301 42.265 93.5656 42.4459C93.6949 42.6185 93.7472 42.8168 93.7224 43.0407C93.6914 43.2564 93.5886 43.4875 93.4138 43.7339C93.2329 43.9721 92.9862 44.2081 92.6738 44.4421C92.2134 44.787 91.7192 44.9839 91.1912 45.0328C90.7896 45.0635 90.3688 44.9959 89.9289 44.8302C89.7838 44.7756 89.6367 44.7103 89.4874 44.6343L88.5953 47.1697C89.4393 47.6284 90.3523 47.8108 91.3344 47.7169C92.3164 47.623 93.276 47.2251 94.2132 46.5231C94.9696 45.9566 95.5442 45.3273 95.937 44.6353Z" fill="#86F097"/>
<path fill-rule="evenodd" clip-rule="evenodd" d="M79.4893 53.7744L80.7002 50.333L81.1903 50.5827C81.732 50.8585 82.2103 50.962 82.6351 50.9305C83.0657 50.8898 83.4752 50.7295 83.8695 50.4342C84.1533 50.2217 84.3631 50.0181 84.51 49.8263C84.6503 49.6271 84.7109 49.472 84.729 49.3574C84.7391 49.2533 84.7158 49.1804 84.6646 49.112C84.5847 49.0053 84.5097 48.9622 84.4396 48.944C84.3692 48.9258 84.1993 48.9212 83.8814 49.0047L83.8725 49.007L83.8635 49.009C83.5609 49.0763 83.1232 49.2216 82.5393 49.4563L82.5257 49.4618L82.4299 49.4937C81.6464 49.7954 80.957 50.0234 80.3643 50.1743L80.3605 50.1753L80.3568 50.1762C79.7004 50.3323 79.023 50.3239 78.3315 50.1597C77.5724 49.9794 76.9309 49.5039 76.4003 48.7955C75.9102 48.1411 75.6542 47.4061 75.6429 46.6027L75.6429 46.6012C75.6341 45.7976 75.843 45.0197 76.256 44.2738L76.2573 44.2716C76.6778 43.5216 77.2623 42.8705 78.0014 42.3169C78.9565 41.6015 79.9577 41.1942 81.0002 41.1298C82.0171 41.0528 82.9548 41.2369 83.7983 41.6937L84.1595 41.8894L82.9926 45.2063L82.5125 44.9852C82.0712 44.782 81.6476 44.7063 81.2344 44.743C80.8193 44.7798 80.4461 44.923 80.1058 45.1779C79.8929 45.3373 79.7317 45.5115 79.6143 45.6984L79.6115 45.7028L79.6087 45.7072C79.4917 45.8848 79.4376 46.0392 79.4228 46.1731C79.4108 46.2814 79.4339 46.3562 79.4864 46.4263C79.55 46.5113 79.6074 46.546 79.66 46.5614C79.7588 46.5708 79.9423 46.557 80.2379 46.4829C80.5392 46.4073 80.9812 46.2537 81.5741 46.0125C82.3593 45.6854 83.061 45.4438 83.6765 45.2928C84.3353 45.121 85.0183 45.1182 85.7183 45.2755C86.4901 45.449 87.1436 45.9322 87.686 46.6564C88.1971 47.3387 88.4711 48.0921 88.4895 48.9068C88.5078 49.7135 88.2833 50.4982 87.8381 51.2539C87.4071 52.012 86.7846 52.6879 85.9862 53.2859C84.9916 54.0309 83.9499 54.4699 82.8646 54.5736C81.7898 54.6764 80.7804 54.476 79.8498 53.9702L79.4893 53.7744ZM87.4213 51.0127C87.8285 50.3227 88.0241 49.6244 88.0082 48.9177C87.9922 48.211 87.7563 47.5534 87.3007 46.9451C86.808 46.2874 86.2454 45.8875 85.6128 45.7453C84.9801 45.6032 84.3741 45.6079 83.7947 45.7596C83.2091 45.903 82.53 46.1357 81.7574 46.4578C81.1574 46.7018 80.6899 46.8659 80.355 46.9499C80.0201 47.0339 79.7592 47.0625 79.5723 47.0357C79.3874 46.9945 79.2303 46.8876 79.101 46.7149C78.9717 46.5423 78.9194 46.344 78.9442 46.1201C78.969 45.8962 79.0565 45.6703 79.2066 45.4423C79.3587 45.2 79.5623 44.9834 79.8171 44.7925C80.2282 44.4846 80.6864 44.3083 81.1918 44.2634C81.5481 44.2317 81.9054 44.2695 82.2636 44.3768C82.4135 44.4216 82.5636 44.4787 82.7139 44.5478L83.569 42.1171C82.8132 41.7078 81.968 41.5388 81.0332 41.6101C80.1005 41.6671 79.1861 42.0311 78.29 42.7023C77.5994 43.2196 77.0619 43.8211 76.6773 44.507C76.3009 45.1868 76.1166 45.8831 76.1244 46.5959C76.1342 47.2944 76.3546 47.9314 76.7857 48.5069C77.266 49.1481 77.8183 49.5429 78.4427 49.6912C79.0672 49.8395 79.6681 49.845 80.2454 49.7078C80.8166 49.5623 81.4906 49.3398 82.2673 49.0404L82.3597 49.0096C82.9515 48.7717 83.418 48.6148 83.759 48.539C84.1022 48.4489 84.3692 48.4285 84.5603 48.4779C84.7513 48.5273 84.9145 48.6425 85.05 48.8233C85.1793 48.996 85.2316 49.1943 85.2068 49.4182C85.1758 49.6339 85.073 49.8649 84.8982 50.1113C84.7173 50.3495 84.4706 50.5856 84.1582 50.8196C83.6978 51.1644 83.2036 51.3613 82.6756 51.4103C82.2739 51.4409 81.8532 51.3734 81.4133 51.2077C81.2682 51.153 81.121 51.0877 80.9718 51.0117L80.0796 53.5472C80.9237 54.0058 81.8367 54.1882 82.8187 54.0943C83.8008 54.0005 84.7604 53.6025 85.6976 52.9006C86.4539 52.334 87.0285 51.7048 87.4213 51.0127Z" fill="#86F097"/>
<path fill-rule="evenodd" clip-rule="evenodd" d="M71.3449 63.9836L67.4363 50.5004L70.3124 48.3462L82.1522 55.8888L78.8927 58.3302L76.6792 56.8503L73.8067 59.0019L74.6044 61.5422L71.3449 63.9836ZM73.2452 58.8209L76.6634 56.2606L78.8769 57.7404L81.3063 55.9208L70.3345 48.9312L67.9915 50.6862L71.6135 63.1808L74.0429 61.3612L73.2452 58.8209ZM71.4352 52.7653L71.3612 52.8207L72.3938 56.1091L74.3006 54.6809L71.4352 52.7653ZM73.4676 54.7032L72.1885 53.848L72.6494 55.3161L73.4676 54.7032Z" fill="#86F097"/>
<path fill-rule="evenodd" clip-rule="evenodd" d="M63.0718 61.7439L64.3913 60.7556C64.9256 60.3553 65.2495 59.9395 65.3627 59.5082C65.478 59.0625 65.3756 58.6259 65.0554 58.1984C64.7352 57.7708 64.345 57.5498 63.8849 57.5351C63.4247 57.5204 62.9315 57.7101 62.4054 58.1042L61.0859 59.0925L63.0718 61.7439ZM61.7599 59.1893L63.1685 61.0699L64.1026 60.3702C64.591 60.0044 64.8218 59.6716 64.8968 59.3866C64.969 59.1065 64.918 58.8181 64.67 58.487C64.4217 58.1555 64.1591 58.0256 63.8695 58.0163C63.5569 58.0064 63.1692 58.1337 62.694 58.4896L61.7599 59.1893ZM64.6235 63.8156L66.8311 66.7629L64.5373 68.4809L57.2404 58.7388L61.1989 55.7739C62.3417 54.9179 63.4584 54.5499 64.5492 54.6697C65.6482 54.7834 66.5979 55.3746 67.3984 56.4434C68.1928 57.5039 68.5023 58.5683 68.327 59.6364C68.1517 60.7045 67.5133 61.6512 66.4116 62.4763L64.6235 63.8156ZM65.2975 63.9123L67.5051 66.8596L64.4406 69.1549L56.5664 58.6421L60.9103 55.3885C62.12 54.4824 63.3555 54.0547 64.6003 54.191C65.8596 54.3217 66.9213 55.0032 67.7838 56.1547C68.6379 57.295 69.0033 58.4889 68.8021 59.7144C68.6017 60.9361 67.8732 61.9831 66.7003 62.8617L65.2975 63.9123Z" fill="#86F097"/>
<path fill-rule="evenodd" clip-rule="evenodd" d="M28.4192 72.2888C31.2535 70.1663 34.7622 69.1863 38.1737 69.5642C41.5856 69.9422 44.6207 71.6476 46.6113 74.3053C48.6019 76.963 49.385 80.3552 48.7882 83.7357C48.2186 86.9627 46.4361 89.9267 43.8098 92.036C43.6848 92.1363 43.558 92.2347 43.4293 92.3311L40.427 88.3229C42.1277 87.049 43.2844 85.1939 43.6424 83.1656C44.0004 81.1373 43.5306 79.102 42.3362 77.5074C41.1419 75.9128 39.3208 74.8895 37.2737 74.6627C35.227 74.4359 33.122 75.0239 31.4214 76.2971L26.7451 79.7998L38.7541 95.8329L34.0777 99.3355L19.0665 79.2941C19.0665 79.2941 19.2124 79.1849 19.4519 79.0055C19.8934 78.675 20.653 78.1061 21.4044 77.543C22.5615 76.6758 23.7381 75.795 23.7423 75.7919L28.4192 72.2888ZM19.7406 79.3909L34.1745 98.6615L38.0801 95.7362L26.0711 79.703L31.1328 75.9118C32.9278 74.5678 35.1543 73.9435 37.3267 74.1841C39.5011 74.425 41.4445 75.5136 42.7216 77.2187C43.9987 78.9238 44.4968 81.0949 44.1165 83.2493C43.7638 85.2477 42.6825 87.081 41.0933 88.4093L43.521 91.6504C46.0525 89.6123 47.7663 86.7549 48.3141 83.652C48.8886 80.3975 48.1338 77.1411 46.2259 74.5939C44.3181 72.0468 41.4053 70.4067 38.1207 70.0428C34.835 69.6788 31.4477 70.6225 28.7078 72.6742C28.7078 72.6742 28.7078 72.6742 28.7078 72.6742L24.0311 76.1771C24.0269 76.1802 22.8501 77.0612 21.6931 77.9283C21.1135 78.3627 20.529 78.8005 20.0894 79.1297L19.7406 79.3909Z" fill="#86F097"/>
<path fill-rule="evenodd" clip-rule="evenodd" d="M33.4322 83.5067C34.1417 82.9752 34.2861 81.9692 33.7546 81.2596C33.2232 80.5501 32.2171 80.4057 31.5076 80.9372C30.798 81.4686 30.6537 82.4747 31.1851 83.1842C31.7166 83.8938 32.7226 84.0381 33.4322 83.5067ZM33.7208 83.892C34.6432 83.2012 34.8309 81.8934 34.14 80.971C33.4491 80.0486 32.1413 79.8609 31.2189 80.5518C30.2966 81.2427 30.1089 82.5505 30.7998 83.4729C31.4906 84.3952 32.7984 84.5829 33.7208 83.892Z" fill="#86F097"/>
<path fill-rule="evenodd" clip-rule="evenodd" d="M38.4087 79.7786C39.1183 79.2472 39.2627 78.2412 38.7312 77.5316C38.1997 76.8221 37.1937 76.6777 36.4842 77.2091C35.7746 77.7406 35.6302 78.7466 36.1617 79.4562C36.6932 80.1657 37.6992 80.3101 38.4087 79.7786ZM38.6974 80.164C39.6198 79.4731 39.8074 78.1653 39.1166 77.243C38.4257 76.3206 37.1179 76.1329 36.1955 76.8238C35.2731 77.5146 35.0855 78.8224 35.7763 79.7448C36.4672 80.6672 37.775 80.8549 38.6974 80.164Z" fill="#86F097"/>
</g>
<g filter="url(#filter1_d_477_591)">
<path fill-rule="evenodd" clip-rule="evenodd" d="M164.406 91.7343L42.0146 132.612L46.2472 145.285L168.638 104.407L164.406 91.7343ZM164.253 91.2776L41.862 132.155L28.287 91.5103C27.3604 88.7359 28.8583 85.7356 31.6327 84.809L143.977 47.2871C146.751 46.3604 149.751 47.8583 150.678 50.6328L164.253 91.2776ZM151.135 50.4802C150.124 47.4536 146.851 45.8195 143.824 46.8304L31.4802 84.3523C28.4536 85.3631 26.8195 88.6362 27.8303 91.6628L48.4216 153.315C49.4325 156.342 52.7055 157.976 55.7322 156.965L168.076 119.443C171.103 118.432 172.737 115.159 171.726 112.132L151.135 50.4802ZM168.791 104.864L46.3997 145.741L48.8783 153.163C49.8049 155.937 52.8052 157.435 55.5796 156.508L167.924 118.986C170.698 118.06 172.196 115.059 171.269 112.285L168.791 104.864Z" fill="#86F097"/>
<path d="M164.253 91.2776L41.862 132.155L28.287 91.5103C27.3604 88.7359 28.8583 85.7356 31.6327 84.809L143.977 47.2871C146.751 46.3604 149.751 47.8583 150.678 50.6328L164.253 91.2776Z" fill="#1E1E1E"/>
<path d="M42.0146 132.612L164.406 91.7343L168.638 104.407L46.2472 145.285L42.0146 132.612Z" fill="#1E1E1E"/>
<path d="M46.3997 145.741L168.791 104.864L171.269 112.285C172.196 115.059 170.698 118.06 167.924 118.986L55.5796 156.508C52.8052 157.435 49.8049 155.937 48.8783 153.163L46.3997 145.741Z" fill="#1E1E1E"/>
<path fill-rule="evenodd" clip-rule="evenodd" d="M119.143 84.9278L121.376 82.0433L121.763 82.4346C122.19 82.8671 122.611 83.116 123.024 83.2199C123.446 83.317 123.885 83.2939 124.352 83.1378C124.689 83.0255 124.952 82.8985 125.152 82.7627C125.347 82.6178 125.454 82.4897 125.507 82.3867C125.55 82.2911 125.55 82.2145 125.523 82.1335C125.481 82.007 125.424 81.9425 125.363 81.9032C125.302 81.8637 125.142 81.8057 124.814 81.7849L124.805 81.7843L124.795 81.7834C124.487 81.7518 124.026 81.7519 123.398 81.7907L123.383 81.7916L123.282 81.7916C122.444 81.8311 121.717 81.8303 121.107 81.7868L121.103 81.7866L121.1 81.7862C120.428 81.7275 119.787 81.5062 119.183 81.1324C118.519 80.7222 118.06 80.0688 117.78 79.2293C117.521 78.4538 117.509 77.6756 117.752 76.9096L117.752 76.9081C117.997 76.1427 118.44 75.4703 119.067 74.8925L119.069 74.8907C119.705 74.3114 120.465 73.8777 121.34 73.5851C122.472 73.2071 123.551 73.136 124.561 73.4033C125.55 73.6506 126.382 74.1208 127.038 74.8201L127.32 75.1195L125.167 77.8999L124.781 77.5388C124.426 77.2069 124.048 77.0016 123.644 76.9062C123.239 76.8104 122.84 76.8287 122.436 76.9634C122.184 77.0477 121.976 77.1621 121.806 77.3026L121.802 77.3059L121.798 77.3091C121.631 77.4408 121.531 77.5703 121.474 77.6927C121.429 77.7917 121.427 77.87 121.455 77.953C121.489 78.0538 121.532 78.1049 121.577 78.136C121.668 78.1761 121.847 78.2208 122.15 78.2436C122.46 78.2668 122.928 78.2602 123.567 78.2181C124.415 78.155 125.157 78.1469 125.789 78.1975C126.468 78.242 127.117 78.4546 127.732 78.8244C128.41 79.2321 128.878 79.8966 129.165 80.7549C129.435 81.5635 129.457 82.3648 129.218 83.1438C128.981 83.9152 128.521 84.5892 127.86 85.1661C127.212 85.7498 126.409 86.1952 125.463 86.5112C124.284 86.9049 123.157 86.9933 122.094 86.7498C121.042 86.5087 120.147 86.0005 119.423 85.2273L119.143 84.9278ZM127.541 84.8059C128.145 84.2794 128.55 83.6782 128.758 83.0025C128.965 82.3267 128.949 81.6284 128.708 80.9074C128.448 80.128 128.04 79.5712 127.484 79.237C126.928 78.9027 126.352 78.7163 125.754 78.6777C125.153 78.6293 124.435 78.6362 123.6 78.6985C122.954 78.7411 122.459 78.7495 122.114 78.7237C121.77 78.6979 121.514 78.6428 121.345 78.5585C121.182 78.4611 121.067 78.3102 120.998 78.1056C120.93 77.901 120.943 77.6963 121.037 77.4917C121.131 77.287 121.285 77.1001 121.499 76.9311C121.72 76.749 121.982 76.6076 122.284 76.5067C122.771 76.344 123.261 76.321 123.755 76.4376C124.103 76.5199 124.43 76.6683 124.737 76.883C124.865 76.9728 124.989 77.0742 125.11 77.1872L126.687 75.1496C126.099 74.5231 125.35 74.0964 124.441 73.8696C123.537 73.6297 122.555 73.6871 121.493 74.0418C120.675 74.3152 119.975 74.7167 119.394 75.2465C118.822 75.7731 118.428 76.3758 118.211 77.0548C118 77.7208 118.009 78.3948 118.236 79.0768C118.49 79.8367 118.89 80.3854 119.436 80.7229C119.982 81.0604 120.55 81.2549 121.142 81.3066C121.729 81.3484 122.439 81.3496 123.271 81.3102L123.368 81.3101C124.005 81.2708 124.497 81.2688 124.844 81.3044C125.199 81.3269 125.458 81.3917 125.624 81.4988C125.79 81.6059 125.909 81.7666 125.98 81.9809C126.048 82.1855 126.036 82.3902 125.941 82.5949C125.844 82.7898 125.674 82.9767 125.43 83.1555C125.183 83.3245 124.875 83.4709 124.505 83.5945C123.959 83.7767 123.428 83.8079 122.912 83.688C122.521 83.5906 122.143 83.3939 121.777 83.098C121.657 83.0005 121.538 82.8921 121.42 82.7729L119.775 84.8982C120.431 85.5994 121.24 86.0602 122.202 86.2805C123.163 86.5008 124.199 86.4255 125.31 86.0545C126.206 85.7552 126.95 85.339 127.541 84.8059Z" fill="#86F097"/>
<path fill-rule="evenodd" clip-rule="evenodd" d="M109.053 88.2979L111.286 85.4134L111.673 85.8047C112.1 86.2372 112.521 86.4861 112.934 86.59C113.356 86.6871 113.795 86.664 114.262 86.508C114.599 86.3956 114.862 86.2686 115.062 86.1328C115.258 85.9879 115.364 85.8598 115.417 85.7568C115.46 85.6612 115.461 85.5846 115.434 85.5036C115.391 85.3771 115.334 85.3126 115.273 85.2733C115.212 85.2338 115.052 85.1759 114.724 85.155L114.715 85.1544L114.706 85.1535C114.397 85.122 113.936 85.122 113.308 85.1608L113.293 85.1617L113.192 85.1618C112.354 85.2013 111.628 85.2004 111.017 85.1569L111.014 85.1567L111.01 85.1563C110.338 85.0976 109.697 84.8763 109.093 84.5026C108.429 84.0923 107.97 83.4389 107.69 82.5994C107.431 81.824 107.42 81.0457 107.662 80.2797L107.662 80.2782C107.907 79.5128 108.351 78.8404 108.978 78.2626L108.979 78.2608C109.615 77.6816 110.375 77.2478 111.251 76.9553C112.382 76.5772 113.461 76.5061 114.471 76.7734C115.46 77.0207 116.292 77.4909 116.949 78.1902L117.23 78.4897L115.077 81.27L114.691 80.9089C114.336 80.577 113.958 80.3717 113.555 80.2763C113.149 80.1805 112.75 80.1988 112.346 80.3335C112.094 80.4178 111.886 80.5322 111.716 80.6727L111.712 80.676L111.708 80.6792C111.541 80.811 111.441 80.9405 111.385 81.0628C111.339 81.1618 111.337 81.2402 111.365 81.3232C111.399 81.4239 111.442 81.475 111.487 81.5061C111.578 81.5462 111.757 81.5909 112.061 81.6137C112.37 81.6369 112.838 81.6303 113.477 81.5883C114.325 81.5251 115.067 81.517 115.699 81.5676C116.378 81.6121 117.028 81.8247 117.642 82.1945C118.32 82.6023 118.788 83.2667 119.075 84.125C119.345 84.9336 119.367 85.7349 119.128 86.5139C118.891 87.2853 118.431 87.9593 117.771 88.5362C117.123 89.1199 116.319 89.5653 115.373 89.8813C114.194 90.275 113.067 90.3634 112.004 90.1199C110.952 89.8788 110.057 89.3706 109.333 88.5974L109.053 88.2979ZM117.451 88.176C118.055 87.6495 118.461 87.0483 118.668 86.3726C118.876 85.6968 118.859 84.9985 118.618 84.2775C118.358 83.4981 117.95 82.9413 117.394 82.6071C116.839 82.2729 116.262 82.0864 115.664 82.0478C115.063 81.9994 114.345 82.0064 113.511 82.0686C112.864 82.1112 112.369 82.1196 112.025 82.0938C111.68 82.068 111.424 82.013 111.255 81.9286C111.092 81.8313 110.977 81.6803 110.909 81.4757C110.84 81.2711 110.853 81.0665 110.947 80.8618C111.041 80.6571 111.195 80.4702 111.41 80.3012C111.63 80.1192 111.892 79.9777 112.194 79.8768C112.681 79.7141 113.171 79.6911 113.665 79.8078C114.013 79.89 114.341 80.0384 114.647 80.2531C114.775 80.3429 114.899 80.4443 115.02 80.5573L116.598 78.5197C116.009 77.8932 115.26 77.4665 114.351 77.2397C113.448 76.9998 112.465 77.0573 111.403 77.4119C110.585 77.6853 109.885 78.0868 109.304 78.6166C108.732 79.1432 108.338 79.7459 108.121 80.4249C107.91 81.0909 107.919 81.7649 108.147 82.4469C108.4 83.2068 108.8 83.7555 109.346 84.093C109.892 84.4305 110.46 84.6251 111.052 84.6767C111.64 84.7186 112.349 84.7198 113.181 84.6803L113.278 84.6802C113.915 84.6409 114.407 84.639 114.755 84.6745C115.109 84.697 115.369 84.7618 115.534 84.8689C115.7 84.976 115.819 85.1367 115.89 85.3511C115.959 85.5557 115.946 85.7603 115.852 85.965C115.754 86.1599 115.584 86.3468 115.34 86.5256C115.094 86.6946 114.785 86.841 114.415 86.9646C113.869 87.1469 113.338 87.178 112.822 87.0582C112.431 86.9607 112.053 86.764 111.688 86.4682C111.567 86.3706 111.448 86.2622 111.33 86.1431L109.685 88.2683C110.341 88.9696 111.15 89.4303 112.112 89.6506C113.074 89.8709 114.11 89.7956 115.22 89.4247C116.117 89.1253 116.86 88.7091 117.451 88.176Z" fill="#86F097"/>
<path fill-rule="evenodd" clip-rule="evenodd" d="M98.1043 95.4207L98.6428 81.3928L102.051 80.2545L110.912 91.1432L107.049 92.4333L105.414 90.3314L102.01 91.4684L101.967 94.1306L98.1043 95.4207ZM101.534 91.1197L105.585 89.7668L107.22 91.8686L110.099 90.9071L101.888 80.8167L99.1112 81.744L98.6122 94.7435L101.491 93.7819L101.534 91.1197ZM101.725 84.8023L101.637 84.8315L101.581 88.2778L103.84 87.5231L101.725 84.8023ZM103.043 87.2818L102.098 86.0672L102.073 87.6057L103.043 87.2818Z" fill="#86F097"/>
<path fill-rule="evenodd" clip-rule="evenodd" d="M90.9585 90.6887L92.5222 90.1665C93.1554 89.955 93.5938 89.6624 93.8372 89.2887C94.087 88.902 94.1274 88.4554 93.9582 87.9488C93.789 87.4421 93.4883 87.1094 93.0562 86.9505C92.6241 86.7916 92.0963 86.8162 91.4728 87.0245L89.9091 87.5467L90.9585 90.6887ZM90.5183 87.8509L91.2626 90.0795L92.3696 89.7098C92.9484 89.5165 93.2723 89.2734 93.4333 89.0265C93.5901 88.7834 93.6325 88.4937 93.5015 88.1013C93.3703 87.7084 93.1619 87.5024 92.89 87.4024C92.5965 87.2944 92.1885 87.2931 91.6253 87.4812L90.5183 87.8509ZM91.7785 93.1439L92.945 96.6366L90.2268 97.5444L86.3709 85.9995L91.062 84.4327C92.4162 83.9804 93.592 83.983 94.5895 84.4404C95.5967 84.8945 96.3118 85.7548 96.7348 87.0214C97.1546 88.2782 97.113 89.3858 96.6101 90.3443C96.1072 91.3028 95.203 92.0001 93.8975 92.4361L91.7785 93.1439ZM92.3877 93.448L93.5542 96.9407L89.9227 98.1536L85.7617 85.6953L90.9095 83.976C92.343 83.4972 93.6504 83.4805 94.7888 84.0021C95.9428 84.5229 96.7357 85.5042 97.1915 86.8689C97.6428 88.2201 97.6135 89.4683 97.0365 90.568C96.4613 91.6643 95.44 92.4286 94.05 92.8928L92.3877 93.448Z" fill="#86F097"/>
<path fill-rule="evenodd" clip-rule="evenodd" d="M54.7495 89.7789C58.1082 88.6574 61.747 88.8328 64.8656 90.2663C67.9847 91.7 70.3279 94.2748 71.3798 97.4243C72.4317 100.574 72.1061 104.04 70.4747 107.06C68.9173 109.943 66.2918 112.195 63.1346 113.369C62.9845 113.425 62.8331 113.479 62.6805 113.53L61.0941 108.78C63.1095 108.106 64.7917 106.71 65.7706 104.898C66.7494 103.086 66.9447 101.006 66.3136 99.1164C65.6825 97.2267 64.2766 95.6818 62.4051 94.8215C60.5341 93.9615 58.3511 93.8563 56.336 94.5289L50.7943 96.3798L57.1402 115.38L51.5984 117.231L43.6661 93.4806C43.6661 93.4806 43.8389 93.4229 44.1228 93.3282C44.6459 93.1536 45.546 92.853 46.4366 92.5553C47.808 92.0969 49.2021 91.6316 49.2071 91.63L54.7495 89.7789ZM44.2753 93.7849L51.9026 116.622L56.531 115.076L50.1851 96.0756L56.1835 94.0722C58.3105 93.3622 60.6203 93.4712 62.6062 94.3841C64.594 95.2978 66.0954 96.9432 66.7703 98.9638C67.4452 100.984 67.2339 103.202 66.1942 105.127C65.2298 106.912 63.6259 108.312 61.6992 109.071L62.982 112.912C66.0268 111.776 68.5536 109.604 70.051 106.831C71.6216 103.924 71.9313 100.595 70.9231 97.5768C69.9149 94.5583 67.6673 92.084 64.6646 90.7038C61.6609 89.3231 58.1488 89.1515 54.902 90.2355C54.902 90.2355 54.9021 90.2355 54.902 90.2355L49.3599 92.0866C49.3549 92.0882 47.9605 92.5536 46.5892 93.0119C45.9023 93.2416 45.2096 93.4729 44.6886 93.6469L44.2753 93.7849Z" fill="#86F097"/>
<path fill-rule="evenodd" clip-rule="evenodd" d="M55.9729 102.005C56.8138 101.724 57.2678 100.815 56.9869 99.9737C56.7061 99.1329 55.7968 98.6789 54.9559 98.9597C54.1151 99.2406 53.6611 100.15 53.9419 100.991C54.2228 101.832 55.1321 102.286 55.9729 102.005ZM56.1255 102.461C57.2185 102.096 57.8087 100.914 57.4436 99.8212C57.0785 98.7281 55.8965 98.138 54.8034 98.503C53.7103 98.8681 53.1202 100.05 53.4852 101.143C53.8503 102.236 55.0324 102.826 56.1255 102.461Z" fill="#86F097"/>
<path fill-rule="evenodd" clip-rule="evenodd" d="M61.8714 100.035C62.7122 99.7542 63.1662 98.8448 62.8854 98.004C62.6045 97.1631 61.6952 96.7092 60.8544 96.99C60.0135 97.2708 59.5595 98.1801 59.8404 99.021C60.1212 99.8618 61.0305 100.316 61.8714 100.035ZM62.0239 100.492C63.117 100.127 63.7071 98.9445 63.3421 97.8515C62.977 96.7584 61.7949 96.1682 60.7018 96.5333C59.6088 96.8984 59.0186 98.0804 59.3837 99.1735C59.7488 100.267 60.9308 100.857 62.0239 100.492Z" fill="#86F097"/>
</g>
<g filter="url(#filter2_d_477_591)">
<path fill-rule="evenodd" clip-rule="evenodd" d="M168.088 130.1L39.1231 134.414L39.5698 147.767L168.535 143.453L168.088 130.1ZM168.072 129.618L39.107 133.933L37.6744 91.1046C37.5766 88.1812 39.8672 85.732 42.7906 85.6342L161.169 81.6743C164.092 81.5765 166.541 83.8671 166.639 86.7906L168.072 129.618ZM167.12 86.7745C167.014 83.5853 164.342 81.0864 161.153 81.1931L42.7745 85.153C39.5854 85.2597 37.0865 87.9315 37.1932 91.1207L39.3663 156.084C39.473 159.274 42.1448 161.772 45.334 161.666L163.712 157.706C166.901 157.599 169.4 154.927 169.294 151.738L167.12 86.7745ZM168.551 143.935L39.5859 148.249L39.8475 156.068C39.9453 158.992 42.3945 161.282 45.3179 161.185L163.696 157.225C166.62 157.127 168.91 154.678 168.812 151.754L168.551 143.935Z" fill="#86F097"/>
<path d="M168.072 129.618L39.107 133.933L37.6744 91.1046C37.5766 88.1812 39.8672 85.732 42.7906 85.6342L161.169 81.6743C164.092 81.5765 166.541 83.8671 166.639 86.7906L168.072 129.618Z" fill="#1E1E1E"/>
<path d="M39.1231 134.414L168.088 130.1L168.535 143.453L39.5698 147.767L39.1231 134.414Z" fill="#1E1E1E"/>
<path d="M39.5859 148.249L168.551 143.935L168.812 151.754C168.91 154.678 166.62 157.127 163.696 157.225L45.3179 161.185C42.3945 161.282 39.9453 158.992 39.8475 156.068L39.5859 148.249Z" fill="#1E1E1E"/>
<path fill-rule="evenodd" clip-rule="evenodd" d="M126.641 110.68L129.604 108.551L129.863 109.037C130.149 109.573 130.482 109.932 130.848 110.149C131.225 110.362 131.652 110.465 132.145 110.449C132.499 110.437 132.788 110.39 133.018 110.317C133.247 110.234 133.385 110.141 133.466 110.058C133.534 109.978 133.556 109.905 133.553 109.82C133.549 109.686 133.512 109.608 133.465 109.553C133.418 109.498 133.281 109.397 132.973 109.283L132.964 109.28L132.955 109.277C132.669 109.158 132.227 109.027 131.614 108.885L131.599 108.882L131.503 108.853C130.687 108.652 129.992 108.445 129.419 108.229L129.416 108.228L129.412 108.226C128.784 107.979 128.234 107.584 127.761 107.054C127.242 106.471 126.988 105.714 126.958 104.83C126.931 104.012 127.142 103.263 127.592 102.598L127.593 102.597C128.046 101.933 128.662 101.414 129.428 101.039L129.43 101.038C130.204 100.664 131.056 100.465 131.979 100.434C133.172 100.394 134.226 100.633 135.118 101.177C135.996 101.696 136.659 102.383 137.089 103.241L137.274 103.608L134.418 105.66L134.151 105.204C133.905 104.785 133.601 104.48 133.242 104.274C132.88 104.066 132.492 103.97 132.067 103.984C131.801 103.993 131.57 104.044 131.366 104.13L131.361 104.132L131.357 104.134C131.159 104.212 131.026 104.308 130.938 104.409C130.866 104.491 130.842 104.566 130.845 104.653C130.848 104.759 130.875 104.821 130.91 104.863C130.985 104.928 131.144 105.021 131.429 105.13C131.719 105.24 132.169 105.367 132.793 105.509C133.624 105.69 134.338 105.894 134.929 106.122C135.568 106.359 136.13 106.747 136.613 107.277C137.147 107.861 137.406 108.631 137.437 109.535C137.465 110.387 137.258 111.162 136.807 111.841C136.36 112.513 135.727 113.028 134.93 113.392C134.142 113.767 133.245 113.965 132.248 113.999C131.006 114.04 129.901 113.804 128.951 113.268C128.011 112.737 127.298 111.995 126.825 111.047L126.641 110.68ZM134.726 112.956C135.455 112.623 136.015 112.163 136.406 111.574C136.798 110.985 136.981 110.311 136.955 109.552C136.928 108.73 136.695 108.08 136.258 107.602C135.821 107.123 135.321 106.78 134.759 106.573C134.197 106.355 133.507 106.157 132.689 105.979C132.057 105.836 131.58 105.703 131.257 105.58C130.935 105.457 130.704 105.331 130.566 105.202C130.438 105.063 130.371 104.885 130.364 104.669C130.356 104.454 130.427 104.261 130.575 104.092C130.724 103.922 130.925 103.787 131.179 103.686C131.442 103.575 131.733 103.514 132.051 103.503C132.564 103.486 133.041 103.603 133.481 103.856C133.791 104.034 134.063 104.269 134.295 104.562C134.392 104.685 134.483 104.818 134.566 104.96L136.659 103.457C136.274 102.689 135.677 102.066 134.87 101.59C134.073 101.102 133.114 100.877 131.995 100.915C131.133 100.944 130.348 101.129 129.64 101.472C128.942 101.814 128.393 102.279 127.991 102.868C127.599 103.446 127.415 104.095 127.439 104.813C127.466 105.614 127.693 106.254 128.12 106.733C128.547 107.212 129.037 107.561 129.589 107.778C130.14 107.986 130.82 108.189 131.629 108.389L131.722 108.416C132.344 108.56 132.816 108.698 133.139 108.831C133.472 108.954 133.703 109.09 133.831 109.24C133.959 109.39 134.027 109.578 134.035 109.803C134.042 110.019 133.971 110.211 133.823 110.381C133.674 110.54 133.457 110.671 133.173 110.773C132.888 110.864 132.551 110.917 132.161 110.93C131.586 110.949 131.068 110.828 130.607 110.566C130.26 110.361 129.954 110.065 129.688 109.677C129.6 109.549 129.517 109.411 129.438 109.263L127.255 110.832C127.685 111.691 128.329 112.363 129.188 112.848C130.047 113.333 131.062 113.556 132.232 113.517C133.176 113.486 134.008 113.299 134.726 112.956Z" fill="#86F097"/>
<path fill-rule="evenodd" clip-rule="evenodd" d="M116.008 111.036L118.971 108.907L119.23 109.392C119.516 109.928 119.849 110.287 120.216 110.504C120.592 110.718 121.02 110.821 121.512 110.804C121.866 110.792 122.155 110.745 122.385 110.672C122.614 110.589 122.753 110.497 122.833 110.413C122.901 110.333 122.924 110.26 122.921 110.175C122.916 110.042 122.879 109.963 122.832 109.908C122.785 109.853 122.648 109.752 122.34 109.639L122.331 109.636L122.323 109.632C122.036 109.514 121.594 109.383 120.981 109.241L120.967 109.238L120.87 109.209C120.055 109.008 119.359 108.8 118.786 108.585L118.783 108.583L118.779 108.582C118.152 108.334 117.601 107.939 117.128 107.409C116.609 106.827 116.355 106.07 116.325 105.185C116.298 104.368 116.509 103.619 116.959 102.953L116.96 102.952C117.413 102.288 118.03 101.77 118.795 101.395L118.798 101.394C119.572 101.019 120.424 100.82 121.346 100.789C122.539 100.749 123.593 100.988 124.485 101.532C125.363 102.051 126.026 102.739 126.456 103.596L126.641 103.963L123.785 106.015L123.518 105.559C123.273 105.14 122.969 104.835 122.609 104.629C122.247 104.422 121.859 104.325 121.434 104.34C121.169 104.349 120.937 104.399 120.733 104.485L120.729 104.487L120.724 104.489C120.526 104.568 120.393 104.663 120.305 104.765C120.233 104.847 120.209 104.921 120.212 105.009C120.215 105.115 120.243 105.176 120.277 105.219C120.353 105.283 120.511 105.377 120.796 105.485C121.086 105.596 121.536 105.723 122.161 105.864C122.992 106.046 123.705 106.249 124.297 106.478C124.935 106.714 125.497 107.103 125.981 107.632C126.514 108.216 126.773 108.987 126.804 109.891C126.832 110.743 126.626 111.517 126.174 112.196C125.728 112.868 125.094 113.383 124.297 113.748C123.509 114.123 122.612 114.321 121.615 114.354C120.373 114.396 119.268 114.159 118.318 113.623C117.378 113.092 116.665 112.35 116.192 111.403L116.008 111.036ZM124.093 113.311C124.822 112.979 125.382 112.518 125.774 111.929C126.165 111.341 126.348 110.667 126.323 109.907C126.295 109.086 126.063 108.436 125.625 107.957C125.188 107.478 124.688 107.135 124.126 106.928C123.564 106.711 122.874 106.513 122.056 106.334C121.424 106.191 120.947 106.058 120.624 105.935C120.302 105.812 120.071 105.687 119.934 105.558C119.806 105.418 119.738 105.24 119.731 105.025C119.723 104.809 119.794 104.617 119.943 104.447C120.091 104.278 120.292 104.143 120.546 104.042C120.809 103.93 121.1 103.869 121.418 103.858C121.932 103.841 122.408 103.959 122.848 104.211C123.159 104.389 123.43 104.625 123.662 104.918C123.76 105.04 123.85 105.173 123.934 105.316L126.026 103.812C125.641 103.044 125.044 102.422 124.237 101.945C123.44 101.458 122.482 101.233 121.363 101.27C120.5 101.299 119.715 101.485 119.007 101.827C118.309 102.169 117.76 102.634 117.358 103.223C116.966 103.802 116.782 104.45 116.806 105.169C116.833 105.97 117.06 106.61 117.487 107.089C117.914 107.568 118.404 107.916 118.956 108.134C119.508 108.342 120.188 108.545 120.996 108.744L121.089 108.772C121.711 108.915 122.183 109.054 122.506 109.187C122.839 109.309 123.07 109.445 123.198 109.595C123.326 109.745 123.394 109.933 123.402 110.159C123.409 110.374 123.338 110.567 123.19 110.736C123.041 110.896 122.825 111.026 122.54 111.128C122.255 111.22 121.918 111.272 121.528 111.285C120.953 111.305 120.435 111.183 119.974 110.921C119.627 110.716 119.321 110.42 119.055 110.032C118.967 109.904 118.884 109.767 118.805 109.619L116.622 111.187C117.052 112.047 117.696 112.719 118.555 113.204C119.414 113.689 120.429 113.912 121.599 113.873C122.544 113.841 123.375 113.654 124.093 113.311Z" fill="#86F097"/>
<path fill-rule="evenodd" clip-rule="evenodd" d="M103.486 114.745L107.999 101.452L111.59 101.331L116.981 114.293L112.911 114.429L111.943 111.949L108.356 112.069L107.556 114.609L103.486 114.745ZM107.999 111.599L112.268 111.456L113.236 113.937L116.269 113.835L111.273 101.824L108.348 101.922L104.166 114.24L107.199 114.139L107.999 111.599ZM109.981 105.598L109.889 105.601L108.853 108.888L111.234 108.809L109.981 105.598ZM110.539 108.35L109.979 106.917L109.517 108.384L110.539 108.35Z" fill="#86F097"/>
<path fill-rule="evenodd" clip-rule="evenodd" d="M97.9846 108.172L99.6322 108.117C100.3 108.095 100.803 107.939 101.143 107.65C101.492 107.351 101.658 106.934 101.641 106.401C101.623 105.867 101.429 105.462 101.06 105.187C100.691 104.911 100.178 104.784 99.5215 104.806L97.8738 104.862L97.9846 108.172ZM98.3711 105.327L98.4497 107.675L99.6161 107.636C100.226 107.616 100.606 107.475 100.83 107.284C101.05 107.096 101.173 106.83 101.159 106.417C101.145 106.003 101.004 105.746 100.772 105.572C100.522 105.385 100.131 105.268 99.5376 105.288L98.3711 105.327ZM98.0711 110.759L98.1942 114.44L95.33 114.535L94.9231 102.37L99.8661 102.205C101.293 102.157 102.419 102.495 103.245 103.217C104.081 103.94 104.522 104.968 104.566 106.303C104.611 107.627 104.255 108.677 103.5 109.452C102.745 110.228 101.68 110.639 100.304 110.685L98.0711 110.759ZM98.5684 111.224L98.6915 114.905L94.8649 115.033L94.4258 101.905L99.85 101.724C101.361 101.673 102.618 102.03 103.561 102.854C104.519 103.682 104.999 104.849 105.048 106.287C105.095 107.71 104.711 108.898 103.845 109.788C102.981 110.675 101.785 111.117 100.32 111.166L98.5684 111.224Z" fill="#86F097"/>
<path fill-rule="evenodd" clip-rule="evenodd" d="M63.5342 96.9845C67.0732 96.8665 70.5113 98.0712 73.0922 100.334C75.6735 102.597 77.1861 105.732 77.2971 109.051C77.4081 112.37 76.1085 115.599 73.6842 118.03C71.37 120.35 68.2118 121.76 64.8509 121.986C64.691 121.997 64.5307 122.005 64.37 122.01L64.2025 117.005C66.3262 116.934 68.3365 116.075 69.7911 114.617C71.2457 113.159 72.0254 111.221 71.9588 109.23C71.8922 107.238 70.9847 105.357 69.4359 103.999C67.8875 102.642 65.8249 101.919 63.7017 101.99L57.8623 102.185L58.532 122.206L52.6926 122.401L51.8555 97.3752C51.8555 97.3752 52.0376 97.3691 52.3367 97.3592C52.8879 97.3408 53.8364 97.3091 54.7748 97.2775C56.2199 97.2288 57.6889 97.18 57.6941 97.1799L63.5342 96.9845ZM52.3528 97.8404L53.1577 121.904L58.0347 121.741L57.365 101.72L63.6856 101.508C65.9267 101.434 68.1097 102.196 69.7533 103.637C71.3983 105.079 72.3688 107.084 72.44 109.214C72.5112 111.343 71.6769 113.408 70.132 114.957C68.6988 116.394 66.7628 117.278 64.6994 117.458L64.8348 121.505C68.0772 121.283 71.1181 119.921 73.3433 117.69C75.6772 115.35 76.9223 112.248 76.8159 109.067C76.7095 105.887 75.2599 102.874 72.7748 100.696C70.2891 98.5167 66.9714 97.3516 63.5503 97.4657C63.5503 97.4657 63.5503 97.4657 63.5503 97.4657L57.7105 97.6611C57.7053 97.6612 56.236 97.71 54.791 97.7587C54.0671 97.7831 53.3372 97.8075 52.7883 97.8258L52.3528 97.8404Z" fill="#86F097"/>
<path fill-rule="evenodd" clip-rule="evenodd" d="M61.2226 109.052C62.1086 109.022 62.8028 108.28 62.7732 107.394C62.7436 106.508 62.0013 105.814 61.1153 105.844C60.2292 105.873 59.535 106.616 59.5646 107.502C59.5943 108.388 60.3366 109.082 61.2226 109.052ZM61.2387 109.533C62.3905 109.495 63.2929 108.53 63.2544 107.378C63.2159 106.226 62.2509 105.324 61.0992 105.362C59.9474 105.401 59.0449 106.366 59.0834 107.518C59.122 108.669 60.0869 109.572 61.2387 109.533Z" fill="#86F097"/>
<path fill-rule="evenodd" clip-rule="evenodd" d="M67.4374 108.844C68.3235 108.814 69.0177 108.072 68.988 107.186C68.9584 106.3 68.2161 105.606 67.3301 105.636C66.4441 105.665 65.7499 106.407 65.7795 107.294C65.8091 108.18 66.5514 108.874 67.4374 108.844ZM67.4535 109.325C68.6053 109.287 69.5078 108.322 69.4693 107.17C69.4307 106.018 68.4658 105.116 67.314 105.154C66.1622 105.193 65.2597 106.158 65.2983 107.31C65.3368 108.461 66.3017 109.364 67.4535 109.325Z" fill="#86F097"/>
</g>
<defs>
<filter id="filter0_d_477_591" x="2.31055" y="2.31006" width="147.324" height="134.587" filterUnits="userSpaceOnUse" color-interpolation-filters="sRGB">
<feFlood flood-opacity="0" result="BackgroundImageFix"/>
<feColorMatrix in="SourceAlpha" type="matrix" values="0 0 0 0 0 0 0 0 0 0 0 0 0 0 0 0 0 0 127 0" result="hardAlpha"/>
<feOffset dx="2"/>
<feComposite in2="hardAlpha" operator="out"/>
<feColorMatrix type="matrix" values="0 0 0 0 0.52549 0 0 0 0 0.941176 0 0 0 0 0.592157 0 0 0 1 0"/>
<feBlend mode="normal" in2="BackgroundImageFix" result="effect1_dropShadow_477_591"/>
<feBlend mode="normal" in="SourceGraphic" in2="effect1_dropShadow_477_591" result="shape"/>
</filter>
<filter id="filter1_d_477_591" x="27.5312" y="46.5312" width="146.494" height="110.733" filterUnits="userSpaceOnUse" color-interpolation-filters="sRGB">
<feFlood flood-opacity="0" result="BackgroundImageFix"/>
<feColorMatrix in="SourceAlpha" type="matrix" values="0 0 0 0 0 0 0 0 0 0 0 0 0 0 0 0 0 0 127 0" result="hardAlpha"/>
<feOffset dx="2"/>
<feComposite in2="hardAlpha" operator="out"/>
<feColorMatrix type="matrix" values="0 0 0 0 0.52549 0 0 0 0 0.941176 0 0 0 0 0.592157 0 0 0 1 0"/>
<feBlend mode="normal" in2="BackgroundImageFix" result="effect1_dropShadow_477_591"/>
<feBlend mode="normal" in="SourceGraphic" in2="effect1_dropShadow_477_591" result="shape"/>
</filter>
<filter id="filter2_d_477_591" x="37.1895" y="81.1899" width="134.107" height="80.479" filterUnits="userSpaceOnUse" color-interpolation-filters="sRGB">
<feFlood flood-opacity="0" result="BackgroundImageFix"/>
<feColorMatrix in="SourceAlpha" type="matrix" values="0 0 0 0 0 0 0 0 0 0 0 0 0 0 0 0 0 0 127 0" result="hardAlpha"/>
<feOffset dx="2"/>
<feComposite in2="hardAlpha" operator="out"/>
<feColorMatrix type="matrix" values="0 0 0 0 0.52549 0 0 0 0 0.941176 0 0 0 0 0.592157 0 0 0 1 0"/>
<feBlend mode="normal" in2="BackgroundImageFix" result="effect1_dropShadow_477_591"/>
<feBlend mode="normal" in="SourceGraphic" in2="effect1_dropShadow_477_591" result="shape"/>
</filter>
</defs>
</svg>
