<svg width="17" height="16" viewBox="0 0 17 16" fill="none" xmlns="http://www.w3.org/2000/svg">
<mask id="path-1-inside-1_1147_3214" fill="white">
<path d="M0.208984 1.34329e-08H7.67474C7.67504 1.34329e-08 7.67534 -1.67912e-08 7.67565 1.34329e-08C9.93826 0.000225907 12.1081 0.843055 13.7081 2.34314C15.3082 3.84344 16.2072 5.87826 16.2072 7.99999C16.2072 10.1217 15.3082 12.1566 13.7081 13.6568C12.1079 15.1571 9.93767 16 7.67474 16V12.8C9.0325 12.8 10.3347 12.2943 11.2947 11.3941C12.2548 10.4939 12.7942 9.27303 12.7942 7.99999C12.7942 6.72696 12.2548 5.50606 11.2947 4.60588C10.3349 3.70591 9.03308 3.20022 7.67565 3.2C7.67534 3.2 7.67504 3.2 7.67474 3.2H3.94231V16H0.208984V1.34329e-08Z"/>
</mask>
<path d="M0.208984 1.34329e-08H7.67474C7.67504 1.34329e-08 7.67534 -1.67912e-08 7.67565 1.34329e-08C9.93826 0.000225907 12.1081 0.843055 13.7081 2.34314C15.3082 3.84344 16.2072 5.87826 16.2072 7.99999C16.2072 10.1217 15.3082 12.1566 13.7081 13.6568C12.1079 15.1571 9.93767 16 7.67474 16V12.8C9.0325 12.8 10.3347 12.2943 11.2947 11.3941C12.2548 10.4939 12.7942 9.27303 12.7942 7.99999C12.7942 6.72696 12.2548 5.50606 11.2947 4.60588C10.3349 3.70591 9.03308 3.20022 7.67565 3.2C7.67534 3.2 7.67504 3.2 7.67474 3.2H3.94231V16H0.208984V1.34329e-08Z" fill="white"/>
<path d="M0.208984 1.34329e-08V-15.4618H-15.2528V1.34329e-08H0.208984ZM7.67565 1.34329e-08L7.67719 -15.4618L7.67565 1.34329e-08ZM13.7081 2.34314L24.2836 -8.93625L24.2836 -8.93625L13.7081 2.34314ZM13.7081 13.6568L24.2836 24.9362L24.2836 24.9362L13.7081 13.6568ZM7.67474 16H-7.78706V31.4618H7.67474V16ZM7.67474 12.8V-2.66181H-7.78706V12.8H7.67474ZM11.2947 11.3941L21.8703 22.6735L21.8703 22.6735L11.2947 11.3941ZM12.7942 7.99999L-2.66761 7.99998V7.99999H12.7942ZM11.2947 4.60588L21.8703 -6.67351L21.8703 -6.67351L11.2947 4.60588ZM7.67565 3.2L7.67822 -12.2618H7.67565V3.2ZM3.94231 3.2V-12.2618H-11.5195V3.2H3.94231ZM3.94231 16V31.4618H19.4041V16H3.94231ZM0.208984 16H-15.2528V31.4618H0.208984V16ZM7.67474 15.4618H7.6741L7.67719 -15.4618C7.67607 -15.4618 7.67516 -15.4618 7.67481 -15.4618C7.67411 -15.4618 7.67466 -15.4618 7.67474 -15.4618V15.4618ZM7.6741 15.4618C6.14647 15.4616 4.49696 14.9018 3.13251 13.6225L24.2836 -8.93625C19.7193 -13.2157 13.73 -15.4612 7.67719 -15.4618L7.6741 15.4618ZM3.1325 13.6225C1.73414 12.3114 0.745355 10.3122 0.745355 7.99999H31.669C31.669 1.44432 28.8823 -4.62456 24.2836 -8.93625L3.1325 13.6225ZM0.745355 7.99999C0.745355 5.68777 1.73415 3.68855 3.1325 2.37745L24.2836 24.9362C28.8823 20.6246 31.669 14.5557 31.669 7.99999H0.745355ZM3.13251 2.37745C4.49714 1.09797 6.1469 0.53819 7.67474 0.53819V31.4618C13.7284 31.4618 19.7187 29.2163 24.2836 24.9362L3.13251 2.37745ZM23.1365 16V12.8H-7.78706V16H23.1365ZM7.67474 28.2618C12.8233 28.2618 17.9454 26.3534 21.8703 22.6735L0.719177 0.114708C2.72386 -1.76488 5.24172 -2.66181 7.67474 -2.66181V28.2618ZM21.8703 22.6735C25.8289 18.9619 28.256 13.707 28.256 7.99999H-2.66761C-2.66761 4.83908 -1.31924 2.02593 0.719172 0.114713L21.8703 22.6735ZM28.256 8C28.256 2.29301 25.8289 -2.96194 21.8703 -6.67351L0.719173 15.8853C-1.31924 13.9741 -2.66761 11.1609 -2.66761 7.99998L28.256 8ZM21.8703 -6.67351C17.9463 -10.3526 12.8255 -12.2609 7.67822 -12.2618L7.67307 18.6618C5.24061 18.6614 2.72342 17.7645 0.719177 15.8853L21.8703 -6.67351ZM7.67565 -12.2618C7.67564 -12.2618 7.67564 -12.2618 7.67564 -12.2618C7.67564 -12.2618 7.67564 -12.2618 7.67564 -12.2618C7.67564 -12.2618 7.67564 -12.2618 7.67564 -12.2618C7.67564 -12.2618 7.67564 -12.2618 7.67564 -12.2618C7.67564 -12.2618 7.67564 -12.2618 7.67564 -12.2618C7.67564 -12.2618 7.67564 -12.2618 7.67563 -12.2618C7.67563 -12.2618 7.67563 -12.2618 7.67563 -12.2618C7.67563 -12.2618 7.67563 -12.2618 7.67563 -12.2618C7.67563 -12.2618 7.67563 -12.2618 7.67563 -12.2618C7.67563 -12.2618 7.67563 -12.2618 7.67563 -12.2618C7.67563 -12.2618 7.67563 -12.2618 7.67563 -12.2618C7.67563 -12.2618 7.67562 -12.2618 7.67562 -12.2618C7.67562 -12.2618 7.67562 -12.2618 7.67562 -12.2618C7.67562 -12.2618 7.67562 -12.2618 7.67562 -12.2618C7.67562 -12.2618 7.67562 -12.2618 7.67562 -12.2618C7.67562 -12.2618 7.67562 -12.2618 7.67562 -12.2618C7.67562 -12.2618 7.67562 -12.2618 7.67562 -12.2618C7.67561 -12.2618 7.67561 -12.2618 7.67561 -12.2618C7.67561 -12.2618 7.67561 -12.2618 7.67561 -12.2618C7.67561 -12.2618 7.67561 -12.2618 7.67561 -12.2618C7.67561 -12.2618 7.67561 -12.2618 7.67561 -12.2618C7.67561 -12.2618 7.67561 -12.2618 7.67561 -12.2618C7.67561 -12.2618 7.67561 -12.2618 7.6756 -12.2618C7.6756 -12.2618 7.6756 -12.2618 7.6756 -12.2618C7.6756 -12.2618 7.6756 -12.2618 7.6756 -12.2618C7.6756 -12.2618 7.6756 -12.2618 7.6756 -12.2618C7.6756 -12.2618 7.6756 -12.2618 7.6756 -12.2618C7.6756 -12.2618 7.6756 -12.2618 7.6756 -12.2618C7.6756 -12.2618 7.67559 -12.2618 7.67559 -12.2618C7.67559 -12.2618 7.67559 -12.2618 7.67559 -12.2618C7.67559 -12.2618 7.67559 -12.2618 7.67559 -12.2618C7.67559 -12.2618 7.67559 -12.2618 7.67559 -12.2618C7.67559 -12.2618 7.67559 -12.2618 7.67559 -12.2618C7.67559 -12.2618 7.67559 -12.2618 7.67559 -12.2618C7.67558 -12.2618 7.67558 -12.2618 7.67558 -12.2618C7.67558 -12.2618 7.67558 -12.2618 7.67558 -12.2618C7.67558 -12.2618 7.67558 -12.2618 7.67558 -12.2618C7.67558 -12.2618 7.67558 -12.2618 7.67558 -12.2618C7.67558 -12.2618 7.67558 -12.2618 7.67558 -12.2618C7.67558 -12.2618 7.67558 -12.2618 7.67557 -12.2618C7.67557 -12.2618 7.67557 -12.2618 7.67557 -12.2618C7.67557 -12.2618 7.67557 -12.2618 7.67557 -12.2618C7.67557 -12.2618 7.67557 -12.2618 7.67557 -12.2618C7.67557 -12.2618 7.67557 -12.2618 7.67557 -12.2618C7.67557 -12.2618 7.67557 -12.2618 7.67557 -12.2618C7.67557 -12.2618 7.67556 -12.2618 7.67556 -12.2618C7.67556 -12.2618 7.67556 -12.2618 7.67556 -12.2618C7.67556 -12.2618 7.67556 -12.2618 7.67556 -12.2618C7.67556 -12.2618 7.67556 -12.2618 7.67556 -12.2618C7.67556 -12.2618 7.67556 -12.2618 7.67556 -12.2618C7.67556 -12.2618 7.67556 -12.2618 7.67556 -12.2618C7.67555 -12.2618 7.67555 -12.2618 7.67555 -12.2618C7.67555 -12.2618 7.67555 -12.2618 7.67555 -12.2618C7.67555 -12.2618 7.67555 -12.2618 7.67555 -12.2618C7.67555 -12.2618 7.67555 -12.2618 7.67555 -12.2618C7.67555 -12.2618 7.67555 -12.2618 7.67555 -12.2618C7.67555 -12.2618 7.67554 -12.2618 7.67554 -12.2618C7.67554 -12.2618 7.67554 -12.2618 7.67554 -12.2618C7.67554 -12.2618 7.67554 -12.2618 7.67554 -12.2618C7.67554 -12.2618 7.67554 -12.2618 7.67554 -12.2618C7.67554 -12.2618 7.67554 -12.2618 7.67554 -12.2618C7.67554 -12.2618 7.67554 -12.2618 7.67554 -12.2618C7.67553 -12.2618 7.67553 -12.2618 7.67553 -12.2618C7.67553 -12.2618 7.67553 -12.2618 7.67553 -12.2618C7.67553 -12.2618 7.67553 -12.2618 7.67553 -12.2618C7.67553 -12.2618 7.67553 -12.2618 7.67553 -12.2618C7.67553 -12.2618 7.67553 -12.2618 7.67553 -12.2618C7.67553 -12.2618 7.67553 -12.2618 7.67552 -12.2618C7.67552 -12.2618 7.67552 -12.2618 7.67552 -12.2618C7.67552 -12.2618 7.67552 -12.2618 7.67552 -12.2618C7.67552 -12.2618 7.67552 -12.2618 7.67552 -12.2618C7.67552 -12.2618 7.67552 -12.2618 7.67552 -12.2618C7.67552 -12.2618 7.67552 -12.2618 7.67552 -12.2618C7.67552 -12.2618 7.67551 -12.2618 7.67551 -12.2618C7.67551 -12.2618 7.67551 -12.2618 7.67551 -12.2618C7.67551 -12.2618 7.67551 -12.2618 7.67551 -12.2618C7.67551 -12.2618 7.67551 -12.2618 7.67551 -12.2618C7.67551 -12.2618 7.67551 -12.2618 7.67551 -12.2618C7.67551 -12.2618 7.67551 -12.2618 7.67551 -12.2618C7.6755 -12.2618 7.6755 -12.2618 7.6755 -12.2618C7.6755 -12.2618 7.6755 -12.2618 7.6755 -12.2618C7.6755 -12.2618 7.6755 -12.2618 7.6755 -12.2618C7.6755 -12.2618 7.6755 -12.2618 7.6755 -12.2618C7.6755 -12.2618 7.6755 -12.2618 7.6755 -12.2618C7.6755 -12.2618 7.6755 -12.2618 7.67549 -12.2618C7.67549 -12.2618 7.67549 -12.2618 7.67549 -12.2618C7.67549 -12.2618 7.67549 -12.2618 7.67549 -12.2618C7.67549 -12.2618 7.67549 -12.2618 7.67549 -12.2618C7.67549 -12.2618 7.67549 -12.2618 7.67549 -12.2618C7.67549 -12.2618 7.67549 -12.2618 7.67549 -12.2618C7.67549 -12.2618 7.67548 -12.2618 7.67548 -12.2618C7.67548 -12.2618 7.67548 -12.2618 7.67548 -12.2618C7.67548 -12.2618 7.67548 -12.2618 7.67548 -12.2618C7.67548 -12.2618 7.67548 -12.2618 7.67548 -12.2618C7.67548 -12.2618 7.67548 -12.2618 7.67548 -12.2618C7.67548 -12.2618 7.67548 -12.2618 7.67548 -12.2618C7.67547 -12.2618 7.67547 -12.2618 7.67547 -12.2618C7.67547 -12.2618 7.67547 -12.2618 7.67547 -12.2618C7.67547 -12.2618 7.67547 -12.2618 7.67547 -12.2618C7.67547 -12.2618 7.67547 -12.2618 7.67547 -12.2618C7.67547 -12.2618 7.67547 -12.2618 7.67547 -12.2618C7.67547 -12.2618 7.67547 -12.2618 7.67546 -12.2618C7.67546 -12.2618 7.67546 -12.2618 7.67546 -12.2618C7.67546 -12.2618 7.67546 -12.2618 7.67546 -12.2618C7.67546 -12.2618 7.67546 -12.2618 7.67546 -12.2618C7.67546 -12.2618 7.67546 -12.2618 7.67546 -12.2618C7.67546 -12.2618 7.67546 -12.2618 7.67546 -12.2618C7.67546 -12.2618 7.67545 -12.2618 7.67545 -12.2618C7.67545 -12.2618 7.67545 -12.2618 7.67545 -12.2618C7.67545 -12.2618 7.67545 -12.2618 7.67545 -12.2618C7.67545 -12.2618 7.67545 -12.2618 7.67545 -12.2618C7.67545 -12.2618 7.67545 -12.2618 7.67545 -12.2618C7.67545 -12.2618 7.67545 -12.2618 7.67545 -12.2618C7.67544 -12.2618 7.67544 -12.2618 7.67544 -12.2618C7.67544 -12.2618 7.67544 -12.2618 7.67544 -12.2618C7.67544 -12.2618 7.67544 -12.2618 7.67544 -12.2618C7.67544 -12.2618 7.67544 -12.2618 7.67544 -12.2618C7.67544 -12.2618 7.67544 -12.2618 7.67544 -12.2618C7.67544 -12.2618 7.67544 -12.2618 7.67543 -12.2618C7.67543 -12.2618 7.67543 -12.2618 7.67543 -12.2618C7.67543 -12.2618 7.67543 -12.2618 7.67543 -12.2618C7.67543 -12.2618 7.67543 -12.2618 7.67543 -12.2618C7.67543 -12.2618 7.67543 -12.2618 7.67543 -12.2618C7.67543 -12.2618 7.67543 -12.2618 7.67543 -12.2618C7.67543 -12.2618 7.67542 -12.2618 7.67542 -12.2618C7.67542 -12.2618 7.67542 -12.2618 7.67542 -12.2618C7.67542 -12.2618 7.67542 -12.2618 7.67542 -12.2618C7.67542 -12.2618 7.67542 -12.2618 7.67542 -12.2618C7.67542 -12.2618 7.67542 -12.2618 7.67542 -12.2618C7.67542 -12.2618 7.67542 -12.2618 7.67541 -12.2618C7.67541 -12.2618 7.67541 -12.2618 7.67541 -12.2618C7.67541 -12.2618 7.67541 -12.2618 7.67541 -12.2618C7.67541 -12.2618 7.67541 -12.2618 7.67541 -12.2618C7.67541 -12.2618 7.67541 -12.2618 7.67541 -12.2618C7.67541 -12.2618 7.67541 -12.2618 7.67541 -12.2618C7.67541 -12.2618 7.6754 -12.2618 7.6754 -12.2618C7.6754 -12.2618 7.6754 -12.2618 7.6754 -12.2618C7.6754 -12.2618 7.6754 -12.2618 7.6754 -12.2618C7.6754 -12.2618 7.6754 -12.2618 7.6754 -12.2618C7.6754 -12.2618 7.6754 -12.2618 7.6754 -12.2618C7.6754 -12.2618 7.6754 -12.2618 7.6754 -12.2618C7.67539 -12.2618 7.67539 -12.2618 7.67539 -12.2618C7.67539 -12.2618 7.67539 -12.2618 7.67539 -12.2618C7.67539 -12.2618 7.67539 -12.2618 7.67539 -12.2618C7.67539 -12.2618 7.67539 -12.2618 7.67539 -12.2618C7.67539 -12.2618 7.67539 -12.2618 7.67539 -12.2618C7.67539 -12.2618 7.67538 -12.2618 7.67538 -12.2618C7.67538 -12.2618 7.67538 -12.2618 7.67538 -12.2618C7.67538 -12.2618 7.67538 -12.2618 7.67538 -12.2618C7.67538 -12.2618 7.67538 -12.2618 7.67538 -12.2618C7.67538 -12.2618 7.67538 -12.2618 7.67538 -12.2618C7.67538 -12.2618 7.67538 -12.2618 7.67538 -12.2618C7.67537 -12.2618 7.67537 -12.2618 7.67537 -12.2618C7.67537 -12.2618 7.67537 -12.2618 7.67537 -12.2618C7.67537 -12.2618 7.67537 -12.2618 7.67537 -12.2618C7.67537 -12.2618 7.67537 -12.2618 7.67537 -12.2618C7.67537 -12.2618 7.67537 -12.2618 7.67537 -12.2618C7.67537 -12.2618 7.67537 -12.2618 7.67536 -12.2618C7.67536 -12.2618 7.67536 -12.2618 7.67536 -12.2618C7.67536 -12.2618 7.67536 -12.2618 7.67536 -12.2618C7.67536 -12.2618 7.67536 -12.2618 7.67536 -12.2618C7.67536 -12.2618 7.67536 -12.2618 7.67536 -12.2618C7.67536 -12.2618 7.67536 -12.2618 7.67536 -12.2618C7.67536 -12.2618 7.67535 -12.2618 7.67535 -12.2618C7.67535 -12.2618 7.67535 -12.2618 7.67535 -12.2618C7.67535 -12.2618 7.67535 -12.2618 7.67535 -12.2618C7.67535 -12.2618 7.67535 -12.2618 7.67535 -12.2618C7.67535 -12.2618 7.67535 -12.2618 7.67535 -12.2618C7.67535 -12.2618 7.67535 -12.2618 7.67535 -12.2618C7.67534 -12.2618 7.67534 -12.2618 7.67534 -12.2618C7.67534 -12.2618 7.67534 -12.2618 7.67534 -12.2618C7.67534 -12.2618 7.67534 -12.2618 7.67534 -12.2618C7.67534 -12.2618 7.67534 -12.2618 7.67534 -12.2618C7.67534 -12.2618 7.67534 -12.2618 7.67534 -12.2618C7.67534 -12.2618 7.67534 -12.2618 7.67533 -12.2618C7.67533 -12.2618 7.67533 -12.2618 7.67533 -12.2618C7.67533 -12.2618 7.67533 -12.2618 7.67533 -12.2618C7.67533 -12.2618 7.67533 -12.2618 7.67533 -12.2618C7.67533 -12.2618 7.67533 -12.2618 7.67533 -12.2618C7.67533 -12.2618 7.67533 -12.2618 7.67533 -12.2618C7.67533 -12.2618 7.67532 -12.2618 7.67532 -12.2618C7.67532 -12.2618 7.67532 -12.2618 7.67532 -12.2618C7.67532 -12.2618 7.67532 -12.2618 7.67532 -12.2618C7.67532 -12.2618 7.67532 -12.2618 7.67532 -12.2618C7.67532 -12.2618 7.67532 -12.2618 7.67532 -12.2618C7.67532 -12.2618 7.67532 -12.2618 7.67532 -12.2618C7.67531 -12.2618 7.67531 -12.2618 7.67531 -12.2618C7.67531 -12.2618 7.67531 -12.2618 7.67531 -12.2618C7.67531 -12.2618 7.67531 -12.2618 7.67531 -12.2618C7.67531 -12.2618 7.67531 -12.2618 7.67531 -12.2618C7.67531 -12.2618 7.67531 -12.2618 7.67531 -12.2618C7.67531 -12.2618 7.67531 -12.2618 7.6753 -12.2618C7.6753 -12.2618 7.6753 -12.2618 7.6753 -12.2618C7.6753 -12.2618 7.6753 -12.2618 7.6753 -12.2618C7.6753 -12.2618 7.6753 -12.2618 7.6753 -12.2618C7.6753 -12.2618 7.6753 -12.2618 7.6753 -12.2618C7.6753 -12.2618 7.6753 -12.2618 7.6753 -12.2618C7.6753 -12.2618 7.67529 -12.2618 7.67529 -12.2618C7.67529 -12.2618 7.67529 -12.2618 7.67529 -12.2618C7.67529 -12.2618 7.67529 -12.2618 7.67529 -12.2618C7.67529 -12.2618 7.67529 -12.2618 7.67529 -12.2618C7.67529 -12.2618 7.67529 -12.2618 7.67529 -12.2618C7.67529 -12.2618 7.67529 -12.2618 7.67529 -12.2618C7.67528 -12.2618 7.67528 -12.2618 7.67528 -12.2618C7.67528 -12.2618 7.67528 -12.2618 7.67528 -12.2618C7.67528 -12.2618 7.67528 -12.2618 7.67528 -12.2618C7.67528 -12.2618 7.67528 -12.2618 7.67528 -12.2618C7.67528 -12.2618 7.67528 -12.2618 7.67528 -12.2618C7.67528 -12.2618 7.67527 -12.2618 7.67527 -12.2618C7.67527 -12.2618 7.67527 -12.2618 7.67527 -12.2618C7.67527 -12.2618 7.67527 -12.2618 7.67527 -12.2618C7.67527 -12.2618 7.67527 -12.2618 7.67527 -12.2618C7.67527 -12.2618 7.67527 -12.2618 7.67527 -12.2618C7.67527 -12.2618 7.67527 -12.2618 7.67527 -12.2618C7.67526 -12.2618 7.67526 -12.2618 7.67526 -12.2618C7.67526 -12.2618 7.67526 -12.2618 7.67526 -12.2618C7.67526 -12.2618 7.67526 -12.2618 7.67526 -12.2618C7.67526 -12.2618 7.67526 -12.2618 7.67526 -12.2618C7.67526 -12.2618 7.67526 -12.2618 7.67526 -12.2618C7.67526 -12.2618 7.67526 -12.2618 7.67525 -12.2618C7.67525 -12.2618 7.67525 -12.2618 7.67525 -12.2618C7.67525 -12.2618 7.67525 -12.2618 7.67525 -12.2618C7.67525 -12.2618 7.67525 -12.2618 7.67525 -12.2618C7.67525 -12.2618 7.67525 -12.2618 7.67525 -12.2618C7.67525 -12.2618 7.67525 -12.2618 7.67525 -12.2618C7.67525 -12.2618 7.67524 -12.2618 7.67524 -12.2618C7.67524 -12.2618 7.67524 -12.2618 7.67524 -12.2618C7.67524 -12.2618 7.67524 -12.2618 7.67524 -12.2618C7.67524 -12.2618 7.67524 -12.2618 7.67524 -12.2618C7.67524 -12.2618 7.67524 -12.2618 7.67524 -12.2618C7.67524 -12.2618 7.67524 -12.2618 7.67524 -12.2618C7.67523 -12.2618 7.67523 -12.2618 7.67523 -12.2618C7.67523 -12.2618 7.67523 -12.2618 7.67523 -12.2618C7.67523 -12.2618 7.67523 -12.2618 7.67523 -12.2618C7.67523 -12.2618 7.67523 -12.2618 7.67523 -12.2618C7.67523 -12.2618 7.67523 -12.2618 7.67523 -12.2618C7.67523 -12.2618 7.67523 -12.2618 7.67522 -12.2618C7.67522 -12.2618 7.67522 -12.2618 7.67522 -12.2618C7.67522 -12.2618 7.67522 -12.2618 7.67522 -12.2618C7.67522 -12.2618 7.67522 -12.2618 7.67522 -12.2618C7.67522 -12.2618 7.67522 -12.2618 7.67522 -12.2618C7.67522 -12.2618 7.67522 -12.2618 7.67522 -12.2618C7.67522 -12.2618 7.67521 -12.2618 7.67521 -12.2618C7.67521 -12.2618 7.67521 -12.2618 7.67521 -12.2618C7.67521 -12.2618 7.67521 -12.2618 7.67521 -12.2618C7.67521 -12.2618 7.67521 -12.2618 7.67521 -12.2618C7.67521 -12.2618 7.67521 -12.2618 7.67521 -12.2618C7.67521 -12.2618 7.67521 -12.2618 7.67521 -12.2618C7.6752 -12.2618 7.6752 -12.2618 7.6752 -12.2618C7.6752 -12.2618 7.6752 -12.2618 7.6752 -12.2618C7.6752 -12.2618 7.6752 -12.2618 7.6752 -12.2618C7.6752 -12.2618 7.6752 -12.2618 7.6752 -12.2618C7.6752 -12.2618 7.6752 -12.2618 7.6752 -12.2618C7.6752 -12.2618 7.6752 -12.2618 7.67519 -12.2618C7.67519 -12.2618 7.67519 -12.2618 7.67519 -12.2618C7.67519 -12.2618 7.67519 -12.2618 7.67519 -12.2618C7.67519 -12.2618 7.67519 -12.2618 7.67519 -12.2618C7.67519 -12.2618 7.67519 -12.2618 7.67519 -12.2618C7.67519 -12.2618 7.67519 -12.2618 7.67519 -12.2618C7.67519 -12.2618 7.67518 -12.2618 7.67518 -12.2618C7.67518 -12.2618 7.67518 -12.2618 7.67518 -12.2618C7.67518 -12.2618 7.67518 -12.2618 7.67518 -12.2618C7.67518 -12.2618 7.67518 -12.2618 7.67518 -12.2618C7.67518 -12.2618 7.67518 -12.2618 7.67518 -12.2618C7.67518 -12.2618 7.67518 -12.2618 7.67518 -12.2618C7.67517 -12.2618 7.67517 -12.2618 7.67517 -12.2618C7.67517 -12.2618 7.67517 -12.2618 7.67517 -12.2618C7.67517 -12.2618 7.67517 -12.2618 7.67517 -12.2618C7.67517 -12.2618 7.67517 -12.2618 7.67517 -12.2618C7.67517 -12.2618 7.67517 -12.2618 7.67517 -12.2618C7.67517 -12.2618 7.67516 -12.2618 7.67516 -12.2618C7.67516 -12.2618 7.67516 -12.2618 7.67516 -12.2618C7.67516 -12.2618 7.67516 -12.2618 7.67516 -12.2618C7.67516 -12.2618 7.67516 -12.2618 7.67516 -12.2618C7.67516 -12.2618 7.67516 -12.2618 7.67516 -12.2618C7.67516 -12.2618 7.67516 -12.2618 7.67516 -12.2618C7.67515 -12.2618 7.67515 -12.2618 7.67515 -12.2618C7.67515 -12.2618 7.67515 -12.2618 7.67515 -12.2618C7.67515 -12.2618 7.67515 -12.2618 7.67515 -12.2618C7.67515 -12.2618 7.67515 -12.2618 7.67515 -12.2618C7.67515 -12.2618 7.67515 -12.2618 7.67515 -12.2618C7.67515 -12.2618 7.67515 -12.2618 7.67514 -12.2618C7.67514 -12.2618 7.67514 -12.2618 7.67514 -12.2618C7.67514 -12.2618 7.67514 -12.2618 7.67514 -12.2618C7.67514 -12.2618 7.67514 -12.2618 7.67514 -12.2618C7.67514 -12.2618 7.67514 -12.2618 7.67514 -12.2618C7.67514 -12.2618 7.67514 -12.2618 7.67514 -12.2618C7.67514 -12.2618 7.67513 -12.2618 7.67513 -12.2618C7.67513 -12.2618 7.67513 -12.2618 7.67513 -12.2618C7.67513 -12.2618 7.67513 -12.2618 7.67513 -12.2618C7.67513 -12.2618 7.67513 -12.2618 7.67513 -12.2618C7.67513 -12.2618 7.67513 -12.2618 7.67513 -12.2618C7.67513 -12.2618 7.67513 -12.2618 7.67513 -12.2618C7.67512 -12.2618 7.67512 -12.2618 7.67512 -12.2618C7.67512 -12.2618 7.67512 -12.2618 7.67512 -12.2618C7.67512 -12.2618 7.67512 -12.2618 7.67512 -12.2618C7.67512 -12.2618 7.67512 -12.2618 7.67512 -12.2618C7.67512 -12.2618 7.67512 -12.2618 7.67512 -12.2618C7.67512 -12.2618 7.67512 -12.2618 7.67511 -12.2618C7.67511 -12.2618 7.67511 -12.2618 7.67511 -12.2618C7.67511 -12.2618 7.67511 -12.2618 7.67511 -12.2618C7.67511 -12.2618 7.67511 -12.2618 7.67511 -12.2618C7.67511 -12.2618 7.67511 -12.2618 7.67511 -12.2618C7.67511 -12.2618 7.67511 -12.2618 7.67511 -12.2618C7.67511 -12.2618 7.6751 -12.2618 7.6751 -12.2618C7.6751 -12.2618 7.6751 -12.2618 7.6751 -12.2618C7.6751 -12.2618 7.6751 -12.2618 7.6751 -12.2618C7.6751 -12.2618 7.6751 -12.2618 7.6751 -12.2618C7.6751 -12.2618 7.6751 -12.2618 7.6751 -12.2618C7.6751 -12.2618 7.6751 -12.2618 7.6751 -12.2618C7.67509 -12.2618 7.67509 -12.2618 7.67509 -12.2618C7.67509 -12.2618 7.67509 -12.2618 7.67509 -12.2618C7.67509 -12.2618 7.67509 -12.2618 7.67509 -12.2618C7.67509 -12.2618 7.67509 -12.2618 7.67509 -12.2618C7.67509 -12.2618 7.67509 -12.2618 7.67509 -12.2618C7.67509 -12.2618 7.67509 -12.2618 7.67508 -12.2618C7.67508 -12.2618 7.67508 -12.2618 7.67508 -12.2618C7.67508 -12.2618 7.67508 -12.2618 7.67508 -12.2618C7.67508 -12.2618 7.67508 -12.2618 7.67508 -12.2618C7.67508 -12.2618 7.67508 -12.2618 7.67508 -12.2618C7.67508 -12.2618 7.67508 -12.2618 7.67508 -12.2618C7.67508 -12.2618 7.67507 -12.2618 7.67507 -12.2618C7.67507 -12.2618 7.67507 -12.2618 7.67507 -12.2618C7.67507 -12.2618 7.67507 -12.2618 7.67507 -12.2618C7.67507 -12.2618 7.67507 -12.2618 7.67507 -12.2618C7.67507 -12.2618 7.67507 -12.2618 7.67507 -12.2618C7.67507 -12.2618 7.67507 -12.2618 7.67507 -12.2618C7.67506 -12.2618 7.67506 -12.2618 7.67506 -12.2618C7.67506 -12.2618 7.67506 -12.2618 7.67506 -12.2618C7.67506 -12.2618 7.67506 -12.2618 7.67506 -12.2618C7.67506 -12.2618 7.67506 -12.2618 7.67506 -12.2618C7.67506 -12.2618 7.67506 -12.2618 7.67506 -12.2618C7.67506 -12.2618 7.67506 -12.2618 7.67505 -12.2618C7.67505 -12.2618 7.67505 -12.2618 7.67505 -12.2618C7.67505 -12.2618 7.67505 -12.2618 7.67505 -12.2618C7.67505 -12.2618 7.67505 -12.2618 7.67505 -12.2618C7.67505 -12.2618 7.67505 -12.2618 7.67505 -12.2618C7.67505 -12.2618 7.67505 -12.2618 7.67505 -12.2618C7.67504 -12.2618 7.67504 -12.2618 7.67504 -12.2618C7.67504 -12.2618 7.67504 -12.2618 7.67504 -12.2618C7.67504 -12.2618 7.67504 -12.2618 7.67504 -12.2618C7.67504 -12.2618 7.67504 -12.2618 7.67504 -12.2618C7.67504 -12.2618 7.67504 -12.2618 7.67504 -12.2618C7.67504 -12.2618 7.67504 -12.2618 7.67503 -12.2618C7.67503 -12.2618 7.67503 -12.2618 7.67503 -12.2618C7.67503 -12.2618 7.67503 -12.2618 7.67503 -12.2618C7.67503 -12.2618 7.67503 -12.2618 7.67503 -12.2618C7.67503 -12.2618 7.67503 -12.2618 7.67503 -12.2618C7.67503 -12.2618 7.67503 -12.2618 7.67503 -12.2618C7.67502 -12.2618 7.67502 -12.2618 7.67502 -12.2618C7.67502 -12.2618 7.67502 -12.2618 7.67502 -12.2618C7.67502 -12.2618 7.67502 -12.2618 7.67502 -12.2618C7.67502 -12.2618 7.67502 -12.2618 7.67502 -12.2618C7.67502 -12.2618 7.67502 -12.2618 7.67502 -12.2618C7.67502 -12.2618 7.67502 -12.2618 7.67501 -12.2618C7.67501 -12.2618 7.67501 -12.2618 7.67501 -12.2618C7.67501 -12.2618 7.67501 -12.2618 7.67501 -12.2618C7.67501 -12.2618 7.67501 -12.2618 7.67501 -12.2618C7.67501 -12.2618 7.67501 -12.2618 7.67501 -12.2618C7.67501 -12.2618 7.67501 -12.2618 7.67501 -12.2618C7.67501 -12.2618 7.675 -12.2618 7.675 -12.2618C7.675 -12.2618 7.675 -12.2618 7.675 -12.2618C7.675 -12.2618 7.675 -12.2618 7.675 -12.2618C7.675 -12.2618 7.675 -12.2618 7.675 -12.2618C7.675 -12.2618 7.675 -12.2618 7.675 -12.2618C7.675 -12.2618 7.675 -12.2618 7.675 -12.2618C7.67499 -12.2618 7.67499 -12.2618 7.67499 -12.2618C7.67499 -12.2618 7.67499 -12.2618 7.67499 -12.2618C7.67499 -12.2618 7.67499 -12.2618 7.67499 -12.2618C7.67499 -12.2618 7.67499 -12.2618 7.67499 -12.2618C7.67499 -12.2618 7.67499 -12.2618 7.67499 -12.2618C7.67499 -12.2618 7.67499 -12.2618 7.67498 -12.2618C7.67498 -12.2618 7.67498 -12.2618 7.67498 -12.2618C7.67498 -12.2618 7.67498 -12.2618 7.67498 -12.2618C7.67498 -12.2618 7.67498 -12.2618 7.67498 -12.2618C7.67498 -12.2618 7.67498 -12.2618 7.67498 -12.2618C7.67498 -12.2618 7.67498 -12.2618 7.67498 -12.2618C7.67498 -12.2618 7.67497 -12.2618 7.67497 -12.2618C7.67497 -12.2618 7.67497 -12.2618 7.67497 -12.2618C7.67497 -12.2618 7.67497 -12.2618 7.67497 -12.2618C7.67497 -12.2618 7.67497 -12.2618 7.67497 -12.2618C7.67497 -12.2618 7.67497 -12.2618 7.67497 -12.2618C7.67497 -12.2618 7.67497 -12.2618 7.67497 -12.2618C7.67496 -12.2618 7.67496 -12.2618 7.67496 -12.2618C7.67496 -12.2618 7.67496 -12.2618 7.67496 -12.2618C7.67496 -12.2618 7.67496 -12.2618 7.67496 -12.2618C7.67496 -12.2618 7.67496 -12.2618 7.67496 -12.2618C7.67496 -12.2618 7.67496 -12.2618 7.67496 -12.2618C7.67496 -12.2618 7.67496 -12.2618 7.67495 -12.2618C7.67495 -12.2618 7.67495 -12.2618 7.67495 -12.2618C7.67495 -12.2618 7.67495 -12.2618 7.67495 -12.2618C7.67495 -12.2618 7.67495 -12.2618 7.67495 -12.2618C7.67495 -12.2618 7.67495 -12.2618 7.67495 -12.2618C7.67495 -12.2618 7.67495 -12.2618 7.67495 -12.2618C7.67495 -12.2618 7.67494 -12.2618 7.67494 -12.2618C7.67494 -12.2618 7.67494 -12.2618 7.67494 -12.2618C7.67494 -12.2618 7.67494 -12.2618 7.67494 -12.2618C7.67494 -12.2618 7.67494 -12.2618 7.67494 -12.2618C7.67494 -12.2618 7.67494 -12.2618 7.67494 -12.2618C7.67494 -12.2618 7.67494 -12.2618 7.67494 -12.2618C7.67493 -12.2618 7.67493 -12.2618 7.67493 -12.2618C7.67493 -12.2618 7.67493 -12.2618 7.67493 -12.2618C7.67493 -12.2618 7.67493 -12.2618 7.67493 -12.2618C7.67493 -12.2618 7.67493 -12.2618 7.67493 -12.2618C7.67493 -12.2618 7.67493 -12.2618 7.67493 -12.2618C7.67493 -12.2618 7.67493 -12.2618 7.67492 -12.2618C7.67492 -12.2618 7.67492 -12.2618 7.67492 -12.2618C7.67492 -12.2618 7.67492 -12.2618 7.67492 -12.2618C7.67492 -12.2618 7.67492 -12.2618 7.67492 -12.2618C7.67492 -12.2618 7.67492 -12.2618 7.67492 -12.2618C7.67492 -12.2618 7.67492 -12.2618 7.67492 -12.2618C7.67492 -12.2618 7.67491 -12.2618 7.67491 -12.2618C7.67491 -12.2618 7.67491 -12.2618 7.67491 -12.2618C7.67491 -12.2618 7.67491 -12.2618 7.67491 -12.2618C7.67491 -12.2618 7.67491 -12.2618 7.67491 -12.2618C7.67491 -12.2618 7.67491 -12.2618 7.67491 -12.2618C7.67491 -12.2618 7.67491 -12.2618 7.6749 -12.2618C7.6749 -12.2618 7.6749 -12.2618 7.6749 -12.2618C7.6749 -12.2618 7.6749 -12.2618 7.6749 -12.2618C7.6749 -12.2618 7.6749 -12.2618 7.6749 -12.2618C7.6749 -12.2618 7.6749 -12.2618 7.6749 -12.2618C7.6749 -12.2618 7.6749 -12.2618 7.6749 -12.2618C7.6749 -12.2618 7.67489 -12.2618 7.67489 -12.2618C7.67489 -12.2618 7.67489 -12.2618 7.67489 -12.2618C7.67489 -12.2618 7.67489 -12.2618 7.67489 -12.2618C7.67489 -12.2618 7.67489 -12.2618 7.67489 -12.2618C7.67489 -12.2618 7.67489 -12.2618 7.67489 -12.2618C7.67489 -12.2618 7.67489 -12.2618 7.67489 -12.2618C7.67488 -12.2618 7.67488 -12.2618 7.67488 -12.2618C7.67488 -12.2618 7.67488 -12.2618 7.67488 -12.2618C7.67488 -12.2618 7.67488 -12.2618 7.67488 -12.2618C7.67488 -12.2618 7.67488 -12.2618 7.67488 -12.2618C7.67488 -12.2618 7.67488 -12.2618 7.67488 -12.2618C7.67488 -12.2618 7.67488 -12.2618 7.67487 -12.2618C7.67487 -12.2618 7.67487 -12.2618 7.67487 -12.2618C7.67487 -12.2618 7.67487 -12.2618 7.67487 -12.2618C7.67487 -12.2618 7.67487 -12.2618 7.67487 -12.2618C7.67487 -12.2618 7.67487 -12.2618 7.67487 -12.2618C7.67487 -12.2618 7.67487 -12.2618 7.67487 -12.2618C7.67487 -12.2618 7.67486 -12.2618 7.67486 -12.2618C7.67486 -12.2618 7.67486 -12.2618 7.67486 -12.2618C7.67486 -12.2618 7.67486 -12.2618 7.67486 -12.2618C7.67486 -12.2618 7.67486 -12.2618 7.67486 -12.2618C7.67486 -12.2618 7.67486 -12.2618 7.67486 -12.2618C7.67486 -12.2618 7.67486 -12.2618 7.67486 -12.2618C7.67485 -12.2618 7.67485 -12.2618 7.67485 -12.2618C7.67485 -12.2618 7.67485 -12.2618 7.67485 -12.2618C7.67485 -12.2618 7.67485 -12.2618 7.67485 -12.2618C7.67485 -12.2618 7.67485 -12.2618 7.67485 -12.2618C7.67485 -12.2618 7.67485 -12.2618 7.67485 -12.2618C7.67485 -12.2618 7.67485 -12.2618 7.67484 -12.2618C7.67484 -12.2618 7.67484 -12.2618 7.67484 -12.2618C7.67484 -12.2618 7.67484 -12.2618 7.67484 -12.2618C7.67484 -12.2618 7.67484 -12.2618 7.67484 -12.2618C7.67484 -12.2618 7.67484 -12.2618 7.67484 -12.2618C7.67484 -12.2618 7.67484 -12.2618 7.67484 -12.2618C7.67484 -12.2618 7.67483 -12.2618 7.67483 -12.2618C7.67483 -12.2618 7.67483 -12.2618 7.67483 -12.2618C7.67483 -12.2618 7.67483 -12.2618 7.67483 -12.2618C7.67483 -12.2618 7.67483 -12.2618 7.67483 -12.2618C7.67483 -12.2618 7.67483 -12.2618 7.67483 -12.2618C7.67483 -12.2618 7.67483 -12.2618 7.67483 -12.2618C7.67482 -12.2618 7.67482 -12.2618 7.67482 -12.2618C7.67482 -12.2618 7.67482 -12.2618 7.67482 -12.2618C7.67482 -12.2618 7.67482 -12.2618 7.67482 -12.2618C7.67482 -12.2618 7.67482 -12.2618 7.67482 -12.2618C7.67482 -12.2618 7.67482 -12.2618 7.67482 -12.2618C7.67482 -12.2618 7.67482 -12.2618 7.67481 -12.2618C7.67481 -12.2618 7.67481 -12.2618 7.67481 -12.2618C7.67481 -12.2618 7.67481 -12.2618 7.67481 -12.2618C7.67481 -12.2618 7.67481 -12.2618 7.67481 -12.2618C7.67481 -12.2618 7.67481 -12.2618 7.67481 -12.2618C7.67481 -12.2618 7.67481 -12.2618 7.67481 -12.2618C7.67481 -12.2618 7.6748 -12.2618 7.6748 -12.2618C7.6748 -12.2618 7.6748 -12.2618 7.6748 -12.2618C7.6748 -12.2618 7.6748 -12.2618 7.6748 -12.2618C7.6748 -12.2618 7.6748 -12.2618 7.6748 -12.2618C7.6748 -12.2618 7.6748 -12.2618 7.6748 -12.2618C7.6748 -12.2618 7.6748 -12.2618 7.6748 -12.2618C7.67479 -12.2618 7.67479 -12.2618 7.67479 -12.2618C7.67479 -12.2618 7.67479 -12.2618 7.67479 -12.2618C7.67479 -12.2618 7.67479 -12.2618 7.67479 -12.2618C7.67479 -12.2618 7.67479 -12.2618 7.67479 -12.2618C7.67479 -12.2618 7.67479 -12.2618 7.67479 -12.2618C7.67479 -12.2618 7.67479 -12.2618 7.67478 -12.2618C7.67478 -12.2618 7.67478 -12.2618 7.67478 -12.2618C7.67478 -12.2618 7.67478 -12.2618 7.67478 -12.2618C7.67478 -12.2618 7.67478 -12.2618 7.67478 -12.2618C7.67478 -12.2618 7.67478 -12.2618 7.67478 -12.2618C7.67478 -12.2618 7.67478 -12.2618 7.67478 -12.2618C7.67478 -12.2618 7.67477 -12.2618 7.67477 -12.2618C7.67477 -12.2618 7.67477 -12.2618 7.67477 -12.2618C7.67477 -12.2618 7.67477 -12.2618 7.67477 -12.2618C7.67477 -12.2618 7.67477 -12.2618 7.67477 -12.2618C7.67477 -12.2618 7.67477 -12.2618 7.67477 -12.2618C7.67477 -12.2618 7.67477 -12.2618 7.67476 -12.2618C7.67476 -12.2618 7.67476 -12.2618 7.67476 -12.2618C7.67476 -12.2618 7.67476 -12.2618 7.67476 -12.2618C7.67476 -12.2618 7.67476 -12.2618 7.67476 -12.2618C7.67476 -12.2618 7.67476 -12.2618 7.67476 -12.2618C7.67476 -12.2618 7.67476 -12.2618 7.67476 -12.2618C7.67476 -12.2618 7.67475 -12.2618 7.67475 -12.2618C7.67475 -12.2618 7.67475 -12.2618 7.67475 -12.2618C7.67475 -12.2618 7.67475 -12.2618 7.67475 -12.2618C7.67475 -12.2618 7.67475 -12.2618 7.67475 -12.2618C7.67475 -12.2618 7.67475 -12.2618 7.67475 -12.2618C7.67475 -12.2618 7.67475 -12.2618 7.67475 -12.2618C7.67474 -12.2618 7.67474 -12.2618 7.67474 -12.2618C7.67474 -12.2618 7.67474 -12.2618 7.67474 -12.2618C7.67474 -12.2618 7.67474 -12.2618 7.67474 -12.2618C7.67474 -12.2618 7.67474 -12.2618 7.67474 -12.2618C7.67474 -12.2618 7.67474 -12.2618 7.67474 -12.2618V18.6618C7.67474 18.6618 7.67474 18.6618 7.67474 18.6618C7.67474 18.6618 7.67474 18.6618 7.67474 18.6618C7.67474 18.6618 7.67474 18.6618 7.67474 18.6618C7.67474 18.6618 7.67474 18.6618 7.67474 18.6618C7.67474 18.6618 7.67474 18.6618 7.67475 18.6618C7.67475 18.6618 7.67475 18.6618 7.67475 18.6618C7.67475 18.6618 7.67475 18.6618 7.67475 18.6618C7.67475 18.6618 7.67475 18.6618 7.67475 18.6618C7.67475 18.6618 7.67475 18.6618 7.67475 18.6618C7.67475 18.6618 7.67475 18.6618 7.67475 18.6618C7.67475 18.6618 7.67476 18.6618 7.67476 18.6618C7.67476 18.6618 7.67476 18.6618 7.67476 18.6618C7.67476 18.6618 7.67476 18.6618 7.67476 18.6618C7.67476 18.6618 7.67476 18.6618 7.67476 18.6618C7.67476 18.6618 7.67476 18.6618 7.67476 18.6618C7.67476 18.6618 7.67476 18.6618 7.67476 18.6618C7.67477 18.6618 7.67477 18.6618 7.67477 18.6618C7.67477 18.6618 7.67477 18.6618 7.67477 18.6618C7.67477 18.6618 7.67477 18.6618 7.67477 18.6618C7.67477 18.6618 7.67477 18.6618 7.67477 18.6618C7.67477 18.6618 7.67477 18.6618 7.67477 18.6618C7.67477 18.6618 7.67478 18.6618 7.67478 18.6618C7.67478 18.6618 7.67478 18.6618 7.67478 18.6618C7.67478 18.6618 7.67478 18.6618 7.67478 18.6618C7.67478 18.6618 7.67478 18.6618 7.67478 18.6618C7.67478 18.6618 7.67478 18.6618 7.67478 18.6618C7.67478 18.6618 7.67478 18.6618 7.67478 18.6618C7.67479 18.6618 7.67479 18.6618 7.67479 18.6618C7.67479 18.6618 7.67479 18.6618 7.67479 18.6618C7.67479 18.6618 7.67479 18.6618 7.67479 18.6618C7.67479 18.6618 7.67479 18.6618 7.67479 18.6618C7.67479 18.6618 7.67479 18.6618 7.67479 18.6618C7.67479 18.6618 7.67479 18.6618 7.6748 18.6618C7.6748 18.6618 7.6748 18.6618 7.6748 18.6618C7.6748 18.6618 7.6748 18.6618 7.6748 18.6618C7.6748 18.6618 7.6748 18.6618 7.6748 18.6618C7.6748 18.6618 7.6748 18.6618 7.6748 18.6618C7.6748 18.6618 7.6748 18.6618 7.6748 18.6618C7.6748 18.6618 7.67481 18.6618 7.67481 18.6618C7.67481 18.6618 7.67481 18.6618 7.67481 18.6618C7.67481 18.6618 7.67481 18.6618 7.67481 18.6618C7.67481 18.6618 7.67481 18.6618 7.67481 18.6618C7.67481 18.6618 7.67481 18.6618 7.67481 18.6618C7.67481 18.6618 7.67481 18.6618 7.67481 18.6618C7.67482 18.6618 7.67482 18.6618 7.67482 18.6618C7.67482 18.6618 7.67482 18.6618 7.67482 18.6618C7.67482 18.6618 7.67482 18.6618 7.67482 18.6618C7.67482 18.6618 7.67482 18.6618 7.67482 18.6618C7.67482 18.6618 7.67482 18.6618 7.67482 18.6618C7.67482 18.6618 7.67482 18.6618 7.67483 18.6618C7.67483 18.6618 7.67483 18.6618 7.67483 18.6618C7.67483 18.6618 7.67483 18.6618 7.67483 18.6618C7.67483 18.6618 7.67483 18.6618 7.67483 18.6618C7.67483 18.6618 7.67483 18.6618 7.67483 18.6618C7.67483 18.6618 7.67483 18.6618 7.67483 18.6618C7.67483 18.6618 7.67484 18.6618 7.67484 18.6618C7.67484 18.6618 7.67484 18.6618 7.67484 18.6618C7.67484 18.6618 7.67484 18.6618 7.67484 18.6618C7.67484 18.6618 7.67484 18.6618 7.67484 18.6618C7.67484 18.6618 7.67484 18.6618 7.67484 18.6618C7.67484 18.6618 7.67484 18.6618 7.67484 18.6618C7.67485 18.6618 7.67485 18.6618 7.67485 18.6618C7.67485 18.6618 7.67485 18.6618 7.67485 18.6618C7.67485 18.6618 7.67485 18.6618 7.67485 18.6618C7.67485 18.6618 7.67485 18.6618 7.67485 18.6618C7.67485 18.6618 7.67485 18.6618 7.67485 18.6618C7.67485 18.6618 7.67485 18.6618 7.67486 18.6618C7.67486 18.6618 7.67486 18.6618 7.67486 18.6618C7.67486 18.6618 7.67486 18.6618 7.67486 18.6618C7.67486 18.6618 7.67486 18.6618 7.67486 18.6618C7.67486 18.6618 7.67486 18.6618 7.67486 18.6618C7.67486 18.6618 7.67486 18.6618 7.67486 18.6618C7.67486 18.6618 7.67487 18.6618 7.67487 18.6618C7.67487 18.6618 7.67487 18.6618 7.67487 18.6618C7.67487 18.6618 7.67487 18.6618 7.67487 18.6618C7.67487 18.6618 7.67487 18.6618 7.67487 18.6618C7.67487 18.6618 7.67487 18.6618 7.67487 18.6618C7.67487 18.6618 7.67487 18.6618 7.67487 18.6618C7.67488 18.6618 7.67488 18.6618 7.67488 18.6618C7.67488 18.6618 7.67488 18.6618 7.67488 18.6618C7.67488 18.6618 7.67488 18.6618 7.67488 18.6618C7.67488 18.6618 7.67488 18.6618 7.67488 18.6618C7.67488 18.6618 7.67488 18.6618 7.67488 18.6618C7.67488 18.6618 7.67488 18.6618 7.67489 18.6618C7.67489 18.6618 7.67489 18.6618 7.67489 18.6618C7.67489 18.6618 7.67489 18.6618 7.67489 18.6618C7.67489 18.6618 7.67489 18.6618 7.67489 18.6618C7.67489 18.6618 7.67489 18.6618 7.67489 18.6618C7.67489 18.6618 7.67489 18.6618 7.67489 18.6618C7.67489 18.6618 7.6749 18.6618 7.6749 18.6618C7.6749 18.6618 7.6749 18.6618 7.6749 18.6618C7.6749 18.6618 7.6749 18.6618 7.6749 18.6618C7.6749 18.6618 7.6749 18.6618 7.6749 18.6618C7.6749 18.6618 7.6749 18.6618 7.6749 18.6618C7.6749 18.6618 7.6749 18.6618 7.6749 18.6618C7.67491 18.6618 7.67491 18.6618 7.67491 18.6618C7.67491 18.6618 7.67491 18.6618 7.67491 18.6618C7.67491 18.6618 7.67491 18.6618 7.67491 18.6618C7.67491 18.6618 7.67491 18.6618 7.67491 18.6618C7.67491 18.6618 7.67491 18.6618 7.67491 18.6618C7.67491 18.6618 7.67492 18.6618 7.67492 18.6618C7.67492 18.6618 7.67492 18.6618 7.67492 18.6618C7.67492 18.6618 7.67492 18.6618 7.67492 18.6618C7.67492 18.6618 7.67492 18.6618 7.67492 18.6618C7.67492 18.6618 7.67492 18.6618 7.67492 18.6618C7.67492 18.6618 7.67492 18.6618 7.67492 18.6618C7.67493 18.6618 7.67493 18.6618 7.67493 18.6618C7.67493 18.6618 7.67493 18.6618 7.67493 18.6618C7.67493 18.6618 7.67493 18.6618 7.67493 18.6618C7.67493 18.6618 7.67493 18.6618 7.67493 18.6618C7.67493 18.6618 7.67493 18.6618 7.67493 18.6618C7.67493 18.6618 7.67493 18.6618 7.67494 18.6618C7.67494 18.6618 7.67494 18.6618 7.67494 18.6618C7.67494 18.6618 7.67494 18.6618 7.67494 18.6618C7.67494 18.6618 7.67494 18.6618 7.67494 18.6618C7.67494 18.6618 7.67494 18.6618 7.67494 18.6618C7.67494 18.6618 7.67494 18.6618 7.67494 18.6618C7.67494 18.6618 7.67495 18.6618 7.67495 18.6618C7.67495 18.6618 7.67495 18.6618 7.67495 18.6618C7.67495 18.6618 7.67495 18.6618 7.67495 18.6618C7.67495 18.6618 7.67495 18.6618 7.67495 18.6618C7.67495 18.6618 7.67495 18.6618 7.67495 18.6618C7.67495 18.6618 7.67495 18.6618 7.67495 18.6618C7.67496 18.6618 7.67496 18.6618 7.67496 18.6618C7.67496 18.6618 7.67496 18.6618 7.67496 18.6618C7.67496 18.6618 7.67496 18.6618 7.67496 18.6618C7.67496 18.6618 7.67496 18.6618 7.67496 18.6618C7.67496 18.6618 7.67496 18.6618 7.67496 18.6618C7.67496 18.6618 7.67496 18.6618 7.67497 18.6618C7.67497 18.6618 7.67497 18.6618 7.67497 18.6618C7.67497 18.6618 7.67497 18.6618 7.67497 18.6618C7.67497 18.6618 7.67497 18.6618 7.67497 18.6618C7.67497 18.6618 7.67497 18.6618 7.67497 18.6618C7.67497 18.6618 7.67497 18.6618 7.67497 18.6618C7.67497 18.6618 7.67498 18.6618 7.67498 18.6618C7.67498 18.6618 7.67498 18.6618 7.67498 18.6618C7.67498 18.6618 7.67498 18.6618 7.67498 18.6618C7.67498 18.6618 7.67498 18.6618 7.67498 18.6618C7.67498 18.6618 7.67498 18.6618 7.67498 18.6618C7.67498 18.6618 7.67498 18.6618 7.67498 18.6618C7.67499 18.6618 7.67499 18.6618 7.67499 18.6618C7.67499 18.6618 7.67499 18.6618 7.67499 18.6618C7.67499 18.6618 7.67499 18.6618 7.67499 18.6618C7.67499 18.6618 7.67499 18.6618 7.67499 18.6618C7.67499 18.6618 7.67499 18.6618 7.67499 18.6618C7.67499 18.6618 7.67499 18.6618 7.675 18.6618C7.675 18.6618 7.675 18.6618 7.675 18.6618C7.675 18.6618 7.675 18.6618 7.675 18.6618C7.675 18.6618 7.675 18.6618 7.675 18.6618C7.675 18.6618 7.675 18.6618 7.675 18.6618C7.675 18.6618 7.675 18.6618 7.675 18.6618C7.675 18.6618 7.67501 18.6618 7.67501 18.6618C7.67501 18.6618 7.67501 18.6618 7.67501 18.6618C7.67501 18.6618 7.67501 18.6618 7.67501 18.6618C7.67501 18.6618 7.67501 18.6618 7.67501 18.6618C7.67501 18.6618 7.67501 18.6618 7.67501 18.6618C7.67501 18.6618 7.67501 18.6618 7.67501 18.6618C7.67502 18.6618 7.67502 18.6618 7.67502 18.6618C7.67502 18.6618 7.67502 18.6618 7.67502 18.6618C7.67502 18.6618 7.67502 18.6618 7.67502 18.6618C7.67502 18.6618 7.67502 18.6618 7.67502 18.6618C7.67502 18.6618 7.67502 18.6618 7.67502 18.6618C7.67502 18.6618 7.67502 18.6618 7.67503 18.6618C7.67503 18.6618 7.67503 18.6618 7.67503 18.6618C7.67503 18.6618 7.67503 18.6618 7.67503 18.6618C7.67503 18.6618 7.67503 18.6618 7.67503 18.6618C7.67503 18.6618 7.67503 18.6618 7.67503 18.6618C7.67503 18.6618 7.67503 18.6618 7.67503 18.6618C7.67504 18.6618 7.67504 18.6618 7.67504 18.6618C7.67504 18.6618 7.67504 18.6618 7.67504 18.6618C7.67504 18.6618 7.67504 18.6618 7.67504 18.6618C7.67504 18.6618 7.67504 18.6618 7.67504 18.6618C7.67504 18.6618 7.67504 18.6618 7.67504 18.6618C7.67504 18.6618 7.67504 18.6618 7.67505 18.6618C7.67505 18.6618 7.67505 18.6618 7.67505 18.6618C7.67505 18.6618 7.67505 18.6618 7.67505 18.6618C7.67505 18.6618 7.67505 18.6618 7.67505 18.6618C7.67505 18.6618 7.67505 18.6618 7.67505 18.6618C7.67505 18.6618 7.67505 18.6618 7.67505 18.6618C7.67506 18.6618 7.67506 18.6618 7.67506 18.6618C7.67506 18.6618 7.67506 18.6618 7.67506 18.6618C7.67506 18.6618 7.67506 18.6618 7.67506 18.6618C7.67506 18.6618 7.67506 18.6618 7.67506 18.6618C7.67506 18.6618 7.67506 18.6618 7.67506 18.6618C7.67506 18.6618 7.67506 18.6618 7.67507 18.6618C7.67507 18.6618 7.67507 18.6618 7.67507 18.6618C7.67507 18.6618 7.67507 18.6618 7.67507 18.6618C7.67507 18.6618 7.67507 18.6618 7.67507 18.6618C7.67507 18.6618 7.67507 18.6618 7.67507 18.6618C7.67507 18.6618 7.67507 18.6618 7.67507 18.6618C7.67507 18.6618 7.67508 18.6618 7.67508 18.6618C7.67508 18.6618 7.67508 18.6618 7.67508 18.6618C7.67508 18.6618 7.67508 18.6618 7.67508 18.6618C7.67508 18.6618 7.67508 18.6618 7.67508 18.6618C7.67508 18.6618 7.67508 18.6618 7.67508 18.6618C7.67508 18.6618 7.67508 18.6618 7.67508 18.6618C7.67509 18.6618 7.67509 18.6618 7.67509 18.6618C7.67509 18.6618 7.67509 18.6618 7.67509 18.6618C7.67509 18.6618 7.67509 18.6618 7.67509 18.6618C7.67509 18.6618 7.67509 18.6618 7.67509 18.6618C7.67509 18.6618 7.67509 18.6618 7.67509 18.6618C7.67509 18.6618 7.67509 18.6618 7.6751 18.6618C7.6751 18.6618 7.6751 18.6618 7.6751 18.6618C7.6751 18.6618 7.6751 18.6618 7.6751 18.6618C7.6751 18.6618 7.6751 18.6618 7.6751 18.6618C7.6751 18.6618 7.6751 18.6618 7.6751 18.6618C7.6751 18.6618 7.6751 18.6618 7.6751 18.6618C7.6751 18.6618 7.67511 18.6618 7.67511 18.6618C7.67511 18.6618 7.67511 18.6618 7.67511 18.6618C7.67511 18.6618 7.67511 18.6618 7.67511 18.6618C7.67511 18.6618 7.67511 18.6618 7.67511 18.6618C7.67511 18.6618 7.67511 18.6618 7.67511 18.6618C7.67511 18.6618 7.67511 18.6618 7.67511 18.6618C7.67512 18.6618 7.67512 18.6618 7.67512 18.6618C7.67512 18.6618 7.67512 18.6618 7.67512 18.6618C7.67512 18.6618 7.67512 18.6618 7.67512 18.6618C7.67512 18.6618 7.67512 18.6618 7.67512 18.6618C7.67512 18.6618 7.67512 18.6618 7.67512 18.6618C7.67512 18.6618 7.67512 18.6618 7.67513 18.6618C7.67513 18.6618 7.67513 18.6618 7.67513 18.6618C7.67513 18.6618 7.67513 18.6618 7.67513 18.6618C7.67513 18.6618 7.67513 18.6618 7.67513 18.6618C7.67513 18.6618 7.67513 18.6618 7.67513 18.6618C7.67513 18.6618 7.67513 18.6618 7.67513 18.6618C7.67513 18.6618 7.67514 18.6618 7.67514 18.6618C7.67514 18.6618 7.67514 18.6618 7.67514 18.6618C7.67514 18.6618 7.67514 18.6618 7.67514 18.6618C7.67514 18.6618 7.67514 18.6618 7.67514 18.6618C7.67514 18.6618 7.67514 18.6618 7.67514 18.6618C7.67514 18.6618 7.67514 18.6618 7.67514 18.6618C7.67515 18.6618 7.67515 18.6618 7.67515 18.6618C7.67515 18.6618 7.67515 18.6618 7.67515 18.6618C7.67515 18.6618 7.67515 18.6618 7.67515 18.6618C7.67515 18.6618 7.67515 18.6618 7.67515 18.6618C7.67515 18.6618 7.67515 18.6618 7.67515 18.6618C7.67515 18.6618 7.67515 18.6618 7.67516 18.6618C7.67516 18.6618 7.67516 18.6618 7.67516 18.6618C7.67516 18.6618 7.67516 18.6618 7.67516 18.6618C7.67516 18.6618 7.67516 18.6618 7.67516 18.6618C7.67516 18.6618 7.67516 18.6618 7.67516 18.6618C7.67516 18.6618 7.67516 18.6618 7.67516 18.6618C7.67516 18.6618 7.67517 18.6618 7.67517 18.6618C7.67517 18.6618 7.67517 18.6618 7.67517 18.6618C7.67517 18.6618 7.67517 18.6618 7.67517 18.6618C7.67517 18.6618 7.67517 18.6618 7.67517 18.6618C7.67517 18.6618 7.67517 18.6618 7.67517 18.6618C7.67517 18.6618 7.67517 18.6618 7.67518 18.6618C7.67518 18.6618 7.67518 18.6618 7.67518 18.6618C7.67518 18.6618 7.67518 18.6618 7.67518 18.6618C7.67518 18.6618 7.67518 18.6618 7.67518 18.6618C7.67518 18.6618 7.67518 18.6618 7.67518 18.6618C7.67518 18.6618 7.67518 18.6618 7.67518 18.6618C7.67518 18.6618 7.67519 18.6618 7.67519 18.6618C7.67519 18.6618 7.67519 18.6618 7.67519 18.6618C7.67519 18.6618 7.67519 18.6618 7.67519 18.6618C7.67519 18.6618 7.67519 18.6618 7.67519 18.6618C7.67519 18.6618 7.67519 18.6618 7.67519 18.6618C7.67519 18.6618 7.67519 18.6618 7.67519 18.6618C7.6752 18.6618 7.6752 18.6618 7.6752 18.6618C7.6752 18.6618 7.6752 18.6618 7.6752 18.6618C7.6752 18.6618 7.6752 18.6618 7.6752 18.6618C7.6752 18.6618 7.6752 18.6618 7.6752 18.6618C7.6752 18.6618 7.6752 18.6618 7.6752 18.6618C7.6752 18.6618 7.6752 18.6618 7.67521 18.6618C7.67521 18.6618 7.67521 18.6618 7.67521 18.6618C7.67521 18.6618 7.67521 18.6618 7.67521 18.6618C7.67521 18.6618 7.67521 18.6618 7.67521 18.6618C7.67521 18.6618 7.67521 18.6618 7.67521 18.6618C7.67521 18.6618 7.67521 18.6618 7.67521 18.6618C7.67521 18.6618 7.67522 18.6618 7.67522 18.6618C7.67522 18.6618 7.67522 18.6618 7.67522 18.6618C7.67522 18.6618 7.67522 18.6618 7.67522 18.6618C7.67522 18.6618 7.67522 18.6618 7.67522 18.6618C7.67522 18.6618 7.67522 18.6618 7.67522 18.6618C7.67522 18.6618 7.67522 18.6618 7.67522 18.6618C7.67523 18.6618 7.67523 18.6618 7.67523 18.6618C7.67523 18.6618 7.67523 18.6618 7.67523 18.6618C7.67523 18.6618 7.67523 18.6618 7.67523 18.6618C7.67523 18.6618 7.67523 18.6618 7.67523 18.6618C7.67523 18.6618 7.67523 18.6618 7.67523 18.6618C7.67523 18.6618 7.67523 18.6618 7.67524 18.6618C7.67524 18.6618 7.67524 18.6618 7.67524 18.6618C7.67524 18.6618 7.67524 18.6618 7.67524 18.6618C7.67524 18.6618 7.67524 18.6618 7.67524 18.6618C7.67524 18.6618 7.67524 18.6618 7.67524 18.6618C7.67524 18.6618 7.67524 18.6618 7.67524 18.6618C7.67524 18.6618 7.67525 18.6618 7.67525 18.6618C7.67525 18.6618 7.67525 18.6618 7.67525 18.6618C7.67525 18.6618 7.67525 18.6618 7.67525 18.6618C7.67525 18.6618 7.67525 18.6618 7.67525 18.6618C7.67525 18.6618 7.67525 18.6618 7.67525 18.6618C7.67525 18.6618 7.67525 18.6618 7.67525 18.6618C7.67526 18.6618 7.67526 18.6618 7.67526 18.6618C7.67526 18.6618 7.67526 18.6618 7.67526 18.6618C7.67526 18.6618 7.67526 18.6618 7.67526 18.6618C7.67526 18.6618 7.67526 18.6618 7.67526 18.6618C7.67526 18.6618 7.67526 18.6618 7.67526 18.6618C7.67526 18.6618 7.67526 18.6618 7.67527 18.6618C7.67527 18.6618 7.67527 18.6618 7.67527 18.6618C7.67527 18.6618 7.67527 18.6618 7.67527 18.6618C7.67527 18.6618 7.67527 18.6618 7.67527 18.6618C7.67527 18.6618 7.67527 18.6618 7.67527 18.6618C7.67527 18.6618 7.67527 18.6618 7.67527 18.6618C7.67527 18.6618 7.67528 18.6618 7.67528 18.6618C7.67528 18.6618 7.67528 18.6618 7.67528 18.6618C7.67528 18.6618 7.67528 18.6618 7.67528 18.6618C7.67528 18.6618 7.67528 18.6618 7.67528 18.6618C7.67528 18.6618 7.67528 18.6618 7.67528 18.6618C7.67528 18.6618 7.67528 18.6618 7.67529 18.6618C7.67529 18.6618 7.67529 18.6618 7.67529 18.6618C7.67529 18.6618 7.67529 18.6618 7.67529 18.6618C7.67529 18.6618 7.67529 18.6618 7.67529 18.6618C7.67529 18.6618 7.67529 18.6618 7.67529 18.6618C7.67529 18.6618 7.67529 18.6618 7.67529 18.6618C7.67529 18.6618 7.6753 18.6618 7.6753 18.6618C7.6753 18.6618 7.6753 18.6618 7.6753 18.6618C7.6753 18.6618 7.6753 18.6618 7.6753 18.6618C7.6753 18.6618 7.6753 18.6618 7.6753 18.6618C7.6753 18.6618 7.6753 18.6618 7.6753 18.6618C7.6753 18.6618 7.6753 18.6618 7.6753 18.6618C7.67531 18.6618 7.67531 18.6618 7.67531 18.6618C7.67531 18.6618 7.67531 18.6618 7.67531 18.6618C7.67531 18.6618 7.67531 18.6618 7.67531 18.6618C7.67531 18.6618 7.67531 18.6618 7.67531 18.6618C7.67531 18.6618 7.67531 18.6618 7.67531 18.6618C7.67531 18.6618 7.67531 18.6618 7.67532 18.6618C7.67532 18.6618 7.67532 18.6618 7.67532 18.6618C7.67532 18.6618 7.67532 18.6618 7.67532 18.6618C7.67532 18.6618 7.67532 18.6618 7.67532 18.6618C7.67532 18.6618 7.67532 18.6618 7.67532 18.6618C7.67532 18.6618 7.67532 18.6618 7.67532 18.6618C7.67532 18.6618 7.67533 18.6618 7.67533 18.6618C7.67533 18.6618 7.67533 18.6618 7.67533 18.6618C7.67533 18.6618 7.67533 18.6618 7.67533 18.6618C7.67533 18.6618 7.67533 18.6618 7.67533 18.6618C7.67533 18.6618 7.67533 18.6618 7.67533 18.6618C7.67533 18.6618 7.67533 18.6618 7.67533 18.6618C7.67534 18.6618 7.67534 18.6618 7.67534 18.6618C7.67534 18.6618 7.67534 18.6618 7.67534 18.6618C7.67534 18.6618 7.67534 18.6618 7.67534 18.6618C7.67534 18.6618 7.67534 18.6618 7.67534 18.6618C7.67534 18.6618 7.67534 18.6618 7.67534 18.6618C7.67534 18.6618 7.67534 18.6618 7.67535 18.6618C7.67535 18.6618 7.67535 18.6618 7.67535 18.6618C7.67535 18.6618 7.67535 18.6618 7.67535 18.6618C7.67535 18.6618 7.67535 18.6618 7.67535 18.6618C7.67535 18.6618 7.67535 18.6618 7.67535 18.6618C7.67535 18.6618 7.67535 18.6618 7.67535 18.6618C7.67535 18.6618 7.67536 18.6618 7.67536 18.6618C7.67536 18.6618 7.67536 18.6618 7.67536 18.6618C7.67536 18.6618 7.67536 18.6618 7.67536 18.6618C7.67536 18.6618 7.67536 18.6618 7.67536 18.6618C7.67536 18.6618 7.67536 18.6618 7.67536 18.6618C7.67536 18.6618 7.67536 18.6618 7.67536 18.6618C7.67537 18.6618 7.67537 18.6618 7.67537 18.6618C7.67537 18.6618 7.67537 18.6618 7.67537 18.6618C7.67537 18.6618 7.67537 18.6618 7.67537 18.6618C7.67537 18.6618 7.67537 18.6618 7.67537 18.6618C7.67537 18.6618 7.67537 18.6618 7.67537 18.6618C7.67537 18.6618 7.67537 18.6618 7.67538 18.6618C7.67538 18.6618 7.67538 18.6618 7.67538 18.6618C7.67538 18.6618 7.67538 18.6618 7.67538 18.6618C7.67538 18.6618 7.67538 18.6618 7.67538 18.6618C7.67538 18.6618 7.67538 18.6618 7.67538 18.6618C7.67538 18.6618 7.67538 18.6618 7.67538 18.6618C7.67538 18.6618 7.67539 18.6618 7.67539 18.6618C7.67539 18.6618 7.67539 18.6618 7.67539 18.6618C7.67539 18.6618 7.67539 18.6618 7.67539 18.6618C7.67539 18.6618 7.67539 18.6618 7.67539 18.6618C7.67539 18.6618 7.67539 18.6618 7.67539 18.6618C7.67539 18.6618 7.67539 18.6618 7.6754 18.6618C7.6754 18.6618 7.6754 18.6618 7.6754 18.6618C7.6754 18.6618 7.6754 18.6618 7.6754 18.6618C7.6754 18.6618 7.6754 18.6618 7.6754 18.6618C7.6754 18.6618 7.6754 18.6618 7.6754 18.6618C7.6754 18.6618 7.6754 18.6618 7.6754 18.6618C7.6754 18.6618 7.67541 18.6618 7.67541 18.6618C7.67541 18.6618 7.67541 18.6618 7.67541 18.6618C7.67541 18.6618 7.67541 18.6618 7.67541 18.6618C7.67541 18.6618 7.67541 18.6618 7.67541 18.6618C7.67541 18.6618 7.67541 18.6618 7.67541 18.6618C7.67541 18.6618 7.67541 18.6618 7.67541 18.6618C7.67542 18.6618 7.67542 18.6618 7.67542 18.6618C7.67542 18.6618 7.67542 18.6618 7.67542 18.6618C7.67542 18.6618 7.67542 18.6618 7.67542 18.6618C7.67542 18.6618 7.67542 18.6618 7.67542 18.6618C7.67542 18.6618 7.67542 18.6618 7.67542 18.6618C7.67542 18.6618 7.67543 18.6618 7.67543 18.6618C7.67543 18.6618 7.67543 18.6618 7.67543 18.6618C7.67543 18.6618 7.67543 18.6618 7.67543 18.6618C7.67543 18.6618 7.67543 18.6618 7.67543 18.6618C7.67543 18.6618 7.67543 18.6618 7.67543 18.6618C7.67543 18.6618 7.67543 18.6618 7.67543 18.6618C7.67544 18.6618 7.67544 18.6618 7.67544 18.6618C7.67544 18.6618 7.67544 18.6618 7.67544 18.6618C7.67544 18.6618 7.67544 18.6618 7.67544 18.6618C7.67544 18.6618 7.67544 18.6618 7.67544 18.6618C7.67544 18.6618 7.67544 18.6618 7.67544 18.6618C7.67544 18.6618 7.67544 18.6618 7.67545 18.6618C7.67545 18.6618 7.67545 18.6618 7.67545 18.6618C7.67545 18.6618 7.67545 18.6618 7.67545 18.6618C7.67545 18.6618 7.67545 18.6618 7.67545 18.6618C7.67545 18.6618 7.67545 18.6618 7.67545 18.6618C7.67545 18.6618 7.67545 18.6618 7.67545 18.6618C7.67545 18.6618 7.67546 18.6618 7.67546 18.6618C7.67546 18.6618 7.67546 18.6618 7.67546 18.6618C7.67546 18.6618 7.67546 18.6618 7.67546 18.6618C7.67546 18.6618 7.67546 18.6618 7.67546 18.6618C7.67546 18.6618 7.67546 18.6618 7.67546 18.6618C7.67546 18.6618 7.67546 18.6618 7.67546 18.6618C7.67547 18.6618 7.67547 18.6618 7.67547 18.6618C7.67547 18.6618 7.67547 18.6618 7.67547 18.6618C7.67547 18.6618 7.67547 18.6618 7.67547 18.6618C7.67547 18.6618 7.67547 18.6618 7.67547 18.6618C7.67547 18.6618 7.67547 18.6618 7.67547 18.6618C7.67547 18.6618 7.67547 18.6618 7.67548 18.6618C7.67548 18.6618 7.67548 18.6618 7.67548 18.6618C7.67548 18.6618 7.67548 18.6618 7.67548 18.6618C7.67548 18.6618 7.67548 18.6618 7.67548 18.6618C7.67548 18.6618 7.67548 18.6618 7.67548 18.6618C7.67548 18.6618 7.67548 18.6618 7.67548 18.6618C7.67548 18.6618 7.67549 18.6618 7.67549 18.6618C7.67549 18.6618 7.67549 18.6618 7.67549 18.6618C7.67549 18.6618 7.67549 18.6618 7.67549 18.6618C7.67549 18.6618 7.67549 18.6618 7.67549 18.6618C7.67549 18.6618 7.67549 18.6618 7.67549 18.6618C7.67549 18.6618 7.67549 18.6618 7.67549 18.6618C7.6755 18.6618 7.6755 18.6618 7.6755 18.6618C7.6755 18.6618 7.6755 18.6618 7.6755 18.6618C7.6755 18.6618 7.6755 18.6618 7.6755 18.6618C7.6755 18.6618 7.6755 18.6618 7.6755 18.6618C7.6755 18.6618 7.6755 18.6618 7.6755 18.6618C7.6755 18.6618 7.6755 18.6618 7.67551 18.6618C7.67551 18.6618 7.67551 18.6618 7.67551 18.6618C7.67551 18.6618 7.67551 18.6618 7.67551 18.6618C7.67551 18.6618 7.67551 18.6618 7.67551 18.6618C7.67551 18.6618 7.67551 18.6618 7.67551 18.6618C7.67551 18.6618 7.67551 18.6618 7.67551 18.6618C7.67551 18.6618 7.67552 18.6618 7.67552 18.6618C7.67552 18.6618 7.67552 18.6618 7.67552 18.6618C7.67552 18.6618 7.67552 18.6618 7.67552 18.6618C7.67552 18.6618 7.67552 18.6618 7.67552 18.6618C7.67552 18.6618 7.67552 18.6618 7.67552 18.6618C7.67552 18.6618 7.67552 18.6618 7.67552 18.6618C7.67553 18.6618 7.67553 18.6618 7.67553 18.6618C7.67553 18.6618 7.67553 18.6618 7.67553 18.6618C7.67553 18.6618 7.67553 18.6618 7.67553 18.6618C7.67553 18.6618 7.67553 18.6618 7.67553 18.6618C7.67553 18.6618 7.67553 18.6618 7.67553 18.6618C7.67553 18.6618 7.67553 18.6618 7.67554 18.6618C7.67554 18.6618 7.67554 18.6618 7.67554 18.6618C7.67554 18.6618 7.67554 18.6618 7.67554 18.6618C7.67554 18.6618 7.67554 18.6618 7.67554 18.6618C7.67554 18.6618 7.67554 18.6618 7.67554 18.6618C7.67554 18.6618 7.67554 18.6618 7.67554 18.6618C7.67554 18.6618 7.67555 18.6618 7.67555 18.6618C7.67555 18.6618 7.67555 18.6618 7.67555 18.6618C7.67555 18.6618 7.67555 18.6618 7.67555 18.6618C7.67555 18.6618 7.67555 18.6618 7.67555 18.6618C7.67555 18.6618 7.67555 18.6618 7.67555 18.6618C7.67555 18.6618 7.67555 18.6618 7.67556 18.6618C7.67556 18.6618 7.67556 18.6618 7.67556 18.6618C7.67556 18.6618 7.67556 18.6618 7.67556 18.6618C7.67556 18.6618 7.67556 18.6618 7.67556 18.6618C7.67556 18.6618 7.67556 18.6618 7.67556 18.6618C7.67556 18.6618 7.67556 18.6618 7.67556 18.6618C7.67556 18.6618 7.67557 18.6618 7.67557 18.6618C7.67557 18.6618 7.67557 18.6618 7.67557 18.6618C7.67557 18.6618 7.67557 18.6618 7.67557 18.6618C7.67557 18.6618 7.67557 18.6618 7.67557 18.6618C7.67557 18.6618 7.67557 18.6618 7.67557 18.6618C7.67557 18.6618 7.67557 18.6618 7.67557 18.6618C7.67558 18.6618 7.67558 18.6618 7.67558 18.6618C7.67558 18.6618 7.67558 18.6618 7.67558 18.6618C7.67558 18.6618 7.67558 18.6618 7.67558 18.6618C7.67558 18.6618 7.67558 18.6618 7.67558 18.6618C7.67558 18.6618 7.67558 18.6618 7.67558 18.6618C7.67558 18.6618 7.67558 18.6618 7.67559 18.6618C7.67559 18.6618 7.67559 18.6618 7.67559 18.6618C7.67559 18.6618 7.67559 18.6618 7.67559 18.6618C7.67559 18.6618 7.67559 18.6618 7.67559 18.6618C7.67559 18.6618 7.67559 18.6618 7.67559 18.6618C7.67559 18.6618 7.67559 18.6618 7.67559 18.6618C7.67559 18.6618 7.6756 18.6618 7.6756 18.6618C7.6756 18.6618 7.6756 18.6618 7.6756 18.6618C7.6756 18.6618 7.6756 18.6618 7.6756 18.6618C7.6756 18.6618 7.6756 18.6618 7.6756 18.6618C7.6756 18.6618 7.6756 18.6618 7.6756 18.6618C7.6756 18.6618 7.6756 18.6618 7.6756 18.6618C7.67561 18.6618 7.67561 18.6618 7.67561 18.6618C7.67561 18.6618 7.67561 18.6618 7.67561 18.6618C7.67561 18.6618 7.67561 18.6618 7.67561 18.6618C7.67561 18.6618 7.67561 18.6618 7.67561 18.6618C7.67561 18.6618 7.67561 18.6618 7.67561 18.6618C7.67561 18.6618 7.67561 18.6618 7.67562 18.6618C7.67562 18.6618 7.67562 18.6618 7.67562 18.6618C7.67562 18.6618 7.67562 18.6618 7.67562 18.6618C7.67562 18.6618 7.67562 18.6618 7.67562 18.6618C7.67562 18.6618 7.67562 18.6618 7.67562 18.6618C7.67562 18.6618 7.67562 18.6618 7.67562 18.6618C7.67562 18.6618 7.67563 18.6618 7.67563 18.6618C7.67563 18.6618 7.67563 18.6618 7.67563 18.6618C7.67563 18.6618 7.67563 18.6618 7.67563 18.6618C7.67563 18.6618 7.67563 18.6618 7.67563 18.6618C7.67563 18.6618 7.67563 18.6618 7.67563 18.6618C7.67563 18.6618 7.67563 18.6618 7.67563 18.6618C7.67564 18.6618 7.67564 18.6618 7.67564 18.6618C7.67564 18.6618 7.67564 18.6618 7.67564 18.6618C7.67564 18.6618 7.67564 18.6618 7.67564 18.6618C7.67564 18.6618 7.67564 18.6618 7.67564 18.6618C7.67564 18.6618 7.67564 18.6618 7.67564 18.6618C7.67564 18.6618 7.67564 18.6618 7.67565 18.6618V-12.2618ZM7.67474 -12.2618H3.94231V18.6618H7.67474V-12.2618ZM19.4041 16V3.2H-11.5195V16H19.4041ZM0.208984 31.4618H3.94231V0.53819H0.208984V31.4618ZM-15.2528 1.34329e-08V16H15.6708V1.34329e-08H-15.2528ZM7.67474 -15.4618H0.208984V15.4618H7.67474V-15.4618Z" fill="white" mask="url(#path-1-inside-1_1147_3214)"/>
<circle cx="5.94246" cy="6.93343" r="1.33333" fill="white"/>
<circle cx="9.91585" cy="6.93343" r="1.33333" fill="white"/>
</svg>
