<svg width="41" height="41" viewBox="0 0 41 41" fill="none" xmlns="http://www.w3.org/2000/svg">
<path d="M20.4817 0.786621C9.65143 0.786621 0.840012 9.59804 0.840012 20.4283C0.840012 31.2585 9.65143 40.07 20.4817 40.07C31.312 40.07 40.1234 31.2585 40.1234 20.4283C40.1234 9.59799 31.3119 0.786621 20.4817 0.786621ZM20.3682 31.0406C16.0389 31.0406 12.3496 28.2886 10.93 24.4463L10.9444 24.4404C10.8562 24.263 10.7958 24.0703 10.7958 23.8587C10.7958 23.1272 11.3888 22.5341 12.1204 22.5341C12.7088 22.5341 13.1908 22.9242 13.3636 23.455L13.3821 23.4474C14.4047 26.3233 17.1459 28.3914 20.3682 28.3914C24.4598 28.3914 27.7882 25.063 27.7882 20.9714C27.7882 16.8798 24.4598 13.5514 20.3682 13.5514C19.4703 13.5514 18.616 13.7264 17.8188 14.0203L18.7526 15.8108C18.8619 15.9284 18.9292 16.0869 18.9292 16.2609C18.9292 16.6308 18.5598 16.9166 18.2539 16.9232C18.2494 16.9232 18.2448 16.9232 18.2403 16.9232C18.2307 16.9232 18.2215 16.9232 18.2119 16.9226L11.5946 16.6386C11.3585 16.6283 11.145 16.4931 11.0358 16.2829C10.9265 16.0733 10.9375 15.8211 11.0642 15.6213L14.619 10.0323C14.7458 9.83309 14.9708 9.71802 15.2063 9.72643C15.4424 9.73672 15.6558 9.87199 15.7651 10.0822L16.5816 11.6477C17.7518 11.1707 19.0286 10.9023 20.3683 10.9023C25.9203 10.9023 30.4375 15.4195 30.4375 20.9715C30.4375 26.5235 25.9202 31.0406 20.3682 31.0406Z" fill="#86F097"/>
<path d="M20.3682 31.0406C16.0389 31.0406 12.3496 28.2886 10.93 24.4463L10.9444 24.4404C10.8562 24.263 10.7958 24.0703 10.7958 23.8587C10.7958 23.1272 11.3888 22.5341 12.1204 22.5341C12.7088 22.5341 13.1908 22.9242 13.3636 23.455L13.3821 23.4474C14.4047 26.3233 17.1459 28.3914 20.3682 28.3914C24.4598 28.3914 27.7882 25.063 27.7882 20.9714C27.7882 16.8798 24.4598 13.5514 20.3682 13.5514C19.4703 13.5514 18.616 13.7264 17.8188 14.0203L18.7526 15.8108C18.8619 15.9284 18.9292 16.0869 18.9292 16.2609C18.9292 16.6308 18.5598 16.9166 18.2539 16.9232H18.2403C18.2307 16.9232 18.2215 16.9232 18.2119 16.9226L11.5946 16.6386C11.3585 16.6283 11.145 16.4931 11.0358 16.2829C10.9265 16.0733 10.9375 15.8211 11.0642 15.6213L14.619 10.0323C14.7458 9.83309 14.9708 9.71802 15.2063 9.72643C15.4424 9.73672 15.6558 9.87199 15.7651 10.0822L16.5816 11.6477C17.7518 11.1707 19.0286 10.9023 20.3683 10.9023C25.9203 10.9023 30.4375 15.4195 30.4375 20.9715C30.4375 26.5235 25.9202 31.0406 20.3682 31.0406Z" fill="#191B19"/>
</svg>
