<svg width="134" height="110" viewBox="0 0 134 110" fill="none" xmlns="http://www.w3.org/2000/svg">
<path d="M59.3798 0.000627731H37.0485C37.0284 0.00062271 31.4116 -0.00078215 25.8856 0.000627731C20.3497 0.00204013 14.7227 0.000631152 14.7227 0.000631152V70.7289L37.0512 81.3861V19.2174H59.3798C67.4985 19.2187 75.2843 22.2555 81.0251 27.66C86.5516 32.8628 90.2327 40.6546 90.4649 47.9876C90.4695 48.1351 90.6372 48.2172 90.7493 48.1299C90.7583 48.1229 90.7651 48.1153 90.7722 48.1064C93.1615 45.1206 101.462 35.0421 106.208 29.703C103.712 22.8191 101.026 19.3125 95.4589 14.0718C85.89 5.06337 72.9122 0.00198428 59.3798 0.000627731Z" fill="url(#paint0_linear_175_1011)"/>
<path d="M80.754 39.8235C80.754 44.2456 77.1837 47.8305 72.7795 47.8305C68.3753 47.8305 64.805 44.2456 64.805 39.8235C64.805 35.4014 68.3753 31.8165 72.7795 31.8165C77.1837 31.8165 80.754 35.4014 80.754 39.8235Z" fill="url(#paint1_linear_175_1011)"/>
<path fill-rule="evenodd" clip-rule="evenodd" d="M43.0096 32.0141C43.6339 30.9842 44.9715 30.6575 45.9971 31.2844L57.002 38.0103C57.6501 38.4064 58.0457 39.1131 58.0457 39.875C58.0457 40.6368 57.6501 41.3436 57.002 41.7397L45.9971 48.4656C44.9715 49.0925 43.6339 48.7658 43.0096 47.7359C42.3852 46.7061 42.7106 45.3631 43.7363 44.7362L51.6901 39.875L43.7363 35.0138C42.7106 34.3869 42.3852 33.0439 43.0096 32.0141Z" fill="url(#paint2_linear_175_1011)"/>
<path d="M7 77.2273L59.2772 102.772L127 19.6035" stroke="#86F097" stroke-width="13.0693" stroke-linecap="round" stroke-linejoin="round"/>
<defs>
<linearGradient id="paint0_linear_175_1011" x1="6.46077" y1="1.50856e-05" x2="78.2417" y2="146.467" gradientUnits="userSpaceOnUse">
<stop stop-color="#86F097"/>
<stop offset="1" stop-color="#67DE7A"/>
</linearGradient>
<linearGradient id="paint1_linear_175_1011" x1="6.46077" y1="1.50856e-05" x2="78.2417" y2="146.467" gradientUnits="userSpaceOnUse">
<stop stop-color="#86F097"/>
<stop offset="1" stop-color="#67DE7A"/>
</linearGradient>
<linearGradient id="paint2_linear_175_1011" x1="6.46077" y1="1.50856e-05" x2="78.2417" y2="146.467" gradientUnits="userSpaceOnUse">
<stop stop-color="#86F097"/>
<stop offset="1" stop-color="#67DE7A"/>
</linearGradient>
</defs>
</svg>
