<svg width="93" height="107" viewBox="0 0 93 107" fill="none" xmlns="http://www.w3.org/2000/svg">
<path d="M43.4049 0H0V93.0853H21.7025V18.6171H43.4049C51.2959 18.6184 58.8634 21.5604 64.4433 26.7963C70.0244 32.0333 73.1599 39.1363 73.1599 46.5427C73.1599 47.0281 73.2123 48.3414 72.8674 49.0243C78.7459 50.39 86.0416 53.0165 90.713 59.6352C92.853 54.3804 93 52.2767 93 46.5427C93 34.1988 87.7743 22.3605 78.4724 13.632C69.1718 4.90476 56.5579 0.00131421 43.4049 0Z" fill="#82EE94"/>
<path fill-rule="evenodd" clip-rule="evenodd" d="M65.3464 100.097C76.7431 100.097 85.9821 90.8247 85.9821 79.387C85.9821 67.9494 76.7431 58.6773 65.3464 58.6773C53.9496 58.6773 44.7107 67.9494 44.7107 79.387C44.7107 90.8247 53.9496 100.097 65.3464 100.097ZM65.3464 107C80.5421 107 92.8606 94.6373 92.8606 79.387C92.8606 64.1368 80.5421 51.7741 65.3464 51.7741C50.1507 51.7741 37.8321 64.1368 37.8321 79.387C37.8321 94.6373 50.1507 107 65.3464 107Z" fill="#82EE94"/>
<path d="M55.7273 69.7337C54.7955 70.6689 54.7955 72.185 55.7273 73.1201L61.972 79.3873L55.7273 85.6544C54.7955 86.5895 54.7955 88.1056 55.7273 89.0408C56.6591 89.9759 58.17 89.9759 59.1018 89.0408L65.3465 82.7738L71.5909 89.0408C72.5225 89.9759 74.0336 89.9759 74.9652 89.0408C75.8972 88.1056 75.8972 86.5893 74.9652 85.6542L68.7207 79.3873L74.9652 73.1203C75.8972 72.1852 75.8972 70.6689 74.9652 69.7337C74.0336 68.7986 72.5225 68.7986 71.5909 69.7337L65.3465 76.0007L59.1018 69.7337C58.17 68.7986 56.6591 68.7986 55.7273 69.7337Z" fill="#82EE94"/>
<path fill-rule="evenodd" clip-rule="evenodd" d="M34.5557 36.8832L25.8553 34.5435L26.7454 31.2095L40.0338 34.7829C40.7331 34.971 41.2402 35.5785 41.302 36.3024C41.3639 37.0263 40.9674 37.7116 40.3102 38.0165L28.1185 43.6715L26.6756 40.5383L34.5557 36.8832ZM48.5832 34.7829L61.8716 31.2095L62.7617 34.5435L54.0613 36.8832L61.9414 40.5383L60.4985 43.6715L48.3068 38.0165C47.6496 37.7116 47.2531 37.0263 47.3149 36.3024C47.3768 35.5785 47.8839 34.971 48.5832 34.7829Z" fill="#82EE94"/>
</svg>
