<svg width="135" height="110" viewBox="0 0 135 110" fill="none" xmlns="http://www.w3.org/2000/svg">
<path d="M59.8798 0.000627731H37.5485C37.5284 0.00062271 31.9116 -0.00078215 26.3856 0.000627731C20.8497 0.00204013 15.2227 0.000631152 15.2227 0.000631152V70.7289L37.5512 81.3861V19.2174H59.8798C67.9985 19.2187 75.7843 22.2555 81.5251 27.66C87.0516 32.8628 90.7327 40.6546 90.9649 47.9876C90.9695 48.1351 91.1372 48.2172 91.2493 48.1299C91.2583 48.1229 91.2651 48.1153 91.2722 48.1064C93.6615 45.1206 101.962 35.0421 106.708 29.703C104.212 22.8191 101.526 19.3125 95.9589 14.0718C86.39 5.06337 73.4122 0.00198428 59.8798 0.000627731Z" fill="url(#paint0_linear_1131_2575)"/>
<path d="M81.254 39.8235C81.254 44.2456 77.6837 47.8305 73.2795 47.8305C68.8753 47.8305 65.305 44.2456 65.305 39.8235C65.305 35.4014 68.8753 31.8165 73.2795 31.8165C77.6837 31.8165 81.254 35.4014 81.254 39.8235Z" fill="url(#paint1_linear_1131_2575)"/>
<path fill-rule="evenodd" clip-rule="evenodd" d="M43.5096 32.0141C44.1339 30.9842 45.4715 30.6575 46.4971 31.2844L57.502 38.0103C58.1501 38.4064 58.5457 39.1131 58.5457 39.875C58.5457 40.6368 58.1501 41.3436 57.502 41.7397L46.4971 48.4656C45.4715 49.0925 44.1339 48.7658 43.5096 47.7359C42.8852 46.7061 43.2106 45.3631 44.2363 44.7362L52.1901 39.875L44.2363 35.0138C43.2106 34.3869 42.8852 33.0439 43.5096 32.0141Z" fill="url(#paint2_linear_1131_2575)"/>
<path d="M7.5 77.2273L59.7772 102.772L127.5 19.6035" stroke="#86F097" stroke-width="13.0693" stroke-linecap="round" stroke-linejoin="round"/>
<defs>
<linearGradient id="paint0_linear_1131_2575" x1="6.96077" y1="1.50856e-05" x2="78.7417" y2="146.467" gradientUnits="userSpaceOnUse">
<stop stop-color="#86F097"/>
<stop offset="1" stop-color="#67DE7A"/>
</linearGradient>
<linearGradient id="paint1_linear_1131_2575" x1="6.96077" y1="1.50856e-05" x2="78.7417" y2="146.467" gradientUnits="userSpaceOnUse">
<stop stop-color="#86F097"/>
<stop offset="1" stop-color="#67DE7A"/>
</linearGradient>
<linearGradient id="paint2_linear_1131_2575" x1="6.96077" y1="1.50856e-05" x2="78.7417" y2="146.467" gradientUnits="userSpaceOnUse">
<stop stop-color="#86F097"/>
<stop offset="1" stop-color="#67DE7A"/>
</linearGradient>
</defs>
</svg>
