<svg width="72" height="72" viewBox="0 0 72 72" fill="none" xmlns="http://www.w3.org/2000/svg">
<path d="M35.9999 1.91235C17.2034 1.91235 1.91235 17.2034 1.91235 35.9999C1.91235 54.7964 17.2034 70.0874 35.9999 70.0874C54.7964 70.0874 70.0874 54.7964 70.0874 35.9999C70.0874 17.2034 54.7964 1.91235 35.9999 1.91235ZM35.9999 65.8124C28.0956 65.804 20.5176 62.6604 14.9284 57.0713C9.33932 51.4821 6.19569 43.9041 6.18735 35.9999C6.19688 28.096 9.34089 20.5186 14.9298 14.9298C20.5186 9.34089 28.096 6.19688 35.9999 6.18735C43.9041 6.19569 51.4821 9.33932 57.0713 14.9284C62.6604 20.5176 65.804 28.0956 65.8124 35.9999C65.804 43.9041 62.6604 51.4821 57.0713 57.0713C51.4821 62.6604 43.9041 65.804 35.9999 65.8124Z" fill="#86F097"/>
<path d="M56.7991 21.1682C56.3557 20.7691 55.7719 20.5624 55.1761 20.5937C54.5804 20.6249 54.0214 20.8914 53.6221 21.3347L32.5936 44.6762L20.5111 34.6952C20.049 34.3405 19.4674 34.1789 18.8885 34.2443C18.3097 34.3096 17.7788 34.597 17.4075 35.0458C17.0361 35.4947 16.8534 36.07 16.8976 36.6509C16.9418 37.2317 17.2096 37.7728 17.6446 38.1602L31.3606 49.5002C31.7521 49.8242 32.2201 49.9502 32.6926 49.9727C32.7916 49.9817 32.8906 50.0087 32.9941 50.0042C33.0391 49.9997 33.0796 49.9772 33.1246 49.9727C33.6577 49.9145 34.1517 49.6651 34.5151 49.2707L56.9656 24.3497C57.3647 23.9063 57.5714 23.3225 57.5402 22.7267C57.5089 22.131 57.2424 21.572 56.7991 21.1727V21.1682Z" fill="#86F097"/>
</svg>
