<svg width="203" height="576" viewBox="0 0 203 576" fill="none" xmlns="http://www.w3.org/2000/svg">
<path d="M109.564 6.70654C116.926 14.5396 122.59 23.4804 126.928 33.2934C132.117 45.0351 134.776 57.2753 134.216 70.1472C134.17 71.1907 134.536 71.8965 135.311 72.5298C137.821 74.5754 140.288 76.6699 142.799 78.7132C148.657 83.4769 151.144 89.6821 149.944 97.0485C148.661 104.948 146.935 112.78 145.295 120.616C144.263 125.557 138.817 127.454 134.943 124.245C130.493 120.559 126.115 116.782 121.756 112.988C119.575 111.091 119.612 111.018 117.378 112.731C111.442 117.286 104.848 118.902 97.5105 117.201C93.7353 116.326 90.4449 114.474 87.4923 112.025C86.6064 111.29 86.0718 111.408 85.2673 112.131C80.7887 116.139 76.2957 120.132 71.7379 124.049C67.9476 127.306 62.4443 125.379 61.2304 120.387C60.3777 116.879 59.6614 113.338 58.8772 109.814C58.0335 106.018 57.174 102.227 56.3371 98.4298C54.8042 91.4819 56.4178 85.2872 61.3737 80.2513C64.2124 77.3673 67.585 75.0036 70.7517 72.4521C71.3526 71.9688 71.6617 71.5104 71.618 70.7187C70.8361 56.6578 74.0443 43.4322 79.9955 30.7781C83.3418 23.6524 87.5452 16.9617 92.5123 10.8542C95.0208 7.76814 97.7344 4.84345 101.048 2.56568C102.853 1.32463 102.993 1.30955 104.715 2.56267C106.438 3.81578 108.116 5.12469 109.564 6.70654ZM112.27 41.456C107.324 36.387 98.8691 36.2279 93.8567 41.076C88.6504 46.1133 87.9387 54.2699 93.6312 60.2052C98.3768 65.1559 107.16 65.1551 112.096 60.2882C113.346 59.064 114.342 57.6054 115.027 55.9959C115.712 54.3863 116.073 52.6575 116.089 50.9082C116.106 49.159 115.777 47.4237 115.121 45.8018C114.466 44.1798 113.497 42.7031 112.27 41.456Z" fill="#86F097"/>
<path d="M90.2598 119.637C88.5652 118.823 87.3451 118.962 86.1006 120.172C85.4582 120.701 85.1789 121.492 85.1782 122.391L85.1777 122.936C85.1734 127.275 85.1691 131.615 85.1811 135.954C90.2598 137.642 115.381 137.87 120.412 135.741C120.392 131.401 120.417 127.061 120.395 122.719C120.381 119.787 118.016 118.32 115.381 119.616C113.924 120.341 112.405 120.934 110.842 121.39C103.766 123.414 96.8996 122.824 90.2598 119.637Z" fill="#86F097"/>
<path d="M93.5162 135.528C93.5162 125.491 112.058 125.491 112.058 135.528C112.058 275.935 161.003 387.5 201.634 531.524C218.321 590.674 -15.5167 590.167 1.53659 531.524C44.0005 385.5 93.5162 275.142 93.5162 135.528Z" fill="#86F097"/>
</svg>
