<svg width="20" height="20" viewBox="0 0 20 20" fill="none" xmlns="http://www.w3.org/2000/svg">
<path fill-rule="evenodd" clip-rule="evenodd" d="M0 8.75C0 13.625 3.875 17.5 8.75 17.5C10.739 17.5 12.5615 16.855 14.0223 15.7602C14.0538 15.7997 14.088 15.838 14.125 15.875L17.875 19.625C18.125 19.875 18.375 20 18.75 20C19.125 20 19.375 19.875 19.625 19.625C20.125 19.125 20.125 18.375 19.625 17.875L15.875 14.125C15.838 14.088 15.7997 14.0538 15.7602 14.0223C16.855 12.5615 17.5 10.739 17.5 8.75C17.5 3.875 13.625 0 8.75 0C3.875 0 0 3.875 0 8.75ZM2.5 8.75C2.5 5.25 5.25 2.5 8.75 2.5C12.25 2.5 15 5.25 15 8.75C15 12.25 12.25 15 8.75 15C5.25 15 2.5 12.25 2.5 8.75Z" fill="#86F097"/>
</svg>
