<svg width="69" height="81" viewBox="0 0 69 81" fill="none" xmlns="http://www.w3.org/2000/svg">
<path d="M32.2369 0.586914H32.2331H0.5V68.5947H16.3685V14.1885H32.2331H32.2369C38.0067 14.1894 43.5399 16.3388 47.6198 20.1642C51.7006 23.9903 53.9932 29.1798 53.9932 34.5908C53.9932 34.9455 54.0316 35.9049 53.7794 36.4038C58.0777 37.4017 63.4122 39.3205 66.8278 44.1561C68.3925 40.317 68.5 38.78 68.5 34.5908C68.5 25.5724 64.679 16.9234 57.8777 10.5464C51.0772 4.17031 41.8541 0.587874 32.2369 0.586914Z" fill="#EA6E6E"/>
<mask id="path-2-inside-1_1770_2488" fill="white">
<path d="M41.3385 32.663C44.0492 34.2279 47.5152 33.2992 49.0802 30.5886L39.2642 24.9213C37.6992 27.6319 38.6279 31.098 41.3385 32.663Z"/>
</mask>
<path d="M49.0802 30.5886L58.4645 36.0066L63.8825 26.6223L54.4982 21.2043L49.0802 30.5886ZM39.2642 24.9213L44.6822 15.537L35.2979 10.119L29.8799 19.5033L39.2642 24.9213ZM39.696 25.1706C41.1233 22.6984 44.2844 21.8514 46.7565 23.2787L35.9205 42.0472C43.814 46.6045 53.9072 43.9 58.4645 36.0066L39.696 25.1706ZM46.7565 23.2787C49.2287 24.706 50.0757 27.8671 48.6484 30.3393L29.8799 19.5033C25.3226 27.3967 28.0271 37.4899 35.9205 42.0472L46.7565 23.2787ZM54.4982 21.2043L44.6822 15.537L33.8462 34.3055L43.6622 39.9728L54.4982 21.2043Z" fill="#EA6E6E" mask="url(#path-2-inside-1_1770_2488)"/>
<mask id="path-4-inside-2_1770_2488" fill="white">
<path d="M27.2113 32.6626C24.5006 34.2276 21.0346 33.2988 19.4696 30.5882L29.2856 24.9209C30.8506 27.6315 29.9219 31.0976 27.2113 32.6626Z"/>
</mask>
<path d="M19.4696 30.5882L10.0853 36.0062L4.66732 26.622L14.0516 21.204L19.4696 30.5882ZM29.2856 24.9209L23.8676 15.5366L33.2519 10.1186L38.6699 19.5029L29.2856 24.9209ZM28.8538 25.1702C27.4265 22.6981 24.2654 21.851 21.7933 23.2783L32.6293 42.0468C24.7359 46.6041 14.6426 43.8996 10.0853 36.0062L28.8538 25.1702ZM21.7933 23.2783C19.3211 24.7056 18.4741 27.8668 19.9014 30.3389L38.6699 19.5029C43.2272 27.3963 40.5227 37.4896 32.6293 42.0468L21.7933 23.2783ZM14.0516 21.204L23.8676 15.5366L34.7036 34.3051L24.8876 39.9725L14.0516 21.204Z" fill="#EA6E6E" mask="url(#path-4-inside-2_1770_2488)"/>
<circle cx="47.8045" cy="59.7174" r="19.6957" stroke="#EA6E6E" stroke-width="2"/>
<path d="M39.441 51.3551C38.631 52.1651 38.631 53.4785 39.441 54.2885L44.8699 59.7174L39.441 65.1463C38.631 65.9563 38.631 67.2697 39.441 68.0797C40.2511 68.8898 41.5646 68.8898 42.3746 68.0797L47.8035 62.651L53.2322 68.0797C54.0421 68.8898 55.3558 68.8898 56.1657 68.0797C56.9759 67.2697 56.9759 65.9562 56.1657 65.1461L50.737 59.7174L56.1657 54.2887C56.9759 53.4787 56.9759 52.1651 56.1657 51.3551C55.3558 50.545 54.0421 50.545 53.2322 51.3551L47.8035 56.7838L42.3746 51.3551C41.5646 50.545 40.2511 50.545 39.441 51.3551Z" fill="#EA6E6E"/>
</svg>
