<svg width="95" height="79" viewBox="0 0 95 79" fill="none" xmlns="http://www.w3.org/2000/svg">
<path d="M42.0129 0.500452H25.9334C25.919 0.500448 21.8746 0.499437 17.8957 0.500452C13.9096 0.501469 9.85791 0.500454 9.85791 0.500454V51.4277L25.9354 59.1014V14.3373H42.0129C47.8587 14.3383 53.4648 16.5249 57.5985 20.4164C61.5778 24.1626 64.2283 29.773 64.3955 35.0531C64.3988 35.1576 64.5158 35.2165 64.5965 35.1584C64.6057 35.1518 64.6124 35.144 64.6195 35.1352C66.3436 32.9809 72.3156 25.7297 75.731 21.8874C73.9337 16.9307 71.9997 14.4058 67.9914 10.6323C61.1014 4.14584 51.7568 0.501429 42.0129 0.500452Z" fill="url(#paint0_linear_1506_2392)"/>
<path d="M57.4033 29.1746C57.4033 32.3587 54.8325 34.9399 51.6613 34.9399C48.4901 34.9399 45.9193 32.3587 45.9193 29.1746C45.9193 25.9905 48.4901 23.4092 51.6613 23.4092C54.8325 23.4092 57.4033 25.9905 57.4033 29.1746Z" fill="url(#paint1_linear_1506_2392)"/>
<path fill-rule="evenodd" clip-rule="evenodd" d="M30.2257 23.5515C30.6752 22.8099 31.6383 22.5747 32.3768 23.0261L40.3008 27.869C40.7675 28.1542 41.0523 28.6631 41.0523 29.2117C41.0523 29.7602 40.7675 30.2691 40.3008 30.5543L32.3768 35.3972C31.6383 35.8486 30.6752 35.6134 30.2257 34.8719C29.7761 34.1303 30.0104 33.1633 30.7489 32.7119L36.476 29.2117L30.7489 25.7114C30.0104 25.26 29.7761 24.293 30.2257 23.5515Z" fill="url(#paint2_linear_1506_2392)"/>
<path d="M4.29736 56.1069L41.9391 74.5L90.7024 14.6154" stroke="#86F097" stroke-width="8" stroke-linecap="round" stroke-linejoin="round"/>
<defs>
<linearGradient id="paint0_linear_1506_2392" x1="3.90901" y1="0.500011" x2="55.5943" y2="105.962" gradientUnits="userSpaceOnUse">
<stop stop-color="#86F097"/>
<stop offset="1" stop-color="#67DE7A"/>
</linearGradient>
<linearGradient id="paint1_linear_1506_2392" x1="3.90901" y1="0.500011" x2="55.5943" y2="105.962" gradientUnits="userSpaceOnUse">
<stop stop-color="#86F097"/>
<stop offset="1" stop-color="#67DE7A"/>
</linearGradient>
<linearGradient id="paint2_linear_1506_2392" x1="3.90901" y1="0.500011" x2="55.5943" y2="105.962" gradientUnits="userSpaceOnUse">
<stop stop-color="#86F097"/>
<stop offset="1" stop-color="#67DE7A"/>
</linearGradient>
</defs>
</svg>
