<svg width="18" height="19" viewBox="0 0 18 19" fill="none" xmlns="http://www.w3.org/2000/svg">
<path d="M17.9529 12.9437C18 12.4824 18 11.9257 18 11.2444L18 7.75562C18 7.0743 18 6.51625 17.9529 6.0563C17.9031 5.57514 17.7978 5.15097 17.5569 4.74934C17.316 4.3477 16.9851 4.04681 16.5752 3.7658C16.1848 3.4954 15.6808 3.21571 15.066 2.87505L11.9465 1.1426C11.3303 0.800614 10.8249 0.519603 10.3846 0.327403C9.92354 0.125924 9.48462 -3.72219e-07 9 -3.93402e-07C8.51538 -4.14586e-07 8.07646 0.125924 7.61538 0.327403C7.17508 0.518278 6.66969 0.800614 6.05354 1.1426L2.934 2.87505C2.31923 3.21571 1.81523 3.4954 1.42477 3.7658C1.01492 4.04814 0.684 4.3477 0.441692 4.74934C0.200769 5.15097 0.0955388 5.57514 0.0470769 6.0563C-2.84835e-07 6.51625 -3.09227e-07 7.0743 -3.39009e-07 7.75562L-4.91508e-07 11.2444C-5.21289e-07 11.9257 -5.45682e-07 12.4837 0.0470766 12.9437C0.0969232 13.4249 0.200767 13.849 0.443075 14.2507C0.683999 14.6523 1.01492 14.9532 1.42477 15.2342C1.81523 15.5046 2.31923 15.7843 2.934 16.1249L6.05354 17.8574C6.66969 18.1994 7.17508 18.4804 7.61538 18.6726C8.07646 18.8741 8.51538 19 9 19C9.48461 19 9.92354 18.8741 10.3846 18.6726C10.8249 18.4804 11.3303 18.1994 11.9465 17.8574L15.066 16.1249C15.6808 15.7843 16.1848 15.5046 16.5752 15.2342C16.9851 14.9519 17.316 14.6523 17.5583 14.2507C17.7978 13.849 17.9045 13.4249 17.9529 12.9437ZM5.76831 9.5C5.76831 9.09381 5.85188 8.69159 6.01425 8.31632C6.17662 7.94105 6.41462 7.60007 6.71465 7.31285C7.01467 7.02563 7.37085 6.79779 7.76286 6.64235C8.15486 6.4869 8.57501 6.4069 8.99931 6.4069C9.42361 6.4069 9.84375 6.4869 10.2358 6.64235C10.6278 6.79779 10.9839 7.02563 11.284 7.31285C11.584 7.60007 11.822 7.94105 11.9844 8.31632C12.1467 8.69159 12.2303 9.09381 12.2303 9.5C12.2303 10.3202 11.89 11.1067 11.2842 11.6867C10.6784 12.2666 9.85673 12.5924 9 12.5924C8.14327 12.5924 7.32163 12.2666 6.71583 11.6867C6.11003 11.1067 5.76969 10.3202 5.76969 9.5L5.76831 9.5Z" fill="white"/>
</svg>
