<svg width="14" height="14" viewBox="0 0 14 14" fill="none" xmlns="http://www.w3.org/2000/svg">
<path d="M12.8331 9.91672C12.8331 9.59472 13.0948 9.33339 13.4165 9.33339C13.7383 9.33339 14 9.59472 14 9.91672V12.25C14 13.2169 13.2159 14 12.2496 14H1.75038C0.783039 14 0 13.216 0 12.25V9.91672C0 9.59472 0.261692 9.33339 0.583461 9.33339C0.905229 9.33339 1.16692 9.59472 1.16692 9.91672V12.25C1.16692 12.572 1.42759 12.8333 1.75038 12.8333H12.2486C12.5714 12.8333 12.8321 12.572 12.8321 12.25V9.91672H12.8331ZM6.98422 0.000182646C6.86377 -0.00265133 6.74515 0.0275497 6.64356 0.0869139C6.54196 0.146278 6.46203 0.2321 6.41399 0.333378L6.43436 0.314712C6.48925 0.217722 6.57277 0.136814 6.67538 0.0812051C6.778 0.0255964 6.89559 -0.00247711 7.01476 0.000182646C7.13521 -0.00265133 7.25383 0.0275497 7.35542 0.0869139C7.45702 0.146278 7.53696 0.2321 7.58499 0.333378L12.549 4.88332C12.6628 4.98765 12.7268 5.12916 12.7268 5.27671C12.7268 5.42427 12.6628 5.56577 12.549 5.67011C12.4352 5.77444 12.2808 5.83306 12.1198 5.83306C11.9588 5.83306 11.8044 5.77444 11.6906 5.67011L7.6359 1.95362V11.0834C7.6359 11.2381 7.56885 11.3865 7.4495 11.4958C7.33015 11.6052 7.16828 11.6667 6.99949 11.6667C6.8307 11.6667 6.66883 11.6052 6.54948 11.4958C6.43013 11.3865 6.36308 11.2381 6.36308 11.0834V1.95362L2.30839 5.67011C2.19456 5.77444 2.04017 5.83306 1.87919 5.83306C1.71821 5.83306 1.56383 5.77444 1.45 5.67011C1.33617 5.56577 1.27222 5.42427 1.27222 5.27671C1.27222 5.12916 1.33617 4.98765 1.45 4.88332L6.41399 0.333378L6.98422 0.000182646Z" fill="white" fill-opacity="0.55"/>
</svg>
