<svg width="20" height="20" viewBox="0 0 20 20" fill="none" xmlns="http://www.w3.org/2000/svg">
<path d="M19 16.4975V10.7405C19 10.6079 19.0527 10.4807 19.1464 10.387C19.2402 10.2932 19.3674 10.2405 19.5 10.2405C19.6326 10.2405 19.7598 10.2932 19.8536 10.387C19.9473 10.4807 20 10.6079 20 10.7405V16.4975C20 18.432 18.4325 20 16.5 20H3.5C3.04037 20 2.58525 19.9095 2.16061 19.7336C1.73597 19.5577 1.35013 19.2999 1.02513 18.9749C0.36875 18.3185 8.93577e-07 17.4283 8.93577e-07 16.5V3.5C-0.000327561 3.04049 0.0898956 2.58542 0.265514 2.1608C0.441133 1.73617 0.698705 1.35032 1.02351 1.02528C1.34832 0.70024 1.73399 0.442392 2.15849 0.26647C2.58299 0.0905482 3.03799 0 3.4975 0H7.449C7.58161 0 7.70879 0.0526784 7.80256 0.146447C7.89633 0.240215 7.949 0.367392 7.949 0.5C7.949 0.632608 7.89633 0.759785 7.80256 0.853553C7.70879 0.947322 7.58161 1 7.449 1H3.4975C2.11699 1 1 2.1185 1 3.5V16.5C1 17.163 1.26339 17.7989 1.73223 18.2678C2.20107 18.7366 2.83696 19 3.5 19H16.5C17.1634 18.9996 17.7994 18.7357 18.2682 18.2664C18.737 17.7971 19.0003 17.1609 19 16.4975Z" fill="white"/>
<path d="M6.24999 15C6.24999 8.53637 11.156 3.21852 17.4474 2.56706L14.0647 1.214C13.946 1.16181 13.8522 1.06554 13.8032 0.945514C13.7541 0.825485 13.7536 0.691085 13.8017 0.570678C13.8498 0.45027 13.9429 0.353274 14.0612 0.30016C14.1795 0.247045 14.3138 0.241967 14.4357 0.285997L19.3709 2.26006C19.3979 2.26658 19.4244 2.27537 19.4501 2.28636C19.5109 2.31236 19.566 2.35016 19.6121 2.39758C19.6582 2.44499 19.6944 2.50108 19.7187 2.5626C19.7429 2.62411 19.7548 2.68983 19.7535 2.75595C19.7522 2.82207 19.7377 2.88727 19.7111 2.94778C19.6844 3.00829 19.646 3.06291 19.5981 3.10847L15.7966 6.80597C15.7496 6.85259 15.694 6.88944 15.6327 6.9144C15.5715 6.93935 15.5059 6.95191 15.4398 6.95134C15.3736 6.95077 15.3083 6.93709 15.2475 6.9111C15.1867 6.8851 15.1316 6.84729 15.0855 6.79988C15.0394 6.75246 15.0032 6.69637 14.9789 6.63485C14.9547 6.57334 14.9429 6.50762 14.9442 6.4415C14.9455 6.37539 14.9599 6.31018 14.9865 6.24967C15.0132 6.18916 15.0516 6.13454 15.0996 6.08898L17.714 3.54602C11.848 4.06971 7.24999 8.99767 7.24999 15C7.24999 15.1326 7.19731 15.2598 7.10354 15.3536C7.00978 15.4473 6.8826 15.5 6.74999 15.5C6.61738 15.5 6.4902 15.4473 6.39644 15.3536C6.30267 15.2598 6.24999 15.1326 6.24999 15Z" fill="white"/>
</svg>
