<svg width="16" height="14" viewBox="0 0 16 14" fill="none" xmlns="http://www.w3.org/2000/svg">
<path d="M14.772 6.59064H13.9298C13.7282 3.63751 11.361 1.27189 8.40947 1.07032V0.414075C8.40947 0.189075 8.2251 0.00469971 8.0001 0.00469971C7.7751 0.00469971 7.59072 0.189075 7.59072 0.414075V1.07032C4.63916 1.27189 2.27197 3.63907 2.07041 6.59064H1.22822C1.00322 6.59064 0.818848 6.77501 0.818848 7.00001C0.818848 7.22501 1.00322 7.40939 1.22822 7.40939H2.07041C2.27197 10.3609 4.63916 12.7281 7.59072 12.9297V13.5859C7.59072 13.8109 7.7751 13.9953 8.0001 13.9953C8.2251 13.9953 8.40947 13.8109 8.40947 13.5859V12.9297C11.361 12.7281 13.7282 10.3609 13.9298 7.40939H14.772C14.997 7.40939 15.1813 7.22501 15.1813 7.00001C15.1813 6.77501 14.997 6.59064 14.772 6.59064ZM8.40947 12.1078V9.48595C8.40947 9.26095 8.2251 9.07657 8.0001 9.07657C7.7751 9.07657 7.59072 9.26095 7.59072 9.48595V12.1078C5.09072 11.9094 3.09229 9.90939 2.89229 7.40939H5.32979C5.55479 7.40939 5.73916 7.22501 5.73916 7.00001C5.73916 6.77501 5.55479 6.59064 5.32979 6.59064H2.89229C3.09072 4.09064 5.09072 2.0922 7.59072 1.8922V4.51407C7.59072 4.73907 7.7751 4.92345 8.0001 4.92345C8.2251 4.92345 8.40947 4.73907 8.40947 4.51407V1.8922C10.9095 2.09064 12.9079 4.09064 13.1079 6.59064H10.672C10.447 6.59064 10.2626 6.77501 10.2626 7.00001C10.2626 7.22501 10.447 7.40939 10.672 7.40939H13.1095C12.9095 9.90939 10.9095 11.9094 8.40947 12.1078Z" fill="#D6DFD7"/>
</svg>
