<svg width="40" height="40" viewBox="0 0 40 40" fill="none" xmlns="http://www.w3.org/2000/svg">
<g clip-path="url(#clip0_2660_24105)">
<path d="M20 40C31.0457 40 40 31.0457 40 20C40 8.9543 31.0457 0 20 0C8.9543 0 0 8.9543 0 20C0 31.0457 8.9543 40 20 40Z" fill="black"/>
<path d="M12.1108 24.6315C12.2494 24.4921 12.44 24.4108 12.6422 24.4108H30.9749C31.3098 24.4108 31.4773 24.8174 31.2406 25.0556L27.6189 28.6981C27.4803 28.8375 27.2898 28.9189 27.0876 28.9189H8.755C8.42 28.9189 8.25252 28.5121 8.48933 28.274L12.1108 24.6315Z" fill="url(#paint0_linear_2660_24105)"/>
<path d="M12.1108 11.0315C12.2552 10.8921 12.4458 10.8108 12.6422 10.8108H30.9749C31.3098 10.8108 31.4773 11.2175 31.2406 11.4556L27.6189 15.0982C27.4803 15.2376 27.2898 15.3189 27.0876 15.3189H8.755C8.42 15.3189 8.25252 14.9123 8.48933 14.6741L12.1108 11.0315Z" fill="url(#paint1_linear_2660_24105)"/>
<path d="M27.6189 17.788C27.4803 17.6486 27.2898 17.5673 27.0876 17.5673H8.755C8.42 17.5673 8.25252 17.9739 8.48933 18.2121L12.1108 21.8546C12.2494 21.9941 12.44 22.0754 12.6422 22.0754H30.9749C31.3098 22.0754 31.4773 21.6687 31.2406 21.4306L27.6189 17.788Z" fill="url(#paint2_linear_2660_24105)"/>
</g>
<defs>
<linearGradient id="paint0_linear_2660_24105" x1="26.432" y1="7.16896" x2="13.6283" y2="31.5513" gradientUnits="userSpaceOnUse">
<stop stop-color="#00FFA3"/>
<stop offset="1" stop-color="#DC1FFF"/>
</linearGradient>
<linearGradient id="paint1_linear_2660_24105" x1="26.432" y1="7.16895" x2="13.6283" y2="31.5513" gradientUnits="userSpaceOnUse">
<stop stop-color="#00FFA3"/>
<stop offset="1" stop-color="#DC1FFF"/>
</linearGradient>
<linearGradient id="paint2_linear_2660_24105" x1="26.432" y1="7.16902" x2="13.6283" y2="31.5514" gradientUnits="userSpaceOnUse">
<stop stop-color="#00FFA3"/>
<stop offset="1" stop-color="#DC1FFF"/>
</linearGradient>
<clipPath id="clip0_2660_24105">
<rect width="40" height="40" fill="white"/>
</clipPath>
</defs>
</svg>
