<svg width="16" height="16" viewBox="0 0 16 16" fill="none" xmlns="http://www.w3.org/2000/svg">
<path fill-rule="evenodd" clip-rule="evenodd" d="M8 16C12.4183 16 16 12.4183 16 8C16 3.58173 12.4183 0 8 0C3.58173 0 0 3.58173 0 8C0 12.4183 3.58173 16 8 16ZM12.0314 5.55859C12.2288 5.2262 12.1193 4.79669 11.7869 4.5993C11.4545 4.40192 11.025 4.51135 10.8276 4.84375L7.50189 10.4439L5.06537 8.00674C4.79199 7.73334 4.34882 7.73331 4.07538 8.00662C3.802 8.27997 3.80194 8.72318 4.07526 8.99658L7.14874 12.0708C7.30157 12.2236 7.51642 12.2973 7.73083 12.2704C7.94531 12.2436 8.13531 12.1191 8.24567 11.9333L12.0314 5.55859Z" fill="#00DAFF"/>
</svg>
