<svg width="30" height="30" viewBox="0 0 30 30" fill="none" xmlns="http://www.w3.org/2000/svg">
<path d="M27.0333 10.8205H2.96666V16.5205H10.9889C11.308 16.5205 11.6141 16.6407 11.8398 16.8544C12.0654 17.0682 12.1922 17.3582 12.1922 17.6605C12.1922 18.366 12.488 19.0426 13.0146 19.5415C13.5412 20.0403 14.2553 20.3205 15 20.3205C15.7447 20.3205 16.4588 20.0403 16.9854 19.5415C17.512 19.0426 17.8078 18.366 17.8078 17.6605C17.8078 17.3582 17.9346 17.0682 18.1602 16.8544C18.3859 16.6407 18.692 16.5205 19.0111 16.5205H27.0333V10.8205ZM27.0333 8.54055V4.74055C27.0333 4.23664 26.822 3.75336 26.4459 3.39704C26.0698 3.04073 25.5597 2.84055 25.0278 2.84055H4.97222C4.44031 2.84055 3.93019 3.04073 3.55408 3.39704C3.17796 3.75336 2.96666 4.23664 2.96666 4.74055V8.54055H27.0333ZM27.0333 18.8005H20.0749C19.5317 20.9791 17.4656 22.6005 15 22.6005C12.5344 22.6005 10.4682 20.9791 9.92514 18.8005H2.96666V25.2605C2.96666 25.5101 3.01854 25.7571 3.11933 25.9876C3.22012 26.2182 3.36784 26.4276 3.55408 26.604C3.74031 26.7805 3.9614 26.9204 4.20473 27.0159C4.44805 27.1114 4.70885 27.1605 4.97222 27.1605H25.0278C25.2911 27.1605 25.5519 27.1114 25.7953 27.0159C26.0386 26.9204 26.2597 26.7805 26.4459 26.604C26.6321 26.4276 26.7799 26.2182 26.8807 25.9876C26.9815 25.7571 27.0333 25.5101 27.0333 25.2605V18.8005ZM4.97222 0.560547H25.0278C27.4645 0.560547 29.44 2.43205 29.44 4.74055V25.2605C29.44 27.569 27.4645 29.4405 25.0278 29.4405H4.97222C2.53547 29.4405 0.559998 27.569 0.559998 25.2605V4.74055C0.559998 2.43205 2.53547 0.560547 4.97222 0.560547Z" fill="#1A1A1A"/>
</svg>
