<svg width="30" height="30" viewBox="0 0 30 30" fill="none" xmlns="http://www.w3.org/2000/svg">
<path d="M27.0334 10.82H2.96673V16.52H10.9889C11.3081 16.52 11.6142 16.6401 11.8398 16.8539C12.0655 17.0677 12.1923 17.3577 12.1923 17.66C12.1923 18.3655 12.4881 19.0421 13.0147 19.5409C13.5412 20.0397 14.2554 20.32 15.0001 20.32C15.7447 20.32 16.4589 20.0397 16.9855 19.5409C17.512 19.0421 17.8078 18.3655 17.8078 17.66C17.8078 17.3577 17.9346 17.0677 18.1603 16.8539C18.386 16.6401 18.692 16.52 19.0112 16.52H27.0334V10.82ZM27.0334 8.54V4.74C27.0334 4.23609 26.8221 3.75281 26.446 3.39649C26.0699 3.04018 25.5597 2.84 25.0278 2.84H4.97228C4.44037 2.84 3.93025 3.04018 3.55414 3.39649C3.17802 3.75281 2.96673 4.23609 2.96673 4.74V8.54H27.0334ZM27.0334 18.8H20.0749C19.5318 20.9785 17.4657 22.6 15.0001 22.6C12.5344 22.6 10.4683 20.9785 9.9252 18.8H2.96673V25.26C2.96673 25.5095 3.0186 25.7566 3.11939 25.9871C3.22018 26.2176 3.36791 26.4271 3.55414 26.6035C3.74037 26.7799 3.96146 26.9199 4.20479 27.0154C4.44811 27.1109 4.70891 27.16 4.97228 27.16H25.0278C25.2912 27.16 25.552 27.1109 25.7953 27.0154C26.0387 26.9199 26.2597 26.7799 26.446 26.6035C26.6322 26.4271 26.7799 26.2176 26.8807 25.9871C26.9815 25.7566 27.0334 25.5095 27.0334 25.26V18.8ZM4.97228 0.559998H25.0278C27.4646 0.559998 29.4401 2.4315 29.4401 4.74V25.26C29.4401 27.5685 27.4646 29.44 25.0278 29.44H4.97228C2.53553 29.44 0.560059 27.5685 0.560059 25.26V4.74C0.560059 2.4315 2.53553 0.559998 4.97228 0.559998Z" fill="#737C74"/>
</svg>
