<svg width="30" height="30" viewBox="0 0 30 30" fill="none" xmlns="http://www.w3.org/2000/svg">
<path d="M15 0C17.9667 0 20.8668 0.879734 23.3335 2.52796C25.8003 4.17618 27.7229 6.51885 28.8582 9.25974C29.9935 12.0006 30.2905 15.0166 29.7118 17.9263C29.133 20.8361 27.7044 23.5088 25.6066 25.6066C23.5088 27.7044 20.8361 29.133 17.9263 29.7118C15.0166 30.2905 12.0006 29.9935 9.25974 28.8582C6.51885 27.7229 4.17618 25.8003 2.52796 23.3335C0.879734 20.8668 0 17.9667 0 15C0 11.0217 1.58035 7.20644 4.3934 4.3934C7.20644 1.58035 11.0217 0 15 0ZM15 2.57143C12.5419 2.57143 10.1389 3.30035 8.09505 4.66602C6.05119 6.03169 4.45819 7.97277 3.5175 10.2438C2.57681 12.5148 2.33068 15.0138 2.81024 17.4247C3.2898 19.8356 4.47351 22.0502 6.21167 23.7883C7.94984 25.5265 10.1644 26.7102 12.5753 27.1898C14.9862 27.6693 17.4852 27.4232 19.7562 26.4825C22.0272 25.5418 23.9683 23.9488 25.334 21.9049C26.6996 19.8611 27.4286 17.4581 27.4286 15C27.4286 11.7037 26.1191 8.54248 23.7883 6.21167C21.4575 3.88086 18.2963 2.57143 15 2.57143Z" fill="#737C74"/>
<path d="M15 4.99285C14.6652 4.98589 14.34 5.10564 14.0897 5.32815C13.8394 5.55066 13.6823 5.8595 13.65 6.19285V7.88571C12.6241 8.1111 11.6904 8.64145 10.9714 9.40714C10.6489 9.75558 10.4053 10.1695 10.2574 10.6207C10.1095 11.0719 10.0607 11.5497 10.1143 12.0214C10.1904 12.8447 10.5727 13.6094 11.1857 14.1643C11.834 14.7172 12.555 15.1786 13.3286 15.5357L14.2714 16.0071L15.1714 16.4357L15.9 16.8214C16.9714 17.4214 17.3571 17.8071 17.4 18.3C17.4106 18.446 17.3893 18.5926 17.3375 18.7295C17.2857 18.8664 17.2046 18.9904 17.1 19.0928C16.8126 19.3401 16.479 19.528 16.1186 19.6457C15.7581 19.7634 15.378 19.8086 15 19.7786C14.3182 19.7866 13.6461 19.6167 13.05 19.2857C12.8522 19.1755 12.6656 19.0463 12.4929 18.9V18.7928C12.2459 18.5398 11.9131 18.3885 11.5601 18.3687C11.2071 18.3488 10.8595 18.4619 10.5857 18.6857C10.4501 18.7868 10.3378 18.916 10.2565 19.0643C10.1753 19.2127 10.1269 19.3768 10.1147 19.5456C10.1025 19.7143 10.1267 19.8837 10.1858 20.0422C10.2449 20.2008 10.3375 20.3447 10.4571 20.4643C10.8253 20.8501 11.252 21.1755 11.7214 21.4286C12.175 21.6948 12.6565 21.9104 13.1571 22.0714L13.8643 22.2428V23.7857C13.8809 24.1305 14.0312 24.4553 14.2832 24.6913C14.5351 24.9273 14.8691 25.056 15.2143 25.05C15.5701 25.0542 15.9144 24.9241 16.1786 24.6857C16.2995 24.5689 16.3959 24.4291 16.4621 24.2746C16.5283 24.12 16.5631 23.9538 16.5643 23.7857V22.0928C17.5911 21.87 18.5256 21.3392 19.2429 20.5714C19.8394 19.8969 20.1506 19.017 20.1106 18.1174C20.0706 17.2178 19.6826 16.3689 19.0286 15.75C18.4472 15.3039 17.8141 14.9297 17.1429 14.6357L16.2857 14.1857L15.3214 13.7357C13.4143 12.8571 12.8571 12.3 12.7071 11.6571C12.7046 11.5102 12.7318 11.3642 12.787 11.2279C12.8423 11.0917 12.9244 10.968 13.0286 10.8643C13.5732 10.3888 14.2773 10.1362 15 10.1571C15.6884 10.1635 16.3622 10.356 16.95 10.7143C17.1199 10.8014 17.2783 10.9094 17.4214 11.0357L17.6357 11.2071C17.8971 11.4347 18.232 11.5601 18.5786 11.5601C18.9252 11.5601 19.26 11.4347 19.5214 11.2071C19.6529 11.1035 19.7616 10.974 19.841 10.8267C19.9203 10.6793 19.9685 10.5172 19.9826 10.3504C19.9966 10.1836 19.9763 10.0158 19.9227 9.85717C19.8692 9.6986 19.7837 9.55271 19.6714 9.42857C19.2837 9.08581 18.8512 8.79745 18.3857 8.57142C17.7823 8.20928 17.1236 7.94867 16.4357 7.79999H16.2429V6.25714C16.2277 5.93036 16.0925 5.62066 15.8631 5.38737C15.6338 5.15408 15.3265 5.01361 15 4.99285Z" fill="#737C74"/>
</svg>
