<svg width="29" height="30" viewBox="0 0 29 30" fill="none" xmlns="http://www.w3.org/2000/svg">
<path d="M22.8846 0.560253C22.6943 0.56494 22.5051 0.590356 22.3203 0.636049L2.76953 5.78538C1.99675 5.98998 1.31287 6.44339 0.823569 7.07556C0.334272 7.70772 0.0668038 8.48344 0.0625 9.28283V25.8257C0.0625 27.8048 1.69273 29.435 3.67188 29.435H25.3281C27.3073 29.435 28.9375 27.8048 28.9375 25.8257V10.1852C28.9375 8.20604 27.3073 6.57582 25.3281 6.57582H9.23633L22.9219 2.96648V5.37271H25.3281V2.96648C25.3281 1.61298 24.1767 0.541003 22.8846 0.560253ZM3.67188 8.98205H25.3281C26.0091 8.98205 26.5312 9.5042 26.5312 10.1852V25.8257C26.5312 26.5066 26.0091 27.0288 25.3281 27.0288H3.67188C2.99091 27.0288 2.46875 26.5066 2.46875 25.8257V10.1852C2.46875 9.5042 2.99091 8.98205 3.67188 8.98205ZM22.3203 16.2007C21.8417 16.2007 21.3827 16.3909 21.0442 16.7293C20.7058 17.0678 20.5156 17.5268 20.5156 18.0054C20.5156 18.484 20.7058 18.9431 21.0442 19.2815C21.3827 19.6199 21.8417 19.8101 22.3203 19.8101C22.7989 19.8101 23.258 19.6199 23.5964 19.2815C23.9349 18.9431 24.125 18.484 24.125 18.0054C24.125 17.5268 23.9349 17.0678 23.5964 16.7293C23.258 16.3909 22.7989 16.2007 22.3203 16.2007Z" fill="#1A1A1A"/>
</svg>
