<svg width="30" height="30" viewBox="0 0 30 30" fill="none" xmlns="http://www.w3.org/2000/svg">
<path d="M15.0088 -0.00195312C17.9755 -0.00195313 20.8756 0.877781 23.3423 2.526C25.8091 4.17422 27.7317 6.5169 28.867 9.25779C30.0023 11.9987 30.2993 15.0147 29.7206 17.9244C29.1418 20.8341 27.7132 23.5069 25.6154 25.6046C23.5176 27.7024 20.8449 29.131 17.9351 29.7098C15.0254 30.2886 12.0094 29.9915 9.26853 28.8562C6.52764 27.7209 4.18496 25.7983 2.53674 23.3316C0.888523 20.8649 0.00878906 17.9648 0.00878906 14.998C0.00878906 11.0198 1.58914 7.20449 4.40219 4.39144C7.21523 1.5784 11.0305 -0.00195312 15.0088 -0.00195312ZM15.0088 2.56947C12.5506 2.56947 10.1477 3.2984 8.10384 4.66407C6.05998 6.02973 4.46697 7.97081 3.52629 10.2418C2.5856 12.5129 2.33947 15.0118 2.81903 17.4227C3.29859 19.8336 4.48229 22.0482 6.22046 23.7864C7.95863 25.5245 10.1732 26.7082 12.5841 27.1878C14.995 27.6674 17.494 27.4212 19.765 26.4805C22.036 25.5399 23.9771 23.9469 25.3428 21.903C26.7084 19.8591 27.4374 17.4562 27.4374 14.998C27.4374 11.7018 26.1279 8.54053 23.7971 6.20972C21.4663 3.87891 18.305 2.56947 15.0088 2.56947Z" fill="#1A1A1A"/>
<path d="M15.0088 4.9909C14.6739 4.98393 14.3488 5.10369 14.0985 5.3262C13.8482 5.5487 13.6911 5.85755 13.6588 6.1909V7.88376C12.6329 8.10914 11.6992 8.6395 10.9802 9.40518C10.6577 9.75363 10.4141 10.1676 10.2662 10.6187C10.1183 11.0699 10.0695 11.5477 10.1231 12.0195C10.1992 12.8428 10.5815 13.6075 11.1945 14.1623C11.8428 14.7153 12.5638 15.1767 13.3374 15.5338L14.2802 16.0052L15.1802 16.4338L15.9088 16.8195C16.9802 17.4195 17.3659 17.8052 17.4088 18.298C17.4194 18.4441 17.3981 18.5906 17.3463 18.7276C17.2945 18.8645 17.2134 18.9885 17.1088 19.0909C16.8214 19.3382 16.4878 19.5261 16.1274 19.6438C15.7669 19.7615 15.3868 19.8066 15.0088 19.7766C14.327 19.7846 13.6549 19.6148 13.0588 19.2838C12.861 19.1735 12.6744 19.0444 12.5016 18.898V18.7909C12.2547 18.5379 11.9219 18.3865 11.5689 18.3667C11.2159 18.3469 10.8682 18.46 10.5945 18.6838C10.4589 18.7849 10.3466 18.914 10.2653 19.0624C10.184 19.2108 10.1357 19.3749 10.1235 19.5436C10.1113 19.7124 10.1355 19.8818 10.1946 20.0403C10.2537 20.1988 10.3463 20.3427 10.4659 20.4623C10.8341 20.8481 11.2608 21.1736 11.7302 21.4266C12.1838 21.6928 12.6653 21.9084 13.1659 22.0695L13.8731 22.2409V23.7838C13.8897 24.1286 14.04 24.4534 14.2919 24.6894C14.5439 24.9254 14.8779 25.054 15.2231 25.048C15.5789 25.0522 15.9232 24.9222 16.1874 24.6838C16.3083 24.5669 16.4046 24.4271 16.4709 24.2726C16.5371 24.1181 16.5719 23.9519 16.5731 23.7838V22.0909C17.5999 21.8681 18.5344 21.3373 19.2516 20.5695C19.8482 19.895 20.1594 19.015 20.1194 18.1154C20.0794 17.2158 19.6914 16.367 19.0374 15.748C18.456 15.3019 17.8228 14.9278 17.1516 14.6338L16.2945 14.1838L15.3302 13.7338C13.4231 12.8552 12.8659 12.298 12.7159 11.6552C12.7134 11.5082 12.7406 11.3622 12.7958 11.226C12.8511 11.0898 12.9332 10.9661 13.0374 10.8623C13.582 10.3868 14.286 10.1343 15.0088 10.1552C15.6972 10.1615 16.371 10.354 16.9588 10.7123C17.1287 10.7994 17.2871 10.9074 17.4302 11.0338L17.6445 11.2052C17.9059 11.4328 18.2408 11.5582 18.5874 11.5582C18.9339 11.5582 19.2688 11.4328 19.5302 11.2052C19.6617 11.1016 19.7704 10.9721 19.8498 10.8247C19.9291 10.6773 19.9773 10.5152 19.9913 10.3485C20.0054 10.1817 19.9851 10.0138 19.9315 9.85522C19.878 9.69664 19.7925 9.55075 19.6802 9.42661C19.2925 9.08386 18.86 8.7955 18.3945 8.56947C17.7911 8.20733 17.1323 7.94672 16.4445 7.79804H16.2516V6.25518C16.2365 5.9284 16.1013 5.6187 15.8719 5.38542C15.6426 5.15213 15.3353 5.01165 15.0088 4.9909Z" fill="#1A1A1A"/>
</svg>
