<svg width="32" height="30" viewBox="0 0 32 30" fill="none" xmlns="http://www.w3.org/2000/svg">
<path d="M29.8803 8.90022C33.159 16.1264 30.1171 24.7166 23.0854 28.0863C20.5153 29.3185 17.6425 29.7224 14.8448 29.2451C12.0471 28.7677 9.45543 27.4314 7.41051 25.4119C7.14874 25.145 6.99955 24.783 6.99513 24.404C6.99072 24.025 7.13143 23.6595 7.38692 23.3862C7.6424 23.1129 7.99217 22.9538 8.36078 22.9432C8.72938 22.9326 9.08727 23.0713 9.35723 23.3295C10.9932 24.9452 13.0666 26.0142 15.3048 26.3961C17.543 26.7779 19.8413 26.4547 21.8974 25.4689C27.5226 22.7735 29.9562 15.9019 27.3336 10.1205C24.7104 4.33907 18.0244 1.83864 12.3985 4.53403C9.80422 5.77516 7.76917 7.98786 6.70939 10.7198L8.61325 10.8844C8.73621 10.8948 8.85432 10.9384 8.9557 11.0106C9.05709 11.0829 9.13817 11.1813 9.1908 11.296C9.24343 11.4107 9.26574 11.5376 9.25549 11.664C9.24524 11.7903 9.2028 11.9117 9.13242 12.0158L5.39354 17.5467C5.25454 17.7526 5.06555 17.9176 4.84531 18.0253C4.62508 18.133 4.38128 18.1795 4.13811 18.1604C3.8994 18.1413 3.67095 18.0526 3.47966 17.9046C3.28837 17.7566 3.14219 17.5555 3.05832 17.325L0.84464 11.249C0.802975 11.135 0.790062 11.0119 0.807105 10.8914C0.824147 10.7708 0.870591 10.6567 0.942112 10.5595C1.01363 10.4624 1.10791 10.3854 1.21616 10.3358C1.3244 10.2862 1.44311 10.2655 1.56122 10.2757L3.80933 10.4699C4.40985 8.60054 5.37636 6.87729 6.64934 5.40629C7.92231 3.93529 9.47481 2.74769 11.2112 1.91662C18.2436 -1.45387 26.6016 1.67257 29.8803 8.8995V8.90022ZM16.4465 6.33697C16.8009 6.33703 17.1421 6.47471 17.4019 6.72242C17.6617 6.97013 17.8208 7.30957 17.8473 7.67275L17.8516 7.78105V14.8823L22.0618 17.3582C22.3687 17.5387 22.5981 17.8315 22.7042 18.1781C22.8103 18.5247 22.7854 18.8997 22.6344 19.2283L22.5838 19.3294C22.4081 19.6447 22.1232 19.8802 21.7859 19.9892C21.4487 20.0981 21.0839 20.0724 20.7643 19.9171L20.6659 19.8652L16.1023 17.182C15.8006 17.0048 15.5463 16.7536 15.362 16.4509C15.1776 16.1482 15.069 15.8033 15.0456 15.447L15.0414 15.3018V7.78105C15.0414 7.39806 15.1895 7.03075 15.453 6.75993C15.7165 6.48911 16.0738 6.33697 16.4465 6.33697Z" fill="#1A1A1A"/>
</svg>
