<svg width="42" height="37" viewBox="0 0 42 37" fill="none" xmlns="http://www.w3.org/2000/svg">
<path fill-rule="evenodd" clip-rule="evenodd" d="M9.57614 22.04C9.66208 22.0686 9.75044 22.0894 9.84014 22.102C10.406 23.4353 10.9687 24.77 11.5281 26.106C12.5341 28.51 13.5481 30.986 13.7701 31.698C14.0481 32.574 14.3401 33.17 14.6601 33.578C14.8261 33.786 15.0161 33.97 15.2401 34.11C15.3568 34.183 15.4817 34.2421 15.6121 34.286C16.2521 34.526 16.8361 34.426 17.2021 34.304C17.4169 34.2307 17.6213 34.1299 17.8101 34.004L17.8201 34L23.4721 30.476L30.0021 35.48C30.0981 35.554 30.2021 35.616 30.3141 35.666C31.0981 36.006 31.8581 36.126 32.5741 36.03C33.2861 35.93 33.8521 35.632 34.2741 35.294C34.7587 34.9034 35.145 34.4048 35.4021 33.838L35.4201 33.794L35.4261 33.778L35.4301 33.77V33.766L35.4321 33.764C35.4669 33.678 35.4937 33.5889 35.5121 33.498L41.4721 3.448C41.491 3.35181 41.5003 3.25402 41.5001 3.156C41.5001 2.276 41.1681 1.438 40.3901 0.932003C39.7221 0.498003 38.9801 0.478003 38.5101 0.514003C38.0061 0.554003 37.5381 0.678003 37.2241 0.778003C37.0484 0.833712 36.8749 0.896429 36.7041 0.966003L36.6821 0.976003L3.25414 14.088L3.25014 14.09C3.13704 14.1316 3.02562 14.1776 2.91614 14.228C2.65106 14.3472 2.39679 14.489 2.15614 14.652C1.70214 14.962 0.656141 15.814 0.834141 17.222C0.974141 18.342 1.74214 19.032 2.21214 19.364C2.46814 19.546 2.71214 19.676 2.89214 19.762C2.97214 19.802 3.14414 19.87 3.21814 19.902L3.23814 19.908L9.57614 22.04ZM37.8521 3.736H37.8481C37.8309 3.74365 37.8136 3.75098 37.7961 3.758L4.32814 16.888C4.31092 16.895 4.29359 16.9016 4.27614 16.908L4.25614 16.914C4.195 16.938 4.13495 16.9647 4.07614 16.994C4.13181 17.0259 4.18923 17.0546 4.24814 17.08L10.5321 19.196C10.6444 19.2338 10.7519 19.2849 10.8521 19.348L31.6061 7.198L31.6261 7.188C31.7067 7.13901 31.7895 7.09364 31.8741 7.052C32.0181 6.978 32.2481 6.87 32.5081 6.79C32.6881 6.734 33.2221 6.576 33.7981 6.762C34.1037 6.8583 34.3759 7.03858 34.5839 7.28224C34.7918 7.52591 34.9271 7.82314 34.9741 8.14C35.0486 8.41751 35.0507 8.70947 34.9801 8.988C34.8401 9.538 34.4561 9.966 34.1061 10.294C33.8061 10.574 29.9141 14.326 26.0761 18.03L20.8501 23.07L19.9201 23.97L31.6641 32.974C31.8226 33.0405 31.9948 33.068 32.1661 33.054C32.2524 33.0423 32.3336 33.0062 32.4001 32.95C32.4812 32.8816 32.5508 32.8005 32.6061 32.71L32.6101 32.708L38.3901 3.562C38.2081 3.6058 38.0296 3.6633 37.8561 3.734L37.8521 3.736ZM20.9301 28.524L18.5861 26.728L18.0181 30.338L20.9301 28.524ZM16.4361 23.164L18.7661 20.914L23.9921 15.87L25.9381 13.994L12.8981 21.628L12.9681 21.792C13.7906 23.7349 14.6039 25.6816 15.4081 27.632L15.9741 24.032C16.0254 23.6981 16.1882 23.3934 16.4361 23.164Z" fill="#86F097"/>
</svg>
