<svg width="17" height="18" viewBox="0 0 17 18" fill="none" xmlns="http://www.w3.org/2000/svg">
<path d="M16.7529 1.10141C16.7018 1.05173 16.6396 1.01871 16.573 1.00593C16.5065 0.993156 16.438 1.00111 16.3752 1.02892L1.36394 7.63716C1.21091 7.70397 1.08134 7.82493 0.994746 7.98181C0.908157 8.13868 0.869244 8.32296 0.883872 8.50688C0.8985 8.69079 0.965876 8.86438 1.07585 9.00147C1.18582 9.13856 1.33242 9.23173 1.49356 9.26693L5.62228 10.1785V15.3311C5.62225 15.5304 5.6752 15.7252 5.77432 15.8905C5.87344 16.0557 6.01421 16.1839 6.17855 16.2584C6.28431 16.3062 6.39718 16.3308 6.51113 16.3309C6.6304 16.3306 6.7484 16.3033 6.85809 16.2506C6.96778 16.198 7.06693 16.121 7.14962 16.0243L9.22361 13.608L12.4087 16.75C12.5701 16.9102 12.7778 16.999 12.9931 17C13.0871 16.9996 13.1805 16.983 13.2701 16.9508C13.4168 16.8986 13.5486 16.804 13.6526 16.6765C13.7566 16.5491 13.829 16.3931 13.8627 16.2243L16.8714 1.50969C16.8865 1.43594 16.8834 1.35898 16.8626 1.28705C16.8417 1.21512 16.8038 1.15094 16.7529 1.10141ZM1.4743 8.44704C1.46996 8.40674 1.47803 8.36598 1.49717 8.33156C1.51631 8.29714 1.54536 8.27114 1.57948 8.2579L14.516 2.56287L5.84968 9.54939L1.60837 8.61285C1.57242 8.60693 1.53941 8.58716 1.51496 8.55693C1.49052 8.52669 1.47615 8.48786 1.4743 8.44704ZM6.72372 15.561C6.68275 15.6085 6.63016 15.6412 6.57263 15.6549C6.5151 15.6686 6.45524 15.6628 6.40067 15.6382C6.3461 15.6135 6.29929 15.5711 6.2662 15.5164C6.23311 15.4617 6.21523 15.3972 6.21485 15.3311V10.6401L8.77622 13.1647L6.72372 15.561ZM13.2849 16.0726C13.2735 16.1292 13.2491 16.1814 13.2142 16.2242C13.1792 16.2669 13.135 16.2986 13.0859 16.3162C13.0367 16.3338 12.9843 16.3366 12.9339 16.3245C12.8834 16.3123 12.8367 16.2855 12.7983 16.2468L6.39484 9.93016L16.15 2.06628L13.2849 16.0726Z" fill="#D6DFD7" stroke="#D6DFD7" stroke-width="0.0833508"/>
</svg>
