<svg width="12" height="14" viewBox="0 0 12 14" fill="none" xmlns="http://www.w3.org/2000/svg">
<path d="M10.9174 0.542175H4.80957C4.31113 0.542175 3.90488 0.948425 3.90488 1.44686V2.96874H0.964258C0.46582 2.96874 0.0595703 3.37499 0.0595703 3.87343V12.6062C0.0595703 13.1047 0.46582 13.5109 0.964258 13.5109H7.79551C8.29395 13.5109 8.7002 13.1047 8.7002 12.6062V10.9781H10.9174C11.4158 10.9781 11.8221 10.5719 11.8221 10.0734V4.98749C11.8221 4.73749 11.6189 4.53436 11.3689 4.53436C11.1189 4.53436 10.9158 4.73749 10.9158 4.98749V10.0734H8.7002V3.87343C8.7002 3.37499 8.29395 2.96874 7.79551 2.96874H4.80957V1.44686H10.9174V2.22186C10.9174 2.47186 11.1205 2.67499 11.3705 2.67499C11.6205 2.67499 11.8236 2.47186 11.8236 2.22186V1.43124C11.8221 0.940613 11.4158 0.542175 10.9174 0.542175ZM7.79551 12.6062H0.964258V3.87343H7.79551V12.6062Z" fill="#86F097"/>
</svg>
