<svg width="28" height="28" viewBox="0 0 28 28" fill="none" xmlns="http://www.w3.org/2000/svg">
<g clip-path="url(#clip0_2096_9596)">
<path d="M5.6 5.6V27.0667H0.933333V0.933333H13.0651H13.0666C16.7973 0.933706 20.3641 2.32399 22.985 4.78137C25.6043 7.23718 27.0635 10.5546 27.0635 14C27.0635 17.4454 25.6043 20.7628 22.985 23.2186C20.5832 25.4706 17.3871 26.8264 13.9984 27.0376V23.2917C16.2633 23.0893 18.4026 22.1543 20.0385 20.6206C21.8996 18.8756 22.9575 16.4955 22.9575 14C22.9575 11.5045 21.8996 9.12445 20.0385 7.37944C18.1798 5.63672 15.6711 4.6671 13.0668 4.66667H13.0667H13.0667H13.0666H13.0666H13.0666H13.0666H13.0666H13.0666H13.0666H13.0666H13.0666H13.0666H13.0666H13.0665H13.0665H13.0665H13.0665H13.0665H13.0665H13.0665H13.0665H13.0665H13.0665H13.0665H13.0664H13.0664H13.0664H13.0664H13.0664H13.0664H13.0664H13.0664H13.0664H13.0664H13.0663H13.0663H13.0663H13.0663H13.0663H13.0663H13.0663H13.0663H13.0663H13.0663H13.0663H13.0662H13.0662H13.0662H13.0662H13.0662H13.0662H13.0662H13.0662H13.0662H13.0662H13.0662H13.0661H13.0661H13.0661H13.0661H13.0661H13.0661H13.0661H13.0661H13.0661H13.0661H13.0661H13.066H13.066H13.066H13.066H13.066H13.066H13.066H13.066H13.066H13.066H13.0659H13.0659H13.0659H13.0659H13.0659H13.0659H13.0659H13.0659H13.0659H13.0659H13.0659H13.0658H13.0658H13.0658H13.0658H13.0658H13.0658H13.0658H13.0658H13.0658H13.0658H13.0658H13.0657H13.0657H13.0657H13.0657H13.0657H13.0657H13.0657H13.0657H13.0657H13.0657H13.0657H13.0656H13.0656H13.0656H13.0656H13.0656H13.0656H13.0656H13.0656H13.0656H13.0656H13.0655H13.0655H13.0655H13.0655H13.0655H13.0655H13.0655H13.0655H13.0655H13.0655H13.0655H13.0654H13.0654H13.0654H13.0654H13.0654H13.0654H13.0654H13.0654H13.0654H13.0654H13.0654H13.0653H13.0653H13.0653H13.0653H13.0653H13.0653H13.0653H13.0653H13.0653H13.0653H13.0652H13.0652H13.0652H13.0652H13.0652H13.0652H13.0652H13.0652H13.0652H13.0652H13.0652H13.0651H13.0651H13.0651H13.0651H13.0651H13.0651H13.0651H13.0651H6.53333H5.6V5.6Z" fill="#86F097" stroke="#86F097" stroke-width="1.86667"/>
<g clip-path="url(#clip1_2096_9596)">
<circle cx="10.0333" cy="12.1333" r="1.68" fill="#86F097" stroke="#86F097" stroke-width="1.30667"/>
<circle cx="16.9867" cy="12.1334" r="1.68" fill="#86F097" stroke="#86F097" stroke-width="1.30667"/>
</g>
</g>
<defs>
<clipPath id="clip0_2096_9596">
<rect width="28" height="28" fill="white"/>
</clipPath>
<clipPath id="clip1_2096_9596">
<rect width="11.62" height="4.66667" fill="white" transform="translate(7.7002 9.80005)"/>
</clipPath>
</defs>
</svg>
