<?xml version="1.0" standalone="no"?><!DOCTYPE svg PUBLIC "-//W3C//DTD SVG 1.1//EN" "http://www.w3.org/Graphics/SVG/1.1/DTD/svg11.dtd"><svg t="1715764409730" class="icon" viewBox="0 0 1024 1024" version="1.1" xmlns="http://www.w3.org/2000/svg" p-id="2572" xmlns:xlink="http://www.w3.org/1999/xlink" width="20" height="20"><path d="M85.333333 853.333333c-25.6 0-42.666667-17.066667-42.666666-42.666666V213.333333c0-25.6 17.066667-42.666667 42.666666-42.666666s42.666667 17.066667 42.666667 42.666666v597.333334c0 25.6-17.066667 42.666667-42.666667 42.666666z" p-id="2573" fill="#687c69"></path><path d="M938.666667 853.333333H85.333333c-25.6 0-42.666667-17.066667-42.666666-42.666666s17.066667-42.666667 42.666666-42.666667h853.333334c25.6 0 42.666667 17.066667 42.666666 42.666667s-17.066667 42.666667-42.666666 42.666666zM640 682.666667c-25.6 0-42.666667-17.066667-42.666667-42.666667V384c0-25.6 17.066667-42.666667 42.666667-42.666667s42.666667 17.066667 42.666667 42.666667v256c0 25.6-17.066667 42.666667-42.666667 42.666667zM469.333333 682.666667c-25.6 0-42.666667-17.066667-42.666666-42.666667V213.333333c0-25.6 17.066667-42.666667 42.666666-42.666666s42.666667 17.066667 42.666667 42.666666v426.666667c0 25.6-17.066667 42.666667-42.666667 42.666667zM810.666667 682.666667c-25.6 0-42.666667-17.066667-42.666667-42.666667V298.666667c0-25.6 17.066667-42.666667 42.666667-42.666667s42.666667 17.066667 42.666666 42.666667v341.333333c0 25.6-17.066667 42.666667-42.666666 42.666667zM298.666667 682.666667c-25.6 0-42.666667-17.066667-42.666667-42.666667v-110.933333c0-25.6 17.066667-42.666667 42.666667-42.666667s42.666667 17.066667 42.666666 42.666667V640c0 25.6-17.066667 42.666667-42.666666 42.666667z" p-id="2574" fill="#687c69"></path></svg>