<svg width="16" height="16" viewBox="0 0 16 16" fill="none" xmlns="http://www.w3.org/2000/svg">
<path d="M2.83333 2.41667C2.83333 2.30616 2.78943 2.20018 2.71129 2.12204C2.63315 2.0439 2.52717 2 2.41667 2C2.30616 2 2.20018 2.0439 2.12204 2.12204C2.0439 2.20018 2 2.30616 2 2.41667V11.9167C2 12.4692 2.21949 12.9991 2.61019 13.3898C3.0009 13.7805 3.5308 14 4.08333 14H13.5833C13.6938 14 13.7998 13.9561 13.878 13.878C13.9561 13.7998 14 13.6938 14 13.5833C14 13.4728 13.9561 13.3668 13.878 13.2887C13.7998 13.2106 13.6938 13.1667 13.5833 13.1667H4.08333C3.75181 13.1667 3.43387 13.035 3.19945 12.8006C2.96503 12.5661 2.83333 12.2482 2.83333 11.9167V2.41667ZM9.33333 4.41667C9.33333 4.18667 9.52 4 9.75 4H13.0833C13.3133 4 13.5 4.18667 13.5 4.41667V7.75C13.5 7.80472 13.4892 7.8589 13.4683 7.90945C13.4473 7.96 13.4167 8.00594 13.378 8.04463C13.3393 8.08332 13.2933 8.11401 13.2428 8.13495C13.1922 8.15589 13.1381 8.16667 13.0833 8.16667C13.0286 8.16667 12.9744 8.15589 12.9239 8.13495C12.8733 8.11401 12.8274 8.08332 12.7887 8.04463C12.75 8.00594 12.7193 7.96 12.6984 7.90945C12.6774 7.8589 12.6667 7.80472 12.6667 7.75V5.42267L9.29467 8.79467C9.2189 8.87036 9.1169 8.91397 9.00984 8.91646C8.90277 8.91894 8.79886 8.8801 8.71967 8.808L7.18033 7.409L4.71133 9.878C4.63318 9.95615 4.52719 10.0001 4.41667 10.0001C4.30615 10.0001 4.20015 9.95615 4.122 9.878C4.04385 9.79985 3.99995 9.69385 3.99995 9.58333C3.99995 9.47281 4.04385 9.36682 4.122 9.28867L6.872 6.53867C6.94776 6.46297 7.04976 6.41936 7.15683 6.41688C7.2639 6.4144 7.36781 6.45323 7.447 6.52533L8.98633 7.92433L12.0773 4.83333H9.75C9.52 4.83333 9.33333 4.64667 9.33333 4.41667Z" fill="#687C69"/>
</svg>
