   <svg width="40" height="40" viewBox="0 0 40 40" fill="none" xmlns="http://www.w3.org/2000/svg">
<g clip-path="url(#clip0_2660_31798)">
<path d="M20 40C31.0457 40 40 31.0457 40 20C40 8.9543 31.0457 0 20 0C8.9543 0 0 8.9543 0 20C0 31.0457 8.9543 40 20 40Z" fill="#DC6BE5"/>
<path d="M16.1513 10.0763C15.8726 10.0333 15.8609 10.0283 15.992 10.0083C16.2433 9.96987 16.8365 10.0222 17.2453 10.1188C18.1998 10.3443 19.0682 10.9219 19.9952 11.9478L20.2415 12.2203L20.5938 12.164C22.078 11.9269 23.588 12.1154 24.8509 12.6953C25.1983 12.8547 25.7461 13.1723 25.8145 13.2539C25.8363 13.2799 25.8763 13.4473 25.9034 13.6259C25.9972 14.2439 25.9503 14.7177 25.7602 15.0715C25.6566 15.264 25.6509 15.325 25.7205 15.4898C25.7761 15.6214 25.9309 15.7186 26.0842 15.7185C26.398 15.718 26.7358 15.2138 26.8923 14.5121L26.9545 14.2335L27.0776 14.3721C27.7532 15.1328 28.2839 16.1704 28.375 16.9088L28.3988 17.1014L28.2852 16.9263C28.0899 16.6251 27.8934 16.42 27.642 16.2547C27.1886 15.9566 26.7094 15.8551 25.4402 15.7887C24.2938 15.7287 23.645 15.6314 23.0016 15.4228C21.9071 15.0681 21.3553 14.5957 20.0551 12.9003C19.4776 12.1473 19.1206 11.7306 18.7656 11.395C17.9589 10.6326 17.1661 10.2327 16.1513 10.0763Z" fill="white"/>
<path d="M26.0731 11.7577C26.102 11.2531 26.1707 10.9202 26.3092 10.6162C26.364 10.4959 26.4154 10.3975 26.4234 10.3975C26.4311 10.3975 26.4074 10.4863 26.3702 10.5948C26.2697 10.8898 26.2531 11.2933 26.3225 11.7628C26.4105 12.3583 26.4605 12.4443 27.094 13.0878C27.391 13.3895 27.7367 13.7702 27.8618 13.9335L28.0897 14.2308L27.8618 14.0183C27.5834 13.7587 26.9427 13.2522 26.8012 13.1799C26.7062 13.1313 26.6922 13.1321 26.6337 13.19C26.5798 13.2434 26.5684 13.3235 26.5609 13.7025C26.5492 14.2932 26.4682 14.6723 26.2728 15.0514C26.167 15.2564 26.1502 15.2127 26.246 14.9813C26.3174 14.8084 26.3247 14.7326 26.3242 14.1608C26.323 13.0118 26.1858 12.7357 25.3811 12.2624C25.1772 12.1425 24.8412 11.9698 24.6346 11.8783C24.4279 11.7869 24.2637 11.7072 24.2697 11.7012C24.2925 11.6788 25.0772 11.9064 25.3932 12.0272C25.8631 12.2068 25.9407 12.2301 25.9977 12.2084C26.036 12.1939 26.0546 12.0832 26.0731 11.7577Z" fill="white"/>
<path d="M16.6926 13.7231C16.127 12.9493 15.7771 11.7627 15.8528 10.8757L15.8762 10.6012L16.005 10.6245C16.2468 10.6684 16.6636 10.8226 16.8588 10.9404C17.3944 11.2637 17.6263 11.6894 17.8622 12.7825C17.9313 13.1027 18.022 13.465 18.0638 13.5877C18.1309 13.7851 18.3847 14.2463 18.591 14.5458C18.7397 14.7616 18.6409 14.8638 18.3123 14.8343C17.8107 14.7893 17.131 14.323 16.6926 13.7231Z" fill="white"/>
<path d="M25.387 19.4829C22.7439 18.4252 21.813 17.5071 21.813 15.958C21.813 15.73 21.8209 15.5435 21.8305 15.5435C21.8402 15.5435 21.9424 15.6187 22.0578 15.7107C22.5938 16.1379 23.1939 16.3205 24.8554 16.5613C25.8332 16.7031 26.3834 16.8177 26.891 16.9849C28.5041 17.5167 29.5022 18.5958 29.7403 20.0657C29.8094 20.4928 29.7689 21.2937 29.6568 21.7158C29.5683 22.0492 29.2981 22.6501 29.2263 22.6732C29.2065 22.6797 29.1871 22.6039 29.1819 22.501C29.1548 21.949 28.8742 21.4117 28.403 21.0092C27.8671 20.5516 27.1472 20.1872 25.387 19.4829Z" fill="white"/>
<path d="M23.5317 19.9223C23.4986 19.7264 23.4411 19.4763 23.404 19.3664L23.3366 19.1667L23.4619 19.3064C23.6352 19.4999 23.7722 19.7473 23.8883 20.0769C23.9769 20.3284 23.9869 20.4033 23.9862 20.8121C23.9856 21.2133 23.9744 21.2975 23.8927 21.5239C23.7637 21.881 23.6034 22.1341 23.3348 22.4059C22.852 22.8943 22.2312 23.1646 21.3354 23.2769C21.1798 23.2962 20.726 23.3291 20.327 23.3497C19.3216 23.4017 18.6598 23.5091 18.0651 23.7166C17.9797 23.7464 17.9033 23.7646 17.8956 23.757C17.8714 23.7331 18.2763 23.4933 18.6108 23.3331C19.0822 23.1073 19.5517 22.9842 20.6033 22.8102C21.1228 22.7241 21.6592 22.6197 21.7956 22.5783C23.082 22.1862 23.7433 21.1745 23.5317 19.9223Z" fill="white"/>
<path d="M24.7433 22.061C24.3921 21.3106 24.3115 20.5862 24.5039 19.9106C24.5245 19.8384 24.5575 19.7793 24.5775 19.7793C24.5974 19.7793 24.6803 19.8239 24.7616 19.8782C24.9234 19.9865 25.2481 20.1689 26.1126 20.6374C27.1916 21.2221 27.8069 21.6749 28.2252 22.1921C28.5916 22.6451 28.8183 23.1611 28.9274 23.7903C28.9892 24.1465 28.953 25.0041 28.861 25.3629C28.5709 26.4944 27.8966 27.3832 26.935 27.9019C26.7941 27.9779 26.6676 28.0402 26.654 28.0405C26.6402 28.0407 26.6916 27.911 26.7681 27.7522C27.0914 27.0801 27.1283 26.4263 26.8838 25.6985C26.734 25.253 26.4286 24.7092 25.8122 23.7903C25.0953 22.722 24.9196 22.4376 24.7433 22.061Z" fill="white"/>
<path d="M14.8155 26.1093C15.7963 25.2861 17.0168 24.7015 18.1284 24.5219C18.6074 24.4446 19.4055 24.4753 19.8492 24.5881C20.5603 24.769 21.1964 25.1741 21.5273 25.6568C21.8507 26.1286 21.9893 26.5397 22.1338 27.4544C22.1908 27.8153 22.2527 28.1775 22.2714 28.2595C22.3799 28.7336 22.591 29.1124 22.8525 29.3028C23.2679 29.605 23.9832 29.6237 24.6869 29.3509C24.8062 29.3046 24.9099 29.2726 24.9172 29.2798C24.9428 29.305 24.5884 29.5407 24.3384 29.6648C24.0021 29.8318 23.7347 29.8964 23.3793 29.8964C22.7349 29.8964 22.1998 29.5706 21.7533 28.9061C21.6654 28.7754 21.468 28.3838 21.3145 28.0358C20.8431 26.9673 20.6103 26.6417 20.063 26.2855C19.5868 25.9755 18.9724 25.9199 18.5103 26.1451C17.9033 26.441 17.734 27.2119 18.1688 27.7006C18.3415 27.8948 18.6638 28.0621 18.9272 28.0948C19.4202 28.1558 19.8438 27.783 19.8438 27.2884C19.8438 26.9673 19.7195 26.7839 19.4069 26.6437C18.9799 26.4521 18.5209 26.6761 18.523 27.0748C18.524 27.2448 18.5984 27.3515 18.77 27.4287C18.88 27.4781 18.8825 27.482 18.7928 27.4635C18.401 27.3828 18.3092 26.9133 18.6242 26.6016C19.0024 26.2275 19.7847 26.3926 20.0532 26.9034C20.1661 27.1179 20.1791 27.5451 20.0808 27.803C19.8605 28.3806 19.2187 28.6841 18.5673 28.5189C18.124 28.4064 17.9434 28.2846 17.4089 27.7373C16.4799 26.7861 16.1193 26.6019 14.7801 26.3941L14.5234 26.3544L14.8155 26.1093Z" fill="white"/>
<path fill-rule="evenodd" clip-rule="evenodd" d="M10.4569 9.08742C13.559 12.8296 15.6957 14.3736 15.9331 14.6997C16.1291 14.9691 16.0553 15.2113 15.7196 15.4011C15.5328 15.5065 15.1488 15.6134 14.9566 15.6134C14.7391 15.6134 14.6644 15.5301 14.6644 15.5301C14.5383 15.4112 14.4673 15.4321 13.8199 14.2897C12.921 12.9035 12.1688 11.7535 12.1482 11.7342C12.1008 11.6897 12.1016 11.6912 13.7282 14.5839C13.991 15.1868 13.7804 15.4082 13.7804 15.4941C13.7804 15.6687 13.7326 15.7605 13.5157 16.0009C13.1543 16.4016 12.9927 16.8519 12.8761 17.7838C12.7453 18.8286 12.3777 19.5665 11.3588 20.8295C10.7623 21.5688 10.6647 21.7043 10.5142 22.0023C10.3247 22.3775 10.2725 22.5877 10.2514 23.0615C10.2291 23.5625 10.2726 23.8863 10.4266 24.3652C10.5614 24.7846 10.7021 25.0615 11.0619 25.6153C11.3723 26.0932 11.5511 26.4485 11.5511 26.5874C11.5511 26.6979 11.5723 26.6981 12.0534 26.5901C13.2049 26.3317 14.1398 25.8772 14.6656 25.3202C14.991 24.9754 15.0673 24.7851 15.0699 24.3127C15.0714 24.0037 15.0606 23.9389 14.9766 23.7612C14.8397 23.4718 14.5907 23.2313 14.0418 22.8584C13.3226 22.3697 13.0153 21.9763 12.9304 21.4353C12.8609 20.9914 12.9417 20.6782 13.3394 19.8493C13.7513 18.9914 13.8533 18.6258 13.9224 17.7611C13.967 17.2024 14.0288 16.9821 14.1902 16.8052C14.3587 16.6207 14.5103 16.5583 14.9272 16.5017C15.6068 16.4094 16.0396 16.2347 16.3952 15.9089C16.7038 15.6263 16.8329 15.3539 16.8527 14.9441L16.8678 14.6333L16.6953 14.4335C16.0709 13.7098 10.0387 8.51855 10.0002 8.51855C9.99204 8.51855 10.1975 8.77455 10.4569 9.08742ZM11.9017 23.6285C12.0429 23.3798 11.9679 23.0605 11.7317 22.9043C11.5086 22.7569 11.1619 22.8264 11.1619 23.0185C11.1619 23.0772 11.1946 23.1198 11.268 23.1575C11.3919 23.2207 11.4009 23.2921 11.3034 23.4375C11.2048 23.5849 11.2128 23.7145 11.3259 23.8025C11.5083 23.9445 11.7664 23.8664 11.9017 23.6285Z" fill="white"/>
<path fill-rule="evenodd" clip-rule="evenodd" d="M17.2967 16.6648C16.9777 16.7622 16.6676 17.0982 16.5716 17.4506C16.513 17.6656 16.5463 18.0426 16.6339 18.1592C16.7757 18.3472 16.9127 18.3968 17.2838 18.3942C18.0104 18.3892 18.6419 18.0794 18.7154 17.6923C18.7756 17.375 18.4982 16.9351 18.1162 16.742C17.9189 16.6424 17.4996 16.6029 17.2967 16.6648ZM18.146 17.3249C18.2582 17.1666 18.209 16.9956 18.0186 16.88C17.6557 16.6598 17.1069 16.842 17.1069 17.1828C17.1069 17.3523 17.393 17.5373 17.6554 17.5373C17.8299 17.5373 18.0689 17.4339 18.146 17.3249Z" fill="white"/>
</g>
<defs>
<clipPath id="clip0_2660_31798">
<rect width="40" height="40" fill="white"/>
</clipPath>
</defs>
</svg>
