<svg width="124" height="124" viewBox="0 0 124 124" fill="none" xmlns="http://www.w3.org/2000/svg">
<path d="M57.8663 0.000810108H57.8733C75.4105 0.00256077 92.229 6.53445 104.63 18.1601C117.032 29.7873 124 45.5571 124 62.0004C124 78.4438 117.032 94.2136 104.63 105.841C92.2274 117.468 75.406 124 57.8662 124V99.2002C68.3901 99.2002 78.4829 95.2809 85.9244 88.3046C93.3659 81.3283 97.5465 71.8664 97.5465 62.0004C97.5465 52.1345 93.366 42.6725 85.9245 35.6962C78.4846 28.7215 68.3946 24.8024 57.8733 24.8007H57.8662H28.9366V99.2002V124H0L1.13264e-05 114.339V24.8007V0.000814522C1.13264e-05 0.000814522 7.29241 0.00263286 14.4666 0.000810108C21.6279 -0.00100939 28.9071 0.000803628 28.9331 0.000810108H28.9343H57.8663Z" fill="#86F097"/>
</svg>
