<svg width="14" height="14" viewBox="0 0 14 14" fill="none" xmlns="http://www.w3.org/2000/svg">
<path d="M0.82232 14C0.61674 14 0.41116 13.9178 0.246696 13.7533C-0.082232 13.4244 -0.082232 12.9104 0.246696 12.5815L12.5815 0.246696C12.9104 -0.082232 13.4244 -0.082232 13.7533 0.246696C14.0822 0.575624 14.0822 1.08957 13.7533 1.4185L1.4185 13.7533C1.23348 13.9178 1.0279 14 0.82232 14Z" fill="white"/>
<path d="M13.1571 14C12.9515 14 12.746 13.9178 12.5815 13.7533L0.246696 1.4185C-0.082232 1.08957 -0.082232 0.575624 0.246696 0.246696C0.575624 -0.082232 1.08957 -0.082232 1.4185 0.246696L13.7533 12.5815C14.0822 12.9104 14.0822 13.4244 13.7533 13.7533C13.5683 13.9178 13.3627 14 13.1571 14Z" fill="white"/>
</svg>
