<svg width="18" height="18" viewBox="0 0 18 18" fill="none" xmlns="http://www.w3.org/2000/svg">
<path d="M16.335 18H1.665C1.22382 17.9987 0.801087 17.8228 0.489124 17.5109C0.177161 17.1989 0.00131893 16.7762 0 16.335V1.665C0.00131893 1.22382 0.177161 0.801087 0.489124 0.489124C0.801087 0.177161 1.22382 0.00131893 1.665 0H9.25C9.44891 4.19176e-09 9.63968 0.0790175 9.78033 0.21967C9.92098 0.360322 10 0.551088 10 0.75C10 0.948912 9.92098 1.13968 9.78033 1.28033C9.63968 1.42098 9.44891 1.5 9.25 1.5H1.665C1.62124 1.5 1.57927 1.51738 1.54833 1.54833C1.51738 1.57927 1.5 1.62124 1.5 1.665V16.335C1.5 16.3788 1.51738 16.4207 1.54833 16.4517C1.57927 16.4826 1.62124 16.5 1.665 16.5H16.335C16.3788 16.5 16.4207 16.4826 16.4517 16.4517C16.4826 16.4207 16.5 16.3788 16.5 16.335V8.25C16.5 8.05109 16.579 7.86032 16.7197 7.71967C16.8603 7.57902 17.0511 7.5 17.25 7.5C17.4489 7.5 17.6397 7.57902 17.7803 7.71967C17.921 7.86032 18 8.05109 18 8.25V16.335C17.9987 16.7762 17.8228 17.1989 17.5109 17.5109C17.1989 17.8228 16.7762 17.9987 16.335 18Z" fill="white"/>
<path d="M8.25005 10.5C8.05131 10.4993 7.86088 10.4202 7.72005 10.28C7.64991 10.2107 7.59421 10.1282 7.5562 10.0372C7.51819 9.94621 7.49862 9.84859 7.49862 9.74999C7.49862 9.65139 7.51819 9.55377 7.5562 9.46279C7.59421 9.37181 7.64991 9.28928 7.72005 9.21999L16.47 0.46999C16.6122 0.33751 16.8003 0.265387 16.9946 0.268815C17.1889 0.272243 17.3743 0.350955 17.5117 0.488368C17.6491 0.625781 17.7278 0.811166 17.7312 1.00547C17.7347 1.19977 17.6625 1.38781 17.5301 1.52999L8.78005 10.28C8.63922 10.4202 8.44879 10.4993 8.25005 10.5Z" fill="white"/>
</svg>
