<svg width="28" height="24" viewBox="0 0 28 24" fill="none" xmlns="http://www.w3.org/2000/svg">
<path d="M26.6667 10.7956H27.5667C27.5667 10.2986 27.1637 9.89562 26.6667 9.89562V10.7956ZM26.6667 16.8978V17.7978C27.1637 17.7978 27.5667 17.3949 27.5667 16.8978H26.6667ZM20.4937 1L21.3538 0.735176C21.2124 0.275741 20.7348 0.00857324 20.2693 0.128417L20.4937 1ZM20.7706 4.95826L21.0355 5.81841L22.7558 5.28876L22.491 4.42861L20.7706 4.95826ZM4.89873 5.9146H22.7679V4.1146H4.89873V5.9146ZM25.7667 8.86861V19.146H27.5667V8.86861H25.7667ZM22.7679 22.1H4.89873V23.9H22.7679V22.1ZM1.9 19.146V8.86861H0.1V19.146H1.9ZM4.89873 22.1C3.23276 22.1 1.9 20.7677 1.9 19.146H0.1C0.1 21.7813 2.25828 23.9 4.89873 23.9V22.1ZM25.7667 19.146C25.7667 20.7677 24.4339 22.1 22.7679 22.1V23.9C25.4084 23.9 27.5667 21.7813 27.5667 19.146H25.7667ZM22.7679 5.9146C24.4339 5.9146 25.7667 7.24692 25.7667 8.86861H27.5667C27.5667 6.23328 25.4084 4.1146 22.7679 4.1146V5.9146ZM4.89873 4.1146C2.25828 4.1146 0.1 6.23328 0.1 8.86861H1.9C1.9 7.24692 3.23276 5.9146 4.89873 5.9146V4.1146ZM19.6814 11.6956H26.6667V9.89562H19.6814V11.6956ZM25.7667 10.7956V16.8978H27.5667V10.7956H25.7667ZM26.6667 15.9978H19.6814V17.7978H26.6667V15.9978ZM19.6814 15.9978C18.464 15.9978 17.4949 15.025 17.4949 13.8467H15.6949C15.6949 16.0386 17.4896 17.7978 19.6814 17.7978V15.9978ZM19.6814 9.89562C17.4896 9.89562 15.6949 11.6548 15.6949 13.8467H17.4949C17.4949 12.6685 18.464 11.6956 19.6814 11.6956V9.89562ZM19.5937 13.6861C19.5937 13.5341 19.7155 13.4285 19.8439 13.4285V15.2285C20.69 15.2285 21.3937 14.5477 21.3937 13.6861H19.5937ZM19.8439 13.4285C19.9723 13.4285 20.0941 13.5341 20.0941 13.6861H18.2941C18.2941 14.5477 18.9978 15.2285 19.8439 15.2285V13.4285ZM20.0941 13.6861C20.0941 13.8382 19.9723 13.9438 19.8439 13.9438V12.1438C18.9978 12.1438 18.2941 12.8246 18.2941 13.6861H20.0941ZM19.8439 13.9438C19.7155 13.9438 19.5937 13.8382 19.5937 13.6861H21.3937C21.3937 12.8246 20.69 12.1438 19.8439 12.1438V13.9438ZM5.12311 5.88618L20.718 1.87158L20.2693 0.128417L4.67436 4.14302L5.12311 5.88618ZM19.6335 1.26482L20.7706 4.95826L22.491 4.42861L21.3538 0.735176L19.6335 1.26482Z" fill="#86F097"/>
</svg>
