<svg width="24" height="22" viewBox="0 0 24 22" fill="none" xmlns="http://www.w3.org/2000/svg">
<path d="M3.96261 0C3.14981 0.000211518 2.36297 0.283564 1.73975 0.800481C1.11653 1.3174 0.696627 2.03496 0.553508 2.82762C0.517834 2.93514 0.49977 3.04763 0.500002 3.16081V16.5977C0.500002 17.6822 0.934875 18.7223 1.70895 19.4892C2.48303 20.2561 3.53291 20.6869 4.62762 20.6869H10.0058C10.2896 20.6869 10.5618 20.5752 10.7624 20.3764C10.9631 20.1776 11.0759 19.9079 11.0759 19.6267C11.0759 19.3456 10.9631 19.0759 10.7624 18.8771C10.5618 18.6783 10.2896 18.5666 10.0058 18.5666H4.62762C4.10054 18.5666 3.59504 18.3591 3.22234 17.9899C2.84963 17.6207 2.64025 17.1199 2.64025 16.5977V6.60182C3.04842 6.76841 3.49482 6.86232 3.96261 6.86232H18.394C18.9211 6.86232 19.4266 7.06975 19.7993 7.43899C20.172 7.80823 20.3814 8.30902 20.3814 8.8312V10.2851C20.3814 10.5663 20.4941 10.836 20.6948 11.0348C20.8955 11.2336 21.1677 11.3453 21.4515 11.3453C21.7353 11.3453 22.0075 11.2336 22.2082 11.0348C22.4089 10.836 22.5216 10.5663 22.5216 10.2851V8.8312C22.5216 8.29419 22.4148 7.76245 22.2074 7.26632C22 6.7702 21.6959 6.3194 21.3127 5.93968C20.9294 5.55996 20.4743 5.25876 19.9736 5.05325C19.4728 4.84775 18.936 4.74198 18.394 4.74198H18.1677V3.33347C18.1677 2.44978 17.8134 1.60228 17.1827 0.977422C16.5519 0.352559 15.6965 0.00151442 14.8045 0.00151442H3.96261V0ZM3.96261 4.74047C3.6119 4.74047 3.27555 4.60244 3.02756 4.35676C2.77957 4.11107 2.64025 3.77785 2.64025 3.4304C2.64025 3.08295 2.77957 2.74973 3.02756 2.50404C3.27555 2.25836 3.6119 2.12034 3.96261 2.12034H14.8045C15.1288 2.12034 15.4399 2.24799 15.6693 2.47521C15.8986 2.70243 16.0275 3.01061 16.0275 3.33196V4.74047H3.96261Z" fill="white"/>
<path d="M18.4093 11.9117C18.5699 11.9117 18.7289 11.9431 18.8773 12.004C19.0257 12.0649 19.1605 12.1541 19.2741 12.2666C19.3876 12.3791 19.4777 12.5127 19.5392 12.6597C19.6006 12.8067 19.6323 12.9643 19.6323 13.1234V15.745H22.277C22.6014 15.745 22.9124 15.8727 23.1418 16.0999C23.3711 16.3271 23.5 16.6353 23.5 16.9566C23.5 17.278 23.3711 17.5862 23.1418 17.8134C22.9124 18.0406 22.6014 18.1682 22.277 18.1682H19.6323V20.7884C19.6323 21.1097 19.5034 21.4179 19.2741 21.6451C19.0447 21.8723 18.7336 22 18.4093 22C18.0849 22 17.7738 21.8723 17.5445 21.6451C17.3151 21.4179 17.1863 21.1097 17.1863 20.7884V18.1682H14.5415C14.2172 18.1682 13.9061 18.0406 13.6768 17.8134C13.4474 17.5862 13.3185 17.278 13.3185 16.9566C13.3185 16.6353 13.4474 16.3271 13.6768 16.0999C13.9061 15.8727 14.2172 15.745 14.5415 15.745H17.1863V13.1249C17.1863 12.9658 17.2179 12.8082 17.2794 12.6612C17.3408 12.5142 17.4309 12.3806 17.5445 12.2681C17.658 12.1556 17.7929 12.0664 17.9413 12.0055C18.0896 11.9446 18.2487 11.9133 18.4093 11.9133V11.9117Z" fill="white"/>
</svg>
