<svg width="26" height="17" viewBox="0 0 26 17" fill="none" xmlns="http://www.w3.org/2000/svg">
<path d="M5.32459 3.34166C9.56368 -0.807502 16.4363 -0.807502 20.6754 3.34166L21.1857 3.84216C21.2359 3.89094 21.2758 3.94929 21.3031 4.01376C21.3303 4.07824 21.3444 4.14754 21.3444 4.21754C21.3444 4.28754 21.3303 4.35684 21.3031 4.42132C21.2758 4.48579 21.2359 4.54414 21.1857 4.59292L19.4404 6.30133C19.3891 6.35123 19.3203 6.37915 19.2487 6.37915C19.1771 6.37915 19.1083 6.35123 19.0569 6.30133L18.3549 5.6145C15.3974 2.71983 10.6026 2.71983 7.64509 5.6145L6.89434 6.35117C6.84299 6.40106 6.7742 6.42898 6.70259 6.42898C6.63099 6.42898 6.5622 6.40106 6.51084 6.35117L4.76451 4.64167C4.71429 4.5929 4.67437 4.53454 4.6471 4.47007C4.61984 4.40559 4.60579 4.3363 4.60579 4.26629C4.60579 4.19629 4.61984 4.12699 4.6471 4.06251C4.67437 3.99804 4.71429 3.93969 4.76451 3.89092L5.32459 3.34166ZM24.2851 6.87658L25.8386 8.39758C25.8888 8.44635 25.9287 8.5047 25.956 8.56918C25.9833 8.63366 25.9973 8.70295 25.9973 8.77296C25.9973 8.84296 25.9833 8.91225 25.956 8.97673C25.9287 9.04121 25.8888 9.09956 25.8386 9.14833L18.8348 16.0058C18.7319 16.1057 18.5942 16.1616 18.4508 16.1616C18.3074 16.1616 18.1697 16.1057 18.0668 16.0058L13.0964 11.1384C13.0707 11.1131 13.0361 11.099 13 11.099C12.9639 11.099 12.9293 11.1131 12.9036 11.1384L7.93326 16.0058C7.83041 16.1054 7.69289 16.161 7.54976 16.161C7.40663 16.161 7.26911 16.1054 7.16626 16.0058L0.162511 9.14833C0.112123 9.09955 0.0720582 9.04113 0.0446965 8.97655C0.0173347 8.91197 0.00323486 8.84255 0.00323486 8.77242C0.00323486 8.70228 0.0173347 8.63286 0.0446965 8.56828C0.0720582 8.5037 0.112123 8.44529 0.162511 8.3965L1.71601 6.8755C1.81886 6.77595 1.95638 6.7203 2.09951 6.7203C2.24264 6.7203 2.38016 6.77595 2.48301 6.8755L7.45334 11.7429C7.50751 11.7949 7.59309 11.7949 7.64618 11.7429L12.6165 6.87658C12.7194 6.77704 12.8569 6.72138 13 6.72138C13.1431 6.72138 13.2807 6.77704 13.3835 6.87658L18.3549 11.7429C18.3806 11.7679 18.415 11.7818 18.4508 11.7818C18.4866 11.7818 18.521 11.7679 18.5467 11.7429L23.517 6.87658C23.6199 6.77704 23.7574 6.72138 23.9005 6.72138C24.0436 6.72138 24.1812 6.77704 24.284 6.87658H24.2851Z" fill="#4096FE"/>
</svg>
