<svg width="17" height="16" viewBox="0 0 17 16" fill="none" xmlns="http://www.w3.org/2000/svg">
<g clip-path="url(#clip0_2253_54514)">
<path d="M8.35636 15.9999C3.94641 15.9999 0.356445 12.4099 0.356445 7.99995C0.356445 3.58999 3.94641 3.05176e-05 8.35636 3.05176e-05C12.7663 3.05176e-05 16.3563 3.58999 16.3563 7.99995C16.3563 12.4099 12.7663 15.9999 8.35636 15.9999ZM8.35636 0.800022C4.3864 0.800022 1.15644 4.02999 1.15644 7.99995C1.15644 11.9699 4.3864 15.1999 8.35636 15.1999C12.3263 15.1999 15.5563 11.9699 15.5563 7.99995C15.5563 4.02999 12.3263 0.800022 8.35636 0.800022Z" fill="#D6DFD7"/>
<path d="M8.35654 15.9999C8.13654 15.9999 7.95654 15.8199 7.95654 15.5999V0.400057C7.95654 0.180059 8.13654 6.10543e-05 8.35654 6.10352e-05C8.57654 6.1016e-05 8.75653 0.180059 8.75653 0.400057V15.5999C8.75653 15.8199 8.57654 15.9999 8.35654 15.9999Z" fill="#D6DFD7"/>
<path d="M15.9563 8.4H0.756441C0.536443 8.4 0.356445 8.22 0.356445 8C0.356445 7.78 0.536443 7.60001 0.756441 7.60001H15.9563C16.1763 7.60001 16.3563 7.78 16.3563 8C16.3563 8.22 16.1763 8.4 15.9563 8.4Z" fill="#D6DFD7"/>
<path d="M2.91642 13.7001C2.81642 13.7001 2.70642 13.6601 2.62642 13.5801C1.16644 12.0801 0.356445 10.0901 0.356445 8.00014C0.356445 5.91016 1.16644 3.92018 2.62642 2.4202C2.77642 2.2602 3.03642 2.2602 3.19642 2.4102C3.35641 2.5602 3.35642 2.82019 3.20642 2.98019C1.88643 4.33018 1.15644 6.11016 1.15644 8.00014C1.15644 9.89012 1.88643 11.6701 3.19642 13.0201C3.34641 13.1801 3.34642 13.4301 3.18642 13.5901C3.11642 13.6601 3.01642 13.7001 2.91642 13.7001Z" fill="#D6DFD7"/>
<path d="M8.20635 15.9999C8.19635 15.9999 8.19635 15.9999 8.20635 15.9999C6.08637 15.9599 4.10639 15.0999 2.6264 13.5799C2.47641 13.4199 2.47641 13.1799 2.6264 13.0199C3.3764 12.2499 4.24639 11.6499 5.22638 11.2399C5.32638 11.1999 5.43638 11.1999 5.53638 11.2399C5.63638 11.2799 5.71637 11.3599 5.75637 11.4599C6.32637 12.9299 7.26636 14.2599 8.46635 15.2899C8.59635 15.3999 8.63635 15.5799 8.57635 15.7399C8.51635 15.8899 8.36635 15.9999 8.20635 15.9999ZM3.4864 13.2999C4.50639 14.2399 5.74637 14.8499 7.09636 15.0899C6.28637 14.2299 5.63637 13.2299 5.16638 12.1499C4.55639 12.4499 3.98639 12.8299 3.4864 13.2999ZM5.37638 4.79C5.32638 4.79 5.26638 4.78 5.21638 4.76C4.23639 4.34001 3.3664 3.74001 2.61641 2.98002C2.46641 2.82002 2.46641 2.58002 2.61641 2.42003C4.10639 0.900041 6.07637 0.0500498 8.19635 5.03183e-05C8.36635 -0.00994958 8.51635 0.100049 8.57635 0.260048C8.63635 0.420046 8.58635 0.600044 8.46635 0.710043C7.25636 1.74003 6.31637 3.06002 5.74637 4.54C5.70637 4.64 5.62637 4.72 5.52638 4.76C5.48638 4.78 5.42638 4.79 5.37638 4.79ZM3.4864 2.70002C3.99639 3.17002 4.55639 3.55001 5.16638 3.86001C5.63637 2.78002 6.29637 1.78003 7.09636 0.920041C5.74637 1.15004 4.50639 1.76003 3.4864 2.70002ZM13.7963 13.6999C13.6963 13.6999 13.5963 13.6599 13.5163 13.5899C13.3563 13.4399 13.3563 13.1799 13.5063 13.0199C14.8263 11.6699 15.5563 9.88995 15.5563 7.99997C15.5563 6.10999 14.8263 4.33001 13.5163 2.98002C13.3663 2.82002 13.3663 2.57002 13.5263 2.41003C13.6863 2.26003 13.9363 2.26003 14.0963 2.42003C15.5463 3.92001 16.3563 5.90999 16.3563 7.99997C16.3563 10.0899 15.5463 12.0799 14.0863 13.5799C14.0063 13.6599 13.9063 13.6999 13.7963 13.6999Z" fill="#D6DFD7"/>
<path d="M8.40654 15.9998C8.23654 15.9998 8.08654 15.8998 8.03654 15.7398C7.97654 15.5798 8.02654 15.4098 8.14654 15.2998C9.36653 14.2598 10.3065 12.9198 10.8765 11.4299C10.9165 11.3299 10.9965 11.2499 11.0965 11.2099C11.1965 11.1699 11.3065 11.1699 11.4065 11.2099C12.4165 11.6299 13.3265 12.2399 14.0965 13.0298C14.2465 13.1898 14.2465 13.4298 14.0965 13.5898C12.5865 15.1298 10.5665 15.9798 8.40654 15.9998ZM11.4665 12.0999C10.9865 13.2098 10.3265 14.2298 9.49653 15.1098C10.8865 14.8898 12.1765 14.2698 13.2265 13.2998C12.6965 12.8099 12.1065 12.4099 11.4665 12.0999ZM11.2465 4.82993C11.1965 4.82993 11.1365 4.81993 11.0865 4.79993C10.9865 4.75993 10.9065 4.67993 10.8665 4.57993C10.2965 3.08995 9.35653 1.74996 8.13654 0.709972C8.00654 0.599973 7.96654 0.419975 8.02654 0.269977C8.08654 0.109978 8.23654 0.00997927 8.39654 0.00997925C10.5565 0.0199791 12.5665 0.87997 14.0765 2.42995C14.2265 2.58995 14.2265 2.82995 14.0765 2.98995C13.3065 3.77994 12.4065 4.38994 11.3865 4.80993C11.3565 4.81993 11.2965 4.82993 11.2465 4.82993ZM9.49653 0.88997C10.3165 1.76996 10.9865 2.78995 11.4665 3.89994C12.1065 3.58994 12.7065 3.18995 13.2265 2.69995C12.1765 1.72996 10.8865 1.10997 9.49653 0.88997Z" fill="#D6DFD7"/>
<path d="M5.37638 12.0101C5.32638 12.0101 5.26638 12.0001 5.21638 11.9801C5.11638 11.9401 5.03638 11.8601 4.99638 11.7601C4.53638 10.5601 4.29639 9.30008 4.29639 8.01009C4.29639 6.7201 4.52638 5.46012 4.99638 4.26013C5.03638 4.16013 5.11638 4.08013 5.21638 4.04013C5.31638 4.00013 5.42638 4.00013 5.52637 4.04013C6.42637 4.41013 7.37636 4.60013 8.35635 4.60013C9.30634 4.60013 10.2263 4.42013 11.0963 4.06013C11.1963 4.02013 11.3063 4.02013 11.4063 4.06013C11.5063 4.10013 11.5863 4.18013 11.6263 4.28013C12.0763 5.47012 12.3063 6.7201 12.3063 7.99009C12.3063 9.27008 12.0763 10.5201 11.6263 11.7001C11.5863 11.8001 11.5063 11.8801 11.4063 11.9201C11.3063 11.9601 11.1963 11.9601 11.0963 11.9201C10.2263 11.5601 9.30634 11.3801 8.35635 11.3801C7.37636 11.3801 6.42637 11.5701 5.53637 11.9501C5.48637 12.0001 5.42638 12.0101 5.37638 12.0101ZM5.61637 4.92012C5.27638 5.91011 5.10638 6.9501 5.10638 8.00009C5.10638 9.05008 5.27638 10.0901 5.61637 11.0801C6.49636 10.7601 7.41635 10.6001 8.35635 10.6001C9.26634 10.6001 10.1563 10.7501 11.0063 11.0501C11.3363 10.0701 11.5063 9.04008 11.5063 8.00009C11.5063 6.9501 11.3363 5.93011 11.0063 4.95012C10.1563 5.25012 9.26634 5.40012 8.35635 5.40012C7.40636 5.40012 6.48636 5.24012 5.61637 4.92012Z" fill="#D6DFD7"/>
</g>
<defs>
<clipPath id="clip0_2253_54514">
<rect width="16" height="16" fill="white" transform="translate(0.356445)"/>
</clipPath>
</defs>
</svg>
