<svg width="35" height="35" viewBox="0 0 35 35" fill="none" xmlns="http://www.w3.org/2000/svg">
<path d="M32.6634 18.2954H2.56039C1.88922 18.2954 1.34235 17.7486 1.34235 17.0774C1.34235 16.4062 1.88922 15.8594 2.56039 15.8594H32.6634C33.3345 15.8594 33.8814 16.4062 33.8814 17.0774C33.9063 17.7486 33.3594 18.2954 32.6634 18.2954Z" fill="white"/>
<path d="M16.2571 32.5639V2.46094C16.2571 1.78977 16.804 1.2429 17.4752 1.2429C18.1463 1.2429 18.6932 1.78977 18.6932 2.46094V32.5639C18.6932 33.2351 18.1463 33.782 17.4752 33.782C16.804 33.782 16.2571 33.2351 16.2571 32.5639Z" fill="white"/>
<path d="M17.5 35C7.85511 35 0 27.1449 0 17.5C0 7.85511 7.85511 0 17.5 0C27.1449 0 35 7.85511 35 17.5C35 27.1449 27.1449 35 17.5 35ZM17.5 2.38636C9.17259 2.38636 2.38636 9.17259 2.38636 17.5C2.38636 25.8274 9.17259 32.6136 17.5 32.6136C25.8274 32.6136 32.6136 25.8274 32.6136 17.5C32.6136 9.17259 25.8274 2.38636 17.5 2.38636Z" fill="white"/>
<path d="M14.9148 34.4282C-0.894837 14.9893 14.89 0.621425 15.0391 0.472277L16.63 2.26205C16.0334 2.78407 2.41127 15.2876 16.7543 32.9368L14.9148 34.4282ZM20.5079 34.4282L18.6684 32.9368C33.0114 15.3125 19.3893 2.80892 18.7927 2.26205L20.3836 0.472277C20.5327 0.621425 36.3175 15.0142 20.5079 34.4282Z" fill="white"/>
</svg>
