<?xml version="1.0" standalone="no"?><!DOCTYPE svg PUBLIC "-//W3C//DTD SVG 1.1//EN" "http://www.w3.org/Graphics/SVG/1.1/DTD/svg11.dtd"><svg t="1719313990310" class="icon" viewBox="0 0 1024 1024" version="1.1" xmlns="http://www.w3.org/2000/svg" p-id="15944" xmlns:xlink="http://www.w3.org/1999/xlink" width="200" height="200"><path d="M512 42.666667C385.877333 42.666667 267.52 92.714667 180.138667 180.138667A467.925333 467.925333 0 0 0 42.666667 512c0 126.122667 50.048 244.48 137.472 331.861333A467.925333 467.925333 0 0 0 512 981.333333c126.122667 0 244.48-50.048 331.861333-137.472A467.925333 467.925333 0 0 0 981.333333 512c0-126.122667-50.048-244.48-137.472-331.861333A467.925333 467.925333 0 0 0 512 42.666667z m0 85.333333c103.253333 0 199.936 40.874667 271.530667 112.469333A382.592 382.592 0 0 1 896 512c0 103.253333-40.874667 199.936-112.469333 271.530667A382.592 382.592 0 0 1 512 896a382.592 382.592 0 0 1-271.530667-112.469333A382.592 382.592 0 0 1 128 512c0-103.253333 40.874667-199.936 112.469333-271.530667A382.592 382.592 0 0 1 512 128z" fill="#bfbfbf" p-id="15945"></path><path d="M512 213.333333a53.333333 53.333333 0 1 0 0 106.666667A53.333333 53.333333 0 0 0 512 213.333333z m0 576a42.666667 42.666667 0 0 1-42.368-37.674666L469.333333 746.666667v-341.333334a42.666667 42.666667 0 0 1 85.034667-4.992L554.666667 405.333333v341.333334a42.666667 42.666667 0 0 1-42.666667 42.666666z" fill="#bfbfbf" p-id="15946"></path></svg>