<?xml version="1.0" standalone="no"?><!DOCTYPE svg PUBLIC "-//W3C//DTD SVG 1.1//EN" "http://www.w3.org/Graphics/SVG/1.1/DTD/svg11.dtd"><svg t="1714296481295" class="icon" viewBox="0 0 1024 1024" version="1.1" xmlns="http://www.w3.org/2000/svg" p-id="10575" xmlns:xlink="http://www.w3.org/1999/xlink" width="200" height="200"><path d="M641.969231 887.729231v-76.091077c-77.193846-20.952615-138.594462-43.913846-184.162462-68.923077 65.417846-61.046154 106.968615-140.8 124.612923-239.300923H641.969231V432.836923H429.686154V380.455385H358.006154v52.381538H145.723077v70.577231h59.549538c17.644308 98.500923 59.195077 178.294154 124.612923 239.300923-45.568 25.009231-106.968615 47.970462-184.162461 68.923077v76.091077c101.100308-22.055385 183.808-53.838769 248.123077-95.389539 64.315077 41.550769 147.022769 73.334154 248.123077 95.389539zM393.846154 699.707077a315.392 315.392 0 0 1-71.128616-84.086154c-18.747077-32.177231-32.531692-69.553231-41.353846-112.206769h224.964923c-8.822154 42.653538-22.606769 80.029538-41.353846 112.206769A315.392 315.392 0 0 1 393.846154 699.707077zM747.126154 393.846154l20.873846-77.981539h88.221538L877.095385 393.846154h69.316923L866.461538 118.153846h-108.307692l-79.950769 275.692308h68.923077z m96.492308-125.243077h-63.015385l31.113846-115.396923h0.787692l31.113847 115.396923z" p-id="10576"></path></svg>