<?xml version="1.0" standalone="no"?><!DOCTYPE svg PUBLIC "-//W3C//DTD SVG 1.1//EN" "http://www.w3.org/Graphics/SVG/1.1/DTD/svg11.dtd"><svg t="1714296435622" class="icon" viewBox="0 0 1024 1024" version="1.1" xmlns="http://www.w3.org/2000/svg" p-id="10432" xmlns:xlink="http://www.w3.org/1999/xlink" width="200" height="200"><path d="M364.89999999 121.7zM451 739.10000001L227.60000001 739.10000001l-61.4 189.09999999L98.3 928.2l204.60000001-599.10000002 74.49999999 1e-8 205.4 599.10000001-72 0L451 739.10000001z m-17.10000001-53.20000002l-31.09999999-97.39999998c-22.90000002-67.90000001-41.70000001-132.6-62.2-203.00000002l-3.30000001 0c-19.6 71.2-39.30000001 135.10000001-61.4 203.00000002l-31.09999999 97.39999998 189.10000002 0zM861.4 198.4c-19.70000001 56-47.10000001 101.30000001-82 138.40000001 39.70000001 32.30000001 87.90000001 56.4 145.10000001 70.5-7.8 7.4-17.8 21.90000001-23.40000002 31.89999999-59-16-108.4-42.30000001-148.39999998-77.2-41.2 34.90000002-91.70000001 60.90000001-151.80000002 79.4-4.10000001-8.90000001-14.50000001-24.9-21.49999999-33 59.7-16 108.4-39.00000001 147.70000001-71.2-36-38.2-63.50000001-84.6-84.20000002-138.8l-57.09999999 0L585.8 165l160.70000001 0c-4.50000001-15.2-14.8-38.6-24.90000001-56L758 98.2c10.8 17.4 22.6 41.2 27.50000001 56.4l-33.00000002 10.4L919 165l0 33.4-57.6 0z m-182.50000001 0c17.8 43.8 42.70000001 82 74.20000002 114.70000001 30.10000001-31.2 53.10000001-69 69.8-114.70000001l-144 0z" fill="#333303" p-id="10433"></path></svg>