<svg width="80" height="80" viewBox="0 0 80 80" fill="none" xmlns="http://www.w3.org/2000/svg">
<path d="M75.0156 58.7109H67.8125V51.4688H64.1875V58.7109H56.9844V62.3438H64.1875V69.5H67.8125V62.3438H75.0156V58.7109Z" fill="#879188"/>
<path d="M8.63281 55.7031L20.6016 58.2266L45.2188 40.6328L64.1875 46.3438V49.0234H67.8125V12.4766H5V67.2188H54.0312V63.5938H8.63281V55.7031ZM64.1875 16.1094V42.5547L44.5547 36.6484L19.7891 54.3516L8.63281 52V16.1094H64.1875Z" fill="#879188"/>
<path d="M24.0859 39.9062C29.2344 39.9062 33.4297 35.7109 33.4297 30.5625C33.4297 25.4141 29.2344 21.2188 24.0859 21.2188C18.9375 21.2188 14.7422 25.4141 14.7422 30.5625C14.7422 35.7109 18.9375 39.9062 24.0859 39.9062ZM24.0859 24.8437C27.2344 24.8437 29.7969 27.4063 29.7969 30.5547C29.7969 33.7031 27.2344 36.2734 24.0859 36.2734C20.9375 36.2734 18.375 33.7109 18.375 30.5547C18.375 27.3984 20.9375 24.8437 24.0859 24.8437Z" fill="#879188"/>
</svg>
