<svg width="20" height="20" viewBox="0 0 20 20" fill="none" xmlns="http://www.w3.org/2000/svg">
<path d="M15.6152 18.1113H3.05273C2.42188 18.1113 1.91016 17.5977 1.91016 16.9688V4.4082C1.91016 3.77734 2.42383 3.26562 3.05273 3.26562H13.1582C13.3809 3.26562 13.5625 3.44727 13.5625 3.66992C13.5625 3.89258 13.3809 4.07422 13.1582 4.07422H3.05273C2.86914 4.07422 2.71875 4.22461 2.71875 4.4082V16.9688C2.71875 17.1523 2.86914 17.3027 3.05273 17.3027H15.6133C15.7969 17.3027 15.9473 17.1523 15.9473 16.9688V7.33984C15.9473 7.11719 16.1289 6.93555 16.3516 6.93555C16.5742 6.93555 16.7559 7.11719 16.7559 7.33984V16.9688C16.7578 17.5996 16.2461 18.1113 15.6152 18.1113Z" fill="white"/>
<path d="M10.7812 9.64062C10.6777 9.64062 10.5742 9.60156 10.4961 9.52148C10.3379 9.36328 10.3379 9.10742 10.4961 8.94922L17.4355 2.00977C17.5938 1.85156 17.8496 1.85156 18.0078 2.00977C18.166 2.16797 18.166 2.42383 18.0078 2.58203L11.0664 9.52148C10.9863 9.60156 10.8828 9.64062 10.7812 9.64062Z" fill="white"/>
</svg>
