<svg width="17" height="16" viewBox="0 0 17 16" fill="none" xmlns="http://www.w3.org/2000/svg">
<g clip-path="url(#clip0_2434_24085)">
<path d="M14.5479 11.8128H14.5489V11.8066L14.5479 11.8128Z" fill="#86F097"/>
<path d="M14.5694 2.34073C11.449 -0.780243 6.37131 -0.780243 3.25088 2.34073C0.129913 5.46113 0.129913 10.5389 3.25088 13.6593C6.37131 16.7802 11.449 16.7802 14.5694 13.6593C17.6904 10.5388 17.6904 5.46113 14.5694 2.34073ZM13.7572 12.8476C11.0845 15.5202 6.73521 15.5196 4.06288 12.8476C1.38997 10.1744 1.38997 5.8259 4.06288 3.15273C6.73521 0.480381 11.0845 0.479792 13.7572 3.15273C16.4298 5.82505 16.4298 10.1749 13.7572 12.8476Z" fill="#86F097"/>
<path d="M6.30063 6.54035C6.80193 6.54035 7.20992 6.13238 7.20992 5.63078C7.20992 5.12857 6.80193 4.72 6.30063 4.72C5.79813 4.72 5.39014 5.12857 5.39014 5.63078C5.39014 6.13238 5.79813 6.54035 6.30063 6.54035Z" fill="#86F097"/>
<path d="M11.5387 6.5418C12.0406 6.5418 12.4491 6.13293 12.4491 5.63132C12.4491 5.12913 12.0406 4.72116 11.5387 4.72116C11.0373 4.72116 10.6294 5.12913 10.6294 5.63132C10.6294 6.13293 11.0373 6.5418 11.5387 6.5418Z" fill="#86F097"/>
<path d="M11.5701 9.59536L11.5204 9.61151C10.7051 9.98063 9.83047 10.1684 8.92302 10.1684C7.98561 10.1684 7.09905 9.9788 6.28729 9.60615L6.23823 9.59114C6.20772 9.58278 6.16645 9.57083 6.11499 9.57083C5.8165 9.57083 5.57422 9.81311 5.57422 10.1104C5.57422 10.2516 5.64062 10.3934 5.7501 10.4999L5.74351 10.5327L5.8817 10.5949C6.85081 11.0335 7.90485 11.2644 8.92958 11.2644C9.97347 11.2644 10.9964 11.0394 11.9835 10.5896C12.1569 10.4944 12.2652 10.312 12.2652 10.114C12.2652 9.76528 11.95 9.4787 11.5701 9.59536Z" fill="#86F097"/>
</g>
<defs>
<clipPath id="clip0_2434_24085">
<rect width="16" height="16" fill="white" transform="translate(0.910156)"/>
</clipPath>
</defs>
</svg>
