<svg width="13" height="12" viewBox="0 0 13 12" fill="none" xmlns="http://www.w3.org/2000/svg">
<path d="M8.47523 7.16245H3.22514C2.52894 7.16245 1.86125 7.43901 1.36896 7.9313C0.876664 8.42359 0.600098 9.09128 0.600098 9.78749C0.600098 10.1356 0.738381 10.4694 0.984526 10.7156C1.23067 10.9617 1.56452 11.1 1.91262 11.1H9.78775" stroke="#D6DFD7" stroke-width="0.8" stroke-linejoin="round"/>
<path d="M6.16898 4.53742C7.25631 4.53742 8.13776 3.65597 8.13776 2.56864C8.13776 1.48131 7.25631 0.599854 6.16898 0.599854C5.08165 0.599854 4.2002 1.48131 4.2002 2.56864C4.2002 3.65597 5.08165 4.53742 6.16898 4.53742Z" stroke="#D6DFD7" stroke-width="0.8"/>
<path d="M12.6459 7.31861C12.6128 7.28695 12.5734 7.26184 12.5301 7.2447C12.4868 7.22757 12.4404 7.21875 12.3936 7.21875C12.3467 7.21875 12.3003 7.22757 12.257 7.2447C12.2137 7.26184 12.1744 7.28695 12.1412 7.31861L9.86957 9.48845L8.85935 8.52417C8.79236 8.46023 8.70154 8.42434 8.60686 8.42438C8.51217 8.42442 8.42138 8.46039 8.35446 8.52438C8.28753 8.58837 8.24996 8.67514 8.25 8.7656C8.25004 8.85606 8.28769 8.94279 8.35468 9.00673L9.61657 10.2123C9.64965 10.244 9.68897 10.2693 9.73227 10.2864C9.77558 10.3036 9.82201 10.3125 9.86891 10.3125C9.9158 10.3125 9.96224 10.3036 10.0055 10.2864C10.0488 10.2693 10.0882 10.244 10.1212 10.2123L12.6455 7.80075C12.6786 7.7691 12.7049 7.73151 12.7228 7.69015C12.7408 7.64879 12.75 7.60445 12.75 7.55968C12.75 7.51491 12.7408 7.47058 12.7228 7.42921C12.7049 7.38785 12.6786 7.35027 12.6455 7.31861H12.6459Z" fill="white"/>
</svg>
