<svg width="18" height="18" viewBox="0 0 18 18" fill="none" xmlns="http://www.w3.org/2000/svg">
<mask id="path-1-inside-1_370_84456" fill="white">
<path fill-rule="evenodd" clip-rule="evenodd" d="M18 9C18 4.02955 13.9705 0 9 0C4.02955 0 0 4.02955 0 9C0 13.9705 4.02955 18 9 18C13.9705 18 18 13.9705 18 9ZM13.3623 6.43314C13.6015 6.09498 13.5213 5.62693 13.1831 5.38771C12.845 5.1485 12.3769 5.22871 12.1377 5.56686L7.89908 11.5586L5.42736 8.86765C5.14715 8.56259 4.67271 8.54244 4.36765 8.82264C4.06259 9.10285 4.04244 9.57729 4.32264 9.88235L7.42264 13.2573C7.57595 13.4243 7.79652 13.5129 8.02269 13.4985C8.24887 13.4841 8.4564 13.3682 8.58729 13.1831L13.3623 6.43314Z"/>
</mask>
<path d="M13.1831 5.38771L12.6056 6.2041L12.6056 6.2041L13.1831 5.38771ZM13.3623 6.43314L14.1787 7.01065L14.1787 7.01065L13.3623 6.43314ZM12.1377 5.56686L11.3213 4.98935L11.3213 4.98935L12.1377 5.56686ZM7.89908 11.5586L7.16261 12.2351L8.00031 13.1471L8.71546 12.1362L7.89908 11.5586ZM5.42736 8.86765L4.69088 9.54412L4.69088 9.54412L5.42736 8.86765ZM4.32264 9.88235L3.58617 10.5588L3.58617 10.5588L4.32264 9.88235ZM7.42264 13.2573L6.68617 13.9338L6.68617 13.9338L7.42264 13.2573ZM8.02269 13.4985L7.9591 12.5005L7.9591 12.5005L8.02269 13.4985ZM8.58729 13.1831L9.40367 13.7607L9.40367 13.7606L8.58729 13.1831ZM9 1C13.4182 1 17 4.58183 17 9H19C19 3.47726 14.5227 -1 9 -1V1ZM1 9C1 4.58183 4.58183 1 9 1V-1C3.47726 -1 -1 3.47726 -1 9H1ZM9 17C4.58183 17 1 13.4182 1 9H-1C-1 14.5227 3.47726 19 9 19V17ZM17 9C17 13.4182 13.4182 17 9 17V19C14.5227 19 19 14.5227 19 9H17ZM12.6056 6.2041C12.4929 6.12436 12.4662 5.96834 12.5459 5.85562L14.1787 7.01065C14.7368 6.22162 14.5497 5.1295 13.7606 4.57133L12.6056 6.2041ZM12.9541 6.14438C12.8744 6.2571 12.7183 6.28383 12.6056 6.2041L13.7606 4.57133C12.9716 4.01317 11.8795 4.20032 11.3213 4.98935L12.9541 6.14438ZM8.71546 12.1362L12.9541 6.14438L11.3213 4.98935L7.0827 10.9811L8.71546 12.1362ZM4.69088 9.54412L7.16261 12.2351L8.63556 10.8822L6.16383 8.19119L4.69088 9.54412ZM5.04412 9.55912C4.94243 9.65252 4.78428 9.6458 4.69088 9.54412L6.16383 8.19119C5.51003 7.47938 4.40299 7.43237 3.69119 8.08617L5.04412 9.55912ZM5.05912 9.20588C5.15252 9.30757 5.1458 9.46572 5.04412 9.55912L3.69119 8.08617C2.97938 8.73997 2.93237 9.84701 3.58617 10.5588L5.05912 9.20588ZM8.15912 12.5809L5.05912 9.20588L3.58617 10.5588L6.68617 13.9338L8.15912 12.5809ZM7.9591 12.5005C8.03449 12.4957 8.10801 12.5252 8.15912 12.5809L6.68617 13.9338C7.0439 14.3233 7.55854 14.5301 8.08629 14.4965L7.9591 12.5005ZM7.77091 12.6056C7.81453 12.5439 7.88371 12.5053 7.9591 12.5005L8.08629 14.4965C8.61403 14.4628 9.09827 14.1924 9.40367 13.7607L7.77091 12.6056ZM12.5459 5.85562L7.77091 12.6056L9.40367 13.7606L14.1787 7.01065L12.5459 5.85562Z" fill="white" fill-opacity="0.85" mask="url(#path-1-inside-1_370_84456)"/>
</svg>
