<svg width="17" height="16" viewBox="0 0 17 16" fill="none" xmlns="http://www.w3.org/2000/svg">
<g clip-path="url(#clip0_2434_24084)">
<path d="M14.3102 1.14285C14.6516 1.14285 14.9897 1.21066 15.3051 1.34239C15.6206 1.47413 15.9072 1.66722 16.1486 1.91064C16.3901 2.15406 16.5816 2.44304 16.7122 2.76108C16.8429 3.07912 16.9102 3.41999 16.9102 3.76424V12.2358C16.9102 12.58 16.8429 12.9209 16.7122 13.2389C16.5816 13.557 16.3901 13.8459 16.1486 14.0894C15.9072 14.3328 15.6206 14.5259 15.3051 14.6576C14.9897 14.7893 14.6516 14.8571 14.3102 14.8571H3.51016C2.82059 14.8571 2.15927 14.581 1.67168 14.0894C1.18408 13.5977 0.910156 12.931 0.910156 12.2358V3.76424C0.910156 3.069 1.18408 2.40224 1.67168 1.91064C2.15927 1.41903 2.82059 1.14285 3.51016 1.14285H14.3102ZM14.3102 2.35272H3.51016C3.13885 2.35272 2.78276 2.50144 2.52021 2.76615C2.25766 3.03086 2.11016 3.38988 2.11016 3.76424V12.2358C2.11016 13.0149 2.73736 13.6473 3.51016 13.6473H14.3102C14.6815 13.6473 15.0376 13.4986 15.3001 13.2338C15.5627 12.9691 15.7102 12.6101 15.7102 12.2358V3.76424C15.7102 3.38988 15.5627 3.03086 15.3001 2.76615C15.0376 2.50144 14.6815 2.35272 14.3102 2.35272ZM5.72216 5.475C6.19896 5.475 6.53736 5.54114 6.92376 5.72826C6.98296 5.75691 7.03598 5.79704 7.0798 5.84635C7.12362 5.89566 7.15737 5.9532 7.17914 6.01566C7.2009 6.07813 7.21025 6.1443 7.20665 6.21041C7.20305 6.27652 7.18657 6.34126 7.15816 6.40095C7.12974 6.46064 7.08994 6.5141 7.04103 6.55827C6.99212 6.60245 6.93506 6.63649 6.8731 6.65843C6.81115 6.68038 6.74551 6.6898 6.67994 6.68617C6.61437 6.68254 6.55016 6.66593 6.49096 6.63728C6.25096 6.52113 6.05896 6.48403 5.72216 6.48403C5.02856 6.48403 4.51896 7.12607 4.51896 7.99395C4.51896 8.86263 5.02936 9.50709 5.72216 9.50709C6.06456 9.50709 6.35496 9.36191 6.50616 9.10299L6.51016 9.0909V8.49887H6.20936C6.08965 8.49886 5.97391 8.45555 5.88319 8.3768C5.79246 8.29806 5.73277 8.18912 5.71496 8.06976L5.71016 7.99556C5.71016 7.74229 5.89496 7.53258 6.13656 7.49629L6.21016 7.49145H7.01176C7.26296 7.49145 7.47016 7.67696 7.50616 7.92055L7.51176 7.99556L7.51016 9.24334L7.50536 9.28851L7.48856 9.3611L7.47256 9.40546C7.17096 10.1233 6.47976 10.5153 5.72216 10.5153C4.42136 10.5153 3.51896 9.37562 3.51896 7.99395C3.51896 6.61227 4.42056 5.475 5.72216 5.475ZM9.41336 5.5734C9.66456 5.5734 9.87256 5.76053 9.90776 6.00331L9.91336 6.07751V9.91845C9.9133 10.0456 9.86559 10.168 9.77979 10.2612C9.69398 10.3544 9.57642 10.4114 9.45066 10.4209C9.3249 10.4304 9.20023 10.3916 9.10163 10.3124C9.00303 10.2331 8.93778 10.1192 8.91896 9.99346L8.91336 9.91845V6.07832C8.91336 5.80005 9.13736 5.57421 9.41336 5.57421M11.8102 5.57421L13.4078 5.57904C13.5345 5.57871 13.6566 5.62691 13.7494 5.71389C13.8423 5.80086 13.8989 5.92013 13.9078 6.04758C13.9167 6.17503 13.8774 6.30115 13.7976 6.40044C13.7178 6.49972 13.6037 6.56477 13.4782 6.58243L13.4046 6.58727L12.3078 6.58324V7.99798H13.2062C13.4574 7.99798 13.6654 8.18511 13.7006 8.42869L13.7062 8.5029C13.7061 8.62371 13.663 8.7405 13.5848 8.83198C13.5065 8.92347 13.3983 8.98358 13.2798 9.00136L13.2062 9.00701L12.3078 9.0062V9.90554C12.3079 10.0264 12.2651 10.1433 12.187 10.2349C12.1088 10.3265 12.0007 10.3868 11.8822 10.4048L11.8086 10.4097C11.6887 10.4098 11.5728 10.3666 11.4819 10.2879C11.391 10.2091 11.3312 10.1 11.3134 9.98055L11.3086 9.90554V6.0759C11.309 5.95524 11.3524 5.83875 11.4307 5.74758C11.5091 5.65641 11.6174 5.59661 11.7358 5.57904L11.8102 5.57421Z" fill="#86F097"/>
</g>
<defs>
<clipPath id="clip0_2434_24084">
<rect width="16" height="16" fill="white" transform="translate(0.910156)"/>
</clipPath>
</defs>
</svg>
