<svg width="17" height="16" viewBox="0 0 17 16" fill="none" xmlns="http://www.w3.org/2000/svg">
<path d="M2.81724 16C1.76527 16 0.910156 15.1449 0.910156 14.0929V1.90709C0.910156 0.855118 1.76527 0 2.81724 0H15.0031C16.055 0 16.9102 0.855118 16.9102 1.90709V14.0929C16.9102 15.1449 16.055 16 15.0031 16H2.81724ZM8.48181 11.2992L12.3102 15.2315H15.0031C15.6314 15.2315 16.1417 14.7213 16.1417 14.0929V9.97953L12.9716 6.80945L8.48181 11.2992ZM1.67866 13.5811V14.0929C1.67866 14.7213 2.1889 15.2315 2.81724 15.2315H11.2424L5.81724 9.86142L1.67866 13.5811ZM2.81724 0.768504C2.1889 0.768504 1.67866 1.27874 1.67866 1.90709V12.4945L5.85976 8.67874L7.94638 10.7654L12.9716 5.6378L16.1417 8.86142V1.90709C16.1417 1.27874 15.6314 0.768504 15.0031 0.768504H2.81724ZM4.84874 5.84567C3.79677 5.84567 2.94165 4.99055 2.94165 3.93858C2.94165 2.88661 3.79677 2.0315 4.84874 2.0315C5.90071 2.0315 6.75583 2.88661 6.75583 3.93858C6.75583 4.99055 5.89913 5.84567 4.84874 5.84567ZM4.84874 2.79843C4.22039 2.79843 3.71016 3.30866 3.71016 3.93701C3.71016 4.56535 4.22039 5.07559 4.84874 5.07559C5.47709 5.07559 5.98732 4.56535 5.98732 3.93701C5.98732 3.30866 5.47709 2.79843 4.84874 2.79843Z" fill="#86F097"/>
</svg>
