<svg width="16" height="16" viewBox="0 0 16 16" fill="none" xmlns="http://www.w3.org/2000/svg">
<g clip-path="url(#clip0_2316_13837)">
<path d="M8.28564 0.285675C12.3885 0.285675 15.7142 3.61139 15.7142 7.71425V8.28568C15.7142 12.3885 12.3885 15.7142 8.28564 15.7142H7.71422C3.61136 15.7142 0.285645 12.3885 0.285645 8.28568V7.71425C0.285645 3.61139 3.61136 0.285675 7.71422 0.285675H8.28564ZM7.99993 0.857104C4.05479 0.857104 0.857073 4.05482 0.857073 7.99996C0.857073 11.9451 4.05479 15.1428 7.99993 15.1428C11.9451 15.1428 15.1428 11.9451 15.1428 7.99996C15.1428 4.05482 11.9451 0.857104 7.99993 0.857104Z" fill="white"/>
<path d="M7.42871 3.33423H8.00014V7.90566H7.42871V3.33423Z" fill="white"/>
<path d="M11.4287 7.33423V7.90566H7.42871V7.33423H11.4287Z" fill="white"/>
</g>
<defs>
<clipPath id="clip0_2316_13837">
<rect width="16" height="16" fill="white"/>
</clipPath>
</defs>
</svg>
