<svg width="20" height="18" viewBox="0 0 20 18" fill="none" xmlns="http://www.w3.org/2000/svg">
<path d="M16.75 14.7211H6.832L3.26687 17V14.7211H3.25C2.95453 14.7211 2.66194 14.662 2.38896 14.5471C2.11598 14.4321 1.86794 14.2637 1.65901 14.0513C1.45008 13.839 1.28434 13.5869 1.17127 13.3094C1.0582 13.032 1 12.7346 1 12.4343V3.28686C1 2.68035 1.23705 2.09867 1.65901 1.66981C2.08097 1.24094 2.65326 1 3.25 1L16.75 1C17.3467 1 17.919 1.24094 18.341 1.66981C18.7629 2.09867 19 2.68035 19 3.28686V12.4343C19 12.7346 18.9418 13.032 18.8287 13.3094C18.7157 13.5869 18.5499 13.839 18.341 14.0513C18.1321 14.2637 17.884 14.4321 17.611 14.5471C17.3381 14.662 17.0455 14.7211 16.75 14.7211ZM13.375 12.4343V3.28686H11.125V7.55413L8.875 3.28686H6.625V12.4343H8.875V8.16701L11.125 12.4343H13.375Z" stroke="white" stroke-opacity="0.85"/>
</svg>
