<svg width="17" height="16" viewBox="0 0 17 16" fill="none" xmlns="http://www.w3.org/2000/svg">
<path d="M9.13297 1C11.064 1 12.6051 1.58491 13.7377 2.77359C14.7775 3.84906 15.2974 5.18868 15.2974 6.81132C15.2974 8.16981 14.8704 9.37736 14.0534 10.4717C13.2364 11.5094 12.3452 12.0377 11.3797 12.0377C10.5998 12.0377 10.1728 11.6226 10.0985 10.7925C9.46719 11.6415 8.68734 12.0755 7.75896 12.0755C6.97912 12.0755 6.34782 11.7925 5.86506 11.2642C5.3823 10.7358 5.14093 10.0566 5.14093 9.24528C5.14093 7.84906 5.54941 6.62264 6.40352 5.60377C7.2205 4.58491 8.16745 4.09434 9.28151 4.09434C10.1728 4.09434 10.7669 4.56604 11.064 5.50943L11.3425 4.45283H12.5494L11.2311 9.37736C11.0826 9.92453 11.0083 10.3019 11.0083 10.5283C11.0083 10.8302 11.1754 11 11.5282 11C12.1038 11 12.6794 10.6226 13.255 9.88679C13.9234 9.01887 14.2576 8 14.2576 6.83019C14.2576 5.49057 13.812 4.37736 12.9208 3.49057C11.9552 2.5283 10.6555 2.0566 9.0587 2.0566C7.35047 2.0566 5.93933 2.62264 4.82528 3.77358C3.72978 4.90566 3.19132 6.35849 3.19132 8.09434C3.19132 10 3.72978 11.4717 4.84384 12.5094C5.88363 13.4906 7.31334 14 9.13297 14C10.4327 14 11.5839 13.7547 12.5494 13.283C13.4035 12.8491 14.0905 12.2641 14.6104 11.5094H15.9102C15.2603 12.6415 14.3319 13.5094 13.1064 14.1132C11.9181 14.6981 10.5998 15 9.13297 15C6.90485 15 5.15949 14.3774 3.87833 13.1321C2.56002 11.8491 1.91016 10.1698 1.91016 8.0566C1.91016 6.07547 2.56002 4.43396 3.87833 3.11321C5.25233 1.69811 6.99769 1 9.13297 1ZM9.48575 5.28302C8.68734 5.28302 7.98177 5.66038 7.38761 6.45283C6.75631 7.24528 6.44066 8.18868 6.44066 9.30189C6.44066 9.81132 6.55207 10.2075 6.79345 10.5094C7.03482 10.8113 7.38761 10.9623 7.8518 10.9623C8.31599 10.9623 8.78018 10.7736 9.22581 10.3962C9.67143 10.0189 9.96851 9.56604 10.1171 9.07547L10.5255 7.5283C10.6369 7.03774 10.7112 6.73585 10.7112 6.62264C10.7112 6.28302 10.5998 5.98113 10.3956 5.73585C10.1542 5.43396 9.85711 5.28302 9.48575 5.28302Z" fill="#86F097"/>
</svg>
