<svg width="12" height="12" viewBox="0 0 12 12" fill="none" xmlns="http://www.w3.org/2000/svg">
<g clip-path="url(#clip0_2434_24219)">
<path d="M8.2968 0.455404C7.56867 0.153801 6.78812 -0.000962847 6 4.50696e-06C2.6862 4.50696e-06 0 2.6862 0 6C0 9.3138 2.6862 12 6 12C9.3138 12 12 9.3138 12 6C12 5.202 11.844 4.425 11.5446 3.7032C11.513 3.6314 11.4545 3.57483 11.3817 3.54561C11.3089 3.5164 11.2276 3.51687 11.1551 3.54693C11.0826 3.57698 11.0248 3.63422 10.994 3.70639C10.9633 3.77856 10.962 3.85991 10.9905 3.933C11.2618 4.5883 11.401 5.29075 11.4 6C11.4 8.9823 8.9823 11.4 6 11.4C3.0177 11.4 0.6 8.9823 0.6 6C0.6 3.0177 3.0177 0.600004 6 0.600004C6.7188 0.600004 7.4175 0.740404 8.067 1.0095C8.14009 1.038 8.22144 1.03673 8.29361 1.00596C8.36578 0.975198 8.42303 0.917386 8.45308 0.844919C8.48313 0.772452 8.4836 0.691095 8.45439 0.618285C8.42518 0.545474 8.36861 0.487004 8.2968 0.455404ZM3 6.6C3.15913 6.6 3.31174 6.53679 3.42426 6.42427C3.53679 6.31175 3.6 6.15913 3.6 6C3.6 5.84087 3.53679 5.68826 3.42426 5.57574C3.31174 5.46322 3.15913 5.4 3 5.4C2.84087 5.4 2.68826 5.46322 2.57574 5.57574C2.46321 5.68826 2.4 5.84087 2.4 6C2.4 6.15913 2.46321 6.31175 2.57574 6.42427C2.68826 6.53679 2.84087 6.6 3 6.6ZM6 6.6C6.15913 6.6 6.31174 6.53679 6.42426 6.42427C6.53679 6.31175 6.6 6.15913 6.6 6C6.6 5.84087 6.53679 5.68826 6.42426 5.57574C6.31174 5.46322 6.15913 5.4 6 5.4C5.84087 5.4 5.68826 5.46322 5.57574 5.57574C5.46321 5.68826 5.4 5.84087 5.4 6C5.4 6.15913 5.46321 6.31175 5.57574 6.42427C5.68826 6.53679 5.84087 6.6 6 6.6ZM9 6.6C9.15913 6.6 9.31174 6.53679 9.42426 6.42427C9.53679 6.31175 9.6 6.15913 9.6 6C9.6 5.84087 9.53679 5.68826 9.42426 5.57574C9.31174 5.46322 9.15913 5.4 9 5.4C8.84087 5.4 8.68826 5.46322 8.57574 5.57574C8.46321 5.68826 8.4 5.84087 8.4 6C8.4 6.15913 8.46321 6.31175 8.57574 6.42427C8.68826 6.53679 8.84087 6.6 9 6.6Z" fill="white"/>
</g>
<defs>
<clipPath id="clip0_2434_24219">
<rect width="12" height="12" fill="white"/>
</clipPath>
</defs>
</svg>
