<svg width="16" height="16" viewBox="0 0 16 16" fill="none" xmlns="http://www.w3.org/2000/svg">
<path d="M0.799805 13.05C0.799805 12.1217 1.16856 11.2315 1.82495 10.5751C2.48134 9.91868 3.37159 9.54993 4.29986 9.54993H11.3C12.2283 9.54993 13.1185 9.91868 13.7749 10.5751C14.4313 11.2315 14.8 12.1217 14.8 13.05C14.8 13.5141 14.6157 13.9592 14.2875 14.2874C13.9593 14.6156 13.5141 14.8 13.05 14.8H2.54983C2.0857 14.8 1.64057 14.6156 1.31238 14.2874C0.984182 13.9592 0.799805 13.5141 0.799805 13.05Z" stroke="#D6DFD7" stroke-width="0.8" stroke-linejoin="round"/>
<path d="M8.22514 6.04989C9.67491 6.04989 10.8502 4.87462 10.8502 3.42485C10.8502 1.97508 9.67491 0.799805 8.22514 0.799805C6.77537 0.799805 5.6001 1.97508 5.6001 3.42485C5.6001 4.87462 6.77537 6.04989 8.22514 6.04989Z" stroke="#D6DFD7" stroke-width="0.8"/>
</svg>
