<svg width="18" height="18" viewBox="0 0 18 18" fill="none" xmlns="http://www.w3.org/2000/svg">
<path d="M9 0.5C13.6943 0.5 17.5 4.30569 17.5 9C17.5 13.6943 13.6943 17.5 9 17.5C4.30569 17.5 0.5 13.6943 0.5 9C0.5 4.30569 4.30569 0.5 9 0.5Z" stroke="white" stroke-opacity="0.85"/>
<path d="M4.9506 11.6379C5.49551 13.2857 7.12205 14.3927 8.99978 14.3927V14.3936C10.8775 14.3936 12.5041 13.2857 13.049 11.6379L13.3067 10.8615L11.7521 10.3477L11.4961 11.1249C11.1778 12.0863 10.151 12.7572 8.99978 12.7572C7.8486 12.7572 6.82178 12.0863 6.50351 11.1249L6.24742 10.3477L4.69287 10.8607L4.9506 11.6379Z" fill="white" fill-opacity="0.85"/>
</svg>
