<svg width="21" height="20" viewBox="0 0 21 20" fill="none" xmlns="http://www.w3.org/2000/svg">
<path d="M19.6665 16.4975V10.7405C19.6665 10.6079 19.7192 10.4807 19.813 10.387C19.9067 10.2932 20.0339 10.2405 20.1665 10.2405C20.2991 10.2405 20.4263 10.2932 20.5201 10.387C20.6138 10.4807 20.6665 10.6079 20.6665 10.7405V16.4975C20.6665 18.432 19.099 20 17.1665 20H4.1665C3.70688 20 3.25175 19.9095 2.82711 19.7336C2.40247 19.5577 2.01664 19.2999 1.69163 18.9749C1.03525 18.3185 0.666505 17.4283 0.666505 16.5V3.5C0.666176 3.04049 0.756399 2.58542 0.932018 2.1608C1.10764 1.73617 1.36521 1.35032 1.69001 1.02528C2.01482 0.70024 2.40049 0.442392 2.82499 0.26647C3.24949 0.0905482 3.7045 0 4.164 0H8.11551C8.24812 0 8.37529 0.0526784 8.46906 0.146447C8.56283 0.240215 8.61551 0.367392 8.61551 0.5C8.61551 0.632608 8.56283 0.759785 8.46906 0.853553C8.37529 0.947322 8.24812 1 8.11551 1H4.164C2.7835 1 1.6665 2.1185 1.6665 3.5V16.5C1.6665 17.163 1.9299 17.7989 2.39874 18.2678C2.86758 18.7366 3.50346 19 4.1665 19H17.1665C17.8299 18.9996 18.4659 18.7357 18.9347 18.2664C19.4035 17.7971 19.6668 17.1609 19.6665 16.4975Z" fill="#D6DFD7"/>
<path d="M6.91649 15C6.91649 8.53637 11.8225 3.21852 18.1139 2.56706L14.7312 1.214C14.6125 1.16181 14.5187 1.06554 14.4697 0.945514C14.4206 0.825485 14.4201 0.691085 14.4682 0.570678C14.5163 0.45027 14.6094 0.353274 14.7277 0.30016C14.846 0.247045 14.9803 0.241967 15.1022 0.285997L20.0374 2.26006C20.0644 2.26658 20.0909 2.27537 20.1166 2.28636C20.1774 2.31236 20.2325 2.35016 20.2786 2.39758C20.3247 2.44499 20.3609 2.50108 20.3852 2.5626C20.4094 2.62411 20.4213 2.68983 20.42 2.75595C20.4187 2.82207 20.4042 2.88727 20.3776 2.94778C20.3509 3.00829 20.3125 3.06291 20.2646 3.10847L16.4631 6.80597C16.4162 6.85259 16.3605 6.88944 16.2992 6.9144C16.238 6.93935 16.1724 6.95191 16.1063 6.95134C16.0402 6.95077 15.9748 6.93709 15.914 6.9111C15.8532 6.8851 15.7981 6.84729 15.752 6.79988C15.706 6.75246 15.6697 6.69637 15.6455 6.63485C15.6212 6.57334 15.6094 6.50762 15.6107 6.4415C15.612 6.37539 15.6264 6.31018 15.653 6.24967C15.6797 6.18916 15.7181 6.13454 15.7661 6.08898L18.3805 3.54602C12.5145 4.06971 7.91649 8.99767 7.91649 15C7.91649 15.1326 7.86382 15.2598 7.77005 15.3536C7.67628 15.4473 7.5491 15.5 7.41649 15.5C7.28389 15.5 7.15671 15.4473 7.06294 15.3536C6.96917 15.2598 6.91649 15.1326 6.91649 15Z" fill="#D6DFD7"/>
</svg>
